<?xml version="1.0" encoding="UTF-8" standalone="no"?>
<svg
   xmlns:dc="http://purl.org/dc/elements/1.1/"
   xmlns:cc="http://creativecommons.org/ns#"
   xmlns:rdf="http://www.w3.org/1999/02/22-rdf-syntax-ns#"
   xmlns:svg="http://www.w3.org/2000/svg"
   xmlns="http://www.w3.org/2000/svg"
   xmlns:sodipodi="http://sodipodi.sourceforge.net/DTD/sodipodi-0.dtd"
   xmlns:inkscape="http://www.inkscape.org/namespaces/inkscape"
   width="297mm"
   height="210mm"
   viewBox="0 0 297 210"
   version="1.1"
   id="svg3340"
   sodipodi:docname="fundo1.svg"
   inkscape:version="0.92.4 (5da689c313, 2019-01-14)">
  <metadata
     id="metadata3344">
    <rdf:RDF>
      <cc:Work
         rdf:about="">
        <dc:format>image/svg+xml</dc:format>
        <dc:type
           rdf:resource="http://purl.org/dc/dcmitype/StillImage" />
      </cc:Work>
    </rdf:RDF>
  </metadata>
  <sodipodi:namedview
     pagecolor="#ffffff"
     bordercolor="#666666"
     borderopacity="1"
     objecttolerance="10"
     gridtolerance="10"
     guidetolerance="10"
     inkscape:pageopacity="0"
     inkscape:pageshadow="2"
     inkscape:window-width="1366"
     inkscape:window-height="706"
     id="namedview3342"
     showgrid="false"
     inkscape:zoom="0.42050406"
     inkscape:cx="803.81585"
     inkscape:cy="335.99787"
     inkscape:window-x="0"
     inkscape:window-y="32"
     inkscape:window-maximized="1"
     inkscape:current-layer="svg3340" />
  <defs
     id="defs3268">
    <filter
       id="a"
       color-interpolation-filters="sRGB">
      <feColorMatrix
         values="0.6612 0 0 0.0362972 0.1694 0 0.6612 0 0.0362972 0.1694 0 0 0.6612 0.0362972 0.1694 0 0 0 1 0"
         id="feColorMatrix3265" />
    </filter>
    <filter
       style="color-interpolation-filters:sRGB"
       id="a-3">
      <feColorMatrix
         values="0.6612 0 0 0.0362972 0.1694 0 0.6612 0 0.0362972 0.1694 0 0 0.6612 0.0362972 0.1694 0 0 0 1 0"
         id="feColorMatrix3265-6" />
    </filter>
  </defs>
  <g
     id="g3272"
     transform="matrix(0.2889,0,0,0.2889,73.614,83.083906)"
     style="opacity:0.50499998;fill:#89c5cc;fill-opacity:0.60299623;fill-rule:evenodd;filter:url(#a)">
    <path
       id="path3270"
       d="m 630.16,153.795 c 9.19,68.74 -213.675,113.577 -405.5,82.287 C 32.833,204.792 -55.167,82.598 36.37,17.489 c 91.535,-65.11 584.6,67.566 593.79,136.306 z"
       inkscape:connector-curvature="0"
       style="fill:#89c5cc;fill-opacity:0.60299623" />
  </g>
  <g
     id="g3300"
     transform="matrix(0.2889,0,0,0.2889,51.909166,37.568341)"
     style="opacity:0.5;fill:#0fb900;fill-opacity:1;fill-rule:evenodd;filter:url(#a)">
    <path
       id="path3288"
       d="m 178.223,111.445 c 4.202,-5.992 12,-21.21 17.915,-23.351 3.81,-1.38 2.7,12.886 2.746,15.606 0.183,10.524 -0.841,20.981 -2.106,31.416 -2.28,18.82 -9.733,35.581 -19.956,51.6 -5.26,8.241 -11.43,16.584 -19.977,21.726 -3.933,2.369 -8.666,2.765 -12.551,4.806 -4.525,2.375 -2.06,0.455 -4.1,5.17 -2.831,6.545 -3.737,14.99 -5.047,21.974 -6.015,32.063 -20.579,201.553 -18.054,234.166 0.224,2.89 -3.806,3.582 -4.008,0.053 -1.07,-18.712 8.185,-148.289 12.855,-190.664 4.669,-42.376 9.394,-79.813 14.131,-94.473 5.748,-17.787 16.128,-39.176 24.77,-55.763 4.013,-7.705 8.388,-15.146 13.382,-22.267 z"
       inkscape:connector-curvature="0"
       style="fill:#0fb900;fill-opacity:1" />
    <path
       id="path3290"
       d="m 209.414,319.278 c 10.935,-8.028 22.772,7.123 12.876,15.152 -5.47,4.438 -11.189,2.86 -14.408,-0.839 -2.09,2.548 -4.046,5.212 -5.926,7.461 a 370.684,370.684 0 0 0 -16.312,21.06 c -10.746,14.923 -19.955,30.689 -29.584,46.166 -9.502,15.276 -18.928,30.63 -27.54,46.293 -7.297,13.27 -17.022,28.881 -19.52,43.429 3.79,-30.854 18.172,-60.51 35.298,-87.71 16.987,-26.976 36.481,-56.437 62.783,-77.726 -2.677,-3.937 -2.751,-9.556 2.333,-13.286 z"
       inkscape:connector-curvature="0"
       style="fill:#0fb900;fill-opacity:1" />
    <path
       id="path3292"
       d="m 1.913,244.03 c 6.12,1.197 16.118,15.04 21.162,20.314 5.995,6.268 11.433,12.948 16.56,19.948 11.036,15.066 20.906,31.084 29.299,47.788 13.682,27.23 24.644,55.185 32.6,84.838 4.869,18.151 8.022,36.965 9.89,55.647 0.353,3.524 4.047,30.688 -1.276,31.42 -4.787,0.66 -3.308,-20.626 -3.54,-23.522 -2.61,-32.665 -10.43,-64.448 -21.31,-95.237 -2.369,-6.707 -4.57,-14.922 -8.36,-20.958 -2.729,-4.347 -0.02,-2.83 -4.815,-4.476 -4.118,-1.414 -8.81,-1.068 -13.027,-2.799 -9.16,-3.756 -16.495,-11.05 -22.925,-18.385 C 23.676,324.351 13.774,308.928 8.613,290.66 5.749,280.532 3.118,270.344 1.658,259.902 1.281,257.202 -2.028,243.26 1.913,244.031 Z"
       inkscape:connector-curvature="0"
       style="fill:#0fb900;fill-opacity:1" />
    <path
       id="path3294"
       d="m 26.061,13.716 c 23.05,39.974 41.992,83.885 54.222,128.36 7.41,26.947 12.593,54.599 17.742,82.05 7.972,42.506 15.513,85.008 17.658,128.269 2.158,43.511 6.425,93.697 -7.822,135.605 7.117,-42.548 0.341,-87.838 -0.859,-130.65 -0.573,-20.438 -2.234,-40.676 -4.414,-60.995 -2.115,-19.71 -5.57,-39.326 -8.787,-58.881 a 2533.02,2533.02 0 0 0 -4.89,-28.537 c -0.5,-2.836 -0.71,-11.25 -2.51,-13.187 -1.81,-1.95 -11.047,-2.745 -13.947,-4.176 -5.84,-2.881 -11.332,-6.974 -16.193,-11.3 -9.32,-8.29 -17.426,-19.123 -23.825,-29.802 C 17.63,125.764 11.712,95.61 12.01,66.994 12.067,61.438 21.002,1.61 17.414,0.786 17.63,0.533 17.834,0.272 18.027,0 20.744,4.549 23.41,9.128 26.06,13.716 Z"
       inkscape:connector-curvature="0"
       style="fill:#0fb900;fill-opacity:1" />
    <path
       id="path3296"
       d="m 274.846,157.887 c 0.356,-0.513 2.67,-4.08 1.505,-3.852 2.373,-0.465 -3.264,3.934 2.649,1.235 -2.808,2.652 -1.187,6.096 -1.15,9.665 0.061,5.795 -0.908,11.541 -2,17.211 -1.724,8.963 -4.293,17.677 -8.022,26.013 -8.127,18.167 -21.927,35.655 -38.31,47.013 -8.088,5.607 -16.014,7.517 -25.238,10.098 -5.827,1.631 -6.289,4.645 -9.382,10.299 -6.438,11.776 -12.762,23.51 -18.44,35.682 -6.781,14.537 -13.363,29.089 -19.572,43.88 -20.917,49.826 -37.94,101.447 -46.881,154.869 -0.22,-31.481 7.064,-63.905 16.25,-93.912 6.692,-21.862 15.403,-42.937 24.695,-63.799 2.251,-5.053 5.663,-11.554 6.62,-17.134 0.67,-3.91 -1.378,-7.67 -2.315,-11.788 -3.654,-16.037 -3.392,-34.004 -0.184,-50.127 3.538,-17.78 13.768,-26.031 31.074,-28.55 6.33,-0.92 14.374,-0.583 20.177,-3.282 6.323,-2.938 8.931,-12.598 12.527,-18.798 9.657,-16.657 21.13,-32.63 34.306,-46.665 3.648,-3.886 7.571,-7.472 11.733,-10.795 2.625,-2.097 8.17,-4.68 9.958,-7.263 z"
       inkscape:connector-curvature="0"
       style="fill:#0fb900;fill-opacity:1" />
    <path
       id="path3298"
       d="m 80.791,476 h 61.418 a 5,5 0 0 1 4.946,5.73 l -4.747,32.188 C 140.961,523.73 132.541,531 122.622,531 h -22.244 c -9.919,0 -18.339,-7.27 -19.786,-17.082 L 75.845,481.729 A 5,5 0 0 1 80.791,476 Z"
       inkscape:connector-curvature="0"
       style="fill:#0fb900;fill-opacity:1" />
  </g>
  <g
     id="g3306"
     transform="matrix(0.2889,0,0,0.2889,47.283188,164.37957)"
     style="fill:#16c213;fill-opacity:0.70588235;fill-rule:evenodd;filter:url(#a)">
    <path
       id="path3302"
       d="M 15.418,48.456 C 15.418,69.743 17.098,87 39.646,87 62.194,87 63.873,69.743 63.873,48.456"
       inkscape:connector-curvature="0"
       style="fill:#16c213;fill-opacity:0.70588235" />
    <path
       id="path3304"
       d="m 46.353,35.174 a 44.567,44.567 0 0 0 -2.214,4.366 c -0.023,-3.047 0.146,-6.116 0.606,-9.227 0.786,-5.33 1.987,-10.631 3.116,-15.925 0.811,-3.804 0.76,-10.636 3.838,-13.668 0.845,-0.655 1.048,0.63 1.048,1.188 0.01,0.118 -0.003,-2.276 -0.822,-1.86 -4.87,2.516 -6.449,10.426 -8.008,14.386 -2.275,5.78 -4.21,11.69 -5.008,17.704 a 39.656,39.656 0 0 0 -0.336,4.554 C 38.407,36.287 38.252,35.878 38.08,35.474 A 82.22,82.22 0 0 0 26.743,16.514 C 25.578,15.054 10.934,0.65 9.788,2.854 c 0.113,0.32 0.35,0.586 0.71,0.797 0.022,0.024 0.023,0.011 0.01,-0.025 0.86,1.39 3.306,3.535 4.067,4.753 1.917,3.063 3.407,6.314 4.921,9.503 3.199,6.74 6.166,13.547 9.043,20.368 a 201.43,201.43 0 0 0 2.08,4.744 C 23.277,32.404 13.483,22.791 0,17.287 c 4.605,2.343 7.624,6.75 10.734,10.125 3.75,4.07 7.701,8.032 11.459,12.098 4.432,4.797 9.648,9.848 13.91,15.156 4.13,8.67 8.143,17.349 10.62,26.462 -1.015,-3.148 -0.08,-7.5 -0.253,-10.804 -0.138,-2.63 -0.445,-5.24 -0.866,-7.844 0.52,1.175 0.97,2.35 1.172,3.444 -0.185,-1.834 -0.399,-3.656 -0.629,-5.469 0.59,-1.697 1.169,-3.28 1.56,-4.585 2.005,-6.691 4.392,-13.268 7.642,-19.677 3.008,-5.93 6.459,-11.783 10.218,-17.458 1.754,-2.646 3.532,-5.282 5.299,-7.923 1.156,-1.729 2.257,-4.496 3.867,-6.153 -10.407,9.515 -21.777,19.098 -28.38,30.515"
       inkscape:connector-curvature="0"
       style="fill:#16c213;fill-opacity:0.70588235" />
  </g>
  <path
     id="path3274"
     transform="matrix(-0.28850407,-0.01511986,-0.01511986,0.28850407,349.19698,21.099336)"
     d="m 582.663,177.553 c 5.037,-2.177 11.433,0.99 8.366,7.282 -3.286,6.737 -14.102,6.256 -20.2,5.8 0.612,0 2.911,-6.217 3.635,-7.136 2.135,-2.713 5.103,-4.605 8.2,-5.946 z m -63.035,120.583 c -1.294,0.994 -0.106,0.094 0,0 z m 66.13,-89.167 c 2.758,2.347 2.692,6.23 0.208,8.732 -2.958,2.978 -8.054,2.597 -11.847,2.093 -1.716,-0.228 -10.876,-1.447 -8.617,-2.838 a 7.46,7.46 0 0 0 -0.915,0.38 c -0.24,0.726 -0.49,1.45 -0.75,2.169 0.053,0.034 0.097,0.07 0.153,0.105 -0.061,-0.03 -0.104,-0.062 -0.157,-0.093 -2.596,7.193 -6.11,13.987 -10.574,20.282 1.575,-0.526 3.197,-0.902 4.828,-1.022 4.831,-0.356 14.731,3.903 9.028,10.012 -5.468,5.856 -13.137,-1.136 -18.932,-2.349 -6.08,7.612 -12.725,14.863 -19.656,21.846 0.394,0.146 0.733,0.426 0.913,0.845 2.697,-1.195 5.534,-2.958 7.991,-3.347 3.547,-0.56 10.764,-0.634 13.25,2.645 3.059,4.032 -0.6,6.985 -4.492,7.523 -5.643,0.781 -12.813,-2.331 -18.091,-4.457 -0.62,0.076 -1.282,-0.139 -1.658,-0.652 a 81.44,81.44 0 0 0 -0.347,-0.133 c -7.012,6.943 -14.266,13.631 -21.469,20.168 l 0.222,-10e-4 c 1.846,-1.077 3.811,-1.937 5.913,-2.332 4.861,-0.918 10.51,-0.628 14.223,3.05 3.699,3.661 4.757,9.782 0.539,13.455 -8.443,7.353 -19.353,-10.992 -23.367,-11.944 -7.317,6.568 -15.008,12.66 -22.809,18.616 a 13.29,13.29 0 0 1 2.645,-0.396 c 7.36,-0.317 24.077,9.561 14.627,17.923 -8.235,7.286 -16.522,-8.003 -22.562,-13.515 -7.347,5.547 -14.73,11.051 -21.927,16.795 3.803,-0.8 7.435,-0.756 11.392,0.67 4.094,1.476 10.643,4.97 7.719,10.449 -2.975,5.572 -10.9,2.55 -15.003,0.516 -2.239,-1.109 -6.655,-4.688 -10.613,-6.305 -11.516,9.785 -21.619,20.697 -29.519,33.762 -4.932,8.158 -8.81,16.946 -11.693,26.036 -1.84,5.802 -5.376,15.523 -5.173,23.211 -2.076,-15.476 4.095,-33.609 10.422,-47.013 5.818,-12.325 14.115,-22.978 23.677,-32.458 -1.91,-6.942 -20.49,-17.785 -8.743,-23.526 6.238,-3.034 12.155,2.853 13.172,8.813 0.698,4.096 -0.955,9.11 -2.633,12.96 a 185.157,185.157 0 0 1 9.309,-8.345 c 4.415,-3.703 8.926,-7.287 13.476,-10.821 -6.82,-7.114 -12.597,-26.731 -2.816,-29.377 14.443,-3.895 6.229,22.02 4.98,26.893 -0.282,0.002 -0.497,-0.095 -0.649,-0.285 0.057,0.455 0.124,0.942 0.21,1.434 8.706,-6.726 17.528,-13.305 26.087,-20.21 -0.708,-0.583 -1.77,-2.725 -2.632,-3.88 -1.946,-2.605 -3.796,-5.316 -5.096,-8.312 -2.052,-4.735 -3.878,-12.21 2.345,-14.606 6.768,-2.61 9.474,5.878 9.26,10.847 -0.148,3.436 -1.255,6.65 -1.918,9.99 -0.207,1.042 0.13,5.805 -1.193,3.694 0.028,0.755 0.01,1.299 -0.044,1.682 a 371.334,371.334 0 0 0 4.581,-3.779 1.787,1.787 0 0 1 -0.098,-0.577 c 0,-1.485 1.52,-1.977 2.542,-1.488 a 264.076,264.076 0 0 0 5.947,-5.23 819.158,819.158 0 0 0 12.536,-11.601 c -0.822,-0.784 -0.426,-1.79 -1.19,-2.617 -0.762,-0.825 -2.321,-1.34 -3.228,-2.117 -2.28,-1.955 -4.11,-4.725 -5.398,-7.424 -2.125,-4.459 -4.688,-13.714 2.292,-15.42 7.195,-1.763 10.332,7.181 10.5,12.68 0.034,1.065 -1.261,10.579 -2.05,14.017 7.743,-7.367 15.382,-15.03 22.35,-22.869 -1.982,-0.122 -7.39,-4.479 -8.469,-5.646 -2.63,-2.85 -6.725,-9.054 -1.698,-11.96 4.469,-2.577 9.583,1.763 11.224,5.806 0.27,0.666 1.024,6.771 0.966,9.49 2.888,-3.328 5.652,-6.683 8.237,-10.058 a 103.664,103.664 0 0 0 4.875,-6.921 c -0.328,-0.21 -0.627,-0.559 -0.905,-0.989 -7.144,-1.601 -15.745,-13.33 -7.073,-16.799 4.129,-1.649 8.299,2.42 10.109,5.669 0.37,0.664 0.857,3.933 1.256,6.512 4.453,-7.872 7.98,-16.268 10.783,-24.92 -0.619,-0.188 -1.125,-0.695 -1.152,-1.523 -3.395,-2.179 -6.072,-3.985 -8.314,-7.95 -1.392,-2.462 -3.84,-8.05 0.688,-9.139 5.894,-1.417 9.075,7.638 9.32,12.03 0.03,0.509 -0.05,1.983 -0.14,3.333 0.203,-0.017 0.407,-0.003 0.605,0.042 1.617,-5.363 2.97,-10.81 4.105,-16.278 -3.114,-1.186 -2.79,-17.85 -0.557,-20.108 4.992,-5.056 7.916,2.78 7.452,6.815 -0.547,4.76 -2.938,8.99 -5.717,12.709 -0.297,0.393 -0.218,0.378 -0.26,-0.195 -0.054,0.28 -0.159,0.482 -0.306,0.625 10e-4,2.52 0.126,5.106 -0.115,7.324 a 169.581,169.581 0 0 1 -3.175,18.947 92.098,92.098 0 0 1 -1.137,4.502 c 2.66,-2.036 6.193,-3.783 7.568,-4.315 3.568,-1.38 9.029,-2.786 12.353,0.043 z m -186.93,211.9 c 0.046,2.228 0.34,4.283 1,6 a 46.677,46.677 0 0 1 -1,-6 z"
     inkscape:connector-curvature="0"
     style="fill:#16c213;fill-opacity:0.70588235;fill-rule:evenodd;filter:url(#a)" />
  <g
     id="g3286"
     transform="matrix(0.2889,0,0,0.2889,197.99668,73.584221)"
     style="opacity:0.7;fill:#16c213;fill-opacity:0.70588235;fill-rule:evenodd;filter:url(#a)">
    <path
       id="path3278"
       d="m 27.822,115.77 c 13.652,-0.708 30.537,7.26 31.993,22.1 1.058,10.783 0.73,21.535 2.368,32.302 1.31,8.604 4.078,16.864 7.855,24.702 3.632,7.537 11.165,13.953 13.124,22.005 1.25,5.13 0.55,12.348 -1.172,17.366 -2.094,6.102 -0.981,5.62 3.192,10.74 8.177,10.033 15.54,20.322 20.748,32.305 7.5,17.26 12.418,37.435 9.634,56.328 -0.354,2.4 -0.774,11.01 -4.078,11.611 -3.69,0.673 -1.964,-4.251 -1.767,-5.842 1.255,-10.15 2.37,-19.02 0.856,-29.328 -5.843,-39.77 -34.374,-65.974 -52.952,-99.728 -1.021,-1.74 -3.177,-5.886 -4.676,-8.62 -2.367,-4.318 -4.746,-12.532 -7.95,-15.734 -6.034,-6.03 -0.486,6.094 0.69,8.408 1.486,2.928 3.121,6.04 4.645,8.605 6.97,11.892 14.75,24.872 21.948,37.13 C 41.147,247.214 19.22,209.785 10.866,185.178 3.982,164.905 -4.254,117.505 27.822,115.77"
       inkscape:connector-curvature="0"
       style="fill:#16c213;fill-opacity:0.70588235" />
    <path
       id="path3280"
       d="m 210.805,78.121 c -22.822,1.811 -37.474,16.87 -44.294,37.935 -3.676,11.351 -4.098,23.012 -6.14,34.678 -3.073,17.55 -9.685,30.85 -22.607,43.355 -4.002,3.872 -6.952,7.848 -9.048,12.102 -4.162,4.247 -7.785,9.053 -10.447,14.93 -3.4,7.503 -4.362,16.507 -0.437,23.988 1.056,2.012 3.689,6.049 6.418,7.883 -10.217,21.76 -15.835,45.592 -15.202,69.394 0.383,14.367 1.084,28.741 1.903,43.091 0.22,3.853 1.475,10.216 3.36,3.754 1.724,-5.91 -0.439,-15.19 -0.639,-21.364 -0.974,-30.081 -1.806,-57.432 10.576,-85.536 a 219.112,219.112 0 0 1 4.11,-8.766 c 0.084,-0.049 0.162,-0.108 0.24,-0.165 0.055,0.042 0.105,0.087 0.16,0.129 0.091,-0.164 0.217,-0.358 0.363,-0.575 0.411,-0.425 0.77,-0.96 1.112,-1.56 1.098,-1.521 2.341,-3.31 2.348,-4.289 0,-0.008 -0.004,-0.019 -0.004,-0.027 7.665,-12.513 16.445,-24.336 25.414,-35.929 -0.068,0.085 9.727,-13.252 8.213,-5.876 -0.73,3.554 -7.935,10.322 -10.845,14.087 -6.437,8.375 -13.996,18.988 -20.277,29.25 -0.845,0.486 -2.04,2.87 -2.903,4.647 -0.477,0.9 -0.922,1.807 -1.359,2.598 22.257,7.353 39.57,-7.459 51.376,-24.687 l 0.04,-0.062 c 3.593,-4.76 7.273,-9.487 11.871,-13.25 7.67,-6.28 15.885,-7.388 24.93,-10.478 24.663,-8.427 35.15,-40.39 38.48,-64.108 3.757,-26.757 -14.623,-67.787 -46.711,-65.149"
       inkscape:connector-curvature="0"
       style="fill:#16c213;fill-opacity:0.70588235" />
    <path
       id="path3282"
       d="m 165.723,3.19 c -23.424,24.38 -34.74,58.193 -43.701,89.982 -10.008,35.504 -16.619,71.556 -16.873,108.47 -0.166,24.253 -0.826,48.657 0.59,72.881 0.502,8.603 1.36,17.222 2.723,25.732 0.113,0.7 3.164,19.703 6.083,15.275 1.66,-2.518 -3.128,-19.713 -3.49,-22.577 -2.034,-16.13 -2.507,-32.38 -2.408,-48.627 0.163,-26.75 -0.626,-53.364 2.086,-80.016 0.404,-3.98 0.724,-8.16 1.67,-12.052 1.003,-4.139 -0.276,-2.332 2.993,-3.97 3.177,-1.594 7.102,-1.366 10.398,-3.364 13.072,-7.927 19.76,-28.289 24.964,-41.649 5.953,-15.277 9.571,-31.569 12.46,-47.647 2.123,-11.812 3.64,-23.553 4.498,-35.518 0.27,-3.77 0.287,-7.714 1.028,-11.422 0.2,-1 1.201,-2.77 1.165,-3.655 -0.077,-1.875 -1.208,-2.977 -1.301,-4.552 a 92.814,92.814 0 0 0 -2.885,2.71 M 38,328 c 0,40.317 32.683,73 73,73 40.317,0 73,-32.683 73,-73"
       inkscape:connector-curvature="0"
       style="fill:#16c213;fill-opacity:0.70588235" />
    <path
       id="path3284"
       d="M 116.857,328.232 H 113 c 0.268,-4.84 0.621,-9.67 1.43,-14.456 3.095,-18.303 12.77,-45.185 33.99,-48.156 0.783,-0.11 3.663,-0.129 7.151,0.076 a 12.894,12.894 0 0 1 5.457,-1.611 c 18.067,-1.332 38.243,13.243 46.958,28.412 7.026,12.23 5.842,28.288 1.503,41.28 -2.906,8.7 -9.248,21.101 -19.824,21.222 -13.232,0.151 -13.87,-16.203 -14.126,-25.763 -0.34,-12.71 -1.946,-23.783 -11.962,-32.447 -2.334,-2.018 -4.885,-3.794 -7.243,-5.784 -3.692,-3.115 -7.772,-6.305 -8.248,-11.459 -0.656,-7.11 3.357,-8.39 9.485,-7.069 1.045,0.225 11.568,4.947 10.01,1.215 -0.476,-1.14 -2.213,-2.044 -4.406,-2.72 -5.674,-0.618 -12.442,-1.334 -14.388,-0.906 -20.995,4.606 -29.17,33.689 -31.34,52.167 a 173.873,173.873 0 0 0 -0.59,6 z"
       inkscape:connector-curvature="0"
       style="fill:#16c213;fill-opacity:0.70588235" />
  </g>
  <g
     id="g3310"
     transform="matrix(0.2889,0,0,0.2889,190.41368,12.737221)"
     style="fill:#16c213;fill-opacity:0.46816484;fill-rule:evenodd;filter:url(#a)">
    <path
       id="path3308"
       d="m 214.633,123.827 c -2.983,-9.95 -9.987,-17.74 -17.259,-24.876 -14.154,-13.893 -21.767,-22.483 -26.812,-42.805 -2.967,-11.953 -5.987,-24.618 -15.397,-33.29 -6.852,-6.315 -18.644,-11.62 -27.808,-7.098 -14.096,8.414 -17.882,25.68 -16.46,41.142 1.762,19.164 10.713,30.98 27.91,38.038 9.69,3.975 16.13,9.22 21.39,18.36 4.208,7.31 6.661,16.461 11.948,23.086 7.905,9.905 17.796,14.307 29.989,12.662 -11.42,-21.011 -24.763,-42.22 -40.856,-59.91 -1.507,-1.78 -10.392,-8.587 -8.6,-11.618 1.974,-3.337 11.096,9.2 11.031,9.124 4.677,5.368 9.005,11.073 13.254,16.833 -0.01,0.005 -0.023,0.008 -0.035,0.014 a 860.98,860.98 0 0 1 12.974,17.98 189.879,189.879 0 0 1 5.003,7.837 c 2.354,3.913 6.091,15.019 9.944,17.425 0.824,0.514 1.587,0.802 2.3,0.92 2.628,4.305 5.186,8.644 7.619,13.034 6.353,11.466 11.806,23.572 14.308,36.517 0.73,3.779 0.214,17.912 2.793,20.64 4.715,4.989 3.334,-4.619 3.052,-7.519 -2.342,-24.013 -10.963,-44.471 -23.48,-64.66 3.845,-5.022 4.4,-17.804 3.192,-21.836 M 53.13,135.43 c 4.972,-5.857 16.922,-6.851 24.23,-6.459 9.044,0.485 18.334,2.687 26.938,5.349 14.173,4.384 27.946,12.386 40.429,20.13 1.504,0.934 20.037,12.08 18.397,14.035 -1.626,1.938 -19.82,-11.3 -23.874,-13.583 -8.653,-4.87 -16.588,-10.63 -26.126,-13.847 -9.875,-3.33 -20.32,-4.65 -30.704,-4.559 -1.333,0.012 -5.68,-0.917 -5.774,1.055 -0.092,1.928 7.101,0.922 8.37,0.934 5.24,0.048 10.51,0.54 15.675,1.449 9.677,1.7 18.774,5.127 27.062,10.383 -2.313,5.377 -7.856,7.856 -13.672,6.51 -5.026,-1.163 -9.925,-4.032 -14.847,-4.861 -3.39,-0.571 -6.783,-0.231 -10.07,0.724 -8.67,2.52 -13.67,7.681 -23.203,4.09 -7.472,-2.814 -19.97,-12.927 -12.83,-21.35 M 58.753,80 h 2.352 C 60.94,77.015 60.725,74.036 60.221,71.084 58.331,60.022 52.419,43.774 39.455,41.979 38.977,41.912 37.217,41.901 35.086,42.025 A 7.94,7.94 0 0 0 31.753,41.051 C 20.714,40.246 8.388,49.056 3.063,58.223 -1.229,65.615 -0.506,75.321 2.145,83.173 3.921,88.431 7.795,95.926 14.257,96 c 8.084,0.092 8.473,-9.792 8.63,-15.57 0.208,-7.683 1.189,-14.375 7.308,-19.611 1.426,-1.22 2.985,-2.293 4.425,-3.496 2.256,-1.883 4.749,-3.811 5.04,-6.926 0.4,-4.297 -2.052,-5.07 -5.796,-4.272 -0.638,0.135 -7.067,2.99 -6.115,0.734 0.29,-0.69 1.352,-1.235 2.692,-1.645 3.466,-0.373 7.6,-0.805 8.79,-0.547 12.827,2.784 17.821,20.362 19.147,31.53 0.15,1.264 0.27,2.533 0.375,3.804 z"
       inkscape:connector-curvature="0"
       style="fill:#16c213;fill-opacity:0.46816484" />
  </g>
  <g
     id="g868"
     transform="translate(-9.5250003,-2.6458334)">
    <g
       style="fill:none;fill-rule:evenodd"
       id="g3316">
      <path
         style="fill:#b28b67"
         inkscape:connector-curvature="0"
         d="m 157.598,73.447 c -2.115,-2.482 -3.547,-5.525 -3.307,-8.933 0.689,-9.822 14.361,-7.662 17.02,-2.704 2.66,4.957 2.344,17.531 -1.093,18.417 -1.37,0.354 -4.29,-0.512 -7.263,-2.303 l 1.866,13.198 h -11.015 z"
         id="path3312" />
      <path
         style="fill:#191847"
         inkscape:connector-curvature="0"
         d="m 149.488,61.244 c -0.355,-0.353 -0.55,-0.856 -0.717,-1.334 a 13.489,13.489 0 0 1 -0.46,-1.514 c -0.231,-1.032 -0.233,-2.22 0.503,-3.021 0.59,-0.643 1.477,-0.931 2.295,-0.994 a 4.217,4.217 0 0 1 1.627,0.206 c 0.518,0.17 0.965,0.51 1.467,0.72 0.02,-1.112 0.21,-2.276 0.774,-3.226 0.543,-0.913 1.41,-1.426 2.395,-1.562 1.012,-0.14 2.012,0.098 2.918,0.588 0.227,0.122 0.451,0.25 0.666,0.396 0.18,0.122 0.368,0.269 0.58,0.318 0.235,0.056 0.351,-0.08 0.504,-0.252 a 3.84,3.84 0 0 1 0.596,-0.536 c 0.946,-0.696 2.188,-0.982 3.284,-0.565 0.505,0.192 0.997,0.518 1.34,0.968 0.305,0.4 0.523,1.036 0.944,1.315 0.18,0.119 0.305,-0.038 0.468,-0.154 0.245,-0.175 0.478,-0.367 0.726,-0.537 a 3.324,3.324 0 0 1 1.128,-0.51 c 0.59,-0.136 1.406,-0.104 1.575,0.67 0.063,0.29 0.015,0.6 -0.006,0.893 -0.028,0.402 -0.057,0.803 -0.092,1.205 a 8.7,8.7 0 0 1 -0.118,0.898 c -0.03,0.16 -0.126,0.457 -0.058,0.616 0.086,0.2 0.48,0.086 0.648,0.093 0.333,0.014 0.668,0.072 0.975,0.215 0.239,0.11 0.49,0.272 0.59,0.545 0.062,0.168 0.046,0.34 0.017,0.514 -0.035,0.207 0.005,0.317 0.03,0.526 0.448,-0.22 1.997,-0.709 2.192,0.092 0.065,0.267 -0.083,0.568 -0.196,0.793 -0.198,0.395 -0.457,0.755 -0.722,1.1 a 9.827,9.827 0 0 1 -1.923,1.865 1.26,1.26 0 0 1 0.329,2.11 c -0.318,0.288 -0.746,0.352 -1.147,0.333 -0.147,-0.006 -0.358,-0.063 -0.474,-0.037 -0.062,0.014 -0.129,0.066 -0.215,0.072 -0.566,0.039 -1.205,-0.097 -1.759,-0.223 a 5.8,5.8 0 0 1 -2.682,-1.403 c -0.196,-0.182 -0.357,-0.287 -0.62,-0.285 -0.231,0.003 -0.457,0.066 -0.688,0.072 -0.61,0.015 -1.16,-0.283 -1.726,-0.481 a 6.512,6.512 0 0 1 -0.565,2.295 c -0.256,0.562 -0.788,0.643 -1.312,0.693 -1.675,0.157 -3.355,-0.019 -5.032,-0.016 1.623,0.366 3.3,0.518 4.91,0.95 0.726,0.194 0.171,0.685 -0.14,1.024 -0.512,0.56 -0.893,1.253 -1.157,1.983 -0.794,-1.035 -2.197,-1.717 -3.44,-1.399 -1.374,0.351 -2.341,2.21 -1.463,3.545 0.51,0.775 1.431,1.074 2.197,1.408 -0.597,0.621 -0.742,1.54 -1.102,2.312 -0.177,0.382 -0.426,0.813 -0.823,0.946 -0.147,0.049 -0.32,0.053 -0.435,0.173 -0.144,0.148 -0.178,0.314 -0.361,0.441 -0.731,0.509 -1.874,0.47 -2.522,-0.194 -0.586,-0.6 -0.433,-1.55 0.056,-2.158 -0.779,-0.325 -2.199,-0.742 -1.889,-1.956 -1.688,-0.113 -5.788,-2.85 -3.522,-4.852 -1.244,-0.703 -2.386,-2.42 -1.587,-3.935 0.615,-1.166 2.046,-1.687 3.22,-1.749"
         id="path3314" />
    </g>
    <path
       style="fill:#997659;fill-rule:evenodd"
       inkscape:connector-curvature="0"
       d="M 184.67,188.112 169.922,120.93 h -13.091 l 14.383,36.405 9.647,30.777 z"
       id="path3318" />
    <path
       style="fill:#b28b67;fill-rule:evenodd"
       inkscape:connector-curvature="0"
       d="m 153.934,120.93 c -0.153,12.793 -2.386,30.016 -2.743,30.814 -0.238,0.531 -8.451,7.292 -24.64,20.281 l 2.624,2.808 c 19.1,-11.137 29.093,-17.448 29.977,-18.933 1.326,-2.228 5.642,-22.731 9.108,-34.97 z"
       id="path3320" />
    <path
       style="fill:#809ca3;fill-rule:evenodd"
       inkscape:connector-curvature="0"
       d="m 126.2,171.088 c -0.88,0.312 -1.488,0.607 -1.82,0.886 -0.405,0.34 -0.94,0.903 -1.603,1.69 l 10.625,12.661 c 1.363,-0.583 1.791,-1.266 1.283,-2.048 a 91.539,91.539 0 0 1 -1.247,-1.964 l -2.315,-8.086 a 0.293,0.293 0 0 0 -0.37,-0.199 l -1.235,0.392 c -0.857,-0.4 -1.458,-0.804 -1.802,-1.215 -0.28,-0.333 -0.531,-0.906 -0.755,-1.72 a 0.586,0.586 0 0 0 -0.76,-0.397 z m 53.101,15.602 c -0.328,0.876 -0.492,1.531 -0.492,1.965 0,0.529 0.089,1.3 0.265,2.314 h 16.528 c 0.43,-1.42 0.182,-2.187 -0.744,-2.3 a 91.539,91.539 0 0 1 -2.306,-0.307 l -7.682,-3.424 a 0.293,0.293 0 0 0 -0.39,0.156 l -0.494,1.197 c -0.857,0.4 -1.553,0.6 -2.089,0.6 -0.435,0 -1.036,-0.176 -1.803,-0.527 a 0.586,0.586 0 0 0 -0.793,0.327 z"
       id="path3322" />
    <path
       style="fill:#69a1ac;fill-rule:evenodd"
       inkscape:connector-curvature="0"
       d="M 166.501,184.942 184.613,182.976 171.19,120.93 H 154.968 Z"
       id="path3324" />
    <path
       style="fill:#89c5cc;fill-rule:evenodd"
       inkscape:connector-curvature="0"
       d="m 130.298,167.496 11.88,14.062 c 12.513,-13.667 19.809,-22.584 21.886,-26.753 2.077,-4.168 3.945,-15.46 5.602,-33.875 h -18.263 c -0.905,16.2 -1.516,24.678 -1.831,25.432 -0.315,0.754 -6.74,7.799 -19.274,21.134 z"
       id="path3326" />
    <g
       style="fill:none;fill-rule:evenodd"
       id="g3336">
      <path
         style="fill:#b28b67"
         inkscape:connector-curvature="0"
         d="m 183.217,109.95 12.048,-6.19 c 2.11,-2.461 4.148,-4.332 6.113,-5.612 0.588,-0.219 1.592,-0.285 0.52,1.546 -1.07,1.831 -2.127,3.813 -1.699,4.455 0.428,0.642 1.668,-0.067 2.158,0.977 0.327,0.696 -1.763,1.528 -6.27,2.496 l -9.023,8.095 z m -48.706,1.706 6.813,1.582 c -6.851,14.942 -10.526,22.861 -11.023,23.758 -1.119,2.017 -0.075,5.714 0.31,7.66 -2.418,0.66 -1.464,-3.6 -4.525,-2.71 -2.794,0.811 -5.163,2.895 -7.768,0.085 -0.32,-0.346 -0.555,-1.426 0.537,-1.98 2.72,-1.38 6.74,-3.963 7.392,-4.966 0.889,-1.368 3.644,-9.178 8.264,-23.43 z"
         id="path3328" />
      <path
         style="fill:#db2721"
         inkscape:connector-curvature="0"
         d="m 159.842,81.827 2.875,-0.577 c 6.262,7.108 8.818,24.186 12.99,26.446 3.946,2.137 9.54,0.07 16.188,-2.723 l 2.036,5.323 c -6.04,7.647 -18.91,14.108 -24.126,10.42 -8.34,-5.897 -10.265,-26.96 -9.963,-38.89 z"
         id="path3330" />
      <path
         style="fill:#dde3e9"
         inkscape:connector-curvature="0"
         d="m 147.31,124.106 h 25.438 c 1.162,0 0.943,-1.964 0.775,-2.955 -1.94,-11.439 -9.51,-23.77 -9.51,-40.052 l -7.337,-1.347 c -6.07,11.423 -8.168,25.486 -9.367,44.354 z"
         id="path3332" />
      <path
         style="fill:#ff4133"
         inkscape:connector-curvature="0"
         d="m 144.772,112.525 c -5.186,10.946 -9.545,18.827 -13.077,23.642 l -5.332,-1.222 c 3.434,-24.927 13.381,-43.324 29.84,-55.193 h 2.904 c 6.587,26.277 8.403,43.785 5.448,52.524 h -22.9 c 0.363,-6.395 1.525,-13.157 3.116,-19.751 z"
         id="path3334" />
    </g>
  </g>
  <path
     id="path3274-7"
     transform="matrix(0.21563327,-0.01130087,0.01130087,0.21563327,-17.096751,-9.2765903)"
     d="m 582.663,177.553 c 5.037,-2.177 11.433,0.99 8.366,7.282 -3.286,6.737 -14.102,6.256 -20.2,5.8 0.612,0 2.911,-6.217 3.635,-7.136 2.135,-2.713 5.103,-4.605 8.2,-5.946 z m -63.035,120.583 c -1.294,0.994 -0.106,0.094 0,0 z m 66.13,-89.167 c 2.758,2.347 2.692,6.23 0.208,8.732 -2.958,2.978 -8.054,2.597 -11.847,2.093 -1.716,-0.228 -10.876,-1.447 -8.617,-2.838 a 7.46,7.46 0 0 0 -0.915,0.38 c -0.24,0.726 -0.49,1.45 -0.75,2.169 0.053,0.034 0.097,0.07 0.153,0.105 -0.061,-0.03 -0.104,-0.062 -0.157,-0.093 -2.596,7.193 -6.11,13.987 -10.574,20.282 1.575,-0.526 3.197,-0.902 4.828,-1.022 4.831,-0.356 14.731,3.903 9.028,10.012 -5.468,5.856 -13.137,-1.136 -18.932,-2.349 -6.08,7.612 -12.725,14.863 -19.656,21.846 0.394,0.146 0.733,0.426 0.913,0.845 2.697,-1.195 5.534,-2.958 7.991,-3.347 3.547,-0.56 10.764,-0.634 13.25,2.645 3.059,4.032 -0.6,6.985 -4.492,7.523 -5.643,0.781 -12.813,-2.331 -18.091,-4.457 -0.62,0.076 -1.282,-0.139 -1.658,-0.652 a 81.44,81.44 0 0 0 -0.347,-0.133 c -7.012,6.943 -14.266,13.631 -21.469,20.168 l 0.222,-10e-4 c 1.846,-1.077 3.811,-1.937 5.913,-2.332 4.861,-0.918 10.51,-0.628 14.223,3.05 3.699,3.661 4.757,9.782 0.539,13.455 -8.443,7.353 -19.353,-10.992 -23.367,-11.944 -7.317,6.568 -15.008,12.66 -22.809,18.616 a 13.29,13.29 0 0 1 2.645,-0.396 c 7.36,-0.317 24.077,9.561 14.627,17.923 -8.235,7.286 -16.522,-8.003 -22.562,-13.515 -7.347,5.547 -14.73,11.051 -21.927,16.795 3.803,-0.8 7.435,-0.756 11.392,0.67 4.094,1.476 10.643,4.97 7.719,10.449 -2.975,5.572 -10.9,2.55 -15.003,0.516 -2.239,-1.109 -6.655,-4.688 -10.613,-6.305 -11.516,9.785 -21.619,20.697 -29.519,33.762 -4.932,8.158 -8.81,16.946 -11.693,26.036 -1.84,5.802 -5.376,15.523 -5.173,23.211 -2.076,-15.476 4.095,-33.609 10.422,-47.013 5.818,-12.325 14.115,-22.978 23.677,-32.458 -1.91,-6.942 -20.49,-17.785 -8.743,-23.526 6.238,-3.034 12.155,2.853 13.172,8.813 0.698,4.096 -0.955,9.11 -2.633,12.96 a 185.157,185.157 0 0 1 9.309,-8.345 c 4.415,-3.703 8.926,-7.287 13.476,-10.821 -6.82,-7.114 -12.597,-26.731 -2.816,-29.377 14.443,-3.895 6.229,22.02 4.98,26.893 -0.282,0.002 -0.497,-0.095 -0.649,-0.285 0.057,0.455 0.124,0.942 0.21,1.434 8.706,-6.726 17.528,-13.305 26.087,-20.21 -0.708,-0.583 -1.77,-2.725 -2.632,-3.88 -1.946,-2.605 -3.796,-5.316 -5.096,-8.312 -2.052,-4.735 -3.878,-12.21 2.345,-14.606 6.768,-2.61 9.474,5.878 9.26,10.847 -0.148,3.436 -1.255,6.65 -1.918,9.99 -0.207,1.042 0.13,5.805 -1.193,3.694 0.028,0.755 0.01,1.299 -0.044,1.682 a 371.334,371.334 0 0 0 4.581,-3.779 1.787,1.787 0 0 1 -0.098,-0.577 c 0,-1.485 1.52,-1.977 2.542,-1.488 a 264.076,264.076 0 0 0 5.947,-5.23 819.158,819.158 0 0 0 12.536,-11.601 c -0.822,-0.784 -0.426,-1.79 -1.19,-2.617 -0.762,-0.825 -2.321,-1.34 -3.228,-2.117 -2.28,-1.955 -4.11,-4.725 -5.398,-7.424 -2.125,-4.459 -4.688,-13.714 2.292,-15.42 7.195,-1.763 10.332,7.181 10.5,12.68 0.034,1.065 -1.261,10.579 -2.05,14.017 7.743,-7.367 15.382,-15.03 22.35,-22.869 -1.982,-0.122 -7.39,-4.479 -8.469,-5.646 -2.63,-2.85 -6.725,-9.054 -1.698,-11.96 4.469,-2.577 9.583,1.763 11.224,5.806 0.27,0.666 1.024,6.771 0.966,9.49 2.888,-3.328 5.652,-6.683 8.237,-10.058 a 103.664,103.664 0 0 0 4.875,-6.921 c -0.328,-0.21 -0.627,-0.559 -0.905,-0.989 -7.144,-1.601 -15.745,-13.33 -7.073,-16.799 4.129,-1.649 8.299,2.42 10.109,5.669 0.37,0.664 0.857,3.933 1.256,6.512 4.453,-7.872 7.98,-16.268 10.783,-24.92 -0.619,-0.188 -1.125,-0.695 -1.152,-1.523 -3.395,-2.179 -6.072,-3.985 -8.314,-7.95 -1.392,-2.462 -3.84,-8.05 0.688,-9.139 5.894,-1.417 9.075,7.638 9.32,12.03 0.03,0.509 -0.05,1.983 -0.14,3.333 0.203,-0.017 0.407,-0.003 0.605,0.042 1.617,-5.363 2.97,-10.81 4.105,-16.278 -3.114,-1.186 -2.79,-17.85 -0.557,-20.108 4.992,-5.056 7.916,2.78 7.452,6.815 -0.547,4.76 -2.938,8.99 -5.717,12.709 -0.297,0.393 -0.218,0.378 -0.26,-0.195 -0.054,0.28 -0.159,0.482 -0.306,0.625 10e-4,2.52 0.126,5.106 -0.115,7.324 a 169.581,169.581 0 0 1 -3.175,18.947 92.098,92.098 0 0 1 -1.137,4.502 c 2.66,-2.036 6.193,-3.783 7.568,-4.315 3.568,-1.38 9.029,-2.786 12.353,0.043 z m -186.93,211.9 c 0.046,2.228 0.34,4.283 1,6 a 46.677,46.677 0 0 1 -1,-6 z"
     inkscape:connector-curvature="0"
     style="fill:#16c213;fill-opacity:0.71910113;fill-rule:evenodd;filter:url(#a-3)" />
</svg>
