<?xml version="1.0" encoding="UTF-8" standalone="no"?>
<!-- Created with Inkscape (http://www.inkscape.org/) -->

<svg
   xmlns:dc="http://purl.org/dc/elements/1.1/"
   xmlns:cc="http://creativecommons.org/ns#"
   xmlns:rdf="http://www.w3.org/1999/02/22-rdf-syntax-ns#"
   xmlns:svg="http://www.w3.org/2000/svg"
   xmlns="http://www.w3.org/2000/svg"
   xmlns:sodipodi="http://sodipodi.sourceforge.net/DTD/sodipodi-0.dtd"
   xmlns:inkscape="http://www.inkscape.org/namespaces/inkscape"
   width="210mm"
   height="297mm"
   viewBox="0 0 210 297"
   version="1.1"
   id="svg894"
   inkscape:version="0.92.4 (5da689c313, 2019-01-14)"
   sodipodi:docname="p1.svg">
  <defs
     id="defs888" />
  <sodipodi:namedview
     id="base"
     pagecolor="#ffffff"
     bordercolor="#666666"
     borderopacity="1.0"
     inkscape:pageopacity="0.0"
     inkscape:pageshadow="2"
     inkscape:zoom="181.01934"
     inkscape:cx="585.21189"
     inkscape:cy="-0.53163053"
     inkscape:document-units="mm"
     inkscape:current-layer="layer1"
     showgrid="false"
     inkscape:window-width="1366"
     inkscape:window-height="706"
     inkscape:window-x="0"
     inkscape:window-y="32"
     inkscape:window-maximized="1" />
  <metadata
     id="metadata891">
    <rdf:RDF>
      <cc:Work
         rdf:about="">
        <dc:format>image/svg+xml</dc:format>
        <dc:type
           rdf:resource="http://purl.org/dc/dcmitype/StillImage" />
        <dc:title />
      </cc:Work>
    </rdf:RDF>
  </metadata>
  <g
     inkscape:label="Layer 1"
     inkscape:groupmode="layer"
     id="layer1">
    <g
       id="g864"
       transform="matrix(1.0167147,0,0,1.0167147,2.610151,-4.9642224)">
      <g
         id="Head/Front/Curly"
         transform="matrix(0.86543889,0,0,0.86543889,43.921609,-1.3839892)"
         style="fill:none;fill-rule:evenodd;stroke:none;stroke-width:1">
        <g
           style="fill:#b28b67;stroke-width:1"
           id="Head"
           transform="translate(54,31)">
          <path
             inkscape:connector-curvature="0"
             d="M 8.2622739,34.490127 C 3.6543643,29.081376 0.53563479,22.452877 1.0567763,15.025454 2.5583302,-6.3750206 32.348531,-1.6671889 38.143341,9.1339329 43.938152,19.935055 43.249578,47.332996 35.760301,49.263458 32.773588,50.033323 26.411001,48.147461 19.935372,44.244306 L 24,73 H 0 Z"
             id="path1646" />
        </g>
        <path
           style="fill:#191847"
           inkscape:connector-curvature="0"
           d="m 102.7757,25.160438 c -0.49699,-1.746939 -1.83377,-3.242683 -3.6353,-3.686428 -0.436869,-0.107636 -0.888043,-0.151111 -1.337569,-0.132986 -0.161247,0.0064 -0.20647,0.05293 -0.281819,-0.05983 -0.0559,-0.0836 -0.05715,-0.28784 -0.08016,-0.386085 -0.07159,-0.305506 -0.161115,-0.607202 -0.271601,-0.901084 -0.376945,-1.002351 -1.010395,-1.889447 -1.774042,-2.636728 -1.428344,-1.398024 -3.358294,-2.362876 -5.363394,-2.537432 -1.097413,-0.09549 -2.18685,0.08281 -3.224339,0.439805 -0.537137,0.184801 -1.057992,0.414915 -1.565266,0.669329 -0.152742,0.07657 -0.648282,0.451625 -0.801552,0.427327 -0.169289,-0.02679 -0.509516,-0.447489 -0.647162,-0.553089 -1.701396,-1.305361 -3.802414,-1.818587 -5.921627,-1.802892 -2.392,0.01767 -4.695335,0.137189 -6.690283,1.595369 -0.4223,0.308723 -0.824494,0.646736 -1.207438,1.002613 -0.201657,0.187362 -0.396986,0.381751 -0.583283,0.584217 -0.112398,0.12215 -0.221829,0.247058 -0.327174,0.375315 -0.178782,0.217703 -0.150105,0.289219 -0.400347,0.13732 -0.960097,-0.583298 -2.072672,-0.856099 -3.19329,-0.718385 -0.665422,0.08183 -1.312847,0.281601 -1.927576,0.544551 -0.209304,0.08951 -0.693769,0.44657 -0.916851,0.45005 -0.221302,0.0034 -0.698977,-0.327571 -0.926937,-0.411697 -1.231236,-0.454515 -2.558323,-0.566552 -3.852449,-0.356533 -1.334932,0.216717 -2.646264,0.749317 -3.777297,1.485302 -0.543993,0.354037 -1.018636,0.746296 -1.399866,1.272722 -0.164608,0.22729 -0.313396,0.467715 -0.499957,0.678456 -0.109233,0.123398 -0.325525,0.250013 -0.38413,0.406181 0.03507,-0.09352 -1.459921,-0.669853 -1.600996,-0.706695 -0.751583,-0.196294 -1.516878,-0.156497 -2.252838,0.0857 -1.383912,0.455435 -2.574078,1.476765 -3.552237,2.523904 -0.502396,0.537853 -0.942034,1.132381 -1.315221,1.765786 -0.178848,0.303405 -0.342402,0.615478 -0.492046,0.934184 -0.07252,0.154394 -0.120573,0.347535 -0.216095,0.486628 -0.123143,0.179219 -0.205876,0.182634 -0.428892,0.260784 -1.132615,0.396789 -2.165095,1.068416 -2.951353,1.975936 -0.79529,0.91816 -1.311332,2.048833 -1.52769,3.239531 -0.01272,0.07014 -0.0203,0.360801 -0.06137,0.39876 -0.0563,0.05227 -0.28406,0.02916 -0.370221,0.03927 -0.298365,0.035 -0.594621,0.08708 -0.886922,0.1563 -0.538851,0.127534 -1.063331,0.315225 -1.559464,0.560706 -1.934037,0.956906 -3.317092,2.750866 -3.993985,4.769489 -0.71025,2.118445 -0.697659,4.545482 0.151226,6.624393 0.137119,0.33578 0.300278,0.66171 0.491914,0.97004 0.117672,0.189266 0.155644,0.189726 0.07924,0.388318 -0.08517,0.22092 -0.240749,0.435602 -0.341874,0.651465 -0.329943,0.704463 -0.560606,1.451612 -0.706294,2.21472 -0.239036,1.251773 -0.357499,2.567247 -0.121693,3.828542 0.109497,0.585662 0.300277,1.15819 0.591325,1.679822 0.148392,0.265971 0.322032,0.518217 0.518085,0.751549 0.101785,0.121165 0.209898,0.236879 0.322955,0.347733 0.06467,0.06331 0.149446,0.118735 0.204426,0.189464 0.134218,0.172454 0.162433,0.03067 0.09321,0.283899 -0.09677,0.354038 -0.316164,0.703347 -0.450514,1.047862 -0.138438,0.355022 -0.263559,0.714904 -0.378,1.078332 -0.231784,0.73592 -0.427772,1.485171 -0.550322,2.247294 -0.235344,1.463236 -0.19401,3.022353 0.498111,4.365278 0.295926,0.574432 0.720468,1.078333 1.235389,1.470329 0.252022,0.191762 0.525007,0.357058 0.811375,0.492802 0.147139,0.06987 0.335018,0.09982 0.402127,0.242132 0.07225,0.153016 -0.035,0.45688 -0.05946,0.627955 -0.212798,1.488257 -0.319526,3.050855 0.12288,4.509297 0.407467,1.343319 1.304608,2.529354 2.469394,3.314593 2.259627,1.52326 5.305514,1.437361 7.679781,0.217899 0.618881,-0.317917 1.197879,-0.712606 1.714382,-1.178154 1.315221,1.770515 4.021672,1.714497 5.943909,1.210005 2.394835,-0.62848 4.316478,-2.293723 5.423647,-4.481649 1.513912,1.842952 4.691116,1.245009 5.740933,-0.754307 0.256966,-0.489322 0.409379,-1.028619 0.484399,-1.574353 0.03949,-0.286987 0.01431,-0.576468 0.04397,-0.861156 0.03784,-0.362772 0.280171,-0.715299 0.419466,-1.066249 0.271271,-0.682988 0.439703,-1.388502 0.446955,-2.125209 0.0038,-0.384641 -0.04496,-0.759496 -0.08155,-1.14105 -0.03289,-0.343464 0.06236,-0.663484 0.116485,-1.002482 -0.6142,0.101135 -1.362487,-0.06449 -1.941155,-0.242592 -0.567857,-0.174753 -1.099721,-0.635048 -1.50053,-1.055413 -0.930629,-0.976148 -1.499145,-2.255765 -1.887956,-3.529341 -0.8535,-2.79526 -0.503649,-6.148928 2.307883,-7.683024 1.309749,-0.714642 5.233594,-0.712298 6.793564,-0.359097 1.64024,0.371375 3.499718,3.990623 3.591218,4.330804 0.05663,0.210544 0.02815,0.47113 0.221566,0.611405 0.425069,0.308461 1.126089,-0.226831 1.439617,-0.491029 0.541026,-0.45596 0.926937,-1.062637 1.261164,-1.677589 0.728247,-1.339707 1.315353,-2.776412 1.730072,-4.243063 0.319725,-1.130739 0.524151,-2.296744 0.942034,-3.398653 0.415839,-1.096458 1.071374,-2.07648 2.090602,-2.697605 1.108752,-0.675699 2.379673,-1.031575 3.596868,-1.45621 1.206514,-0.420825 2.392198,-0.935168 3.327441,-1.828109 0.205613,-0.196359 0.405358,-0.404999 0.57089,-0.636164 0.130658,-0.182502 0.2598,-0.531877 0.458886,-0.647591 0.309507,-0.180006 0.761208,0.288103 1.028854,0.458062 1.320429,0.83863 2.422061,2.008247 3.310565,3.28596 0.883561,1.270752 1.608564,2.493497 2.197714,3.912471 0.437001,1.052392 0.709735,2.400177 1.478327,3.262646 0.343127,0.3851 2.893671,0.618076 3.719813,0.281864 0.826141,-0.336211 1.752025,-1.209217 2.029295,-1.75633 0.28386,-0.559984 0.35169,-1.175133 0.2304,-1.78818 -0.0713,-0.360671 -0.21702,-0.697568 -0.29672,-1.051802 -0.0671,-0.297559 -0.12802,-0.578832 -0.27285,-0.851436 -0.27451,-0.516576 -0.743478,-0.887885 -1.309027,-1.043133 0.588557,-0.542647 1.076247,-1.191814 1.413707,-1.917489 0.35064,-0.753914 0.64782,-1.670759 0.73214,-2.498226 0.0686,-0.672086 -0.0373,-1.368405 -0.40516,-1.94599 -0.38598,-0.605889 -1.069727,-1.001168 -1.661316,-1.37911 0.903666,-0.707024 1.677066,-1.566867 2.312886,-2.518847 1.23652,-1.851291 2.00135,-4.184877 1.37337,-6.391979 z"
           id="hair" />
      </g>
      <g
         transform="matrix(2.1550475,0,0,2.3142456,-74.525686,-72.593622)"
         id="g2879">
        <polygon
           style="fill:#997659;fill-rule:evenodd;stroke:none;stroke-width:1"
           id="Leg"
           points="216.0009,229.25029 229,229.25029 178.67369,5.090379e-13 134,0 183.08164,124.22691 "
           transform="matrix(0.26458333,0,0,0.26458333,41.413937,96.46778)" />
        <path
           style="fill:#b28b67;fill-rule:evenodd;stroke:none;stroke-width:0.26458332"
           inkscape:connector-curvature="0"
           d="m 74.253128,96.46778 c -0.138284,11.55017 -2.154978,27.1006 -2.477177,27.82058 -0.214799,0.47999 -7.630031,6.58384 -22.245694,18.31157 l 2.368872,2.53497 c 17.245128,-10.05505 26.266703,-15.75313 27.064723,-17.09422 1.197028,-2.01165 5.094144,-20.52307 8.223001,-31.5729 z"
           id="path2808" />
        <g
           style="fill:#6f7c91;fill-rule:evenodd;stroke:none;stroke-width:1"
           id="Accessories/Shoe/Flat-Sneaker"
           transform="matrix(0.17007089,0.20268259,-0.20268259,0.17007089,53.906468,136.89079)">
          <path
             inkscape:connector-curvature="0"
             d="M 2.6781318,25.401924 C 1.5593773,28.388411 1,30.622993 1,32.105671 1,33.908957 1.3004142,36.5404 1.9012426,40 c 2.0919386,0 20.8925424,0 56.4018124,0 1.465683,-4.845493 0.619606,-7.461418 -2.538232,-7.847777 -3.157838,-0.386358 -5.781107,-0.735209 -7.869809,-1.046552 L 21.679993,19.418883 c -0.50443,-0.224877 -1.095649,0.0017 -1.320526,0.506174 -0.0038,0.0086 -0.0076,0.01731 -0.01117,0.02605 l -1.685082,4.08759 c -2.923332,1.363957 -5.298842,2.045936 -7.126532,2.045936 -1.484954,0 -3.5356885,-0.599726 -6.1522031,-1.799176 l 5.5e-6,-1.2e-5 c -1.0041007,-0.460295 -2.1912281,-0.01945 -2.6515233,0.984647 -0.019839,0.04328 -0.038127,0.08725 -0.054828,0.131834 z"
             id="shoe"
             style="fill:#6f7c91" />
        </g>
        <g
           style="fill:#6f7c91;fill-rule:evenodd;stroke:none;stroke-width:1"
           id="g2814"
           transform="matrix(0.26458333,0,0,0.26458333,96.44727,149.11986)">
          <path
             inkscape:connector-curvature="0"
             d="M 2.6781318,25.401924 C 1.5593773,28.388411 1,30.622993 1,32.105671 1,33.908957 1.3004142,36.5404 1.9012426,40 c 2.0919386,0 20.8925424,0 56.4018124,0 1.465683,-4.845493 0.619606,-7.461418 -2.538232,-7.847777 -3.157838,-0.386358 -5.781107,-0.735209 -7.869809,-1.046552 L 21.679993,19.418883 c -0.50443,-0.224877 -1.095649,0.0017 -1.320526,0.506174 -0.0038,0.0086 -0.0076,0.01731 -0.01117,0.02605 l -1.685082,4.08759 c -2.923332,1.363957 -5.298842,2.045936 -7.126532,2.045936 -1.484954,0 -3.5356885,-0.599726 -6.1522031,-1.799176 l 5.5e-6,-1.2e-5 c -1.0041007,-0.460295 -2.1912281,-0.01945 -2.6515233,0.984647 -0.019839,0.04328 -0.038127,0.08725 -0.054828,0.131834 z"
             id="path2812"
             style="fill:#6f7c91" />
        </g>
        <polygon
           style="fill:#69a1ac;fill-rule:evenodd;stroke:none;stroke-width:1"
           id="Pant"
           points="228.80446,211.72533 183,2.8421709e-14 127.64407,2.8421709e-14 167,218.43289 "
           transform="matrix(0.26458333,0,0,0.26458333,41.413937,96.46778)" />
        <path
           style="fill:#89c5cc;fill-rule:evenodd;stroke:none;stroke-width:0.26458332"
           inkscape:connector-curvature="0"
           d="m 52.912717,138.5102 10.72622,12.69616 c 11.297695,-12.33911 17.884282,-20.39038 19.759757,-24.15381 1.875478,-3.76344 3.561435,-13.95836 5.057873,-30.58477 H 71.96753 c -0.817432,14.62719 -1.368438,22.28112 -1.653016,22.9618 -0.28458,0.68067 -6.085179,7.04088 -17.401797,19.08062 z"
           id="path2817" />
      </g>
      <path
         id="Skin-6"
         d="m 121.55138,103.79275 23.5313,-12.88797 c 3.91311,-4.646836 7.76862,-8.255752 11.56652,-10.826753 1.16051,-0.484497 3.18996,-0.777748 1.29204,2.590869 -1.89792,3.36862 -3.74275,6.997258 -2.77583,8.035058 0.96691,1.037797 3.37801,-0.411961 4.53152,1.312351 0.76901,1.149539 -3.35015,2.965491 -12.35747,5.447852 L 130.2411,113.11951 Z m 36.85439,10.87396 10.33629,-5.67821 c 1.45033,-5.51867 3.18402,-8.29529 5.20108,-8.32987 1.54951,-0.720978 -1.14896,6.25236 1.78843,5.64764 2.93739,-0.60473 10.10674,-5.93682 11.34205,-4.8542 1.82757,1.60165 0.19799,6.51968 -1.72203,8.96614 -3.58851,4.57242 -6.55965,6.13605 -13.90327,8.18364 -3.83963,1.07058 -7.99094,3.21647 -12.45395,6.43767 z"
         inkscape:connector-curvature="0"
         style="fill:#997659;fill-rule:evenodd;stroke:none;stroke-width:0.67794442" />
      <path
         id="Sleeve"
         d="m 110.09145,100.92176 c 8.24217,-0.0871 19.23314,-1.827862 30.96058,-9.271973 l 4.60562,10.270783 c -8.0893,8.02797 -19.46362,14.62393 -29.40912,14.34462 -7.83761,-0.2201 -11.8433,-9.70036 -6.15708,-15.34343 z"
         inkscape:connector-curvature="0"
         style="fill:#939dac;fill-rule:evenodd;stroke:none;stroke-width:0.67794442" />
      <g
         transform="matrix(0.26458333,0,0,0.26458333,135.69778,5.3891578)"
         id="Plant-Right"
         style="opacity:0.7;fill:#2ca02c;fill-opacity:0.97378277;fill-rule:evenodd;stroke:none;stroke-width:1">
        <path
           transform="matrix(-0.9945219,0.10452846,0.10452846,0.9945219,95.472974,-5.0035266)"
           id="Leaf-Me-Alone!"
           d="m 79.904753,113.04038 c -13.651708,0.72264 -29.610417,10.41287 -29.507811,25.32393 0.07485,10.83417 1.524567,21.49265 1.021537,32.37136 -0.40276,8.6944 -2.293301,17.19873 -5.230065,25.38858 -2.823875,7.8754 -9.645284,15.0436 -10.752225,23.25621 -0.705633,5.23293 0.743947,12.33748 2.981231,17.14844 2.720706,5.84932 1.563255,5.48607 -2.05185,11.01402 -7.083865,10.83311 -13.331425,21.83524 -17.257364,34.29701 -5.655191,17.94943 -8.43676,38.52803 -3.693395,57.0268 0.603062,2.34913 1.920561,10.86785 5.26911,11.12103 3.739938,0.28345 1.509347,-4.43334 1.14717,-5.99466 -2.309406,-9.96235 -4.34613,-18.66859 -3.917511,-29.07815 1.654316,-40.16354 27.289922,-69.20548 42.237382,-104.71663 0.833719,-1.83789 2.544617,-6.18546 3.749612,-9.0617 1.902403,-4.54094 3.409923,-12.95953 6.261565,-16.47806 5.370452,-6.62847 1.120872,6.00901 0.193511,8.43377 -1.172372,3.06709 -2.473526,6.3326 -3.720342,9.04321 -5.688852,12.55504 -12.069278,26.2779 -17.947119,39.22137 31.704221,3.80041 49.597806,-35.71524 55.334671,-61.06092 4.72679,-20.88206 7.96307,-68.8832 -24.118107,-67.25561"
           inkscape:connector-curvature="0"
           style="fill:#2ca02c;fill-opacity:0.97378277" />
        <path
           id="path3091"
           d="m 210.80537,78.1212 c -22.82274,1.810806 -37.47443,16.870553 -44.29484,37.93433 -3.67596,11.35143 -4.0973,23.01265 -6.14006,34.67808 -3.07297,17.55076 -9.68482,30.85106 -22.6066,43.35497 -4.00226,3.87248 -6.95161,7.84851 -9.04819,12.10234 -4.16205,4.24711 -7.78503,9.05319 -10.44676,14.92927 -3.40011,7.50419 -4.3622,16.50771 -0.43647,23.98918 1.05544,2.01117 3.68858,6.04865 6.41758,7.88303 -10.21716,21.75998 -15.83496,45.59174 -15.2017,69.3932 0.38265,14.36775 1.08403,28.74139 1.90232,43.09147 0.22034,3.85312 1.47509,10.21577 3.35974,3.75378 1.72487,-5.91059 -0.43815,-15.18939 -0.63831,-21.36432 -0.97386,-30.08077 -1.80644,-57.43144 10.57627,-85.53556 1.29849,-2.94561 2.67518,-5.86765 4.10907,-8.76612 0.0841,-0.0488 0.16231,-0.10775 0.24136,-0.165 0.0547,0.0421 0.10428,0.0876 0.15895,0.1288 0.0917,-0.16331 0.21697,-0.35778 0.36331,-0.57498 0.41124,-0.42429 0.77034,-0.96054 1.11178,-1.55909 1.09833,-1.52206 2.34131,-3.31013 2.34804,-4.2892 0,-0.008 -0.004,-0.0194 -0.004,-0.0269 7.6656,-12.51316 16.44552,-24.33686 25.41382,-35.92905 -0.0673,0.0842 9.7277,-13.25231 8.21309,-5.87692 -0.72998,3.55427 -7.93473,10.32269 -10.84455,14.08742 -6.43692,8.37551 -13.99572,18.98779 -20.27706,29.24987 -0.84519,0.48574 -2.0394,2.87069 -2.90309,4.64698 -0.47684,0.89993 -0.92172,1.80744 -1.35904,2.59793 22.25675,7.35351 39.57017,-7.45874 51.37597,-24.68708 0.0143,-0.0202 0.0269,-0.0412 0.0404,-0.0614 3.5927,-4.76063 7.27287,-9.48758 11.87055,-13.25063 7.67065,-6.27931 15.88542,-7.38718 24.92941,-10.47759 24.66366,-8.42685 35.14994,-40.39083 38.48025,-64.1081 3.75754,-26.75717 -14.62226,-67.786959 -46.711,-65.14862"
           inkscape:connector-curvature="0"
           style="fill:#2ca02c;fill-opacity:0.97378277" />
        <path
           transform="rotate(-8,140,158.5)"
           id="path3093"
           d="M 187.08728,8.2818784 C 160.49848,29.163511 144.58611,61.07338 131.2885,91.305359 116.43664,125.07145 104.87305,159.85285 99.484323,196.37211 c -3.539948,23.99335 -7.589711,48.06798 -9.559287,72.2536 -0.700053,8.58944 -1.05019,17.24324 -0.884335,25.86098 0.01389,0.70818 0.390346,19.95093 3.89734,15.97216 1.994507,-2.26264 -0.353269,-19.95631 -0.313028,-22.84269 0.229831,-16.25678 2.023085,-32.41403 4.382537,-48.48931 3.88452,-26.46741 6.80735,-52.9317 13.20153,-78.94708 0.95406,-3.88434 1.85252,-7.97867 3.3303,-11.70209 1.5697,-3.95872 0.0526,-2.34758 3.5178,-3.51509 3.3671,-1.1353 7.22235,-0.36376 10.76404,-1.88383 14.04858,-6.03044 23.50455,-25.26311 30.51788,-37.76866 8.02142,-14.3006 13.87153,-29.930045 18.97082,-45.449075 3.7451,-11.40244 6.88151,-22.817869 9.39689,-34.546727 0.79262,-3.696549 1.35737,-7.599252 2.60728,-11.167837 0.33681,-0.96266 1.57508,-2.575312 1.66238,-3.45748 C 191.16114,8.8219432 190.19407,7.5727246 190.32156,6 c -1.0938,0.7373788 -2.17292,1.4985159 -3.23428,2.2818784"
           inkscape:connector-curvature="0"
           style="fill:#2ca02c;fill-opacity:0.97378277" />
        <path
           id="Base"
           d="m 38,328 c 0,40.31679 32.683213,73 73,73 40.31679,0 73,-32.68321 73,-73"
           inkscape:connector-curvature="0"
           style="fill:#2ca02c;fill-opacity:0.97378277" />
        <path
           id="path3096"
           d="M 116.85729,328.23237 H 113 c 0.26764,-4.83953 0.62115,-9.67058 1.43019,-14.45622 3.09437,-18.30285 12.76975,-45.18494 33.99009,-48.15568 0.78285,-0.11072 3.66257,-0.12931 7.15089,0.0752 1.65325,-0.92377 3.50516,-1.48242 5.45639,-1.61088 18.06705,-1.33198 38.24359,13.24369 46.9585,28.41183 7.02547,12.2295 5.84193,28.28844 1.50257,41.28113 -2.90581,8.69841 -9.24775,21.10033 -19.82383,21.22119 -13.23188,0.15128 -13.86995,-16.20262 -14.12585,-25.7631 -0.34008,-12.7104 -1.94619,-23.78288 -11.96164,-32.44664 -2.33425,-2.01825 -4.88568,-3.79393 -7.24349,-5.78429 -3.69203,-3.11527 -7.77212,-6.30492 -8.24773,-11.45872 -0.65658,-7.11035 3.35701,-8.38993 9.48514,-7.06894 1.04465,0.22481 11.56769,4.94674 10.00956,1.2145 -0.4756,-1.14012 -2.21303,-2.0436 -4.40585,-2.72058 -5.67442,-0.61697 -12.44146,-1.33282 -14.38765,-0.90517 -20.99558,4.60614 -29.17007,33.68903 -31.34102,52.16682 -0.23429,1.99448 -0.42376,3.99547 -0.58898,5.99953 z"
           inkscape:connector-curvature="0"
           style="fill:#2ca02c;fill-opacity:0.97378277" />
      </g>
      <path
         id="Clothes-7"
         d="m 121.18951,117.393 c 8.75009,2.18221 23.42344,-0.39122 44.02006,-7.72031 5.10881,10.56922 7.47049,18.10426 7.08503,22.60513 -17.66887,9.22953 -32.81261,13.34451 -45.28903,13.61616 0.39648,7.40304 -0.5046,14.44721 -3.53161,20.8837 -6.22302,13.23231 -42.662328,0.97771 -54.914323,3.38972 -7.672559,-24.91761 7.162566,-35.04402 7.174503,-50.98776 0.01307,-17.46009 14.032698,-44.335243 16.095406,-44.335243 h 18.810804 c 1.0379,13.334503 6.26193,28.030253 10.54916,42.548603 z"
         inkscape:connector-curvature="0"
         style="fill:#b7bec8;fill-rule:evenodd;stroke:none;stroke-width:0.67794442" />
    </g>
  </g>
</svg>
