<?xml version="1.0" encoding="UTF-8" standalone="no"?>
<!-- Created with Inkscape (http://www.inkscape.org/) -->

<svg
   xmlns:dc="http://purl.org/dc/elements/1.1/"
   xmlns:cc="http://creativecommons.org/ns#"
   xmlns:rdf="http://www.w3.org/1999/02/22-rdf-syntax-ns#"
   xmlns:svg="http://www.w3.org/2000/svg"
   xmlns="http://www.w3.org/2000/svg"
   xmlns:sodipodi="http://sodipodi.sourceforge.net/DTD/sodipodi-0.dtd"
   xmlns:inkscape="http://www.inkscape.org/namespaces/inkscape"
   width="210mm"
   height="297mm"
   viewBox="0 0 210 297"
   version="1.1"
   id="svg894"
   inkscape:version="0.92.4 (5da689c313, 2019-01-14)"
   sodipodi:docname="p2.svg">
  <defs
     id="defs888">
    <filter
       style="color-interpolation-filters:sRGB"
       inkscape:label="Lightness-Contrast"
       id="filter1158">
      <feColorMatrix
         values="0.6612 0 0 0.0362972 0.1694 0 0.6612 0 0.0362972 0.1694 0 0 0.6612 0.0362972 0.1694 0 0 0 1 0"
         id="feColorMatrix1156" />
    </filter>
    <filter
       style="color-interpolation-filters:sRGB"
       inkscape:label="Lightness-Contrast"
       id="filter1158-5">
      <feColorMatrix
         values="0.6612 0 0 0.0362972 0.1694 0 0.6612 0 0.0362972 0.1694 0 0 0.6612 0.0362972 0.1694 0 0 0 1 0"
         id="feColorMatrix1156-3" />
    </filter>
  </defs>
  <sodipodi:namedview
     id="base"
     pagecolor="#ffffff"
     bordercolor="#666666"
     borderopacity="1.0"
     inkscape:pageopacity="0.0"
     inkscape:pageshadow="2"
     inkscape:zoom="0.5"
     inkscape:cx="126.19084"
     inkscape:cy="830.11459"
     inkscape:document-units="mm"
     inkscape:current-layer="layer1"
     showgrid="false"
     inkscape:window-width="1366"
     inkscape:window-height="706"
     inkscape:window-x="0"
     inkscape:window-y="32"
     inkscape:window-maximized="1" />
  <metadata
     id="metadata891">
    <rdf:RDF>
      <cc:Work
         rdf:about="">
        <dc:format>image/svg+xml</dc:format>
        <dc:type
           rdf:resource="http://purl.org/dc/dcmitype/StillImage" />
        <dc:title />
      </cc:Work>
    </rdf:RDF>
  </metadata>
  <g
     inkscape:label="Layer 1"
     inkscape:groupmode="layer"
     id="layer1">
    <g
       id="g1456"
       transform="matrix(1.0052068,0,0,1.0052068,0.1323641,-0.01695339)">
      <g
         id="Head/Front/Curly"
         transform="matrix(-0.89041633,0,0,0.89041633,157.76107,-11.518301)"
         style="fill:none;fill-rule:evenodd;stroke:none;stroke-width:1">
        <g
           style="fill:#b28b67;stroke-width:1"
           id="Head"
           transform="translate(54,31)">
          <path
             inkscape:connector-curvature="0"
             d="M 8.2622739,34.490127 C 3.6543643,29.081376 0.53563479,22.452877 1.0567763,15.025454 2.5583302,-6.3750206 32.348531,-1.6671889 38.143341,9.1339329 43.938152,19.935055 43.249578,47.332996 35.760301,49.263458 32.773588,50.033323 26.411001,48.147461 19.935372,44.244306 L 24,73 H 0 Z"
             id="path1646" />
        </g>
        <path
           style="fill:#191847"
           inkscape:connector-curvature="0"
           d="m 102.7757,25.160438 c -0.49699,-1.746939 -1.83377,-3.242683 -3.6353,-3.686428 -0.436869,-0.107636 -0.888043,-0.151111 -1.337569,-0.132986 -0.161247,0.0064 -0.20647,0.05293 -0.281819,-0.05983 -0.0559,-0.0836 -0.05715,-0.28784 -0.08016,-0.386085 -0.07159,-0.305506 -0.161115,-0.607202 -0.271601,-0.901084 -0.376945,-1.002351 -1.010395,-1.889447 -1.774042,-2.636728 -1.428344,-1.398024 -3.358294,-2.362876 -5.363394,-2.537432 -1.097413,-0.09549 -2.18685,0.08281 -3.224339,0.439805 -0.537137,0.184801 -1.057992,0.414915 -1.565266,0.669329 -0.152742,0.07657 -0.648282,0.451625 -0.801552,0.427327 -0.169289,-0.02679 -0.509516,-0.447489 -0.647162,-0.553089 -1.701396,-1.305361 -3.802414,-1.818587 -5.921627,-1.802892 -2.392,0.01767 -4.695335,0.137189 -6.690283,1.595369 -0.4223,0.308723 -0.824494,0.646736 -1.207438,1.002613 -0.201657,0.187362 -0.396986,0.381751 -0.583283,0.584217 -0.112398,0.12215 -0.221829,0.247058 -0.327174,0.375315 -0.178782,0.217703 -0.150105,0.289219 -0.400347,0.13732 -0.960097,-0.583298 -2.072672,-0.856099 -3.19329,-0.718385 -0.665422,0.08183 -1.312847,0.281601 -1.927576,0.544551 -0.209304,0.08951 -0.693769,0.44657 -0.916851,0.45005 -0.221302,0.0034 -0.698977,-0.327571 -0.926937,-0.411697 -1.231236,-0.454515 -2.558323,-0.566552 -3.852449,-0.356533 -1.334932,0.216717 -2.646264,0.749317 -3.777297,1.485302 -0.543993,0.354037 -1.018636,0.746296 -1.399866,1.272722 -0.164608,0.22729 -0.313396,0.467715 -0.499957,0.678456 -0.109233,0.123398 -0.325525,0.250013 -0.38413,0.406181 0.03507,-0.09352 -1.459921,-0.669853 -1.600996,-0.706695 -0.751583,-0.196294 -1.516878,-0.156497 -2.252838,0.0857 -1.383912,0.455435 -2.574078,1.476765 -3.552237,2.523904 -0.502396,0.537853 -0.942034,1.132381 -1.315221,1.765786 -0.178848,0.303405 -0.342402,0.615478 -0.492046,0.934184 -0.07252,0.154394 -0.120573,0.347535 -0.216095,0.486628 -0.123143,0.179219 -0.205876,0.182634 -0.428892,0.260784 -1.132615,0.396789 -2.165095,1.068416 -2.951353,1.975936 -0.79529,0.91816 -1.311332,2.048833 -1.52769,3.239531 -0.01272,0.07014 -0.0203,0.360801 -0.06137,0.39876 -0.0563,0.05227 -0.28406,0.02916 -0.370221,0.03927 -0.298365,0.035 -0.594621,0.08708 -0.886922,0.1563 -0.538851,0.127534 -1.063331,0.315225 -1.559464,0.560706 -1.934037,0.956906 -3.317092,2.750866 -3.993985,4.769489 -0.71025,2.118445 -0.697659,4.545482 0.151226,6.624393 0.137119,0.33578 0.300278,0.66171 0.491914,0.97004 0.117672,0.189266 0.155644,0.189726 0.07924,0.388318 -0.08517,0.22092 -0.240749,0.435602 -0.341874,0.651465 -0.329943,0.704463 -0.560606,1.451612 -0.706294,2.21472 -0.239036,1.251773 -0.357499,2.567247 -0.121693,3.828542 0.109497,0.585662 0.300277,1.15819 0.591325,1.679822 0.148392,0.265971 0.322032,0.518217 0.518085,0.751549 0.101785,0.121165 0.209898,0.236879 0.322955,0.347733 0.06467,0.06331 0.149446,0.118735 0.204426,0.189464 0.134218,0.172454 0.162433,0.03067 0.09321,0.283899 -0.09677,0.354038 -0.316164,0.703347 -0.450514,1.047862 -0.138438,0.355022 -0.263559,0.714904 -0.378,1.078332 -0.231784,0.73592 -0.427772,1.485171 -0.550322,2.247294 -0.235344,1.463236 -0.19401,3.022353 0.498111,4.365278 0.295926,0.574432 0.720468,1.078333 1.235389,1.470329 0.252022,0.191762 0.525007,0.357058 0.811375,0.492802 0.147139,0.06987 0.335018,0.09982 0.402127,0.242132 0.07225,0.153016 -0.035,0.45688 -0.05946,0.627955 -0.212798,1.488257 -0.319526,3.050855 0.12288,4.509297 0.407467,1.343319 1.304608,2.529354 2.469394,3.314593 2.259627,1.52326 5.305514,1.437361 7.679781,0.217899 0.618881,-0.317917 1.197879,-0.712606 1.714382,-1.178154 1.315221,1.770515 4.021672,1.714497 5.943909,1.210005 2.394835,-0.62848 4.316478,-2.293723 5.423647,-4.481649 1.513912,1.842952 4.691116,1.245009 5.740933,-0.754307 0.256966,-0.489322 0.409379,-1.028619 0.484399,-1.574353 0.03949,-0.286987 0.01431,-0.576468 0.04397,-0.861156 0.03784,-0.362772 0.280171,-0.715299 0.419466,-1.066249 0.271271,-0.682988 0.439703,-1.388502 0.446955,-2.125209 0.0038,-0.384641 -0.04496,-0.759496 -0.08155,-1.14105 -0.03289,-0.343464 0.06236,-0.663484 0.116485,-1.002482 -0.6142,0.101135 -1.362487,-0.06449 -1.941155,-0.242592 -0.567857,-0.174753 -1.099721,-0.635048 -1.50053,-1.055413 -0.930629,-0.976148 -1.499145,-2.255765 -1.887956,-3.529341 -0.8535,-2.79526 -0.503649,-6.148928 2.307883,-7.683024 1.309749,-0.714642 5.233594,-0.712298 6.793564,-0.359097 1.64024,0.371375 3.499718,3.990623 3.591218,4.330804 0.05663,0.210544 0.02815,0.47113 0.221566,0.611405 0.425069,0.308461 1.126089,-0.226831 1.439617,-0.491029 0.541026,-0.45596 0.926937,-1.062637 1.261164,-1.677589 0.728247,-1.339707 1.315353,-2.776412 1.730072,-4.243063 0.319725,-1.130739 0.524151,-2.296744 0.942034,-3.398653 0.415839,-1.096458 1.071374,-2.07648 2.090602,-2.697605 1.108752,-0.675699 2.379673,-1.031575 3.596868,-1.45621 1.206514,-0.420825 2.392198,-0.935168 3.327441,-1.828109 0.205613,-0.196359 0.405358,-0.404999 0.57089,-0.636164 0.130658,-0.182502 0.2598,-0.531877 0.458886,-0.647591 0.309507,-0.180006 0.761208,0.288103 1.028854,0.458062 1.320429,0.83863 2.422061,2.008247 3.310565,3.28596 0.883561,1.270752 1.608564,2.493497 2.197714,3.912471 0.437001,1.052392 0.709735,2.400177 1.478327,3.262646 0.343127,0.3851 2.893671,0.618076 3.719813,0.281864 0.826141,-0.336211 1.752025,-1.209217 2.029295,-1.75633 0.28386,-0.559984 0.35169,-1.175133 0.2304,-1.78818 -0.0713,-0.360671 -0.21702,-0.697568 -0.29672,-1.051802 -0.0671,-0.297559 -0.12802,-0.578832 -0.27285,-0.851436 -0.27451,-0.516576 -0.743478,-0.887885 -1.309027,-1.043133 0.588557,-0.542647 1.076247,-1.191814 1.413707,-1.917489 0.35064,-0.753914 0.64782,-1.670759 0.73214,-2.498226 0.0686,-0.672086 -0.0373,-1.368405 -0.40516,-1.94599 -0.38598,-0.605889 -1.069727,-1.001168 -1.661316,-1.37911 0.903666,-0.707024 1.677066,-1.566867 2.312886,-2.518847 1.23652,-1.851291 2.00135,-4.184877 1.37337,-6.391979 z"
           id="hair" />
      </g>
      <g
         transform="matrix(-2.2172444,0,0,2.3810371,279.62686,-84.783116)"
         id="g2879">
        <polygon
           style="fill:#997659;fill-rule:evenodd;stroke:none;stroke-width:1"
           id="Leg"
           points="183.08164,124.22691 216.0009,229.25029 229,229.25029 178.67369,5.090379e-13 134,0 "
           transform="matrix(0.26458333,0,0,0.26458333,41.413937,96.46778)" />
        <path
           style="fill:#b28b67;fill-rule:evenodd;stroke:none;stroke-width:0.26458332"
           inkscape:connector-curvature="0"
           d="m 74.253128,96.46778 c -0.138284,11.55017 -2.154978,27.1006 -2.477177,27.82058 -0.214799,0.47999 -7.630031,6.58384 -22.245694,18.31157 l 2.368872,2.53497 c 17.245128,-10.05505 26.266703,-15.75313 27.064723,-17.09422 1.197028,-2.01165 5.094144,-20.52307 8.223001,-31.5729 z"
           id="path2808" />
        <g
           style="fill:#6f7c91;fill-rule:evenodd;stroke:none;stroke-width:1"
           id="Accessories/Shoe/Flat-Sneaker"
           transform="matrix(0.17007089,0.20268259,-0.20268259,0.17007089,53.906468,136.89079)">
          <path
             inkscape:connector-curvature="0"
             d="M 2.6781318,25.401924 C 1.5593773,28.388411 1,30.622993 1,32.105671 1,33.908957 1.3004142,36.5404 1.9012426,40 c 2.0919386,0 20.8925424,0 56.4018124,0 1.465683,-4.845493 0.619606,-7.461418 -2.538232,-7.847777 -3.157838,-0.386358 -5.781107,-0.735209 -7.869809,-1.046552 L 21.679993,19.418883 c -0.50443,-0.224877 -1.095649,0.0017 -1.320526,0.506174 -0.0038,0.0086 -0.0076,0.01731 -0.01117,0.02605 l -1.685082,4.08759 c -2.923332,1.363957 -5.298842,2.045936 -7.126532,2.045936 -1.484954,0 -3.5356885,-0.599726 -6.1522031,-1.799176 l 5.5e-6,-1.2e-5 c -1.0041007,-0.460295 -2.1912281,-0.01945 -2.6515233,0.984647 -0.019839,0.04328 -0.038127,0.08725 -0.054828,0.131834 z"
             id="shoe"
             style="fill:#6f7c91" />
        </g>
        <g
           style="fill:#6f7c91;fill-rule:evenodd;stroke:none;stroke-width:1"
           id="g2814"
           transform="matrix(0.26458333,0,0,0.26458333,96.44727,149.11986)">
          <path
             inkscape:connector-curvature="0"
             d="M 2.6781318,25.401924 C 1.5593773,28.388411 1,30.622993 1,32.105671 1,33.908957 1.3004142,36.5404 1.9012426,40 c 2.0919386,0 20.8925424,0 56.4018124,0 1.465683,-4.845493 0.619606,-7.461418 -2.538232,-7.847777 -3.157838,-0.386358 -5.781107,-0.735209 -7.869809,-1.046552 L 21.679993,19.418883 c -0.50443,-0.224877 -1.095649,0.0017 -1.320526,0.506174 -0.0038,0.0086 -0.0076,0.01731 -0.01117,0.02605 l -1.685082,4.08759 c -2.923332,1.363957 -5.298842,2.045936 -7.126532,2.045936 -1.484954,0 -3.5356885,-0.599726 -6.1522031,-1.799176 l 5.5e-6,-1.2e-5 c -1.0041007,-0.460295 -2.1912281,-0.01945 -2.6515233,0.984647 -0.019839,0.04328 -0.038127,0.08725 -0.054828,0.131834 z"
             id="path2812"
             style="fill:#6f7c91" />
        </g>
        <polygon
           style="fill:#69a1ac;fill-rule:evenodd;stroke:none;stroke-width:1"
           id="Pant"
           points="167,218.43289 228.80446,211.72533 183,2.8421709e-14 127.64407,2.8421709e-14 "
           transform="matrix(0.26458333,0,0,0.26458333,41.413937,96.46778)" />
        <path
           style="fill:#89c5cc;fill-rule:evenodd;stroke:none;stroke-width:0.26458332"
           inkscape:connector-curvature="0"
           d="m 52.912717,138.5102 10.72622,12.69616 c 11.297695,-12.33911 17.884282,-20.39038 19.759757,-24.15381 1.875478,-3.76344 3.561435,-13.95836 5.057873,-30.58477 H 71.96753 c -0.817432,14.62719 -1.368438,22.28112 -1.653016,22.9618 -0.28458,0.68067 -6.085179,7.04088 -17.401797,19.08062 z"
           id="path2817" />
      </g>
      <path
         id="Skin-6"
         d="M 77.890957,96.693948 53.680541,83.434015 C 49.654494,78.653067 45.68771,74.939994 41.780199,72.294791 c -1.194003,-0.49848 -3.282025,-0.800194 -1.329329,2.665644 1.952696,3.465842 3.850769,7.199206 2.855943,8.266958 -0.994816,1.067749 -3.475503,-0.42385 -4.662304,1.350227 -0.791205,1.182716 3.446838,3.051078 12.714119,5.605082 L 68.950464,106.28989 Z M 39.972933,107.88174 29.338327,102.03965 c -1.492188,-5.677942 -3.275914,-8.534702 -5.351188,-8.57028 -1.594231,-0.741785 1.18212,6.432814 -1.840046,5.810641 -3.022166,-0.622183 -10.398431,-6.108164 -11.669393,-4.994304 -1.8803146,1.647882 -0.203704,6.707853 1.771729,9.224923 3.692078,4.70438 6.748968,6.31314 14.304533,8.41982 3.950445,1.10148 8.221566,3.3093 12.813383,6.62347 z"
         inkscape:connector-curvature="0"
         style="fill:#997659;fill-rule:evenodd;stroke:none;stroke-width:0.6975106" />
      <g
         transform="matrix(-0.98050092,0,0,1.2437106,73.462425,1.4054211)"
         id="Maceta"
         style="fill:#16c213;fill-opacity:0.70411987;fill-rule:evenodd;stroke:none;stroke-width:1;filter:url(#filter1158-5)">
        <path
           style="fill:#16c213;fill-opacity:0.70411987"
           id="path1111"
           d="M 15.417722,48.455696 C 15.417722,69.743127 17.097605,87 39.64557,87 62.193534,87 63.873418,69.743127 63.873418,48.455696"
           inkscape:connector-curvature="0" />
        <path
           style="fill:#16c213;fill-opacity:0.70411987"
           id="Fill-27"
           d="m 46.353417,35.174166 c -0.826498,1.429039 -1.563454,2.886658 -2.214403,4.36616 -0.02297,-3.046978 0.145506,-6.116285 0.605588,-9.22757 0.78644,-5.32942 1.987602,-10.631153 3.116306,-15.924401 C 48.672089,10.584433 48.620838,3.7518432 51.699441,0.72049533 52.543612,0.06537051 52.74685,1.350612 52.74685,1.9083836 52.75745,2.0262793 52.74445,-0.36825336 51.925064,0.04884725 47.054438,2.5644016 45.476257,10.47413 43.916926,14.434352 41.641847,20.214813 39.706085,26.123887 38.909041,32.137906 38.707571,33.657153 38.598,35.175953 38.572669,36.692073 38.407134,36.286584 38.251613,35.877968 38.079598,35.473818 35.268443,28.880592 31.474681,22.447239 26.743081,16.51405 25.578443,15.054198 10.934166,0.64948999 9.7877898,2.8542284 c 0.1131059,0.320194 0.3499212,0.5859058 0.7110362,0.7971355 0.02121,0.024115 0.0218,0.010718 0.0094,-0.025008 0.860077,1.3892933 3.305404,3.5350839 4.067102,4.7524461 1.916911,3.063501 3.406728,6.314564 4.920699,9.503552 3.198778,6.739256 6.166042,13.546392 9.042586,20.367818 0.6698,1.588912 1.367875,3.168893 2.08009,4.743961 C 23.276854,32.404511 13.482585,22.790655 0,17.28707 c 4.6049445,2.34273 7.624049,6.750421 10.733874,10.125185 3.750759,4.070527 7.70122,8.031642 11.459048,12.097704 4.43234,4.796656 9.647586,9.847861 13.910856,15.155846 4.129546,8.669798 8.142451,17.348974 10.61959,26.462666 -1.015008,-3.148797 -0.07953,-7.500219 -0.25331,-10.80487 -0.137848,-2.630324 -0.445355,-5.239213 -0.866557,-7.843189 0.520759,1.174491 0.969648,2.349875 1.172885,3.44309 -0.185564,-1.833635 -0.399405,-3.655659 -0.629152,-5.468305 0.589683,-1.696983 1.168762,-3.280536 1.55992,-4.584981 2.004686,-6.691472 4.391693,-13.267729 7.642311,-19.677413 3.007912,-5.92917 6.458233,-11.782869 10.217828,-17.457938 1.753732,-2.645954 3.531616,-5.282083 5.298308,-7.922679 C 72.021991,9.0834965 73.123007,6.3156276 74.733,4.6592826 64.326073,14.174 52.955978,23.757489 46.353417,35.174166"
           inkscape:connector-curvature="0" />
      </g>
      <path
         id="Sleeve"
         d="m 89.681574,93.740094 c -8.479998,-0.08961 -19.788149,-1.880615 -31.854055,-9.53957 l -4.738543,10.567211 c 8.322766,8.259665 20.02536,15.045995 30.257855,14.758625 8.063765,-0.22646 12.185039,-9.980327 6.334743,-15.786266 z"
         inkscape:connector-curvature="0"
         style="fill:#939dac;fill-rule:evenodd;stroke:none;stroke-width:0.6975106" />
      <path
         id="Clothes-7"
         d="m 78.263271,110.68672 c -9.002606,2.24519 -24.099443,-0.40252 -45.290503,-7.94313 -5.256255,10.87426 -7.686096,18.62677 -7.289511,23.25754 18.178812,9.4959 33.759615,13.72964 46.596117,14.00913 -0.407922,7.6167 0.519164,14.86417 3.633525,21.48643 6.402598,13.6142 43.893451,1.00592 56.499061,3.48755 7.89399,-25.63676 -7.36929,-36.05543 -7.38158,-52.45932 C 125.01691,94.560913 110.5927,66.910113 108.47045,66.910113 H 89.116835 C 88.048986,80.629464 82.674216,95.749351 78.263271,110.68672 Z"
         inkscape:connector-curvature="0"
         style="fill:#b7bec8;fill-rule:evenodd;stroke:none;stroke-width:0.6975106" />
    </g>
  </g>
</svg>
