<?xml version="1.0" encoding="UTF-8" standalone="no"?>
<!-- Created with Inkscape (http://www.inkscape.org/) -->

<svg
   xmlns:dc="http://purl.org/dc/elements/1.1/"
   xmlns:cc="http://creativecommons.org/ns#"
   xmlns:rdf="http://www.w3.org/1999/02/22-rdf-syntax-ns#"
   xmlns:svg="http://www.w3.org/2000/svg"
   xmlns="http://www.w3.org/2000/svg"
   xmlns:sodipodi="http://sodipodi.sourceforge.net/DTD/sodipodi-0.dtd"
   xmlns:inkscape="http://www.inkscape.org/namespaces/inkscape"
   width="210mm"
   height="297mm"
   viewBox="0 0 210 297"
   version="1.1"
   id="svg8"
   inkscape:version="0.92.4 (5da689c313, 2019-01-14)"
   sodipodi:docname="p3.svg">
  <defs
     id="defs2">
    <path
       id="path-1"
       d="M92.7815866,38.0062733 C93.3391191,38.1936329 92.7815866,35.7948357 91.4481904,34.9175574 C87.3592556,32.2273336 75.1872857,28.2457103 66.8639677,29.9735315 C61.2881245,31.1310097 54.3341786,34.0363718 49.8805871,37.7400019 C45.8657941,41.0788331 42.212667,46.9650301 40.7911357,52.1362714 C39.2985759,57.5661756 38.7343912,65.121537 40.7911357,69.8589023 C43.2405562,75.5007306 51.9153586,81.5811829 52.1447773,82.3887481 C52.4066564,83.3102391 51.3813294,86.9103718 50.6309583,90.7038019 C49.8805871,94.4972319 50.2220926,104.15585 50.6309583,105.731198 C51.2843111,108.248548 54.7881739,109.486332 56.3163595,109.668436 C64.7641234,110.675103 70.8878684,121.162379 73.436395,123.845608 C84.7805925,135.235022 92.6978323,140.188188 97.1881144,138.705108 C98.3699311,138.314769 96.5984933,124.162831 95.4166766,118.097164 C94.23486,112.031496 82.6441624,101.207053 81.9018285,97.6398836 C81.4646085,95.5385169 81.3916265,91.880488 81.3458526,91.713703 C80.252583,84.1774244 80.4408966,83.5648194 78.8463368,80.4938753 C77.251777,77.4229312 76.0155049,77.2426836 76.3987205,76.3481578 C78.2712277,71.977234 84.2935422,58.6036339 85.6598291,54.2305684 C87.288201,49.0185698 86.518665,50.7304963 88.1974087,45.5361638 C88.940772,43.2360183 89.8867353,37.0334549 92.7815866,38.0062733 Z" />
  </defs>
  <sodipodi:namedview
     id="base"
     pagecolor="#ffffff"
     bordercolor="#666666"
     borderopacity="1.0"
     inkscape:pageopacity="0.0"
     inkscape:pageshadow="2"
     inkscape:zoom="0.35"
     inkscape:cx="44.55868"
     inkscape:cy="559.17596"
     inkscape:document-units="mm"
     inkscape:current-layer="layer1"
     showgrid="false"
     inkscape:window-width="1366"
     inkscape:window-height="706"
     inkscape:window-x="0"
     inkscape:window-y="32"
     inkscape:window-maximized="1" />
  <metadata
     id="metadata5">
    <rdf:RDF>
      <cc:Work
         rdf:about="">
        <dc:format>image/svg+xml</dc:format>
        <dc:type
           rdf:resource="http://purl.org/dc/dcmitype/StillImage" />
        <dc:title></dc:title>
      </cc:Work>
    </rdf:RDF>
  </metadata>
  <g
     inkscape:label="Layer 1"
     inkscape:groupmode="layer"
     id="layer1">
    <g
       id="g2649"
       transform="matrix(1.0283077,0,0,1.0283077,-5.93855,-0.47921173)">
      <g
         style="opacity:0.50451074;fill:#00aa00;fill-opacity:0.67790264;fill-rule:evenodd;stroke:none;stroke-width:1"
         id="Background-Shape-2"
         transform="matrix(0.29510734,0,0,0.53322741,11.98575,85.767325)">
        <path
           style="fill:#00aa00;fill-opacity:0.67790264"
           inkscape:connector-curvature="0"
           d="M 630.15996,153.79549 C 639.34963,222.53553 416.48454,267.37231 224.65938,236.0818 32.834231,204.79129 -55.166053,82.598339 36.369711,17.489129 127.90548,-47.620081 620.97029,85.055443 630.15996,153.79549 Z"
           id="Background-Shape" />
      </g>
      <g
         style="fill:#00aa00;fill-opacity:0.52808987;fill-rule:evenodd;stroke:none;stroke-width:1"
         id="Top-Leaves"
         transform="matrix(0.32818469,0,0,0.32818469,30.343681,6.9705949)">
        <path
           style="fill:#00aa00;fill-opacity:0.52808987"
           inkscape:connector-curvature="0"
           d="m 211.45999,136.91362 c 0.238,-10.386 -4.017,-19.958 -8.727,-28.992 -9.169,-17.587001 -13.755,-28.109001 -12.273,-48.996001 0.872,-12.284 1.914,-25.263 -4.356,-36.418 -4.565,-8.123 -14.141,-16.8129997 -24.253,-15.3439997 -16.007,3.6459997 -24.943,18.8979997 -28.369,34.0419997 -4.246,18.77 0.616,32.774 14.79,44.801 7.987,6.775 12.492,13.754 14.67,24.072001 1.743,8.251 1.248,17.713 4.229,25.648 4.457,11.862 12.504,19.106 24.608,21.309 -4.368,-23.512 -10.504,-47.806 -20.343,-69.604001 -0.883,-2.157 -7.23,-11.377 -4.589,-13.706 2.909,-2.564 7.71,12.178 7.672,12.086 2.789,6.551 5.142,13.314 7.404,20.105001 -0.012,0.002 -0.025,0.001 -0.038,0.003 2.335,6.973 4.61,14.018 6.783,21.109 0.844,2.975 1.634,5.967 2.336,8.999 1.03,4.449 1.152,16.166 4.073,19.645 0.625,0.744 1.261,1.253 1.902,1.586 1.17,4.906 2.262,9.823 3.219,14.75 2.499,12.868 3.944,26.067 2.324,39.152 -0.473,3.819 -5.332,17.101 -3.722,20.492 2.943,6.202 4.598,-3.362 5.226,-6.207 5.193,-23.562 3.316,-45.683 -2.35,-68.751 5.209,-3.588 9.687,-15.573 9.784,-19.781"
           id="path1289"
           transform="rotate(-18,171.73476,120.35244)" />
        <path
           style="fill:#00aa00;fill-opacity:0.52808987"
           inkscape:connector-curvature="0"
           d="m 115.85853,100.65925 c -7.60151,1.11192 -14.77699,10.71964 -18.317494,17.12555 -4.381105,7.92661 -7.436597,16.97088 -9.738523,25.67825 -3.792453,14.34345 -4.304947,30.26336 -4.351901,44.95348 -0.0057,1.77022 -0.375066,23.39348 2.153045,23.03874 2.504634,-0.35128 0.91848,-22.79611 1.132067,-27.44388 0.454659,-9.91875 -0.225039,-19.70067 2.10151,-29.49351 2.408434,-10.14011 6.824468,-19.69608 12.404636,-28.45461 0.71634,-1.124 2.23207,-5.30319 3.95393,-4.33788 1.68407,0.94404 -2.98105,6.51112 -3.64357,7.59315 -2.7354,4.46838 -5.110622,9.20008 -7.077566,14.06115 -3.685373,9.10752 -5.60021,18.63819 -5.534931,28.45174 5.785165,0.88827 10.825353,-2.49924 12.765957,-8.14394 1.67663,-4.87888 1.8404,-10.55405 3.74493,-15.16732 1.31186,-3.17708 3.39849,-5.87525 5.95008,-8.15658 6.73113,-6.01726 13.7583,-7.52243 15.76476,-17.50903 1.57298,-7.82887 -0.38022,-23.786151 -11.30693,-22.19531"
           id="path1291"
           transform="matrix(-0.52991926,0.8480481,0.8480481,0.52991926,29.162335,-16.164946)" />
        <path
           style="fill:#00aa00;fill-opacity:0.52808987"
           inkscape:connector-curvature="0"
           d="M 2.3517646,80 H 0 C 0.16475746,77.0154 0.3793521,74.035656 0.8836734,71.084484 2.7741771,60.022326 8.6853441,43.774909 21.6499,41.979403 c 0.478283,-0.06692 2.237645,-0.07815 4.368833,0.04546 1.010051,-0.558318 2.141474,-0.895965 3.333581,-0.973609 11.038053,-0.80504 23.364898,8.004434 28.689269,17.171988 4.292204,7.391459 3.569123,17.09741 0.917994,24.950132 -1.775304,5.257283 -5.649911,12.752948 -12.111361,12.825994 -8.084011,0.09144 -8.473838,-9.792789 -8.63018,-15.571101 C 38.010266,72.746156 37.029014,66.054 30.910077,60.817659 29.483971,59.597839 27.925179,58.524622 26.484673,57.321658 24.229029,55.438803 21.7363,53.510996 21.44573,50.39606 c -0.401141,-4.297466 2.05096,-5.070836 5.794939,-4.272436 0.638225,0.135876 7.067275,2.989786 6.115337,0.734037 -0.29057,-0.689086 -1.352049,-1.235145 -2.691756,-1.644306 -3.466781,-0.372893 -7.6011,-0.805551 -8.790123,-0.54708 C 9.0468849,47.450206 4.0526843,65.027779 2.7263488,76.195675 2.5761854,77.460255 2.4561642,78.729161 2.3517645,80 Z"
           id="path1293"
           transform="matrix(-1,0,0,1,61.104844,0)" />
      </g>
      <g
         style="fill:#00aa00;fill-opacity:0.43071163;fill-rule:evenodd;stroke:none;stroke-width:1"
         id="Maceta"
         transform="matrix(1.0141668,0,0,1.0141668,77.661712,190.4034)">
        <path
           style="fill:#00aa00;fill-opacity:0.43071163"
           inkscape:connector-curvature="0"
           d="M 15.417722,48.455696 C 15.417722,69.743127 17.097605,87 39.64557,87 62.193534,87 63.873418,69.743127 63.873418,48.455696"
           id="path1285" />
        <path
           style="fill:#00aa00;fill-opacity:0.43071163"
           inkscape:connector-curvature="0"
           d="m 46.353417,35.174166 c -0.826498,1.429039 -1.563454,2.886658 -2.214403,4.36616 -0.02297,-3.046978 0.145506,-6.116285 0.605588,-9.22757 0.78644,-5.32942 1.987602,-10.631153 3.116306,-15.924401 C 48.672089,10.584433 48.620838,3.7518432 51.699441,0.72049533 52.543612,0.06537051 52.74685,1.350612 52.74685,1.9083836 52.75745,2.0262793 52.74445,-0.36825336 51.925064,0.04884725 47.054438,2.5644016 45.476257,10.47413 43.916926,14.434352 41.641847,20.214813 39.706085,26.123887 38.909041,32.137906 38.707571,33.657153 38.598,35.175953 38.572669,36.692073 38.407134,36.286584 38.251613,35.877968 38.079598,35.473818 35.268443,28.880592 31.474681,22.447239 26.743081,16.51405 25.578443,15.054198 10.934166,0.64948999 9.7877898,2.8542284 c 0.1131059,0.320194 0.3499212,0.5859058 0.7110362,0.7971355 0.02121,0.024115 0.0218,0.010718 0.0094,-0.025008 0.860077,1.3892933 3.305404,3.5350839 4.067102,4.7524461 1.916911,3.063501 3.406728,6.314564 4.920699,9.503552 3.198778,6.739256 6.166042,13.546392 9.042586,20.367818 0.6698,1.588912 1.367875,3.168893 2.08009,4.743961 C 23.276854,32.404511 13.482585,22.790655 0,17.28707 c 4.6049445,2.34273 7.624049,6.750421 10.733874,10.125185 3.750759,4.070527 7.70122,8.031642 11.459048,12.097704 4.43234,4.796656 9.647586,9.847861 13.910856,15.155846 4.129546,8.669798 8.142451,17.348974 10.61959,26.462666 -1.015008,-3.148797 -0.07953,-7.500219 -0.25331,-10.80487 -0.137848,-2.630324 -0.445355,-5.239213 -0.866557,-7.843189 0.520759,1.174491 0.969648,2.349875 1.172885,3.44309 -0.185564,-1.833635 -0.399405,-3.655659 -0.629152,-5.468305 0.589683,-1.696983 1.168762,-3.280536 1.55992,-4.584981 2.004686,-6.691472 4.391693,-13.267729 7.642311,-19.677413 3.007912,-5.92917 6.458233,-11.782869 10.217828,-17.457938 1.753732,-2.645954 3.531616,-5.282083 5.298308,-7.922679 C 72.021991,9.0834965 73.123007,6.3156276 74.733,4.6592826 64.326073,14.174 52.955978,23.757489 46.353417,35.174166"
           id="Fill-27" />
      </g>
      <path
         style="fill:#00aa00;fill-opacity:0.51310862;fill-rule:evenodd;stroke:none;stroke-width:0.26458332"
         inkscape:connector-curvature="0"
         d="m 13.774849,52.735255 c -1.30062,-0.64493 -3.03447,0.10305 -2.31118,1.80798 0.77477,1.82573 3.6393,1.84828 5.25706,1.8121 -0.16192,-0.008 -0.68332,-1.68271 -0.86183,-1.9357 -0.52643,-0.74631 -1.28446,-1.28717 -2.08405,-1.68438 z m 14.98546,32.7334 c 0.32813,0.28056 0.0267,0.0263 0,0 z m -16.23837,-24.47559 c -0.76111,0.58181 -0.79741,1.60905 -0.17568,2.30436 0.74033,0.82777 2.09216,0.79763 3.10126,0.71697 0.45647,-0.0365 2.89378,-0.2317 2.31606,-0.63054 0.0444,0.0168 0.13725,0.0575 0.23657,0.11288 0.0534,0.19531 0.10958,0.38993 0.16807,0.58368 -0.0144,0.008 -0.0265,0.0174 -0.0419,0.0257 0.0166,-0.007 0.0283,-0.0151 0.0429,-0.0225 0.58613,1.93652 1.42043,3.78041 2.51288,5.50545 -0.40874,-0.16094 -0.83209,-0.28278 -1.26147,-0.33701 -1.27152,-0.16082 -3.9464,0.8273 -2.52409,2.5203 1.36378,1.62299 3.48694,-0.11823 5.03471,-0.35835 1.5013,2.09528 3.15653,4.10328 4.89121,6.04419 -0.10629,0.0333 -0.19958,0.10265 -0.25304,0.21064 -0.69591,-0.35306 -1.42107,-0.85813 -2.06512,-0.99486 -0.92938,-0.19703 -2.8351,-0.31651 -3.53754,0.51537 -0.86395,1.0229 0.0621,1.85375 1.08287,2.04992 1.48008,0.28453 3.41756,-0.43861 4.84172,-0.92721 0.1629,0.0288 0.34074,-0.0189 0.44698,-0.14915 0.0315,-0.0103 0.0629,-0.0204 0.0936,-0.0303 1.75667,1.93143 3.58054,3.79912 5.39332,5.62586 -0.0193,-0.001 -0.0386,-0.002 -0.0587,-0.003 -0.47287,-0.31014 -0.98008,-0.5646 -1.52987,-0.69789 -1.27181,-0.30999 -2.7682,-0.31151 -3.8003,0.60873 -1.02808,0.9163 -1.39227,2.51883 -0.32868,3.54774 2.12892,2.05957 5.26559,-2.63641 6.33945,-2.83243 1.84219,1.83692 3.79011,3.55314 5.76863,5.23476 -0.22468,-0.0684 -0.45511,-0.11869 -0.69328,-0.1413 -1.94013,-0.18573 -6.494,2.19282 -4.11298,4.53302 2.0749,2.03929 4.47644,-1.88581 6.14856,-3.25851 1.86442,1.56734 3.739,3.12393 5.56093,4.7412 -0.99369,-0.26385 -1.95401,-0.30272 -3.01926,0.0192 -1.10225,0.33356 -2.88086,1.16584 -2.18407,2.65405 0.70871,1.51342 2.84453,0.82477 3.95696,0.34424 0.60673,-0.26203 1.8232,-1.14652 2.89127,-1.51908 2.90732,2.74482 5.42557,5.768075 7.33203,9.329485 1.19022,2.22365 2.09341,4.59936 2.72915,7.04111 0.40579,1.5585 1.20533,4.17608 1.04526,6.20455 0.76295,-4.06031 -0.61657,-8.93683 -2.10265,-12.56607 -1.3664,-3.33728 -3.41134,-6.26696 -5.80658,-8.904065 0.60107,-1.80786 5.66036,-4.41538 2.63585,-6.09501 -1.60608,-0.88809 -3.25108,0.58553 -3.60216,2.14622 -0.24114,1.07248 0.12625,2.42002 0.51616,3.46096 -0.7535,-0.80387 -1.53681,-1.5819 -2.34396,-2.3341 -1.11547,-1.0396 -2.25766,-2.04904 -3.41078,-3.04577 1.90018,-1.78513 3.69851,-6.88842 1.15075,-7.72304 -3.76221,-1.22897 -1.95071,5.73212 -1.68826,7.03679 0.0745,0.004 0.13261,-0.0181 0.17534,-0.0664 -0.0212,0.11948 -0.0457,0.24725 -0.0755,0.37608 -2.20704,-1.89773 -4.4468,-3.75814 -6.61276,-5.70122 0.19514,-0.14424 0.50539,-0.69538 0.74919,-0.98872 0.55025,-0.6613 1.07673,-1.35208 1.46149,-2.12569 0.60778,-1.22253 1.19397,-3.17252 -0.41717,-3.89162 -1.75216,-0.78346 -2.5848,1.42204 -2.59702,2.73773 -0.008,0.90994 0.23949,1.77434 0.36858,2.66625 0.0403,0.27817 -0.11503,1.53203 0.26391,0.99264 -0.0179,0.19888 -0.0204,0.34292 -0.0116,0.44503 -0.38887,-0.35058 -0.77473,-0.70499 -1.15814,-1.06193 0.0178,-0.0451 0.0309,-0.0942 0.0339,-0.1512 0.0206,-0.39224 -0.37414,-0.54331 -0.65094,-0.42843 -0.50593,-0.48079 -1.00692,-0.96764 -1.49897,-1.46414 -1.04287,-1.05191 -2.10087,-2.13384 -3.15155,-3.23881 0.22794,-0.19584 0.13728,-0.46701 0.35048,-0.67493 0.21284,-0.20742 0.63205,-0.32215 0.88232,-0.51483 0.6295,-0.48491 1.1515,-1.19137 1.52902,-1.88664 0.62327,-1.14879 1.42874,-3.55868 -0.39203,-4.10622 -1.87674,-0.56525 -2.82934,1.75454 -2.95001,3.2049 -0.0235,0.28097 0.18689,2.81269 0.34796,3.73201 -1.94414,-2.05354 -3.85629,-4.18413 -5.58867,-6.3518 0.52527,-0.005 2.01446,-1.08104 2.31551,-1.3747 0.73458,-0.71625 1.90229,-2.29892 0.61446,-3.13644 -1.14508,-0.74284 -2.55652,0.33308 -3.04618,1.37875 -0.0805,0.17218 -0.36429,1.77477 -0.38643,2.49381 -0.71701,-0.91923 -1.401,-1.84386 -2.03735,-2.77148 -0.42438,-0.61671 -0.82094,-1.24973 -1.19199,-1.89619 0.0893,-0.0506 0.17335,-0.13891 0.25271,-0.2487 1.90979,-0.32412 4.34466,-3.30387 2.10143,-4.34062 -1.06803,-0.49298 -2.2263,0.52462 -2.74949,1.35776 -0.10719,0.17045 -0.28079,1.02738 -0.42208,1.7033 -1.06747,-2.14163 -1.88322,-4.40893 -2.50409,-6.73362 0.16626,-0.0413 0.30706,-0.16828 0.32562,-0.38672 0.92721,-0.5286 1.65939,-0.96875 2.30666,-1.98523 0.40212,-0.63136 1.12629,-2.07384 -0.0552,-2.42427 -1.53758,-0.45597 -2.50343,1.89253 -2.62923,3.04929 -0.0146,0.13427 -0.0141,0.5248 -0.009,0.88267 -0.0534,-0.007 -0.10734,-0.006 -0.16027,0.003 -0.35314,-1.43948 -0.63501,-2.89748 -0.85919,-4.35793 0.83923,-0.27011 0.98437,-4.67755 0.42558,-5.30512 -1.24898,-1.4052 -2.13015,0.62468 -2.06348,1.69751 0.0788,1.26498 0.652,2.41568 1.33456,3.43691 0.0732,0.10815 0.0523,0.1029 0.0713,-0.0477 0.0105,0.0745 0.0354,0.12942 0.0723,0.16922 -0.0352,0.66587 -0.10386,1.34759 -0.0709,1.93681 0.0945,1.68736 0.29107,3.38455 0.57645,5.05018 0.0694,0.4051 0.14893,0.8069 0.23805,1.20523 -0.67453,-0.57467 -1.584,-1.08525 -1.93987,-1.24492 -0.92363,-0.41398 -2.34705,-0.86097 -3.26446,-0.15961 z m 46.45666,58.576655 c -0.0428,0.58841 -0.14902,1.12718 -0.34731,1.57148 0.14869,-0.50586 0.26276,-1.03158 0.34731,-1.57148 z"
         id="Leaf-Bottom" />
      <g
         style="opacity:0.7;fill:#00aa00;fill-opacity:0.6142322;fill-rule:evenodd;stroke:none;stroke-width:1"
         id="Plant-Right"
         transform="matrix(0.25992222,0.04944469,-0.04944469,0.25992222,143.03884,23.617061)">
        <path
           style="fill:#00aa00;fill-opacity:0.6142322"
           inkscape:connector-curvature="0"
           d="m 79.904753,113.04038 c -13.651708,0.72264 -29.610417,10.41287 -29.507811,25.32393 0.07485,10.83417 1.524567,21.49265 1.021537,32.37136 -0.40276,8.6944 -2.293301,17.19873 -5.230065,25.38858 -2.823875,7.8754 -9.645284,15.0436 -10.752225,23.25621 -0.705633,5.23293 0.743947,12.33748 2.981231,17.14844 2.720706,5.84932 1.563255,5.48607 -2.05185,11.01402 -7.083865,10.83311 -13.331425,21.83524 -17.257364,34.29701 -5.655191,17.94943 -8.43676,38.52803 -3.693395,57.0268 0.603062,2.34913 1.920561,10.86785 5.26911,11.12103 3.739938,0.28345 1.509347,-4.43334 1.14717,-5.99466 -2.309406,-9.96235 -4.34613,-18.66859 -3.917511,-29.07815 1.654316,-40.16354 27.289922,-69.20548 42.237382,-104.71663 0.833719,-1.83789 2.544617,-6.18546 3.749612,-9.0617 1.902403,-4.54094 3.409923,-12.95953 6.261565,-16.47806 5.370452,-6.62847 1.120872,6.00901 0.193511,8.43377 -1.172372,3.06709 -2.473526,6.3326 -3.720342,9.04321 -5.688852,12.55504 -12.069278,26.2779 -17.947119,39.22137 31.704221,3.80041 49.597806,-35.71524 55.334671,-61.06092 4.72679,-20.88206 7.96307,-68.8832 -24.118107,-67.25561"
           id="Leaf-Me-Alone!"
           transform="matrix(-0.9945219,0.10452846,0.10452846,0.9945219,95.472974,-5.0035266)" />
        <path
           style="fill:#00aa00;fill-opacity:0.6142322"
           inkscape:connector-curvature="0"
           d="m 210.80537,78.1212 c -22.82274,1.810806 -37.47443,16.870553 -44.29484,37.93433 -3.67596,11.35143 -4.0973,23.01265 -6.14006,34.67808 -3.07297,17.55076 -9.68482,30.85106 -22.6066,43.35497 -4.00226,3.87248 -6.95161,7.84851 -9.04819,12.10234 -4.16205,4.24711 -7.78503,9.05319 -10.44676,14.92927 -3.40011,7.50419 -4.3622,16.50771 -0.43647,23.98918 1.05544,2.01117 3.68858,6.04865 6.41758,7.88303 -10.21716,21.75998 -15.83496,45.59174 -15.2017,69.3932 0.38265,14.36775 1.08403,28.74139 1.90232,43.09147 0.22034,3.85312 1.47509,10.21577 3.35974,3.75378 1.72487,-5.91059 -0.43815,-15.18939 -0.63831,-21.36432 -0.97386,-30.08077 -1.80644,-57.43144 10.57627,-85.53556 1.29849,-2.94561 2.67518,-5.86765 4.10907,-8.76612 0.0841,-0.0488 0.16231,-0.10775 0.24136,-0.165 0.0547,0.0421 0.10428,0.0876 0.15895,0.1288 0.0917,-0.16331 0.21697,-0.35778 0.36331,-0.57498 0.41124,-0.42429 0.77034,-0.96054 1.11178,-1.55909 1.09833,-1.52206 2.34131,-3.31013 2.34804,-4.2892 0,-0.008 -0.004,-0.0194 -0.004,-0.0269 7.6656,-12.51316 16.44552,-24.33686 25.41382,-35.92905 -0.0673,0.0842 9.7277,-13.25231 8.21309,-5.87692 -0.72998,3.55427 -7.93473,10.32269 -10.84455,14.08742 -6.43692,8.37551 -13.99572,18.98779 -20.27706,29.24987 -0.84519,0.48574 -2.0394,2.87069 -2.90309,4.64698 -0.47684,0.89993 -0.92172,1.80744 -1.35904,2.59793 22.25675,7.35351 39.57017,-7.45874 51.37597,-24.68708 0.0143,-0.0202 0.0269,-0.0412 0.0404,-0.0614 3.5927,-4.76063 7.27287,-9.48758 11.87055,-13.25063 7.67065,-6.27931 15.88542,-7.38718 24.92941,-10.47759 24.66366,-8.42685 35.14994,-40.39083 38.48025,-64.1081 3.75754,-26.75717 -14.62226,-67.786959 -46.711,-65.14862"
           id="path1265" />
        <path
           style="fill:#00aa00;fill-opacity:0.6142322"
           inkscape:connector-curvature="0"
           d="M 187.08728,8.2818784 C 160.49848,29.163511 144.58611,61.07338 131.2885,91.305359 116.43664,125.07145 104.87305,159.85285 99.484323,196.37211 c -3.539948,23.99335 -7.589711,48.06798 -9.559287,72.2536 -0.700053,8.58944 -1.05019,17.24324 -0.884335,25.86098 0.01389,0.70818 0.390346,19.95093 3.89734,15.97216 1.994507,-2.26264 -0.353269,-19.95631 -0.313028,-22.84269 0.229831,-16.25678 2.023085,-32.41403 4.382537,-48.48931 3.88452,-26.46741 6.80735,-52.9317 13.20153,-78.94708 0.95406,-3.88434 1.85252,-7.97867 3.3303,-11.70209 1.5697,-3.95872 0.0526,-2.34758 3.5178,-3.51509 3.3671,-1.1353 7.22235,-0.36376 10.76404,-1.88383 14.04858,-6.03044 23.50455,-25.26311 30.51788,-37.76866 8.02142,-14.3006 13.87153,-29.930045 18.97082,-45.449075 3.7451,-11.40244 6.88151,-22.817869 9.39689,-34.546727 0.79262,-3.696549 1.35737,-7.599252 2.60728,-11.167837 0.33681,-0.96266 1.57508,-2.575312 1.66238,-3.45748 C 191.16114,8.8219432 190.19407,7.5727246 190.32156,6 c -1.0938,0.7373788 -2.17292,1.4985159 -3.23428,2.2818784"
           id="path1267"
           transform="rotate(-8,140,158.5)" />
        <path
           style="fill:#00aa00;fill-opacity:0.6142322"
           inkscape:connector-curvature="0"
           d="m 38,328 c 0,40.31679 32.683213,73 73,73 40.31679,0 73,-32.68321 73,-73"
           id="Base" />
        <path
           style="fill:#00aa00;fill-opacity:0.6142322"
           inkscape:connector-curvature="0"
           d="M 116.85729,328.23237 H 113 c 0.26764,-4.83953 0.62115,-9.67058 1.43019,-14.45622 3.09437,-18.30285 12.76975,-45.18494 33.99009,-48.15568 0.78285,-0.11072 3.66257,-0.12931 7.15089,0.0752 1.65325,-0.92377 3.50516,-1.48242 5.45639,-1.61088 18.06705,-1.33198 38.24359,13.24369 46.9585,28.41183 7.02547,12.2295 5.84193,28.28844 1.50257,41.28113 -2.90581,8.69841 -9.24775,21.10033 -19.82383,21.22119 -13.23188,0.15128 -13.86995,-16.20262 -14.12585,-25.7631 -0.34008,-12.7104 -1.94619,-23.78288 -11.96164,-32.44664 -2.33425,-2.01825 -4.88568,-3.79393 -7.24349,-5.78429 -3.69203,-3.11527 -7.77212,-6.30492 -8.24773,-11.45872 -0.65658,-7.11035 3.35701,-8.38993 9.48514,-7.06894 1.04465,0.22481 11.56769,4.94674 10.00956,1.2145 -0.4756,-1.14012 -2.21303,-2.0436 -4.40585,-2.72058 -5.67442,-0.61697 -12.44146,-1.33282 -14.38765,-0.90517 -20.99558,4.60614 -29.17007,33.68903 -31.34102,52.16682 -0.23429,1.99448 -0.42376,3.99547 -0.58898,5.99953 z"
           id="path1270" />
      </g>
      <g
         style="opacity:0.5;fill:#00aa00;fill-opacity:0.67790264;fill-rule:evenodd;stroke:none;stroke-width:1"
         id="Plant-Left"
         transform="matrix(0.26458333,0,0,0.26458333,6.0620239,126.81493)">
        <path
           style="fill:#00aa00;fill-opacity:0.67790264"
           inkscape:connector-curvature="0"
           d="m 178.22298,111.44452 c 4.20233,-5.99201 12.00065,-21.209747 17.91535,-23.350872 3.80961,-1.379082 2.69886,12.886462 2.74591,15.606592 0.18321,10.52375 -0.84131,20.98076 -2.10651,31.41615 -2.2794,18.82018 -9.7328,35.58098 -19.95571,51.59889 -5.26049,8.24219 -11.43062,16.58432 -19.97655,21.72705 -3.9337,2.36833 -8.66693,2.76487 -12.5517,4.80538 -4.52439,2.37542 -2.06042,0.45514 -4.0994,5.16978 -2.83157,6.54564 -3.73726,14.99022 -5.04739,21.97466 -6.01543,32.06236 -20.57868,201.55236 -18.05397,234.16591 0.22424,2.89072 -3.8065,3.582 -4.00772,0.053 -1.0695,-18.71157 8.18515,-148.28891 12.85427,-190.66443 4.66913,-42.37551 9.39407,-79.81216 14.13176,-94.47276 5.74753,-17.78643 16.12789,-39.17598 24.76882,-55.76259 4.01364,-7.70577 8.38859,-15.14607 13.38284,-22.26679 z"
           id="Leaf" />
        <path
           style="fill:#00aa00;fill-opacity:0.67790264"
           inkscape:connector-curvature="0"
           d="m 209.41413,319.27776 c 10.93504,-8.02806 22.77139,7.1233 12.87631,15.1526 -5.47023,4.43811 -11.18905,2.85935 -14.40858,-0.83916 -2.08999,2.54759 -4.04615,5.21134 -5.92577,7.46129 -5.72671,6.85601 -11.13932,13.87566 -16.31221,21.05899 -10.74587,14.92318 -19.95489,30.68921 -29.58357,46.16694 -9.50225,15.27568 -18.92852,30.6296 -27.54124,46.2923 C 121.22288,467.84083 111.49799,483.45204 109,498 c 3.79011,-30.8537 18.17186,-60.50956 35.29802,-87.70946 16.9868,-26.97645 36.48113,-56.43773 62.78301,-77.72696 -2.67689,-3.93654 -2.7512,-9.55565 2.3331,-13.28582 z"
           id="path1274" />
        <path
           style="fill:#00aa00;fill-opacity:0.67790264"
           inkscape:connector-curvature="0"
           d="m 1.9131966,244.03077 c 6.119244,1.19672 16.1180194,15.0394 21.1621014,20.31357 5.994552,6.26762 11.433099,12.948 16.559569,19.94738 11.036241,15.06587 20.906218,31.08402 29.299057,47.78814 13.682523,27.23106 24.644004,55.18469 32.599216,84.8378 4.86968,18.15173 8.02259,36.9653 9.89118,55.64749 0.35289,3.52335 4.04688,30.6877 -1.27593,31.41986 -4.78731,0.65926 -3.30869,-20.62645 -3.53964,-23.52183 -2.61068,-32.66531 -10.431516,-64.44839 -21.310229,-95.23708 -2.369539,-6.70702 -4.570926,-14.92193 -8.360379,-20.9576 -2.728937,-4.3474 -0.01957,-2.83132 -4.815318,-4.47661 -4.117914,-1.41358 -8.809691,-1.06816 -13.026528,-2.7985 C 49.935634,353.23666 42.600572,345.94373 36.170888,338.60791 23.675758,324.35137 13.774003,308.92804 8.6126365,290.66039 5.7494672,280.53158 3.1183607,270.34385 1.6582582,259.90183 1.2805551,257.20288 -2.0281623,243.25997 1.9131966,244.03077 Z"
           id="path1276" />
        <path
           style="fill:#00aa00;fill-opacity:0.67790264"
           inkscape:connector-curvature="0"
           d="m 26.061363,13.716032 c 23.049925,39.97438 41.991409,83.885187 54.222062,128.360198 7.410316,26.94692 12.592572,54.59843 17.741556,82.05019 7.972269,42.50563 15.513129,85.00798 17.658149,128.26863 2.15802,43.51136 6.42537,93.69661 -7.8223,135.60495 7.11678,-42.54835 0.34113,-87.83776 -0.85857,-130.65018 -0.5733,-20.43796 -2.23463,-40.67609 -4.41399,-60.99462 -2.11485,-19.71006 -5.56991,-39.32627 -8.787353,-58.88141 -1.567275,-9.52371 -3.213268,-19.03309 -4.889117,-28.53726 -0.500299,-2.83558 -0.711635,-11.24975 -2.510362,-13.18686 -1.810375,-1.94987 -11.04715,-2.74476 -13.947069,-4.17545 -5.839442,-2.8816 -11.332225,-6.9747 -16.19348,-11.29958 C 46.941798,171.98395 38.834658,161.15116 32.435855,150.47249 17.630684,125.76373 11.711583,95.610044 12.010759,66.994155 12.068241,61.438242 21.003398,1.6099513 17.414895,0.78606626 17.630954,0.53302938 17.835328,0.27176118 18.028036,0 c 2.716804,4.5487845 5.382776,9.1283956 8.033327,13.716032 z"
           id="path1278" />
        <path
           style="fill:#00aa00;fill-opacity:0.67790264"
           inkscape:connector-curvature="0"
           d="m 274.84616,157.88729 c 0.35565,-0.51299 2.67039,-4.08063 1.50476,-3.85262 2.37326,-0.46423 -3.26427,3.93473 2.64908,1.23555 -2.8077,2.65169 -1.18728,6.09627 -1.14981,9.66516 0.0611,5.79428 -0.90833,11.54105 -1.99963,17.21101 -1.72443,8.96248 -4.29337,17.67663 -8.02213,26.01281 -8.12696,18.16643 -21.92695,35.65495 -38.3101,47.01247 -8.08791,5.60766 -16.01442,7.51687 -25.23869,10.09842 -5.82643,1.63094 -6.28848,4.64487 -9.38117,10.29877 -6.43874,11.77587 -12.76281,23.50939 -18.44121,35.68258 -6.78038,14.53607 -13.3625,29.08816 -19.57135,43.88012 -20.91649,49.82593 -37.94057,101.44633 -46.8811,154.86844 -0.2189,-31.48149 7.06382,-63.90472 16.25028,-93.91181 6.69178,-21.86249 15.40322,-42.93727 24.69483,-63.79869 2.25154,-5.05393 5.66355,-11.55499 6.61971,-17.13474 0.6695,-3.90946 -1.37737,-7.6692 -2.31453,-11.78751 -3.6536,-16.03744 -3.3921,-34.00454 -0.1837,-50.12774 3.53751,-17.77887 13.76783,-26.03066 31.07373,-28.54892 6.32911,-0.92115 14.37358,-0.58355 20.17707,-3.28216 6.32281,-2.93871 8.93106,-12.59819 12.52644,-18.79882 9.65708,-16.65621 21.13108,-32.63053 34.3064,-46.66476 3.64812,-3.88626 7.57134,-7.4716 11.73343,-10.79476 2.62461,-2.09674 8.16903,-4.67991 9.95769,-7.2628 z"
           id="path1280" />
        <path
           style="fill:#00aa00;fill-opacity:0.67790264"
           inkscape:connector-curvature="0"
           d="m 80.791453,476 h 61.417097 c 2.76142,0 5,2.23858 5,5 0,0.24414 -0.0179,0.48795 -0.0535,0.72948 l -4.74699,32.18846 C 140.96096,523.73048 132.54074,531 122.62207,531 h -22.24414 c -9.918669,0 -18.33889,-7.26952 -19.785992,-17.08206 l -4.746984,-32.18846 c -0.402883,-2.73187 1.48514,-5.2731 4.217016,-5.67598 C 80.303499,476.01788 80.547312,476 80.791453,476 Z"
           id="path1282" />
      </g>
      <g
         style="fill:#00aa00;fill-opacity:0.52808987;fill-rule:evenodd;stroke:none;stroke-width:1"
         id="Top-Leaves-3"
         transform="matrix(0.20247331,-0.25828232,-0.25828232,-0.20247331,184.23747,254.55288)">
        <path
           style="fill:#00aa00;fill-opacity:0.52808987"
           inkscape:connector-curvature="0"
           d="m 211.45999,136.91362 c 0.238,-10.386 -4.017,-19.958 -8.727,-28.992 -9.169,-17.587001 -13.755,-28.109001 -12.273,-48.996001 0.872,-12.284 1.914,-25.263 -4.356,-36.418 -4.565,-8.123 -14.141,-16.8129997 -24.253,-15.3439997 -16.007,3.6459997 -24.943,18.8979997 -28.369,34.0419997 -4.246,18.77 0.616,32.774 14.79,44.801 7.987,6.775 12.492,13.754 14.67,24.072001 1.743,8.251 1.248,17.713 4.229,25.648 4.457,11.862 12.504,19.106 24.608,21.309 -4.368,-23.512 -10.504,-47.806 -20.343,-69.604001 -0.883,-2.157 -7.23,-11.377 -4.589,-13.706 2.909,-2.564 7.71,12.178 7.672,12.086 2.789,6.551 5.142,13.314 7.404,20.105001 -0.012,0.002 -0.025,0.001 -0.038,0.003 2.335,6.973 4.61,14.018 6.783,21.109 0.844,2.975 1.634,5.967 2.336,8.999 1.03,4.449 1.152,16.166 4.073,19.645 0.625,0.744 1.261,1.253 1.902,1.586 1.17,4.906 2.262,9.823 3.219,14.75 2.499,12.868 3.944,26.067 2.324,39.152 -0.473,3.819 -5.332,17.101 -3.722,20.492 2.943,6.202 4.598,-3.362 5.226,-6.207 5.193,-23.562 3.316,-45.683 -2.35,-68.751 5.209,-3.588 9.687,-15.573 9.784,-19.781"
           id="path1289-6"
           transform="rotate(-18,171.73476,120.35244)" />
        <path
           style="fill:#00aa00;fill-opacity:0.52808987"
           inkscape:connector-curvature="0"
           d="m 115.85853,100.65925 c -7.60151,1.11192 -14.77699,10.71964 -18.317494,17.12555 -4.381105,7.92661 -7.436597,16.97088 -9.738523,25.67825 -3.792453,14.34345 -4.304947,30.26336 -4.351901,44.95348 -0.0057,1.77022 -0.375066,23.39348 2.153045,23.03874 2.504634,-0.35128 0.91848,-22.79611 1.132067,-27.44388 0.454659,-9.91875 -0.225039,-19.70067 2.10151,-29.49351 2.408434,-10.14011 6.824468,-19.69608 12.404636,-28.45461 0.71634,-1.124 2.23207,-5.30319 3.95393,-4.33788 1.68407,0.94404 -2.98105,6.51112 -3.64357,7.59315 -2.7354,4.46838 -5.110622,9.20008 -7.077566,14.06115 -3.685373,9.10752 -5.60021,18.63819 -5.534931,28.45174 5.785165,0.88827 10.825353,-2.49924 12.765957,-8.14394 1.67663,-4.87888 1.8404,-10.55405 3.74493,-15.16732 1.31186,-3.17708 3.39849,-5.87525 5.95008,-8.15658 6.73113,-6.01726 13.7583,-7.52243 15.76476,-17.50903 1.57298,-7.82887 -0.38022,-23.786151 -11.30693,-22.19531"
           id="path1291-0"
           transform="matrix(-0.52991926,0.8480481,0.8480481,0.52991926,29.162335,-16.164946)" />
        <path
           style="fill:#00aa00;fill-opacity:0.52808987"
           inkscape:connector-curvature="0"
           d="M 2.3517646,80 H 0 C 0.16475746,77.0154 0.3793521,74.035656 0.8836734,71.084484 2.7741771,60.022326 8.6853441,43.774909 21.6499,41.979403 c 0.478283,-0.06692 2.237645,-0.07815 4.368833,0.04546 1.010051,-0.558318 2.141474,-0.895965 3.333581,-0.973609 11.038053,-0.80504 23.364898,8.004434 28.689269,17.171988 4.292204,7.391459 3.569123,17.09741 0.917994,24.950132 -1.775304,5.257283 -5.649911,12.752948 -12.111361,12.825994 -8.084011,0.09144 -8.473838,-9.792789 -8.63018,-15.571101 C 38.010266,72.746156 37.029014,66.054 30.910077,60.817659 29.483971,59.597839 27.925179,58.524622 26.484673,57.321658 24.229029,55.438803 21.7363,53.510996 21.44573,50.39606 c -0.401141,-4.297466 2.05096,-5.070836 5.794939,-4.272436 0.638225,0.135876 7.067275,2.989786 6.115337,0.734037 -0.29057,-0.689086 -1.352049,-1.235145 -2.691756,-1.644306 -3.466781,-0.372893 -7.6011,-0.805551 -8.790123,-0.54708 C 9.0468849,47.450206 4.0526843,65.027779 2.7263488,76.195675 2.5761854,77.460255 2.4561642,78.729161 2.3517645,80 Z"
           id="path1293-6"
           transform="matrix(-1,0,0,1,61.104844,0)" />
      </g>
      <g
         transform="matrix(-2.0395808,0,0,2.0395808,228.1206,15.83996)"
         id="g1254">
        <g
           style="fill:none;fill-rule:evenodd;stroke:none;stroke-width:1"
           transform="matrix(0.26458333,0,0,0.26458333,41.726012,1.8910283)"
           id="Head/Front/Afro">
          <path
             id="Hair-Back"
             d="m 61,77.706859 c 11.428938,0 15.585497,-13.682775 22.078619,-21.191511 C 87.724314,51.143002 95.65308,52.744944 98,45.223776 103.90154,26.311124 88.106109,13 67.5,13 46.893891,13 33,24.674252 30,42.223776 27,59.7733 40.393891,77.706859 61,77.706859 Z"
             inkscape:connector-curvature="0"
             style="fill:#191847" />
          <g
             transform="translate(54,31)"
             id="Head"
             style="fill:#b28b67;stroke-width:1">
            <path
               id="path980"
               d="M 8.2622739,34.490127 C 3.6543643,29.081376 0.53563479,22.452877 1.0567763,15.025454 2.5583302,-6.3750206 32.348531,-1.6671889 38.143341,9.1339329 43.938152,19.935055 43.249578,47.332996 35.760301,49.263458 32.773588,50.033323 26.411001,48.147461 19.935372,44.244306 L 24,73 H 0 Z"
               inkscape:connector-curvature="0" />
          </g>
          <path
             id="Hair"
             d="M 72.379769,51.723368 C 71.507774,51.26203 70.50862,51 69.446668,51 c -3.400209,0 -6.156624,2.686292 -6.156624,6 0,1.352489 0.459181,2.600459 1.233901,3.603923 -1.458755,2.40446 -2.454362,4.930758 -2.780706,7.52785 C 56.687035,68.131773 38.23358,49 56.61679,31 75,13 101.56601,38.69596 93.583161,40.194527 88.993429,41.056126 79.749848,45.437908 72.379772,51.723366 Z"
             inkscape:connector-curvature="0"
             style="fill:#191847" />
        </g>
        <path
           style="fill:#b28b67;fill-rule:evenodd;stroke:none;stroke-width:0.26458332"
           inkscape:connector-curvature="0"
           d="m 51.379056,54.560586 c 0.497537,6.790605 32.549749,26.783003 32.736756,27.343945 0.08311,0.249311 -3.242438,8.130105 -9.976658,23.642389 l 2.801857,1.08877 C 87.270152,90.207058 92.169453,81.117475 91.638913,79.36694 90.87933,76.860677 82.589698,68.615965 66.77001,54.632797 Z"
           id="Leg-5" />
        <path
           style="fill:#69a1ac;fill-opacity:1;fill-rule:evenodd;stroke:none;stroke-width:0.26458332"
           inkscape:connector-curvature="0"
           d="m 74.876486,102.04365 4.574462,1.66519 C 89.096862,92.825392 92.877799,83.845514 92.188399,79.270149 91.728796,76.219905 83.46776,67.988932 67.40529,54.577227 H 51.051006 c 0.558017,15.726025 30.266422,27.387175 30.663783,28.057309 0.397363,0.670135 -3.513165,7.233568 -6.838303,19.409114 z"
           id="Pant-6" />
        <g
           style="fill:#ff2a2a;fill-opacity:0.97003748;fill-rule:evenodd;stroke:none;stroke-width:1"
           id="Accessories/Shoe/Flat-Sneaker-2"
           transform="matrix(0.248627,0.09049283,-0.09049283,0.248627,74.811163,98.172774)">
          <path
             inkscape:connector-curvature="0"
             d="m 2.7930117,26.491554 c -1.1667441,3.114593 -1.7501162,5.445029 -1.7501162,6.991307 0,1.880639 0.3133007,4.62496 0.939902,8.232961 2.1816734,0 21.7887395,0 58.8211985,0 1.528555,-5.053343 0.646184,-7.78148 -2.647111,-8.184412 -3.293295,-0.402931 -6.029091,-0.766746 -8.207388,-1.091444 L 22.609968,20.251867 c -0.526067,-0.234523 -1.142647,0.0018 -1.377171,0.527887 -0.004,0.009 -0.0079,0.01806 -0.01165,0.02717 l -1.757364,4.262929 c -3.04873,1.422465 -5.526139,2.133697 -7.432229,2.133697 -1.548652,0 -3.6873536,-0.625451 -6.416105,-1.876352 l 5.7e-6,-1.3e-5 c -1.0471721,-0.48004 -2.2852219,-0.02029 -2.7652617,1.026884 -0.02069,0.04513 -0.039763,0.09099 -0.05718,0.13749 z"
             id="shoe-9"
             style="fill:#ff2a2a;fill-opacity:0.97003748" />
        </g>
        <polygon
           style="fill:#997659;fill-rule:evenodd;stroke:none;stroke-width:1"
           id="polygon1058"
           points="41.084779,239.08411 177.99483,0 135.57642,0 81.610787,129.55569 28.570969,239.08411 "
           transform="matrix(0.26458333,0,0,0.26458333,19.193134,54.560591)" />
        <g
           style="fill:#ff2a2a;fill-opacity:0.97003748;fill-rule:evenodd;stroke:none;stroke-width:1"
           id="g1062"
           transform="matrix(0.26458333,0,0,0.26458333,25.815521,109.47121)">
          <path
             inkscape:connector-curvature="0"
             d="m 2.7930117,26.491554 c -1.1667441,3.114593 -1.7501162,5.445029 -1.7501162,6.991307 0,1.880639 0.3133007,4.62496 0.939902,8.232961 2.1816734,0 21.7887395,0 58.8211985,0 1.528555,-5.053343 0.646184,-7.78148 -2.647111,-8.184412 -3.293295,-0.402931 -6.029091,-0.766746 -8.207388,-1.091444 L 22.609968,20.251867 c -0.526067,-0.234523 -1.142647,0.0018 -1.377171,0.527887 -0.004,0.009 -0.0079,0.01806 -0.01165,0.02717 l -1.757364,4.262929 c -3.04873,1.422465 -5.526139,2.133697 -7.432229,2.133697 -1.548652,0 -3.6873536,-0.625451 -6.416105,-1.876352 l 5.7e-6,-1.3e-5 c -1.0471721,-0.48004 -2.2852219,-0.02029 -2.7652617,1.026884 -0.02069,0.04513 -0.039763,0.09099 -0.05718,0.13749 z"
             id="path1060"
             style="fill:#ff2a2a;fill-opacity:0.97003748" />
        </g>
        <path
           style="fill:#89c5cc;fill-opacity:1;fill-rule:evenodd;stroke:none;stroke-width:0.26458332"
           inkscape:connector-curvature="0"
           d="m 28.019823,111.79813 7.356958,1.37966 C 41.065159,104.81481 64.871258,70.523809 67.48137,54.560591 H 51.103124 C 42.386631,66.100382 33.442023,103.29681 28.019823,111.79813 Z"
           id="path1064" />
        <path
           style="fill:#b28b67;fill-rule:evenodd;stroke:none;stroke-width:0.26458332"
           inkscape:connector-curvature="0"
           d="m 78.087175,26.271878 10.458894,-3.139679 c 1.951117,-1.518857 3.791466,-2.629374 5.52105,-3.331551 0.503023,-0.09468 1.335802,-0.03969 0.29514,1.140814 -1.040662,1.180506 -2.082189,2.469023 -1.785064,2.964014 0.297127,0.494991 1.379712,0.121847 1.693034,0.905943 0.208881,0.522731 -1.584709,0.897122 -5.380765,1.123172 l -8.131998,4.785803 z m -0.924206,18.439843 8.80178,6.463338 c 2.387222,0.644159 4.38167,1.445603 5.983343,2.404328 0.378344,0.344752 0.835607,1.042932 -0.733472,0.922269 -1.56908,-0.120663 -3.224943,-0.177014 -3.441446,0.358174 -0.216504,0.535189 0.73302,1.175216 0.295373,1.897325 -0.291764,0.481407 -1.670172,-0.725702 -4.135229,-3.621326 l -8.716071,-3.614335 z"
           id="Skin-1" />
        <path
           style="fill:#191847;fill-opacity:1;fill-rule:evenodd;stroke:none;stroke-width:0.26458332"
           inkscape:connector-curvature="0"
           d="m 63.491567,27.305509 c 4.793154,8.937339 11.72423,15.788446 21.772461,22.910446 l -3.804664,4.289904 C 70.240108,50.336519 64.318875,47.820968 61.411093,39.377009 60.6813,37.257747 60.171241,30.501936 59.733674,26.94736 Z"
           id="Coat-Back-2" />
        <path
           style="fill:#dcdcdc;fill-opacity:1;fill-rule:evenodd;stroke:none;stroke-width:0.26458332"
           inkscape:connector-curvature="0"
           d="M 50.092073,57.082304 H 71.338898 C 66.526135,42.404166 64.067595,32.330003 63.963272,26.859818 c -0.0053,-0.278875 -0.520364,-0.770293 -0.748231,-0.705937 -1.666372,0.470625 -3.449518,0.294654 -5.349446,-0.527913 -5.036963,8.100947 -6.778833,18.074852 -7.773522,31.456336 z"
           id="Shirt-7" />
        <path
           style="fill:#2f3676;fill-opacity:1;fill-rule:evenodd;stroke:none;stroke-width:0.26458332"
           inkscape:connector-curvature="0"
           d="m 59.678668,25.639046 c 6.090314,0.04987 15.971403,1.162025 27.36706,-2.496473 l 1.125067,5.621711 c -8.61273,5.539281 -17.333841,9.830267 -24.975709,9.220921 3.31842,14.234364 3.165425,25.886691 -4.160729,25.886691 -3.498604,0 -7.274867,0 -11.328792,0 -1.799273,-12.09193 2.92957,-28.857697 7.313552,-37.314215 0.16741,-0.322929 0.523844,-0.931713 1.363396,-0.931713 0.731514,0 1.828784,0 3.291813,0 0.0013,0.0044 0.0029,0.0087 0.0043,0.01308 z"
           id="Coat-Front-0" />
        <polygon
           style="fill:#ffffff;fill-opacity:0.2;fill-rule:evenodd;stroke:none;stroke-width:1"
           id="Light"
           points="128,92.429272 128,104 103.1109,104 "
           transform="matrix(0.26458333,0,0,0.26458333,26.724636,29.160592)" />
      </g>
    </g>
  </g>
</svg>
