<?xml version="1.0" encoding="UTF-8" standalone="no"?>
<!-- Created with Inkscape (http://www.inkscape.org/) -->

<svg
   xmlns:dc="http://purl.org/dc/elements/1.1/"
   xmlns:cc="http://creativecommons.org/ns#"
   xmlns:rdf="http://www.w3.org/1999/02/22-rdf-syntax-ns#"
   xmlns:svg="http://www.w3.org/2000/svg"
   xmlns="http://www.w3.org/2000/svg"
   xmlns:sodipodi="http://sodipodi.sourceforge.net/DTD/sodipodi-0.dtd"
   xmlns:inkscape="http://www.inkscape.org/namespaces/inkscape"
   width="800mm"
   height="800mm"
   viewBox="0 0 800 800"
   version="1.1"
   id="svg3840"
   sodipodi:docname="sobre2.svg"
   inkscape:version="0.92.4 (5da689c313, 2019-01-14)">
  <defs
     id="defs3834">
    <filter
       style="color-interpolation-filters:sRGB"
       id="a">
      <feColorMatrix
         values="0.6612 0 0 0.0362972 0.1694 0 0.6612 0 0.0362972 0.1694 0 0 0.6612 0.0362972 0.1694 0 0 0 1 0"
         id="feColorMatrix3265" />
    </filter>
  </defs>
  <sodipodi:namedview
     id="base"
     pagecolor="#ffffff"
     bordercolor="#666666"
     borderopacity="1.0"
     inkscape:pageopacity="0.0"
     inkscape:pageshadow="2"
     inkscape:zoom="0.0875"
     inkscape:cx="3600.9212"
     inkscape:cy="1515.5279"
     inkscape:document-units="mm"
     inkscape:current-layer="layer1"
     showgrid="false"
     inkscape:window-width="1366"
     inkscape:window-height="706"
     inkscape:window-x="0"
     inkscape:window-y="32"
     inkscape:window-maximized="1" />
  <metadata
     id="metadata3837">
    <rdf:RDF>
      <cc:Work
         rdf:about="">
        <dc:format>image/svg+xml</dc:format>
        <dc:type
           rdf:resource="http://purl.org/dc/dcmitype/StillImage" />
        <dc:title></dc:title>
      </cc:Work>
    </rdf:RDF>
  </metadata>
  <g
     inkscape:label="Layer 1"
     inkscape:groupmode="layer"
     id="layer1"
     transform="translate(0,503)">
    <g
       transform="matrix(8.1327065,0,0,8.1327065,55.522349,-2089.4821)"
       id="g2412">
      <g
         id="Head/Front/Airy"
         transform="matrix(0.26458333,0,0,0.26458333,20.382822,197.6584)"
         style="fill:none;fill-rule:evenodd;stroke:none;stroke-width:1">
        <g
           style="fill:#b28b67;stroke-width:1"
           id="Head"
           transform="translate(54,31)">
          <path
             inkscape:connector-curvature="0"
             d="M 8.2622739,34.490127 C 3.6543643,29.081376 0.53563479,22.452877 1.0567763,15.025454 2.5583302,-6.3750206 32.348531,-1.6671889 38.143341,9.1339329 43.938152,19.935055 43.249578,47.332996 35.760301,49.263458 32.773588,50.033323 26.411001,48.147461 19.935372,44.244306 L 24,73 H 0 Z"
             id="path1012" />
        </g>
        <path
           style="fill:#191847"
           inkscape:connector-curvature="0"
           d="m 78.46395,27.685257 c -3.16313,-0.518719 -11.679999,-0.875353 -13.250662,-0.875123 -1.003727,0 -2.091462,0.229314 -2.685941,-0.692316 C 62.040518,25.363109 62.218861,24.086687 62.07357,23.210874 61.904866,22.193467 61.665239,21.189183 61.422857,20.187431 60.733124,17.336894 59.690147,14.624959 58.230806,12.078793 55.492532,7.3018818 51.481065,3.5601063 46.416751,1.3827761 40.824292,-1.0213354 34.495965,-1.5718268 28.480485,-1.0841895 22.043133,-0.56247752 16.215866,1.5625894 10.137955,3.5624086 4.346036,5.4680618 -1.7203989,6.2181667 -7.7781117,5.2875578 -13.881501,4.3500418 -18.493185,1.0420286 -23.641277,-2.097683 c -5.270201,-3.2143076 -11.293025,-5.3165813 -17.523343,-4.8333185 -5.81579,0.4512601 -11.175967,2.8526088 -15.985045,6.06046986 -4.499445,3.00134044 -8.212066,6.61234264 -10.308119,11.69454464 -2.254887,5.466925 -2.252821,11.467764 1.45521,16.299241 5.374636,7.003281 15.352464,8.814308 23.653587,8.634264 4.801504,-0.103836 9.517165,-0.98034 14.05035,-2.574715 6.045548,-2.126449 11.269843,-5.730544 16.925652,-8.654756 2.654266,-1.372199 5.3978186,-2.499198 8.2735796,-3.311006 2.790606,-0.788094 5.5392083,-1.149562 8.0658566,0.536217 2.6728579,1.783398 5.0679868,3.535255 8.1257638,4.651663 2.933372,1.071052 6.040498,1.670123 9.165756,1.645949 6.080666,-0.04697 12.0748,-1.94157 17.980565,-3.210624 4.815964,-1.034675 9.968876,-2.065897 14.878717,-1.071283 2.048771,0.415114 5.041362,1.272047 5.781361,3.401259 -12.454439,2.257221 -17.345907,17.659927 -13.834811,28.966987 1.894986,6.102833 13.286009,13.236981 17.714988,10.028629 2.805886,-2.032583 1.102425,-4.700996 0,-6.462522 -2.111202,-3.3734 -2.833528,-7.706649 1.073045,-10.055274 3.369706,-2.025605 6.91272,2.78467 6.979743,2.779375 0.926147,-0.07298 8.928861,-4.598871 14.442586,-11.203288 5.43931,0.322437 6.264532,-3.264104 4.965731,-6.197221 -1.2988,-2.933116 -9.405496,-6.62447 -13.775946,-7.341651 z"
           id="hair" />
      </g>
      <g
         transform="matrix(0.26458333,0,0,0.26458333,1.3328224,258.24798)"
         id="Objects/Seat/Ball"
         style="fill:#c5cfd6;fill-rule:evenodd;stroke:none;stroke-width:1">
        <ellipse
           ry="73.5"
           rx="77"
           cy="58.5"
           cx="116"
           id="Ballsy-Ball" />
      </g>
      <path
         id="Skin"
         d="m 70.52381,290.17257 c -3.390048,-7.50314 -5.841698,-14.03656 -6.825781,-17.48362 -1.684988,-5.90218 -2.966826,-11.09576 -3.290806,-13.0353 -0.772572,-4.62506 5.943055,-4.89439 6.830722,-2.59581 1.343517,3.47899 3.68899,14.90948 6.507257,32.17481 z M 31.201198,266.62563 c 3.110365,-1.22945 14.002705,-5.077 19.256078,-6.16541 1.50961,-0.31276 2.972766,-0.60335 4.34839,-0.86597 4.088845,-0.78058 6.20725,6.59584 2.269194,7.16261 -9.807313,1.41149 -23.710834,2.86907 -24.900673,3.03265 -1.667608,0.22926 -2.927757,-2.39122 -0.972989,-3.16388 z"
         inkscape:connector-curvature="0"
         style="fill:#b28b67;fill-rule:evenodd;stroke:none;stroke-width:0.26458332" />
      <path
         id="Leg-Back"
         d="m 57.315247,257.56437 -16.824092,-8.56444 v -1.86445 h 2.00083 c 16.276555,4.14754 24.593861,6.80553 24.951917,7.97397 0.0039,0.0126 0.0074,0.0252 0.01061,0.0378 0.0082,0.0108 0.01624,0.0216 0.02416,0.0325 3.22567,4.43622 5.15751,26.09421 5.791576,27.71588 l -6.181114,0.92214 c -2.364454,-8.76779 -9.929225,-14.87574 -9.728277,-25.37682 -0.05426,-0.30803 -0.06797,-0.60015 -0.04561,-0.87649 z"
         inkscape:connector-curvature="0"
         style="fill:#5599ff;fill-opacity:1;fill-rule:evenodd;stroke:none;stroke-width:0.26458332" />
      <path
         id="Leg-Front"
         d="m 41.888994,262.65077 c -1.539364,-0.30814 -2.956954,-0.58316 -4.169958,-0.79592 -7.835214,-1.37429 -10.120029,-5.56842 -8.769125,-14.71937 h 14.436251 c 2.358187,0.67742 14.613541,5.81682 20.972161,8.55037 4.208462,1.80919 2.881818,8.33123 0.498565,10.02854 -0.01294,0.10412 -0.05583,0.17485 -0.132212,0.20651 -12.820224,5.31353 -22.962201,2.52553 -26.350187,3.41634 l -1.567096,-4.94341 z"
         inkscape:connector-curvature="0"
         style="fill:#80b3ff;fill-opacity:1;fill-rule:evenodd;stroke:none;stroke-width:0.26458332" />
      <g
         transform="matrix(0.1159857,0.23780592,-0.23780592,0.1159857,37.994772,262.25673)"
         id="Accessories/Shoe/Flat-Sneaker-3"
         style="fill:#999999;fill-opacity:1;fill-rule:evenodd;stroke:none;stroke-width:1">
        <path
           style="fill:#999999;fill-opacity:1"
           id="shoe-6"
           d="M 2.6781318,25.401924 C 1.5593773,28.388411 1,30.622993 1,32.105671 1,33.908957 1.3004142,36.5404 1.9012426,40 c 2.0919386,0 20.8925424,0 56.4018124,0 1.465683,-4.845493 0.619606,-7.461418 -2.538232,-7.847777 -3.157838,-0.386358 -5.781107,-0.735209 -7.869809,-1.046552 L 21.679993,19.418883 c -0.50443,-0.224877 -1.095649,0.0017 -1.320526,0.506174 -0.0038,0.0086 -0.0076,0.01731 -0.01117,0.02605 l -1.685082,4.08759 c -2.923332,1.363957 -5.298842,2.045936 -7.126532,2.045936 -1.484954,0 -3.5356885,-0.599726 -6.1522031,-1.799176 l 5.5e-6,-1.2e-5 c -1.0041007,-0.460295 -2.1912281,-0.01945 -2.6515233,0.984647 -0.019839,0.04328 -0.038127,0.08725 -0.054828,0.131834 z"
           inkscape:connector-curvature="0" />
      </g>
      <g
         transform="matrix(0.26458333,0,0,0.26458333,68.272405,282.06048)"
         id="g1026"
         style="fill:#999999;fill-opacity:1;fill-rule:evenodd;stroke:none;stroke-width:1">
        <path
           style="fill:#999999;fill-opacity:1"
           id="path1024"
           d="M 2.6781318,25.401924 C 1.5593773,28.388411 1,30.622993 1,32.105671 1,33.908957 1.3004142,36.5404 1.9012426,40 c 2.0919386,0 20.8925424,0 56.4018124,0 1.465683,-4.845493 0.619606,-7.461418 -2.538232,-7.847777 -3.157838,-0.386358 -5.781107,-0.735209 -7.869809,-1.046552 L 21.679993,19.418883 c -0.50443,-0.224877 -1.095649,0.0017 -1.320526,0.506174 -0.0038,0.0086 -0.0076,0.01731 -0.01117,0.02605 l -1.685082,4.08759 c -2.923332,1.363957 -5.298842,2.045936 -7.126532,2.045936 -1.484954,0 -3.5356885,-0.599726 -6.1522031,-1.799176 l 5.5e-6,-1.2e-5 c -1.0041007,-0.460295 -2.1912281,-0.01945 -2.6515233,0.984647 -0.019839,0.04328 -0.038127,0.08725 -0.054828,0.131834 z"
           inkscape:connector-curvature="0" />
      </g>
      <g
         id="Body/Jacket-2"
         transform="matrix(0.26458333,0,0,0.26458333,4.5078224,219.35423)"
         style="fill:none;fill-rule:evenodd;stroke:none;stroke-width:1">
        <path
           style="fill:#b28b67"
           inkscape:connector-curvature="0"
           d="m 198,77.617088 36.23457,-15.912914 c 6.34745,-6.325152 12.47682,-11.13256 18.3881,-14.422224 1.76759,-0.562741 4.78743,-0.732751 1.5655,3.973218 -3.22194,4.70597 -6.39928,9.800846 -5.11188,11.450128 1.2874,1.649283 5.01672,-0.171076 6.49005,2.510981 0.98223,1.788037 -5.30405,3.926903 -18.85885,6.416599 L 209.56994,92.439287 Z M 51.508283,82 72,86.065845 C 51.392082,124.47106 40.340426,144.82584 38.845032,147.1302 c -3.364638,5.18481 -0.225363,14.68704 0.934272,19.69098 -7.2749,1.69344 -4.405903,-9.25617 -13.612148,-6.97 -8.403034,2.08672 -15.527793,7.44199 -23.3632776,0.21956 -0.9633268,-0.88796 -1.6685276,-3.66345 1.6159415,-5.08699 C 12.60263,151.43719 24.692043,144.79634 26.652342,142.2181 29.325561,138.7022 37.610874,118.6295 51.508283,82 Z"
           id="path1029" />
        <path
           style="fill:#db2721"
           inkscape:connector-curvature="0"
           d="m 123.28025,9.8771803 8.48495,-2.2311707 c 20.35493,16.5590654 31.83717,59.6156624 44.84747,64.3096364 12.30071,4.437963 28.59592,-2.323636 47.89049,-11.216614 l 7.29289,13.096311 C 215.40983,95.000024 178.29861,114.91655 161.84294,106.83981 135.53374,93.926787 125.0468,40.501408 123.28025,9.8771803 Z"
           id="Coat-Back"
           transform="rotate(5,177.53815,58.161768)" />
        <path
           style="fill:#dde3e9"
           inkscape:connector-curvature="0"
           d="m 90,114 c 34.67176,0 60.17557,0 76.51145,0 3.49618,0 2.83739,-5.04836 2.332,-7.59579 C 163.01059,77.003766 140.2413,45.311515 140.2413,3.4607303 L 118.1718,0 C 99.917485,29.358407 93.604826,65.50455 90,114 Z"
           id="Shirt" />
        <path
           style="fill:#ff4133"
           inkscape:connector-curvature="0"
           d="M 82.368755,84.23317 C 66.771381,112.36783 53.660945,132.62344 43.037445,145 L 27,141.85882 C 37.330593,77.790672 67.246611,30.504399 116.74805,0 H 117 h 8.4864 c 19.81252,67.536948 25.27448,112.53695 16.38588,135 H 73 c 1.089628,-16.43655 4.583396,-33.8188 9.368756,-50.766834 z"
           id="Coat-Front" />
      </g>
      <g
         id="g2288"
         transform="matrix(0.04608858,0.00778321,-0.00778321,0.04608858,65.212354,197.2144)">
        <rect
           style="fill:#1a1a1a;fill-opacity:1"
           id="rect7043-7"
           width="222.94728"
           height="439.05563"
           x="236.73819"
           y="453.96384"
           ry="19.654068" />
        <rect
           style="fill:#ffffff;fill-opacity:1"
           id="rect7153"
           width="191.92899"
           height="398.00012"
           x="252.24734"
           y="474.49158"
           ry="5.3066673" />
        <path
           id="path5528"
           style="fill:#00aa00;fill-opacity:1;stroke-width:0.32874268"
           d="m 377.23177,504.9183 c -4.08235,4.69801 -12.25688,7.04416 -17.47052,5.93558 -2.75357,-4.30232 -0.89902,-15.28812 4.38186,-18.7386 4.93563,-3.22515 16.87072,-5.83736 16.87072,-5.83736 1.34467,4.17354 0.33454,13.90311 -3.78206,18.64038 z m -39.93939,2.1e-4 c 4.08231,4.6978 12.25682,7.04395 17.47047,5.93537 2.75356,-4.30232 0.89902,-15.28812 -4.38177,-18.7386 -4.93572,-3.22515 -16.8708,-5.83736 -16.8708,-5.83736 -1.34461,4.17354 -0.33449,13.90311 3.7821,18.64038 z"
           inkscape:connector-curvature="0" />
        <path
           style="fill:#502d16;fill-opacity:1;stroke-width:0.45424789"
           d="m 357.0754,514.88909 c -3.30641,0 -6.07528,5.21509 -7.511,5.21509 -0.58934,0 -4.63955,0 -4.63955,0 h -0.50626 v 0.0255 c -3.14671,0.27008 -5.56732,2.96822 -5.56905,6.20801 0,3.23956 2.42265,5.93707 5.56905,6.20716 v 0.0255 h 0.50626 24.80742 v -0.0318 c 3.14676,-0.26967 5.56728,-2.96505 5.56909,-6.20143 0,-3.23598 -2.42271,-5.93071 -5.56909,-6.20038 v -0.0318 c 0,0 -4.55643,0 -5.14379,0 -1.94399,0 -4.20588,-5.21316 -7.51308,-5.21508 z"
           id="path5448"
           inkscape:connector-curvature="0"
           sodipodi:nodetypes="cccccccccccccccc" />
        <path
           style="fill:#008000;fill-opacity:1;stroke:#008000;stroke-width:0.74232596;stroke-miterlimit:4;stroke-dasharray:none;stroke-opacity:1"
           d="m 341.96242,496.07835 c -0.12913,0 -0.25861,0.0488 -0.35816,0.15072 -0.19902,0.20367 -0.20049,0.52977 -0.006,0.73324 l 11.96824,12.31016 c 0.0864,0.0892 0.19604,0.13582 0.30885,0.14854 0.044,0.0212 0.0895,0.0212 0.1375,0.0212 h 2.5541 v 9.34978 c 0,0.2877 0.22582,0.51939 0.50629,0.51939 0.28048,0 0.50631,-0.23169 0.50631,-0.51939 v -9.34978 h 2.5058 c 0.017,0 0.0311,0 0.0465,0 0.0212,0 0.0408,0 0.0614,0 0,0 0.006,0 0.01,0 0.12462,-0.0232 0.23121,-0.0933 0.30574,-0.19308 l 11.91985,-12.2605 c 0.19689,-0.20367 0.1954,-0.53042 -0.006,-0.73325 -0.19923,-0.20368 -0.51777,-0.20156 -0.71472,0 l -11.81671,12.15507 h -5.74155 l -11.83529,-12.17331 c -0.0985,-0.10188 -0.22742,-0.15273 -0.35655,-0.15273 z"
           id="path5545"
           inkscape:connector-curvature="0" />
        <path
           style="fill:#ff0000;fill-opacity:1;fill-rule:nonzero;stroke:none;stroke-width:1.24249208"
           d="m 323.02791,512.04967 v 34.14745 h 6.27195 0.18459 v 0 c 1.70194,-0.0996 3.04367,-1.58276 3.04367,-3.4091 v -27.31779 c 0,-1.82634 -1.34173,-3.30813 -3.04367,-3.40869 v 0 h -0.18459 z"
           id="rect1447"
           inkscape:connector-curvature="0" />
        <path
           style="fill:#d38d5f;fill-opacity:1;fill-rule:nonzero;stroke:none;stroke-width:1.24249208"
           d="m 340.70919,512.57818 c -2.46988,0.0425 -5.29219,1.13699 -8.32376,4.16185 0.0811,6.03319 0.0575,18.37922 0,24.81085 7.55721,5.09412 15.38844,-0.0784 17.97008,-0.0912 5.2519,-0.63884 12.5866,0.45149 17.244,-1.88191 4.70961,-2.35952 15.6589,-18.22581 15.6589,-18.22581 1.27809,-1.51317 1.76455,-3.55125 0.57958,-5.14738 -1.18486,-1.59613 -3.57931,-2.12762 -4.85734,-0.61445 0,0 -11.84936,16.82614 -13.82081,16.36299 -4.53637,0.62844 -10.34616,0.43196 -12.99827,-1.02967 -1.45128,-0.79966 -4.91064,-3.31488 -1.67781,-4.77885 0.83876,-0.37978 14.04345,-0.76402 14.04345,-0.76402 1.81262,0 3.47177,-1.20318 3.59939,-2.69685 0.13516,-1.58191 -1.45928,-3.46087 -3.27197,-3.46087 0,0 -6.92369,-0.32972 -13.29311,-1.25857 -3.96837,-3.33019 -7.70496,-5.19513 -9.25019,-5.26683 -0.51554,-0.0849 -1.04972,-0.12948 -1.60214,-0.1209 z"
           id="rect1476"
           inkscape:connector-curvature="0"
           sodipodi:nodetypes="ccccsccscsssacccsc" />
        <rect
           style="fill:#cccccc;fill-opacity:1"
           id="rect7281"
           width="149.33369"
           height="130.0415"
           x="273.54498"
           y="568.53967"
           ry="0" />
        <path
           style="fill:none;stroke:#095a07;stroke-width:7.5999999;stroke-linecap:butt;stroke-linejoin:miter;stroke-miterlimit:4;stroke-dasharray:none;stroke-opacity:1"
           d="m 277.24862,647.69453 23.73859,-12.12183 14.64721,6.56599 16.16244,-5.05076 15.15229,4.54569 23.73858,-36.87057 9.59645,3.03046 20.70813,-8.08122 11.11168,7.57614 7.07106,5.55584"
           id="path7287"
           inkscape:connector-curvature="0" />
        <rect
           style="fill:#cccccc;fill-opacity:1"
           id="rect7281-0"
           width="149.33369"
           height="130.0415"
           x="273.54498"
           y="707.06464"
           ry="0" />
        <path
           style="fill:none;stroke:#095a07;stroke-width:7.5999999;stroke-linecap:butt;stroke-linejoin:miter;stroke-miterlimit:4;stroke-dasharray:none;stroke-opacity:1"
           d="m 275.48085,779.1565 19.69798,11.11168 20.70812,5.55584 8.08122,-3.03046 23.73859,-10.6066 10.6066,5.05076 11.11168,-6.56599 13.63706,3.53553 16.16244,-2.52538 12.6269,6.06091 9.09138,-5.05076"
           id="path7845"
           inkscape:connector-curvature="0" />
      </g>
    </g>
  </g>
</svg>
