<?xml version="1.0" encoding="UTF-8" standalone="no"?>
<!-- Created with Inkscape (http://www.inkscape.org/) -->

<svg
   xmlns:dc="http://purl.org/dc/elements/1.1/"
   xmlns:cc="http://creativecommons.org/ns#"
   xmlns:rdf="http://www.w3.org/1999/02/22-rdf-syntax-ns#"
   xmlns:svg="http://www.w3.org/2000/svg"
   xmlns="http://www.w3.org/2000/svg"
   xmlns:sodipodi="http://sodipodi.sourceforge.net/DTD/sodipodi-0.dtd"
   xmlns:inkscape="http://www.inkscape.org/namespaces/inkscape"
   width="800mm"
   height="800mm"
   viewBox="0 0 800 800"
   version="1.1"
   id="svg3840"
   inkscape:version="0.92.4 (5da689c313, 2019-01-14)"
   sodipodi:docname="sobre1.svg">
  <defs
     id="defs3834" />
  <sodipodi:namedview
     id="base"
     pagecolor="#ffffff"
     bordercolor="#666666"
     borderopacity="1.0"
     inkscape:pageopacity="0.0"
     inkscape:pageshadow="2"
     inkscape:zoom="0.12374369"
     inkscape:cx="257.79206"
     inkscape:cy="1712.9924"
     inkscape:document-units="mm"
     inkscape:current-layer="layer1"
     showgrid="false"
     inkscape:window-width="1366"
     inkscape:window-height="706"
     inkscape:window-x="0"
     inkscape:window-y="32"
     inkscape:window-maximized="1" />
  <metadata
     id="metadata3837">
    <rdf:RDF>
      <cc:Work
         rdf:about="">
        <dc:format>image/svg+xml</dc:format>
        <dc:type
           rdf:resource="http://purl.org/dc/dcmitype/StillImage" />
        <dc:title />
      </cc:Work>
    </rdf:RDF>
  </metadata>
  <g
     inkscape:label="Layer 1"
     inkscape:groupmode="layer"
     id="layer1"
     transform="translate(0,503)">
    <path
       d="M 648.23793,-72.308722 C 638.8449,-194.10558 134.87259,-429.18628 41.311683,-313.82274 -52.248998,-198.45921 37.697991,18.047989 233.76681,73.48998 429.83575,128.93196 657.63086,49.488075 648.23793,-72.308722 Z"
       id="Background-Shape"
       inkscape:connector-curvature="0"
       style="fill:#d7e3f4;fill-opacity:0.64419478;fill-rule:evenodd;stroke:none;stroke-width:1.46749306" />
    <path
       d="m 199.97305,6.829382 c 8.4138,-103.47117 459.85066,-303.181412 543.65834,-205.175552 83.80768,98.00587 62.59439,304.14978 -113.03557,351.24992 C 454.96585,200.00388 191.55925,110.30056 199.97305,6.829382 Z"
       id="path834"
       inkscape:connector-curvature="0"
       style="fill:#afc6e9;fill-opacity:0.38951314;fill-rule:evenodd;stroke:none;stroke-width:1.46749306" />
    <path
       d="m 597.03622,-335.73128 25.29522,-27.7328 c 4.2553,-4.66421 11.15583,-4.66573 15.41293,-0.004 10e-4,9.4e-4 0.002,0.002 0.002,0.004 l 67.34313,73.8211 c 4.08584,4.47848 6.38109,10.55145 6.38109,16.88358 v 488.94569"
       id="Body"
       inkscape:connector-curvature="0"
       style="fill:none;fill-rule:evenodd;stroke:#858585;stroke-width:11.40968895;stroke-miterlimit:4;stroke-dasharray:none;stroke-opacity:0.38951313" />
    <rect
       id="Lamp-Base"
       x="670.6015"
       y="214.82391"
       width="80.377327"
       height="9.536293"
       rx="4.0869827"
       style="fill:#afb9c5;fill-rule:evenodd;stroke:#000000;stroke-width:10.90033817;stroke-miterlimit:4;stroke-dasharray:none;stroke-opacity:0.38951314" />
    <g
       style="fill:#797979;fill-opacity:0.40823969;fill-rule:evenodd;stroke:none;stroke-width:1"
       id="Lamp-Top"
       transform="matrix(0.96331105,0.96331105,-0.96331105,0.96331105,566.93096,-373.57986)">
      <path
         d="m 33.030312,1.3839016 v 0 c 18.225397,0 33,14.7746034 33,33.0000004 v 28 H 0.03031192 v -28 c 0,-18.225397 14.77460308,-33.0000004 33.00000008,-33.0000004 z"
         id="Lamp"
         inkscape:connector-curvature="0"
         style="fill:#797979;fill-opacity:0.40823969" />
      <ellipse
         id="ellipse856"
         cx="33.208927"
         cy="61.4454"
         rx="33"
         ry="6.5"
         style="fill:#797979;fill-opacity:0.40823969" />
    </g>
    <g
       style="fill:#a2a2a2;fill-opacity:0.32209742;fill-rule:evenodd;stroke:none;stroke-width:1"
       transform="matrix(1.3623275,0,0,1.3623275,42.809744,-416.03492)"
       id="Clock">
      <circle
         style="fill:#a2a2a2;fill-opacity:0.32209742"
         r="53"
         cy="53"
         cx="53"
         id="Clock-Frame" />
      <circle
         style="fill:#a2a2a2;fill-opacity:0.32209742"
         r="3"
         cy="11"
         cx="53"
         id="Time" />
      <circle
         style="fill:#a2a2a2;fill-opacity:0.32209742"
         r="3"
         cy="53"
         cx="11"
         id="circle821" />
      <circle
         style="fill:#a2a2a2;fill-opacity:0.32209742"
         r="3"
         cy="53"
         cx="95"
         id="circle823" />
      <circle
         style="fill:#a2a2a2;fill-opacity:0.32209742"
         r="3"
         cy="95"
         cx="53"
         id="circle825" />
      <polygon
         style="fill:#a2a2a2;fill-opacity:0.32209742"
         points="55,52 51,52 53,17 "
         id="Hand" />
      <polygon
         style="fill:#a2a2a2;fill-opacity:0.32209742"
         points="64.213203,74.213203 60.213203,74.213203 62.213203,50.213203 "
         transform="rotate(135,62.213203,62.213203)"
         id="polygon828" />
      <circle
         style="fill:#a2a2a2;fill-opacity:0.32209742"
         r="4"
         cy="53"
         cx="53"
         id="circle830" />
    </g>
    <g
       style="opacity:0.7;fill:#20b918;fill-opacity:0.86766547;fill-rule:evenodd;stroke:none;stroke-width:1;stroke-opacity:1"
       transform="matrix(0.98790966,0,0,1.056165,385.50183,-199.49875)"
       id="Plant-Right">
      <path
         style="fill:#20b918;fill-opacity:0.86766547;stroke:none;stroke-opacity:1"
         inkscape:connector-curvature="0"
         transform="matrix(-0.9945219,0.10452846,0.10452846,0.9945219,95.472974,-5.0035266)"
         id="Leaf-Me-Alone!"
         d="m 79.904753,113.04038 c -13.651708,0.72264 -29.610417,10.41287 -29.507811,25.32393 0.07485,10.83417 1.524567,21.49265 1.021537,32.37136 -0.40276,8.6944 -2.293301,17.19873 -5.230065,25.38858 -2.823875,7.8754 -9.645284,15.0436 -10.752225,23.25621 -0.705633,5.23293 0.743947,12.33748 2.981231,17.14844 2.720706,5.84932 1.563255,5.48607 -2.05185,11.01402 -7.083865,10.83311 -13.331425,21.83524 -17.257364,34.29701 -5.655191,17.94943 -8.43676,38.52803 -3.693395,57.0268 0.603062,2.34913 1.920561,10.86785 5.26911,11.12103 3.739938,0.28345 1.509347,-4.43334 1.14717,-5.99466 -2.309406,-9.96235 -4.34613,-18.66859 -3.917511,-29.07815 1.654316,-40.16354 27.289922,-69.20548 42.237382,-104.71663 0.833719,-1.83789 2.544617,-6.18546 3.749612,-9.0617 1.902403,-4.54094 3.409923,-12.95953 6.261565,-16.47806 5.370452,-6.62847 1.120872,6.00901 0.193511,8.43377 -1.172372,3.06709 -2.473526,6.3326 -3.720342,9.04321 -5.688852,12.55504 -12.069278,26.2779 -17.947119,39.22137 31.704221,3.80041 49.597806,-35.71524 55.334671,-61.06092 4.72679,-20.88206 7.96307,-68.8832 -24.118107,-67.25561" />
      <path
         style="fill:#20b918;fill-opacity:0.86766547;stroke:none;stroke-opacity:1"
         inkscape:connector-curvature="0"
         id="path3087"
         d="m 210.80537,78.1212 c -22.82274,1.810806 -37.47443,16.870553 -44.29484,37.93433 -3.67596,11.35143 -4.0973,23.01265 -6.14006,34.67808 -3.07297,17.55076 -9.68482,30.85106 -22.6066,43.35497 -4.00226,3.87248 -6.95161,7.84851 -9.04819,12.10234 -4.16205,4.24711 -7.78503,9.05319 -10.44676,14.92927 -3.40011,7.50419 -4.3622,16.50771 -0.43647,23.98918 1.05544,2.01117 3.68858,6.04865 6.41758,7.88303 -10.21716,21.75998 -15.83496,45.59174 -15.2017,69.3932 0.38265,14.36775 1.08403,28.74139 1.90232,43.09147 0.22034,3.85312 1.47509,10.21577 3.35974,3.75378 1.72487,-5.91059 -0.43815,-15.18939 -0.63831,-21.36432 -0.97386,-30.08077 -1.80644,-57.43144 10.57627,-85.53556 1.29849,-2.94561 2.67518,-5.86765 4.10907,-8.76612 0.0841,-0.0488 0.16231,-0.10775 0.24136,-0.165 0.0547,0.0421 0.10428,0.0876 0.15895,0.1288 0.0917,-0.16331 0.21697,-0.35778 0.36331,-0.57498 0.41124,-0.42429 0.77034,-0.96054 1.11178,-1.55909 1.09833,-1.52206 2.34131,-3.31013 2.34804,-4.2892 0,-0.008 -0.004,-0.0194 -0.004,-0.0269 7.6656,-12.51316 16.44552,-24.33686 25.41382,-35.92905 -0.0673,0.0842 9.7277,-13.25231 8.21309,-5.87692 -0.72998,3.55427 -7.93473,10.32269 -10.84455,14.08742 -6.43692,8.37551 -13.99572,18.98779 -20.27706,29.24987 -0.84519,0.48574 -2.0394,2.87069 -2.90309,4.64698 -0.47684,0.89993 -0.92172,1.80744 -1.35904,2.59793 22.25675,7.35351 39.57017,-7.45874 51.37597,-24.68708 0.0143,-0.0202 0.0269,-0.0412 0.0404,-0.0614 3.5927,-4.76063 7.27287,-9.48758 11.87055,-13.25063 7.67065,-6.27931 15.88542,-7.38718 24.92941,-10.47759 24.66366,-8.42685 35.14994,-40.39083 38.48025,-64.1081 3.75754,-26.75717 -14.62226,-67.786959 -46.711,-65.14862" />
      <path
         style="fill:#20b918;fill-opacity:0.86766547;stroke:none;stroke-opacity:1"
         inkscape:connector-curvature="0"
         transform="rotate(-8,140,158.5)"
         id="path3089"
         d="M 187.08728,8.2818784 C 160.49848,29.163511 144.58611,61.07338 131.2885,91.305359 116.43664,125.07145 104.87305,159.85285 99.484323,196.37211 c -3.539948,23.99335 -7.589711,48.06798 -9.559287,72.2536 -0.700053,8.58944 -1.05019,17.24324 -0.884335,25.86098 0.01389,0.70818 0.390346,19.95093 3.89734,15.97216 1.994507,-2.26264 -0.353269,-19.95631 -0.313028,-22.84269 0.229831,-16.25678 2.023085,-32.41403 4.382537,-48.48931 3.88452,-26.46741 6.80735,-52.9317 13.20153,-78.94708 0.95406,-3.88434 1.85252,-7.97867 3.3303,-11.70209 1.5697,-3.95872 0.0526,-2.34758 3.5178,-3.51509 3.3671,-1.1353 7.22235,-0.36376 10.76404,-1.88383 14.04858,-6.03044 23.50455,-25.26311 30.51788,-37.76866 8.02142,-14.3006 13.87153,-29.930045 18.97082,-45.449075 3.7451,-11.40244 6.88151,-22.817869 9.39689,-34.546727 0.79262,-3.696549 1.35737,-7.599252 2.60728,-11.167837 0.33681,-0.96266 1.57508,-2.575312 1.66238,-3.45748 C 191.16114,8.8219432 190.19407,7.5727246 190.32156,6 c -1.0938,0.7373788 -2.17292,1.4985159 -3.23428,2.2818784" />
      <path
         style="fill:#20b918;fill-opacity:0.86766547;stroke:none;stroke-opacity:1"
         inkscape:connector-curvature="0"
         id="Base"
         d="m 38,328 c 0,40.31679 32.683213,73 73,73 40.31679,0 73,-32.68321 73,-73" />
      <path
         style="fill:#20b918;fill-opacity:0.86766547;stroke:none;stroke-opacity:1"
         inkscape:connector-curvature="0"
         id="path3092"
         d="M 116.85729,328.23237 H 113 c 0.26764,-4.83953 0.62115,-9.67058 1.43019,-14.45622 3.09437,-18.30285 12.76975,-45.18494 33.99009,-48.15568 0.78285,-0.11072 3.66257,-0.12931 7.15089,0.0752 1.65325,-0.92377 3.50516,-1.48242 5.45639,-1.61088 18.06705,-1.33198 38.24359,13.24369 46.9585,28.41183 7.02547,12.2295 5.84193,28.28844 1.50257,41.28113 -2.90581,8.69841 -9.24775,21.10033 -19.82383,21.22119 -13.23188,0.15128 -13.86995,-16.20262 -14.12585,-25.7631 -0.34008,-12.7104 -1.94619,-23.78288 -11.96164,-32.44664 -2.33425,-2.01825 -4.88568,-3.79393 -7.24349,-5.78429 -3.69203,-3.11527 -7.77212,-6.30492 -8.24773,-11.45872 -0.65658,-7.11035 3.35701,-8.38993 9.48514,-7.06894 1.04465,0.22481 11.56769,4.94674 10.00956,1.2145 -0.4756,-1.14012 -2.21303,-2.0436 -4.40585,-2.72058 -5.67442,-0.61697 -12.44146,-1.33282 -14.38765,-0.90517 -20.99558,4.60614 -29.17007,33.68903 -31.34102,52.16682 -0.23429,1.99448 -0.42376,3.99547 -0.58898,5.99953 z" />
    </g>
    <g
       style="opacity:0.5;fill:#20b918;fill-opacity:1;fill-rule:evenodd;stroke:none;stroke-width:1;stroke-opacity:1"
       id="Plant-Left"
       transform="matrix(0.98790966,0,0,1.056165,193.24151,-336.80021)">
      <path
         style="fill:#20b918;fill-opacity:1;stroke:none;stroke-opacity:1"
         inkscape:connector-curvature="0"
         id="Leaf"
         d="m 178.22298,111.44452 c 4.20233,-5.99201 12.00065,-21.209747 17.91535,-23.350872 3.80961,-1.379082 2.69886,12.886462 2.74591,15.606592 0.18321,10.52375 -0.84131,20.98076 -2.10651,31.41615 -2.2794,18.82018 -9.7328,35.58098 -19.95571,51.59889 -5.26049,8.24219 -11.43062,16.58432 -19.97655,21.72705 -3.9337,2.36833 -8.66693,2.76487 -12.5517,4.80538 -4.52439,2.37542 -2.06042,0.45514 -4.0994,5.16978 -2.83157,6.54564 -3.73726,14.99022 -5.04739,21.97466 -6.01543,32.06236 -20.57868,201.55236 -18.05397,234.16591 0.22424,2.89072 -3.8065,3.582 -4.00772,0.053 -1.0695,-18.71157 8.18515,-148.28891 12.85427,-190.66443 4.66913,-42.37551 9.39407,-79.81216 14.13176,-94.47276 5.74753,-17.78643 16.12789,-39.17598 24.76882,-55.76259 4.01364,-7.70577 8.38859,-15.14607 13.38284,-22.26679 z" />
      <path
         style="fill:#20b918;fill-opacity:1;stroke:none;stroke-opacity:1"
         inkscape:connector-curvature="0"
         id="path3096"
         d="m 209.41413,319.27776 c 10.93504,-8.02806 22.77139,7.1233 12.87631,15.1526 -5.47023,4.43811 -11.18905,2.85935 -14.40858,-0.83916 -2.08999,2.54759 -4.04615,5.21134 -5.92577,7.46129 -5.72671,6.85601 -11.13932,13.87566 -16.31221,21.05899 -10.74587,14.92318 -19.95489,30.68921 -29.58357,46.16694 -9.50225,15.27568 -18.92852,30.6296 -27.54124,46.2923 C 121.22288,467.84083 111.49799,483.45204 109,498 c 3.79011,-30.8537 18.17186,-60.50956 35.29802,-87.70946 16.9868,-26.97645 36.48113,-56.43773 62.78301,-77.72696 -2.67689,-3.93654 -2.7512,-9.55565 2.3331,-13.28582 z" />
      <path
         style="fill:#20b918;fill-opacity:1;stroke:none;stroke-opacity:1"
         inkscape:connector-curvature="0"
         id="path3098"
         d="m 1.9131966,244.03077 c 6.119244,1.19672 16.1180194,15.0394 21.1621014,20.31357 5.994552,6.26762 11.433099,12.948 16.559569,19.94738 11.036241,15.06587 20.906218,31.08402 29.299057,47.78814 13.682523,27.23106 24.644004,55.18469 32.599216,84.8378 4.86968,18.15173 8.02259,36.9653 9.89118,55.64749 0.35289,3.52335 4.04688,30.6877 -1.27593,31.41986 -4.78731,0.65926 -3.30869,-20.62645 -3.53964,-23.52183 -2.61068,-32.66531 -10.431516,-64.44839 -21.310229,-95.23708 -2.369539,-6.70702 -4.570926,-14.92193 -8.360379,-20.9576 -2.728937,-4.3474 -0.01957,-2.83132 -4.815318,-4.47661 -4.117914,-1.41358 -8.809691,-1.06816 -13.026528,-2.7985 C 49.935634,353.23666 42.600572,345.94373 36.170888,338.60791 23.675758,324.35137 13.774003,308.92804 8.6126365,290.66039 5.7494672,280.53158 3.1183607,270.34385 1.6582582,259.90183 1.2805551,257.20288 -2.0281623,243.25997 1.9131966,244.03077 Z" />
      <path
         style="fill:#20b918;fill-opacity:1;stroke:none;stroke-opacity:1"
         inkscape:connector-curvature="0"
         id="path3100"
         d="m 26.061363,13.716032 c 23.049925,39.97438 41.991409,83.885187 54.222062,128.360198 7.410316,26.94692 12.592572,54.59843 17.741556,82.05019 7.972269,42.50563 15.513129,85.00798 17.658149,128.26863 2.15802,43.51136 6.42537,93.69661 -7.8223,135.60495 7.11678,-42.54835 0.34113,-87.83776 -0.85857,-130.65018 -0.5733,-20.43796 -2.23463,-40.67609 -4.41399,-60.99462 -2.11485,-19.71006 -5.56991,-39.32627 -8.787353,-58.88141 -1.567275,-9.52371 -3.213268,-19.03309 -4.889117,-28.53726 -0.500299,-2.83558 -0.711635,-11.24975 -2.510362,-13.18686 -1.810375,-1.94987 -11.04715,-2.74476 -13.947069,-4.17545 -5.839442,-2.8816 -11.332225,-6.9747 -16.19348,-11.29958 C 46.941798,171.98395 38.834658,161.15116 32.435855,150.47249 17.630684,125.76373 11.711583,95.610044 12.010759,66.994155 12.068241,61.438242 21.003398,1.6099513 17.414895,0.78606626 17.630954,0.53302938 17.835328,0.27176118 18.028036,0 c 2.716804,4.5487845 5.382776,9.1283956 8.033327,13.716032 z" />
      <path
         style="fill:#20b918;fill-opacity:1;stroke:none;stroke-opacity:1"
         inkscape:connector-curvature="0"
         id="path3102"
         d="m 274.84616,157.88729 c 0.35565,-0.51299 2.67039,-4.08063 1.50476,-3.85262 2.37326,-0.46423 -3.26427,3.93473 2.64908,1.23555 -2.8077,2.65169 -1.18728,6.09627 -1.14981,9.66516 0.0611,5.79428 -0.90833,11.54105 -1.99963,17.21101 -1.72443,8.96248 -4.29337,17.67663 -8.02213,26.01281 -8.12696,18.16643 -21.92695,35.65495 -38.3101,47.01247 -8.08791,5.60766 -16.01442,7.51687 -25.23869,10.09842 -5.82643,1.63094 -6.28848,4.64487 -9.38117,10.29877 -6.43874,11.77587 -12.76281,23.50939 -18.44121,35.68258 -6.78038,14.53607 -13.3625,29.08816 -19.57135,43.88012 -20.91649,49.82593 -37.94057,101.44633 -46.8811,154.86844 -0.2189,-31.48149 7.06382,-63.90472 16.25028,-93.91181 6.69178,-21.86249 15.40322,-42.93727 24.69483,-63.79869 2.25154,-5.05393 5.66355,-11.55499 6.61971,-17.13474 0.6695,-3.90946 -1.37737,-7.6692 -2.31453,-11.78751 -3.6536,-16.03744 -3.3921,-34.00454 -0.1837,-50.12774 3.53751,-17.77887 13.76783,-26.03066 31.07373,-28.54892 6.32911,-0.92115 14.37358,-0.58355 20.17707,-3.28216 6.32281,-2.93871 8.93106,-12.59819 12.52644,-18.79882 9.65708,-16.65621 21.13108,-32.63053 34.3064,-46.66476 3.64812,-3.88626 7.57134,-7.4716 11.73343,-10.79476 2.62461,-2.09674 8.16903,-4.67991 9.95769,-7.2628 z" />
      <path
         style="fill:#20b918;fill-opacity:1;stroke:none;stroke-opacity:1"
         inkscape:connector-curvature="0"
         id="path3104"
         d="m 80.791453,476 h 61.417097 c 2.76142,0 5,2.23858 5,5 0,0.24414 -0.0179,0.48795 -0.0535,0.72948 l -4.74699,32.18846 C 140.96096,523.73048 132.54074,531 122.62207,531 h -22.24414 c -9.918669,0 -18.33889,-7.26952 -19.785992,-17.08206 l -4.746984,-32.18846 c -0.402883,-2.73187 1.48514,-5.2731 4.217016,-5.67598 C 80.303499,476.01788 80.547312,476 80.791453,476 Z" />
    </g>
    <g
       style="fill:#20b918;fill-opacity:0.59176028;fill-rule:evenodd;stroke:none;stroke-width:1;stroke-opacity:1"
       transform="matrix(2.4095426,0,0,2.4095426,53.833596,14.922415)"
       id="Maceta">
      <path
         inkscape:connector-curvature="0"
         id="path3107"
         d="m 15.940702,44.17525 c 0,23.530167 1.736865,42.605137 25.049673,42.605137 23.312806,0 25.049673,-19.07497 25.049673,-42.605137"
         style="fill:#20b918;fill-opacity:0.59176028;stroke:none;stroke-width:1.06904125;stroke-opacity:1" />
      <path
         inkscape:connector-curvature="0"
         id="Fill-27"
         d="m 47.925757,29.494446 c -0.854534,1.579595 -1.616488,3.190781 -2.289517,4.826156 -0.02375,-3.367992 0.150441,-6.760666 0.626129,-10.19974 0.813117,-5.890901 2.055023,-11.751197 3.222014,-17.602115 0.838697,-4.204684 0.785707,-11.7571208 3.968738,-15.1078362 0.872806,-0.7241454 1.082938,0.6965026 1.082938,1.3130382 0.01096,0.1303166 -0.0025,-2.5164919 -0.849661,-2.0554477 -5.035841,2.7805804 -6.667555,11.5236378 -8.27978,15.9010887 -2.352251,6.389461 -4.353675,12.921085 -5.177756,19.568711 -0.208304,1.679307 -0.321591,3.35812 -0.347782,5.033971 -0.17115,-0.44821 -0.331946,-0.899875 -0.509796,-1.346605 C 36.464773,22.537813 32.542324,15.426674 27.650225,8.8683944 26.446081,7.2547398 11.30506,-8.6675753 10.119798,-6.2305568 c 0.116943,0.353928 0.361791,0.6476339 0.735155,0.8811177 0.02193,0.026656 0.02254,0.011847 0.0097,-0.027643 0.889252,1.5356622 3.417526,3.9075224 4.205061,5.2531397 1.981934,3.386256 3.522287,6.9798345 5.087613,10.5047984 3.307282,7.44927 6.375198,14.973571 9.349316,22.513668 0.69252,1.756312 1.414275,3.502752 2.150648,5.243761 C 24.066421,26.432994 13.939924,15.806271 0,9.7228559 4.7611474,12.312404 7.882662,17.184467 11.097974,20.914779 c 3.877988,4.499377 7.962451,8.877815 11.847747,13.372257 4.582688,5.302007 9.974839,10.885382 14.382722,16.752589 4.269623,9.583204 8.418648,19.176774 10.979814,29.250638 -1.049438,-3.480538 -0.08223,-8.290404 -0.261903,-11.943216 -0.142524,-2.907442 -0.460462,-5.79119 -0.895951,-8.669508 0.538423,1.29823 1.002539,2.597446 1.21267,3.805837 -0.191858,-2.026818 -0.412953,-4.040801 -0.650493,-6.044418 0.609685,-1.875769 1.208407,-3.626157 1.612833,-5.068031 2.072687,-7.396452 4.540663,-14.66555 7.901544,-21.750526 3.109942,-6.553837 6.6773,-13.024252 10.564423,-19.297218 1.81322,-2.9247181 3.651411,-5.8385763 5.478031,-8.7573721 1.195615,-1.91081546 2.333978,-4.970293 3.998583,-6.8011421 C 66.508057,6.2818086 54.752281,16.874965 47.925757,29.494446"
         style="fill:#20b918;fill-opacity:0.59176028;stroke:none;stroke-width:1.06904125;stroke-opacity:1" />
    </g>
  </g>
</svg>
