<?xml version="1.0" encoding="UTF-8" standalone="no"?>
<!-- Created with Inkscape (http://www.inkscape.org/) -->

<svg
   xmlns:dc="http://purl.org/dc/elements/1.1/"
   xmlns:cc="http://creativecommons.org/ns#"
   xmlns:rdf="http://www.w3.org/1999/02/22-rdf-syntax-ns#"
   xmlns:svg="http://www.w3.org/2000/svg"
   xmlns="http://www.w3.org/2000/svg"
   xmlns:sodipodi="http://sodipodi.sourceforge.net/DTD/sodipodi-0.dtd"
   xmlns:inkscape="http://www.inkscape.org/namespaces/inkscape"
   width="800mm"
   height="800mm"
   viewBox="0 0 800 800"
   version="1.1"
   id="svg3840"
   sodipodi:docname="sobre3.svg"
   inkscape:version="0.92.4 (5da689c313, 2019-01-14)">
  <defs
     id="defs3834">
    <filter
       style="color-interpolation-filters:sRGB"
       id="a">
      <feColorMatrix
         values="0.6612 0 0 0.0362972 0.1694 0 0.6612 0 0.0362972 0.1694 0 0 0.6612 0.0362972 0.1694 0 0 0 1 0"
         id="feColorMatrix3265" />
    </filter>
  </defs>
  <sodipodi:namedview
     id="base"
     pagecolor="#ffffff"
     bordercolor="#666666"
     borderopacity="1.0"
     inkscape:pageopacity="0.0"
     inkscape:pageshadow="2"
     inkscape:zoom="0.0875"
     inkscape:cx="3600.9212"
     inkscape:cy="1515.5279"
     inkscape:document-units="mm"
     inkscape:current-layer="layer1"
     showgrid="false"
     inkscape:window-width="1366"
     inkscape:window-height="706"
     inkscape:window-x="0"
     inkscape:window-y="32"
     inkscape:window-maximized="1" />
  <metadata
     id="metadata3837">
    <rdf:RDF>
      <cc:Work
         rdf:about="">
        <dc:format>image/svg+xml</dc:format>
        <dc:type
           rdf:resource="http://purl.org/dc/dcmitype/StillImage" />
        <dc:title></dc:title>
      </cc:Work>
    </rdf:RDF>
  </metadata>
  <g
     inkscape:label="Layer 1"
     inkscape:groupmode="layer"
     id="layer1"
     transform="translate(0,503)">
    <g
       id="g2380"
       transform="matrix(7.4842656,0,0,7.4842656,-867.61408,-540.82663)">
      <path
         id="path2543"
         d="m 170.56446,47.910588 -9.18363,-5.029838 c -1.52718,-1.813534 -3.03188,-3.221996 -4.5141,-4.225388 -0.45291,-0.189086 -1.24495,-0.303534 -0.50425,1.011146 0.74071,1.314681 1.4607,2.73084 1.08333,3.135865 -0.37735,0.405024 -1.31834,-0.160777 -1.76852,0.512175 -0.30013,0.448634 1.30747,1.157351 4.82278,2.126149 l 6.67303,6.109872 z"
         style="fill:#997659;fill-rule:evenodd;stroke:none;stroke-width:0.26458332"
         inkscape:connector-curvature="0" />
      <g
         id="Head/Front/Curly"
         transform="matrix(-0.26458333,0,0,0.26458333,196.51188,13.114439)"
         style="fill:none;fill-rule:evenodd;stroke:none;stroke-width:1">
        <g
           style="fill:#b28b67;stroke-width:1"
           id="Head-1"
           transform="translate(54,31)">
          <path
             inkscape:connector-curvature="0"
             d="M 8.2622739,34.490127 C 3.6543643,29.081376 0.53563479,22.452877 1.0567763,15.025454 2.5583302,-6.3750206 32.348531,-1.6671889 38.143341,9.1339329 43.938152,19.935055 43.249578,47.332996 35.760301,49.263458 32.773588,50.033323 26.411001,48.147461 19.935372,44.244306 L 24,73 H 0 Z"
             id="path1131" />
        </g>
        <path
           style="fill:#191847"
           inkscape:connector-curvature="0"
           d="m 102.7757,25.160438 c -0.49699,-1.746939 -1.83377,-3.242683 -3.6353,-3.686428 -0.436869,-0.107636 -0.888043,-0.151111 -1.337569,-0.132986 -0.161247,0.0064 -0.20647,0.05293 -0.281819,-0.05983 -0.0559,-0.0836 -0.05715,-0.28784 -0.08016,-0.386085 -0.07159,-0.305506 -0.161115,-0.607202 -0.271601,-0.901084 -0.376945,-1.002351 -1.010395,-1.889447 -1.774042,-2.636728 -1.428344,-1.398024 -3.358294,-2.362876 -5.363394,-2.537432 -1.097413,-0.09549 -2.18685,0.08281 -3.224339,0.439805 -0.537137,0.184801 -1.057992,0.414915 -1.565266,0.669329 -0.152742,0.07657 -0.648282,0.451625 -0.801552,0.427327 -0.169289,-0.02679 -0.509516,-0.447489 -0.647162,-0.553089 -1.701396,-1.305361 -3.802414,-1.818587 -5.921627,-1.802892 -2.392,0.01767 -4.695335,0.137189 -6.690283,1.595369 -0.4223,0.308723 -0.824494,0.646736 -1.207438,1.002613 -0.201657,0.187362 -0.396986,0.381751 -0.583283,0.584217 -0.112398,0.12215 -0.221829,0.247058 -0.327174,0.375315 -0.178782,0.217703 -0.150105,0.289219 -0.400347,0.13732 -0.960097,-0.583298 -2.072672,-0.856099 -3.19329,-0.718385 -0.665422,0.08183 -1.312847,0.281601 -1.927576,0.544551 -0.209304,0.08951 -0.693769,0.44657 -0.916851,0.45005 -0.221302,0.0034 -0.698977,-0.327571 -0.926937,-0.411697 -1.231236,-0.454515 -2.558323,-0.566552 -3.852449,-0.356533 -1.334932,0.216717 -2.646264,0.749317 -3.777297,1.485302 -0.543993,0.354037 -1.018636,0.746296 -1.399866,1.272722 -0.164608,0.22729 -0.313396,0.467715 -0.499957,0.678456 -0.109233,0.123398 -0.325525,0.250013 -0.38413,0.406181 0.03507,-0.09352 -1.459921,-0.669853 -1.600996,-0.706695 -0.751583,-0.196294 -1.516878,-0.156497 -2.252838,0.0857 -1.383912,0.455435 -2.574078,1.476765 -3.552237,2.523904 -0.502396,0.537853 -0.942034,1.132381 -1.315221,1.765786 -0.178848,0.303405 -0.342402,0.615478 -0.492046,0.934184 -0.07252,0.154394 -0.120573,0.347535 -0.216095,0.486628 -0.123143,0.179219 -0.205876,0.182634 -0.428892,0.260784 -1.132615,0.396789 -2.165095,1.068416 -2.951353,1.975936 -0.79529,0.91816 -1.311332,2.048833 -1.52769,3.239531 -0.01272,0.07014 -0.0203,0.360801 -0.06137,0.39876 -0.0563,0.05227 -0.28406,0.02916 -0.370221,0.03927 -0.298365,0.035 -0.594621,0.08708 -0.886922,0.1563 -0.538851,0.127534 -1.063331,0.315225 -1.559464,0.560706 -1.934037,0.956906 -3.317092,2.750866 -3.993985,4.769489 -0.71025,2.118445 -0.697659,4.545482 0.151226,6.624393 0.137119,0.33578 0.300278,0.66171 0.491914,0.97004 0.117672,0.189266 0.155644,0.189726 0.07924,0.388318 -0.08517,0.22092 -0.240749,0.435602 -0.341874,0.651465 -0.329943,0.704463 -0.560606,1.451612 -0.706294,2.21472 -0.239036,1.251773 -0.357499,2.567247 -0.121693,3.828542 0.109497,0.585662 0.300277,1.15819 0.591325,1.679822 0.148392,0.265971 0.322032,0.518217 0.518085,0.751549 0.101785,0.121165 0.209898,0.236879 0.322955,0.347733 0.06467,0.06331 0.149446,0.118735 0.204426,0.189464 0.134218,0.172454 0.162433,0.03067 0.09321,0.283899 -0.09677,0.354038 -0.316164,0.703347 -0.450514,1.047862 -0.138438,0.355022 -0.263559,0.714904 -0.378,1.078332 -0.231784,0.73592 -0.427772,1.485171 -0.550322,2.247294 -0.235344,1.463236 -0.19401,3.022353 0.498111,4.365278 0.295926,0.574432 0.720468,1.078333 1.235389,1.470329 0.252022,0.191762 0.525007,0.357058 0.811375,0.492802 0.147139,0.06987 0.335018,0.09982 0.402127,0.242132 0.07225,0.153016 -0.035,0.45688 -0.05946,0.627955 -0.212798,1.488257 -0.319526,3.050855 0.12288,4.509297 0.407467,1.343319 1.304608,2.529354 2.469394,3.314593 2.259627,1.52326 5.305514,1.437361 7.679781,0.217899 0.618881,-0.317917 1.197879,-0.712606 1.714382,-1.178154 1.315221,1.770515 4.021672,1.714497 5.943909,1.210005 2.394835,-0.62848 4.316478,-2.293723 5.423647,-4.481649 1.513912,1.842952 4.691116,1.245009 5.740933,-0.754307 0.256966,-0.489322 0.409379,-1.028619 0.484399,-1.574353 0.03949,-0.286987 0.01431,-0.576468 0.04397,-0.861156 0.03784,-0.362772 0.280171,-0.715299 0.419466,-1.066249 0.271271,-0.682988 0.439703,-1.388502 0.446955,-2.125209 0.0038,-0.384641 -0.04496,-0.759496 -0.08155,-1.14105 -0.03289,-0.343464 0.06236,-0.663484 0.116485,-1.002482 -0.6142,0.101135 -1.362487,-0.06449 -1.941155,-0.242592 -0.567857,-0.174753 -1.099721,-0.635048 -1.50053,-1.055413 -0.930629,-0.976148 -1.499145,-2.255765 -1.887956,-3.529341 -0.8535,-2.79526 -0.503649,-6.148928 2.307883,-7.683024 1.309749,-0.714642 5.233594,-0.712298 6.793564,-0.359097 1.64024,0.371375 3.499718,3.990623 3.591218,4.330804 0.05663,0.210544 0.02815,0.47113 0.221566,0.611405 0.425069,0.308461 1.126089,-0.226831 1.439617,-0.491029 0.541026,-0.45596 0.926937,-1.062637 1.261164,-1.677589 0.728247,-1.339707 1.315353,-2.776412 1.730072,-4.243063 0.319725,-1.130739 0.524151,-2.296744 0.942034,-3.398653 0.415839,-1.096458 1.071374,-2.07648 2.090602,-2.697605 1.108752,-0.675699 2.379673,-1.031575 3.596868,-1.45621 1.206514,-0.420825 2.392198,-0.935168 3.327441,-1.828109 0.205613,-0.196359 0.405358,-0.404999 0.57089,-0.636164 0.130658,-0.182502 0.2598,-0.531877 0.458886,-0.647591 0.309507,-0.180006 0.761208,0.288103 1.028854,0.458062 1.320429,0.83863 2.422061,2.008247 3.310565,3.28596 0.883561,1.270752 1.608564,2.493497 2.197714,3.912471 0.437001,1.052392 0.709735,2.400177 1.478327,3.262646 0.343127,0.3851 2.893671,0.618076 3.719813,0.281864 0.826141,-0.336211 1.752025,-1.209217 2.029295,-1.75633 0.28386,-0.559984 0.35169,-1.175133 0.2304,-1.78818 -0.0713,-0.360671 -0.21702,-0.697568 -0.29672,-1.051802 -0.0671,-0.297559 -0.12802,-0.578832 -0.27285,-0.851436 -0.27451,-0.516576 -0.743478,-0.887885 -1.309027,-1.043133 0.588557,-0.542647 1.076247,-1.191814 1.413707,-1.917489 0.35064,-0.753914 0.64782,-1.670759 0.73214,-2.498226 0.0686,-0.672086 -0.0373,-1.368405 -0.40516,-1.94599 -0.38598,-0.605889 -1.069727,-1.001168 -1.661316,-1.37911 0.903666,-0.707024 1.677066,-1.566867 2.312886,-2.518847 1.23652,-1.851291 2.00135,-4.184877 1.37337,-6.391979 z"
           id="hair-2" />
      </g>
      <g
         transform="matrix(-0.26458333,0,0,0.26458333,218.33219,76.965961)"
         id="Objects/Seat/Cube-2"
         style="fill:#c5cfd6;fill-rule:evenodd;stroke:none;stroke-width:1">
        <path
           id="Seat-0"
           d="m 59,0 h 115 c 8.83656,0 16,7.163444 16,16 v 92 c 0,8.83656 -7.16344,16 -16,16 H 59 c -8.836556,0 -16,-7.16344 -16,-16 V 16 C 43,7.163444 50.163444,0 59,0 Z m 16,28 c -2.209139,0 -4,1.790861 -4,4 v 60 c 0,2.209139 1.790861,4 4,4 h 83 c 2.20914,0 4,-1.790861 4,-4 V 32 c 0,-2.209139 -1.79086,-4 -4,-4 z"
           inkscape:connector-curvature="0" />
      </g>
      <path
         id="Skin-9"
         d="m 149.1412,108.89055 c 3.39005,-7.50314 5.8417,-14.036565 6.82578,-17.483616 1.68499,-5.902188 2.96683,-11.095769 3.29081,-13.035301 0.77257,-4.625062 -5.94306,-4.894389 -6.83073,-2.595813 -1.34351,3.478985 -3.68899,14.909477 -6.50725,32.17481 z m 39.32261,-23.546944 c -3.11036,-1.229443 -14.0027,-5.077 -19.25608,-6.165403 -1.50961,-0.312764 -2.97276,-0.603356 -4.34839,-0.865971 -4.08884,-0.780584 -6.20725,6.59584 -2.26919,7.162611 9.80731,1.411484 23.71083,2.869071 24.90067,3.032646 1.66761,0.229257 2.92776,-2.391216 0.97299,-3.163883 z"
         inkscape:connector-curvature="0"
         style="fill:#b28b67;fill-rule:evenodd;stroke:none;stroke-width:0.26458332" />
      <path
         id="Leg-Back-3"
         d="m 162.34976,76.282346 16.82409,-8.564441 v -1.864444 h -2.00083 c -16.27655,4.147535 -24.59386,6.805525 -24.95191,7.973971 -0.004,0.01257 -0.007,0.02516 -0.0106,0.03776 -0.008,0.01075 -0.0162,0.02157 -0.0242,0.03245 -3.22567,4.436221 -5.15751,26.094203 -5.79157,27.715878 l 6.18111,0.92214 c 2.36445,-8.767788 9.92922,-14.875744 9.72828,-25.376816 0.0543,-0.308037 0.068,-0.600158 0.0456,-0.876499 z"
         inkscape:connector-curvature="0"
         style="fill:#5599ff;fill-rule:evenodd;stroke:none;stroke-width:0.26458332" />
      <path
         id="Leg-Front-6"
         d="m 177.77602,81.368753 c 1.53936,-0.308147 2.95695,-0.583164 4.16995,-0.795924 7.83522,-1.374292 10.12003,-5.568423 8.76913,-14.719368 h -14.43625 c -2.35819,0.677417 -14.61354,5.816822 -20.97216,8.550364 -4.20847,1.809199 -2.88182,8.331238 -0.49857,10.02854 0.0129,0.104127 0.0558,0.174857 0.13221,0.206512 12.82023,5.313536 22.9622,2.525537 26.35019,3.416345 l 1.5671,-4.943409 z"
         inkscape:connector-curvature="0"
         style="fill:#80b3ff;fill-rule:evenodd;stroke:none;stroke-width:0.26458332" />
      <g
         transform="matrix(-0.1159857,0.23780592,0.23780592,0.1159857,181.67024,80.97471)"
         id="Accessories/Shoe/Flat-Sneaker-0"
         style="fill:#999999;fill-rule:evenodd;stroke:none;stroke-width:1">
        <path
           style="fill:#999999"
           id="shoe-62"
           d="M 2.6781318,25.401924 C 1.5593773,28.388411 1,30.622993 1,32.105671 1,33.908957 1.3004142,36.5404 1.9012426,40 c 2.0919386,0 20.8925424,0 56.4018124,0 1.465683,-4.845493 0.619606,-7.461418 -2.538232,-7.847777 -3.157838,-0.386358 -5.781107,-0.735209 -7.869809,-1.046552 L 21.679993,19.418883 c -0.50443,-0.224877 -1.095649,0.0017 -1.320526,0.506174 -0.0038,0.0086 -0.0076,0.01731 -0.01117,0.02605 l -1.685082,4.08759 c -2.923332,1.363957 -5.298842,2.045936 -7.126532,2.045936 -1.484954,0 -3.5356885,-0.599726 -6.1522031,-1.799176 l 5.5e-6,-1.2e-5 c -1.0041007,-0.460295 -2.1912281,-0.01945 -2.6515233,0.984647 -0.019839,0.04328 -0.038127,0.08725 -0.054828,0.131834 z"
           inkscape:connector-curvature="0" />
      </g>
      <g
         transform="matrix(-0.26458333,0,0,0.26458333,151.3926,100.77846)"
         id="g1145"
         style="fill:#999999;fill-rule:evenodd;stroke:none;stroke-width:1">
        <path
           style="fill:#999999"
           id="path1143"
           d="M 2.6781318,25.401924 C 1.5593773,28.388411 1,30.622993 1,32.105671 1,33.908957 1.3004142,36.5404 1.9012426,40 c 2.0919386,0 20.8925424,0 56.4018124,0 1.465683,-4.845493 0.619606,-7.461418 -2.538232,-7.847777 -3.157838,-0.386358 -5.781107,-0.735209 -7.869809,-1.046552 L 21.679993,19.418883 c -0.50443,-0.224877 -1.095649,0.0017 -1.320526,0.506174 -0.0038,0.0086 -0.0076,0.01731 -0.01117,0.02605 l -1.685082,4.08759 c -2.923332,1.363957 -5.298842,2.045936 -7.126532,2.045936 -1.484954,0 -3.5356885,-0.599726 -6.1522031,-1.799176 l 5.5e-6,-1.2e-5 c -1.0041007,-0.460295 -2.1912281,-0.01945 -2.6515233,0.984647 -0.019839,0.04328 -0.038127,0.08725 -0.054828,0.131834 z"
           inkscape:connector-curvature="0" />
      </g>
      <g
         style="opacity:0.7;fill:#00a600;fill-opacity:0.91385767;fill-rule:evenodd;filter:url(#a)"
         transform="matrix(0.10799769,-0.01639957,0.01639957,0.10799769,132.15453,8.3628442)"
         id="g3286">
        <path
           style="fill:#00a600;fill-opacity:0.91385767"
           inkscape:connector-curvature="0"
           d="m 27.822,115.77 c 13.652,-0.708 30.537,7.26 31.993,22.1 1.058,10.783 0.73,21.535 2.368,32.302 1.31,8.604 4.078,16.864 7.855,24.702 3.632,7.537 11.165,13.953 13.124,22.005 1.25,5.13 0.55,12.348 -1.172,17.366 -2.094,6.102 -0.981,5.62 3.192,10.74 8.177,10.033 15.54,20.322 20.748,32.305 7.5,17.26 12.418,37.435 9.634,56.328 -0.354,2.4 -0.774,11.01 -4.078,11.611 -3.69,0.673 -1.964,-4.251 -1.767,-5.842 1.255,-10.15 2.37,-19.02 0.856,-29.328 -5.843,-39.77 -34.374,-65.974 -52.952,-99.728 -1.021,-1.74 -3.177,-5.886 -4.676,-8.62 -2.367,-4.318 -4.746,-12.532 -7.95,-15.734 -6.034,-6.03 -0.486,6.094 0.69,8.408 1.486,2.928 3.121,6.04 4.645,8.605 6.97,11.892 14.75,24.872 21.948,37.13 C 41.147,247.214 19.22,209.785 10.866,185.178 3.982,164.905 -4.254,117.505 27.822,115.77"
           id="path3278" />
        <path
           style="fill:#00a600;fill-opacity:0.91385767"
           inkscape:connector-curvature="0"
           d="m 210.805,78.121 c -22.822,1.811 -37.474,16.87 -44.294,37.935 -3.676,11.351 -4.098,23.012 -6.14,34.678 -3.073,17.55 -9.685,30.85 -22.607,43.355 -4.002,3.872 -6.952,7.848 -9.048,12.102 -4.162,4.247 -7.785,9.053 -10.447,14.93 -3.4,7.503 -4.362,16.507 -0.437,23.988 1.056,2.012 3.689,6.049 6.418,7.883 -10.217,21.76 -15.835,45.592 -15.202,69.394 0.383,14.367 1.084,28.741 1.903,43.091 0.22,3.853 1.475,10.216 3.36,3.754 1.724,-5.91 -0.439,-15.19 -0.639,-21.364 -0.974,-30.081 -1.806,-57.432 10.576,-85.536 a 219.112,219.112 0 0 1 4.11,-8.766 c 0.084,-0.049 0.162,-0.108 0.24,-0.165 0.055,0.042 0.105,0.087 0.16,0.129 0.091,-0.164 0.217,-0.358 0.363,-0.575 0.411,-0.425 0.77,-0.96 1.112,-1.56 1.098,-1.521 2.341,-3.31 2.348,-4.289 0,-0.008 -0.004,-0.019 -0.004,-0.027 7.665,-12.513 16.445,-24.336 25.414,-35.929 -0.068,0.085 9.727,-13.252 8.213,-5.876 -0.73,3.554 -7.935,10.322 -10.845,14.087 -6.437,8.375 -13.996,18.988 -20.277,29.25 -0.845,0.486 -2.04,2.87 -2.903,4.647 -0.477,0.9 -0.922,1.807 -1.359,2.598 22.257,7.353 39.57,-7.459 51.376,-24.687 l 0.04,-0.062 c 3.593,-4.76 7.273,-9.487 11.871,-13.25 7.67,-6.28 15.885,-7.388 24.93,-10.478 24.663,-8.427 35.15,-40.39 38.48,-64.108 3.757,-26.757 -14.623,-67.787 -46.711,-65.149"
           id="path3280" />
        <path
           style="fill:#00a600;fill-opacity:0.91385767"
           inkscape:connector-curvature="0"
           d="m 165.723,3.19 c -23.424,24.38 -34.74,58.193 -43.701,89.982 -10.008,35.504 -16.619,71.556 -16.873,108.47 -0.166,24.253 -0.826,48.657 0.59,72.881 0.502,8.603 1.36,17.222 2.723,25.732 0.113,0.7 3.164,19.703 6.083,15.275 1.66,-2.518 -3.128,-19.713 -3.49,-22.577 -2.034,-16.13 -2.507,-32.38 -2.408,-48.627 0.163,-26.75 -0.626,-53.364 2.086,-80.016 0.404,-3.98 0.724,-8.16 1.67,-12.052 1.003,-4.139 -0.276,-2.332 2.993,-3.97 3.177,-1.594 7.102,-1.366 10.398,-3.364 13.072,-7.927 19.76,-28.289 24.964,-41.649 5.953,-15.277 9.571,-31.569 12.46,-47.647 2.123,-11.812 3.64,-23.553 4.498,-35.518 0.27,-3.77 0.287,-7.714 1.028,-11.422 0.2,-1 1.201,-2.77 1.165,-3.655 -0.077,-1.875 -1.208,-2.977 -1.301,-4.552 a 92.814,92.814 0 0 0 -2.885,2.71 M 38,328 c 0,40.317 32.683,73 73,73 40.317,0 73,-32.683 73,-73"
           id="path3282" />
        <path
           style="fill:#00a600;fill-opacity:0.91385767"
           inkscape:connector-curvature="0"
           d="M 116.857,328.232 H 113 c 0.268,-4.84 0.621,-9.67 1.43,-14.456 3.095,-18.303 12.77,-45.185 33.99,-48.156 0.783,-0.11 3.663,-0.129 7.151,0.076 a 12.894,12.894 0 0 1 5.457,-1.611 c 18.067,-1.332 38.243,13.243 46.958,28.412 7.026,12.23 5.842,28.288 1.503,41.28 -2.906,8.7 -9.248,21.101 -19.824,21.222 -13.232,0.151 -13.87,-16.203 -14.126,-25.763 -0.34,-12.71 -1.946,-23.783 -11.962,-32.447 -2.334,-2.018 -4.885,-3.794 -7.243,-5.784 -3.692,-3.115 -7.772,-6.305 -8.248,-11.459 -0.656,-7.11 3.357,-8.39 9.485,-7.069 1.045,0.225 11.568,4.947 10.01,1.215 -0.476,-1.14 -2.213,-2.044 -4.406,-2.72 -5.674,-0.618 -12.442,-1.334 -14.388,-0.906 -20.995,4.606 -29.17,33.689 -31.34,52.167 a 173.873,173.873 0 0 0 -0.59,6 z"
           id="path3284" />
      </g>
      <path
         id="path1090"
         d="m 156.18119,52.1544 -4.03397,-2.216052 c -0.56603,-2.153787 -1.24264,-3.23743 -2.02984,-3.250929 -0.60474,-0.281377 0.4484,2.440134 -0.69798,2.204125 -1.14639,-0.236009 -3.94439,-2.316981 -4.42649,-1.894465 -0.71325,0.625085 -0.0773,2.544458 0.67206,3.499244 1.4005,1.784493 2.56005,2.394736 5.42607,3.193853 1.4985,0.417819 3.11865,1.255302 4.86043,2.512449 z"
         style="fill:#997659;fill-rule:evenodd;stroke:none;stroke-width:0.26458332"
         inkscape:connector-curvature="0" />
      <path
         id="Sleeve"
         d="m 175.03696,46.790115 c -3.2167,-0.03398 -7.50618,-0.713368 -12.08308,-3.618609 l -1.79745,4.008421 c 3.15704,3.133098 7.59613,5.707322 11.47759,5.598317 3.0588,-0.0859 4.62211,-3.78579 2.40294,-5.988129 z"
         inkscape:connector-curvature="0"
         style="fill:#db2721;fill-opacity:1;fill-rule:evenodd;stroke:none;stroke-width:0.26458332" />
      <path
         id="Clothes"
         d="m 170.70569,53.218394 c -3.41493,0.85166 -9.14154,-0.152682 -17.17984,-3.013025 -1.99383,4.12488 -2.91553,7.065603 -2.76509,8.822169 6.89568,3.602036 12.80587,5.207999 17.67508,5.314018 -0.15474,2.889207 0.19693,5.638355 1.37829,8.150341 2.42868,5.164214 16.64993,0.381574 21.43155,1.322917 2.99439,-9.724668 -2.79535,-13.676733 -2.80001,-19.899142 -0.005,-6.8142 -5.47658,-17.302854 -6.2816,-17.302854 h -7.34133 c -0.40506,5.204095 -2.44386,10.939458 -4.11705,16.605576 z"
         inkscape:connector-curvature="0"
         style="fill:#ff4133;fill-opacity:1;fill-rule:evenodd;stroke:none;stroke-width:0.26458332" />
    </g>
  </g>
</svg>
