<?xml version="1.0" encoding="UTF-8" standalone="no"?>
<!-- Created with Inkscape (http://www.inkscape.org/) -->

<svg
   xmlns:dc="http://purl.org/dc/elements/1.1/"
   xmlns:cc="http://creativecommons.org/ns#"
   xmlns:rdf="http://www.w3.org/1999/02/22-rdf-syntax-ns#"
   xmlns:svg="http://www.w3.org/2000/svg"
   xmlns="http://www.w3.org/2000/svg"
   xmlns:sodipodi="http://sodipodi.sourceforge.net/DTD/sodipodi-0.dtd"
   xmlns:inkscape="http://www.inkscape.org/namespaces/inkscape"
   width="210mm"
   height="297mm"
   viewBox="0 0 210 297"
   version="1.1"
   id="svg8"
   inkscape:version="0.92.4 (5da689c313, 2019-01-14)"
   sodipodi:docname="sobre.svg">
  <defs
     id="defs2">
    <filter
       style="color-interpolation-filters:sRGB"
       id="a">
      <feColorMatrix
         values="0.6612 0 0 0.0362972 0.1694 0 0.6612 0 0.0362972 0.1694 0 0 0.6612 0.0362972 0.1694 0 0 0 1 0"
         id="feColorMatrix3265" />
    </filter>
  </defs>
  <sodipodi:namedview
     id="base"
     pagecolor="#ffffff"
     bordercolor="#666666"
     borderopacity="1.0"
     inkscape:pageopacity="0.0"
     inkscape:pageshadow="2"
     inkscape:zoom="0.7"
     inkscape:cx="526.80269"
     inkscape:cy="718.16685"
     inkscape:document-units="mm"
     inkscape:current-layer="layer1"
     showgrid="false"
     inkscape:window-width="1366"
     inkscape:window-height="706"
     inkscape:window-x="0"
     inkscape:window-y="32"
     inkscape:window-maximized="1" />
  <metadata
     id="metadata5">
    <rdf:RDF>
      <cc:Work
         rdf:about="">
        <dc:format>image/svg+xml</dc:format>
        <dc:type
           rdf:resource="http://purl.org/dc/dcmitype/StillImage" />
        <dc:title />
      </cc:Work>
    </rdf:RDF>
  </metadata>
  <g
     inkscape:label="Layer 1"
     inkscape:groupmode="layer"
     id="layer1">
    <g
       id="g2380"
       transform="translate(-12.095238,177.64881)">
      <path
         id="path2543"
         d="m 170.56446,47.910588 -9.18363,-5.029838 c -1.52718,-1.813534 -3.03188,-3.221996 -4.5141,-4.225388 -0.45291,-0.189086 -1.24495,-0.303534 -0.50425,1.011146 0.74071,1.314681 1.4607,2.73084 1.08333,3.135865 -0.37735,0.405024 -1.31834,-0.160777 -1.76852,0.512175 -0.30013,0.448634 1.30747,1.157351 4.82278,2.126149 l 6.67303,6.109872 z"
         style="fill:#997659;fill-rule:evenodd;stroke:none;stroke-width:0.26458332"
         inkscape:connector-curvature="0" />
      <g
         id="Head/Front/Curly"
         transform="matrix(-0.26458333,0,0,0.26458333,196.51188,13.114439)"
         style="fill:none;fill-rule:evenodd;stroke:none;stroke-width:1">
        <g
           style="fill:#b28b67;stroke-width:1"
           id="Head-1"
           transform="translate(54,31)">
          <path
             inkscape:connector-curvature="0"
             d="M 8.2622739,34.490127 C 3.6543643,29.081376 0.53563479,22.452877 1.0567763,15.025454 2.5583302,-6.3750206 32.348531,-1.6671889 38.143341,9.1339329 43.938152,19.935055 43.249578,47.332996 35.760301,49.263458 32.773588,50.033323 26.411001,48.147461 19.935372,44.244306 L 24,73 H 0 Z"
             id="path1131" />
        </g>
        <path
           style="fill:#191847"
           inkscape:connector-curvature="0"
           d="m 102.7757,25.160438 c -0.49699,-1.746939 -1.83377,-3.242683 -3.6353,-3.686428 -0.436869,-0.107636 -0.888043,-0.151111 -1.337569,-0.132986 -0.161247,0.0064 -0.20647,0.05293 -0.281819,-0.05983 -0.0559,-0.0836 -0.05715,-0.28784 -0.08016,-0.386085 -0.07159,-0.305506 -0.161115,-0.607202 -0.271601,-0.901084 -0.376945,-1.002351 -1.010395,-1.889447 -1.774042,-2.636728 -1.428344,-1.398024 -3.358294,-2.362876 -5.363394,-2.537432 -1.097413,-0.09549 -2.18685,0.08281 -3.224339,0.439805 -0.537137,0.184801 -1.057992,0.414915 -1.565266,0.669329 -0.152742,0.07657 -0.648282,0.451625 -0.801552,0.427327 -0.169289,-0.02679 -0.509516,-0.447489 -0.647162,-0.553089 -1.701396,-1.305361 -3.802414,-1.818587 -5.921627,-1.802892 -2.392,0.01767 -4.695335,0.137189 -6.690283,1.595369 -0.4223,0.308723 -0.824494,0.646736 -1.207438,1.002613 -0.201657,0.187362 -0.396986,0.381751 -0.583283,0.584217 -0.112398,0.12215 -0.221829,0.247058 -0.327174,0.375315 -0.178782,0.217703 -0.150105,0.289219 -0.400347,0.13732 -0.960097,-0.583298 -2.072672,-0.856099 -3.19329,-0.718385 -0.665422,0.08183 -1.312847,0.281601 -1.927576,0.544551 -0.209304,0.08951 -0.693769,0.44657 -0.916851,0.45005 -0.221302,0.0034 -0.698977,-0.327571 -0.926937,-0.411697 -1.231236,-0.454515 -2.558323,-0.566552 -3.852449,-0.356533 -1.334932,0.216717 -2.646264,0.749317 -3.777297,1.485302 -0.543993,0.354037 -1.018636,0.746296 -1.399866,1.272722 -0.164608,0.22729 -0.313396,0.467715 -0.499957,0.678456 -0.109233,0.123398 -0.325525,0.250013 -0.38413,0.406181 0.03507,-0.09352 -1.459921,-0.669853 -1.600996,-0.706695 -0.751583,-0.196294 -1.516878,-0.156497 -2.252838,0.0857 -1.383912,0.455435 -2.574078,1.476765 -3.552237,2.523904 -0.502396,0.537853 -0.942034,1.132381 -1.315221,1.765786 -0.178848,0.303405 -0.342402,0.615478 -0.492046,0.934184 -0.07252,0.154394 -0.120573,0.347535 -0.216095,0.486628 -0.123143,0.179219 -0.205876,0.182634 -0.428892,0.260784 -1.132615,0.396789 -2.165095,1.068416 -2.951353,1.975936 -0.79529,0.91816 -1.311332,2.048833 -1.52769,3.239531 -0.01272,0.07014 -0.0203,0.360801 -0.06137,0.39876 -0.0563,0.05227 -0.28406,0.02916 -0.370221,0.03927 -0.298365,0.035 -0.594621,0.08708 -0.886922,0.1563 -0.538851,0.127534 -1.063331,0.315225 -1.559464,0.560706 -1.934037,0.956906 -3.317092,2.750866 -3.993985,4.769489 -0.71025,2.118445 -0.697659,4.545482 0.151226,6.624393 0.137119,0.33578 0.300278,0.66171 0.491914,0.97004 0.117672,0.189266 0.155644,0.189726 0.07924,0.388318 -0.08517,0.22092 -0.240749,0.435602 -0.341874,0.651465 -0.329943,0.704463 -0.560606,1.451612 -0.706294,2.21472 -0.239036,1.251773 -0.357499,2.567247 -0.121693,3.828542 0.109497,0.585662 0.300277,1.15819 0.591325,1.679822 0.148392,0.265971 0.322032,0.518217 0.518085,0.751549 0.101785,0.121165 0.209898,0.236879 0.322955,0.347733 0.06467,0.06331 0.149446,0.118735 0.204426,0.189464 0.134218,0.172454 0.162433,0.03067 0.09321,0.283899 -0.09677,0.354038 -0.316164,0.703347 -0.450514,1.047862 -0.138438,0.355022 -0.263559,0.714904 -0.378,1.078332 -0.231784,0.73592 -0.427772,1.485171 -0.550322,2.247294 -0.235344,1.463236 -0.19401,3.022353 0.498111,4.365278 0.295926,0.574432 0.720468,1.078333 1.235389,1.470329 0.252022,0.191762 0.525007,0.357058 0.811375,0.492802 0.147139,0.06987 0.335018,0.09982 0.402127,0.242132 0.07225,0.153016 -0.035,0.45688 -0.05946,0.627955 -0.212798,1.488257 -0.319526,3.050855 0.12288,4.509297 0.407467,1.343319 1.304608,2.529354 2.469394,3.314593 2.259627,1.52326 5.305514,1.437361 7.679781,0.217899 0.618881,-0.317917 1.197879,-0.712606 1.714382,-1.178154 1.315221,1.770515 4.021672,1.714497 5.943909,1.210005 2.394835,-0.62848 4.316478,-2.293723 5.423647,-4.481649 1.513912,1.842952 4.691116,1.245009 5.740933,-0.754307 0.256966,-0.489322 0.409379,-1.028619 0.484399,-1.574353 0.03949,-0.286987 0.01431,-0.576468 0.04397,-0.861156 0.03784,-0.362772 0.280171,-0.715299 0.419466,-1.066249 0.271271,-0.682988 0.439703,-1.388502 0.446955,-2.125209 0.0038,-0.384641 -0.04496,-0.759496 -0.08155,-1.14105 -0.03289,-0.343464 0.06236,-0.663484 0.116485,-1.002482 -0.6142,0.101135 -1.362487,-0.06449 -1.941155,-0.242592 -0.567857,-0.174753 -1.099721,-0.635048 -1.50053,-1.055413 -0.930629,-0.976148 -1.499145,-2.255765 -1.887956,-3.529341 -0.8535,-2.79526 -0.503649,-6.148928 2.307883,-7.683024 1.309749,-0.714642 5.233594,-0.712298 6.793564,-0.359097 1.64024,0.371375 3.499718,3.990623 3.591218,4.330804 0.05663,0.210544 0.02815,0.47113 0.221566,0.611405 0.425069,0.308461 1.126089,-0.226831 1.439617,-0.491029 0.541026,-0.45596 0.926937,-1.062637 1.261164,-1.677589 0.728247,-1.339707 1.315353,-2.776412 1.730072,-4.243063 0.319725,-1.130739 0.524151,-2.296744 0.942034,-3.398653 0.415839,-1.096458 1.071374,-2.07648 2.090602,-2.697605 1.108752,-0.675699 2.379673,-1.031575 3.596868,-1.45621 1.206514,-0.420825 2.392198,-0.935168 3.327441,-1.828109 0.205613,-0.196359 0.405358,-0.404999 0.57089,-0.636164 0.130658,-0.182502 0.2598,-0.531877 0.458886,-0.647591 0.309507,-0.180006 0.761208,0.288103 1.028854,0.458062 1.320429,0.83863 2.422061,2.008247 3.310565,3.28596 0.883561,1.270752 1.608564,2.493497 2.197714,3.912471 0.437001,1.052392 0.709735,2.400177 1.478327,3.262646 0.343127,0.3851 2.893671,0.618076 3.719813,0.281864 0.826141,-0.336211 1.752025,-1.209217 2.029295,-1.75633 0.28386,-0.559984 0.35169,-1.175133 0.2304,-1.78818 -0.0713,-0.360671 -0.21702,-0.697568 -0.29672,-1.051802 -0.0671,-0.297559 -0.12802,-0.578832 -0.27285,-0.851436 -0.27451,-0.516576 -0.743478,-0.887885 -1.309027,-1.043133 0.588557,-0.542647 1.076247,-1.191814 1.413707,-1.917489 0.35064,-0.753914 0.64782,-1.670759 0.73214,-2.498226 0.0686,-0.672086 -0.0373,-1.368405 -0.40516,-1.94599 -0.38598,-0.605889 -1.069727,-1.001168 -1.661316,-1.37911 0.903666,-0.707024 1.677066,-1.566867 2.312886,-2.518847 1.23652,-1.851291 2.00135,-4.184877 1.37337,-6.391979 z"
           id="hair-2" />
      </g>
      <g
         transform="matrix(-0.26458333,0,0,0.26458333,218.33219,76.965961)"
         id="Objects/Seat/Cube-2"
         style="fill:#c5cfd6;fill-rule:evenodd;stroke:none;stroke-width:1">
        <path
           id="Seat-0"
           d="m 59,0 h 115 c 8.83656,0 16,7.163444 16,16 v 92 c 0,8.83656 -7.16344,16 -16,16 H 59 c -8.836556,0 -16,-7.16344 -16,-16 V 16 C 43,7.163444 50.163444,0 59,0 Z m 16,28 c -2.209139,0 -4,1.790861 -4,4 v 60 c 0,2.209139 1.790861,4 4,4 h 83 c 2.20914,0 4,-1.790861 4,-4 V 32 c 0,-2.209139 -1.79086,-4 -4,-4 z"
           inkscape:connector-curvature="0" />
      </g>
      <path
         id="Skin-9"
         d="m 149.1412,108.89055 c 3.39005,-7.50314 5.8417,-14.036565 6.82578,-17.483616 1.68499,-5.902188 2.96683,-11.095769 3.29081,-13.035301 0.77257,-4.625062 -5.94306,-4.894389 -6.83073,-2.595813 -1.34351,3.478985 -3.68899,14.909477 -6.50725,32.17481 z m 39.32261,-23.546944 c -3.11036,-1.229443 -14.0027,-5.077 -19.25608,-6.165403 -1.50961,-0.312764 -2.97276,-0.603356 -4.34839,-0.865971 -4.08884,-0.780584 -6.20725,6.59584 -2.26919,7.162611 9.80731,1.411484 23.71083,2.869071 24.90067,3.032646 1.66761,0.229257 2.92776,-2.391216 0.97299,-3.163883 z"
         inkscape:connector-curvature="0"
         style="fill:#b28b67;fill-rule:evenodd;stroke:none;stroke-width:0.26458332" />
      <path
         id="Leg-Back-3"
         d="m 162.34976,76.282346 16.82409,-8.564441 v -1.864444 h -2.00083 c -16.27655,4.147535 -24.59386,6.805525 -24.95191,7.973971 -0.004,0.01257 -0.007,0.02516 -0.0106,0.03776 -0.008,0.01075 -0.0162,0.02157 -0.0242,0.03245 -3.22567,4.436221 -5.15751,26.094203 -5.79157,27.715878 l 6.18111,0.92214 c 2.36445,-8.767788 9.92922,-14.875744 9.72828,-25.376816 0.0543,-0.308037 0.068,-0.600158 0.0456,-0.876499 z"
         inkscape:connector-curvature="0"
         style="fill:#5599ff;fill-rule:evenodd;stroke:none;stroke-width:0.26458332" />
      <path
         id="Leg-Front-6"
         d="m 177.77602,81.368753 c 1.53936,-0.308147 2.95695,-0.583164 4.16995,-0.795924 7.83522,-1.374292 10.12003,-5.568423 8.76913,-14.719368 h -14.43625 c -2.35819,0.677417 -14.61354,5.816822 -20.97216,8.550364 -4.20847,1.809199 -2.88182,8.331238 -0.49857,10.02854 0.0129,0.104127 0.0558,0.174857 0.13221,0.206512 12.82023,5.313536 22.9622,2.525537 26.35019,3.416345 l 1.5671,-4.943409 z"
         inkscape:connector-curvature="0"
         style="fill:#80b3ff;fill-rule:evenodd;stroke:none;stroke-width:0.26458332" />
      <g
         transform="matrix(-0.1159857,0.23780592,0.23780592,0.1159857,181.67024,80.97471)"
         id="Accessories/Shoe/Flat-Sneaker-0"
         style="fill:#999999;fill-rule:evenodd;stroke:none;stroke-width:1">
        <path
           style="fill:#999999"
           id="shoe-62"
           d="M 2.6781318,25.401924 C 1.5593773,28.388411 1,30.622993 1,32.105671 1,33.908957 1.3004142,36.5404 1.9012426,40 c 2.0919386,0 20.8925424,0 56.4018124,0 1.465683,-4.845493 0.619606,-7.461418 -2.538232,-7.847777 -3.157838,-0.386358 -5.781107,-0.735209 -7.869809,-1.046552 L 21.679993,19.418883 c -0.50443,-0.224877 -1.095649,0.0017 -1.320526,0.506174 -0.0038,0.0086 -0.0076,0.01731 -0.01117,0.02605 l -1.685082,4.08759 c -2.923332,1.363957 -5.298842,2.045936 -7.126532,2.045936 -1.484954,0 -3.5356885,-0.599726 -6.1522031,-1.799176 l 5.5e-6,-1.2e-5 c -1.0041007,-0.460295 -2.1912281,-0.01945 -2.6515233,0.984647 -0.019839,0.04328 -0.038127,0.08725 -0.054828,0.131834 z"
           inkscape:connector-curvature="0" />
      </g>
      <g
         transform="matrix(-0.26458333,0,0,0.26458333,151.3926,100.77846)"
         id="g1145"
         style="fill:#999999;fill-rule:evenodd;stroke:none;stroke-width:1">
        <path
           style="fill:#999999"
           id="path1143"
           d="M 2.6781318,25.401924 C 1.5593773,28.388411 1,30.622993 1,32.105671 1,33.908957 1.3004142,36.5404 1.9012426,40 c 2.0919386,0 20.8925424,0 56.4018124,0 1.465683,-4.845493 0.619606,-7.461418 -2.538232,-7.847777 -3.157838,-0.386358 -5.781107,-0.735209 -7.869809,-1.046552 L 21.679993,19.418883 c -0.50443,-0.224877 -1.095649,0.0017 -1.320526,0.506174 -0.0038,0.0086 -0.0076,0.01731 -0.01117,0.02605 l -1.685082,4.08759 c -2.923332,1.363957 -5.298842,2.045936 -7.126532,2.045936 -1.484954,0 -3.5356885,-0.599726 -6.1522031,-1.799176 l 5.5e-6,-1.2e-5 c -1.0041007,-0.460295 -2.1912281,-0.01945 -2.6515233,0.984647 -0.019839,0.04328 -0.038127,0.08725 -0.054828,0.131834 z"
           inkscape:connector-curvature="0" />
      </g>
      <g
         style="opacity:0.7;fill:#00a600;fill-opacity:0.91385767;fill-rule:evenodd;filter:url(#a)"
         transform="matrix(0.10799769,-0.01639957,0.01639957,0.10799769,132.15453,8.3628442)"
         id="g3286">
        <path
           style="fill:#00a600;fill-opacity:0.91385767"
           inkscape:connector-curvature="0"
           d="m 27.822,115.77 c 13.652,-0.708 30.537,7.26 31.993,22.1 1.058,10.783 0.73,21.535 2.368,32.302 1.31,8.604 4.078,16.864 7.855,24.702 3.632,7.537 11.165,13.953 13.124,22.005 1.25,5.13 0.55,12.348 -1.172,17.366 -2.094,6.102 -0.981,5.62 3.192,10.74 8.177,10.033 15.54,20.322 20.748,32.305 7.5,17.26 12.418,37.435 9.634,56.328 -0.354,2.4 -0.774,11.01 -4.078,11.611 -3.69,0.673 -1.964,-4.251 -1.767,-5.842 1.255,-10.15 2.37,-19.02 0.856,-29.328 -5.843,-39.77 -34.374,-65.974 -52.952,-99.728 -1.021,-1.74 -3.177,-5.886 -4.676,-8.62 -2.367,-4.318 -4.746,-12.532 -7.95,-15.734 -6.034,-6.03 -0.486,6.094 0.69,8.408 1.486,2.928 3.121,6.04 4.645,8.605 6.97,11.892 14.75,24.872 21.948,37.13 C 41.147,247.214 19.22,209.785 10.866,185.178 3.982,164.905 -4.254,117.505 27.822,115.77"
           id="path3278" />
        <path
           style="fill:#00a600;fill-opacity:0.91385767"
           inkscape:connector-curvature="0"
           d="m 210.805,78.121 c -22.822,1.811 -37.474,16.87 -44.294,37.935 -3.676,11.351 -4.098,23.012 -6.14,34.678 -3.073,17.55 -9.685,30.85 -22.607,43.355 -4.002,3.872 -6.952,7.848 -9.048,12.102 -4.162,4.247 -7.785,9.053 -10.447,14.93 -3.4,7.503 -4.362,16.507 -0.437,23.988 1.056,2.012 3.689,6.049 6.418,7.883 -10.217,21.76 -15.835,45.592 -15.202,69.394 0.383,14.367 1.084,28.741 1.903,43.091 0.22,3.853 1.475,10.216 3.36,3.754 1.724,-5.91 -0.439,-15.19 -0.639,-21.364 -0.974,-30.081 -1.806,-57.432 10.576,-85.536 a 219.112,219.112 0 0 1 4.11,-8.766 c 0.084,-0.049 0.162,-0.108 0.24,-0.165 0.055,0.042 0.105,0.087 0.16,0.129 0.091,-0.164 0.217,-0.358 0.363,-0.575 0.411,-0.425 0.77,-0.96 1.112,-1.56 1.098,-1.521 2.341,-3.31 2.348,-4.289 0,-0.008 -0.004,-0.019 -0.004,-0.027 7.665,-12.513 16.445,-24.336 25.414,-35.929 -0.068,0.085 9.727,-13.252 8.213,-5.876 -0.73,3.554 -7.935,10.322 -10.845,14.087 -6.437,8.375 -13.996,18.988 -20.277,29.25 -0.845,0.486 -2.04,2.87 -2.903,4.647 -0.477,0.9 -0.922,1.807 -1.359,2.598 22.257,7.353 39.57,-7.459 51.376,-24.687 l 0.04,-0.062 c 3.593,-4.76 7.273,-9.487 11.871,-13.25 7.67,-6.28 15.885,-7.388 24.93,-10.478 24.663,-8.427 35.15,-40.39 38.48,-64.108 3.757,-26.757 -14.623,-67.787 -46.711,-65.149"
           id="path3280" />
        <path
           style="fill:#00a600;fill-opacity:0.91385767"
           inkscape:connector-curvature="0"
           d="m 165.723,3.19 c -23.424,24.38 -34.74,58.193 -43.701,89.982 -10.008,35.504 -16.619,71.556 -16.873,108.47 -0.166,24.253 -0.826,48.657 0.59,72.881 0.502,8.603 1.36,17.222 2.723,25.732 0.113,0.7 3.164,19.703 6.083,15.275 1.66,-2.518 -3.128,-19.713 -3.49,-22.577 -2.034,-16.13 -2.507,-32.38 -2.408,-48.627 0.163,-26.75 -0.626,-53.364 2.086,-80.016 0.404,-3.98 0.724,-8.16 1.67,-12.052 1.003,-4.139 -0.276,-2.332 2.993,-3.97 3.177,-1.594 7.102,-1.366 10.398,-3.364 13.072,-7.927 19.76,-28.289 24.964,-41.649 5.953,-15.277 9.571,-31.569 12.46,-47.647 2.123,-11.812 3.64,-23.553 4.498,-35.518 0.27,-3.77 0.287,-7.714 1.028,-11.422 0.2,-1 1.201,-2.77 1.165,-3.655 -0.077,-1.875 -1.208,-2.977 -1.301,-4.552 a 92.814,92.814 0 0 0 -2.885,2.71 M 38,328 c 0,40.317 32.683,73 73,73 40.317,0 73,-32.683 73,-73"
           id="path3282" />
        <path
           style="fill:#00a600;fill-opacity:0.91385767"
           inkscape:connector-curvature="0"
           d="M 116.857,328.232 H 113 c 0.268,-4.84 0.621,-9.67 1.43,-14.456 3.095,-18.303 12.77,-45.185 33.99,-48.156 0.783,-0.11 3.663,-0.129 7.151,0.076 a 12.894,12.894 0 0 1 5.457,-1.611 c 18.067,-1.332 38.243,13.243 46.958,28.412 7.026,12.23 5.842,28.288 1.503,41.28 -2.906,8.7 -9.248,21.101 -19.824,21.222 -13.232,0.151 -13.87,-16.203 -14.126,-25.763 -0.34,-12.71 -1.946,-23.783 -11.962,-32.447 -2.334,-2.018 -4.885,-3.794 -7.243,-5.784 -3.692,-3.115 -7.772,-6.305 -8.248,-11.459 -0.656,-7.11 3.357,-8.39 9.485,-7.069 1.045,0.225 11.568,4.947 10.01,1.215 -0.476,-1.14 -2.213,-2.044 -4.406,-2.72 -5.674,-0.618 -12.442,-1.334 -14.388,-0.906 -20.995,4.606 -29.17,33.689 -31.34,52.167 a 173.873,173.873 0 0 0 -0.59,6 z"
           id="path3284" />
      </g>
      <path
         id="path1090"
         d="m 156.18119,52.1544 -4.03397,-2.216052 c -0.56603,-2.153787 -1.24264,-3.23743 -2.02984,-3.250929 -0.60474,-0.281377 0.4484,2.440134 -0.69798,2.204125 -1.14639,-0.236009 -3.94439,-2.316981 -4.42649,-1.894465 -0.71325,0.625085 -0.0773,2.544458 0.67206,3.499244 1.4005,1.784493 2.56005,2.394736 5.42607,3.193853 1.4985,0.417819 3.11865,1.255302 4.86043,2.512449 z"
         style="fill:#997659;fill-rule:evenodd;stroke:none;stroke-width:0.26458332"
         inkscape:connector-curvature="0" />
      <path
         id="Sleeve"
         d="m 175.03696,46.790115 c -3.2167,-0.03398 -7.50618,-0.713368 -12.08308,-3.618609 l -1.79745,4.008421 c 3.15704,3.133098 7.59613,5.707322 11.47759,5.598317 3.0588,-0.0859 4.62211,-3.78579 2.40294,-5.988129 z"
         inkscape:connector-curvature="0"
         style="fill:#db2721;fill-opacity:1;fill-rule:evenodd;stroke:none;stroke-width:0.26458332" />
      <path
         id="Clothes"
         d="m 170.70569,53.218394 c -3.41493,0.85166 -9.14154,-0.152682 -17.17984,-3.013025 -1.99383,4.12488 -2.91553,7.065603 -2.76509,8.822169 6.89568,3.602036 12.80587,5.207999 17.67508,5.314018 -0.15474,2.889207 0.19693,5.638355 1.37829,8.150341 2.42868,5.164214 16.64993,0.381574 21.43155,1.322917 2.99439,-9.724668 -2.79535,-13.676733 -2.80001,-19.899142 -0.005,-6.8142 -5.47658,-17.302854 -6.2816,-17.302854 h -7.34133 c -0.40506,5.204095 -2.44386,10.939458 -4.11705,16.605576 z"
         inkscape:connector-curvature="0"
         style="fill:#ff4133;fill-opacity:1;fill-rule:evenodd;stroke:none;stroke-width:0.26458332" />
    </g>
    <path
       d="M 156.1471,103.87719 C 154.32285,83.491385 56.444276,44.144639 38.273473,63.453668 20.102669,82.762697 37.571642,119.00069 75.650935,128.28032 113.7303,137.55995 157.97134,124.26299 156.1471,103.87719 Z"
       id="Background-Shape"
       inkscape:connector-curvature="0"
       style="fill:#d7e3f4;fill-opacity:0.64419478;fill-rule:evenodd;stroke:none;stroke-width:0.26458332" />
    <path
       d="M 83.479393,117.12297 C 85.113476,99.804438 172.78892,66.377839 189.06556,82.781614 c 16.27664,16.403775 12.15671,50.907216 -21.95312,58.790626 -34.10983,7.88341 -85.267129,-7.13073 -83.633047,-24.44927 z"
       id="path834"
       inkscape:connector-curvature="0"
       style="fill:#afc6e9;fill-rule:evenodd;stroke:none;stroke-width:0.26458332;fill-opacity:0.38951311" />
    <path
       d="m 165.72661,55.683536 4.91269,-4.915948 c 0.82644,-0.82678 2.16663,-0.827057 2.99341,-6.09e-4 2.1e-4,2.06e-4 4.3e-4,4.24e-4 6.1e-4,6.09e-4 l 13.07899,13.085611 c 0.79353,0.793854 1.2393,1.870354 1.2393,2.992801 v 86.67102"
       id="Body"
       inkscape:connector-curvature="0"
       style="fill:none;fill-rule:evenodd;stroke:#000000;stroke-width:2.117;stroke-miterlimit:4;stroke-dasharray:none;stroke-opacity:0.38951311" />
    <rect
       id="Lamp-Base"
       x="180.01411"
       y="153.25244"
       width="15.610416"
       height="1.8520833"
       rx="0.79374999"
       style="fill:#afb9c5;fill-rule:evenodd;stroke:#000000;stroke-width:2.117;stroke-miterlimit:4;stroke-dasharray:none;stroke-opacity:0.38951311" />
    <g
       style="fill:#000000;fill-opacity:0.40823969;fill-rule:evenodd;stroke:none;stroke-width:1"
       id="Lamp-Top"
       transform="matrix(0.18708867,0.18708867,-0.18708867,0.18708867,159.87975,49.150533)">
      <path
         d="m 33.030312,1.3839016 v 0 c 18.225397,0 33,14.7746034 33,33.0000004 v 28 H 0.03031192 v -28 c 0,-18.225397 14.77460308,-33.0000004 33.00000008,-33.0000004 z"
         id="Lamp"
         inkscape:connector-curvature="0"
         style="fill:#000000;fill-opacity:0.40823969" />
      <ellipse
         id="ellipse856"
         cx="33.208927"
         cy="61.4454"
         rx="33"
         ry="6.5"
         style="fill:#000000;fill-opacity:0.40823969" />
    </g>
    <g
       id="g2412">
      <g
         id="Head/Front/Airy"
         transform="matrix(0.26458333,0,0,0.26458333,20.382822,197.6584)"
         style="fill:none;fill-rule:evenodd;stroke:none;stroke-width:1">
        <g
           style="fill:#b28b67;stroke-width:1"
           id="Head"
           transform="translate(54,31)">
          <path
             inkscape:connector-curvature="0"
             d="M 8.2622739,34.490127 C 3.6543643,29.081376 0.53563479,22.452877 1.0567763,15.025454 2.5583302,-6.3750206 32.348531,-1.6671889 38.143341,9.1339329 43.938152,19.935055 43.249578,47.332996 35.760301,49.263458 32.773588,50.033323 26.411001,48.147461 19.935372,44.244306 L 24,73 H 0 Z"
             id="path1012" />
        </g>
        <path
           style="fill:#191847"
           inkscape:connector-curvature="0"
           d="m 78.46395,27.685257 c -3.16313,-0.518719 -11.679999,-0.875353 -13.250662,-0.875123 -1.003727,0 -2.091462,0.229314 -2.685941,-0.692316 C 62.040518,25.363109 62.218861,24.086687 62.07357,23.210874 61.904866,22.193467 61.665239,21.189183 61.422857,20.187431 60.733124,17.336894 59.690147,14.624959 58.230806,12.078793 55.492532,7.3018818 51.481065,3.5601063 46.416751,1.3827761 40.824292,-1.0213354 34.495965,-1.5718268 28.480485,-1.0841895 22.043133,-0.56247752 16.215866,1.5625894 10.137955,3.5624086 4.346036,5.4680618 -1.7203989,6.2181667 -7.7781117,5.2875578 -13.881501,4.3500418 -18.493185,1.0420286 -23.641277,-2.097683 c -5.270201,-3.2143076 -11.293025,-5.3165813 -17.523343,-4.8333185 -5.81579,0.4512601 -11.175967,2.8526088 -15.985045,6.06046986 -4.499445,3.00134044 -8.212066,6.61234264 -10.308119,11.69454464 -2.254887,5.466925 -2.252821,11.467764 1.45521,16.299241 5.374636,7.003281 15.352464,8.814308 23.653587,8.634264 4.801504,-0.103836 9.517165,-0.98034 14.05035,-2.574715 6.045548,-2.126449 11.269843,-5.730544 16.925652,-8.654756 2.654266,-1.372199 5.3978186,-2.499198 8.2735796,-3.311006 2.790606,-0.788094 5.5392083,-1.149562 8.0658566,0.536217 2.6728579,1.783398 5.0679868,3.535255 8.1257638,4.651663 2.933372,1.071052 6.040498,1.670123 9.165756,1.645949 6.080666,-0.04697 12.0748,-1.94157 17.980565,-3.210624 4.815964,-1.034675 9.968876,-2.065897 14.878717,-1.071283 2.048771,0.415114 5.041362,1.272047 5.781361,3.401259 -12.454439,2.257221 -17.345907,17.659927 -13.834811,28.966987 1.894986,6.102833 13.286009,13.236981 17.714988,10.028629 2.805886,-2.032583 1.102425,-4.700996 0,-6.462522 -2.111202,-3.3734 -2.833528,-7.706649 1.073045,-10.055274 3.369706,-2.025605 6.91272,2.78467 6.979743,2.779375 0.926147,-0.07298 8.928861,-4.598871 14.442586,-11.203288 5.43931,0.322437 6.264532,-3.264104 4.965731,-6.197221 -1.2988,-2.933116 -9.405496,-6.62447 -13.775946,-7.341651 z"
           id="hair" />
      </g>
      <g
         transform="matrix(0.26458333,0,0,0.26458333,1.3328224,258.24798)"
         id="Objects/Seat/Ball"
         style="fill:#c5cfd6;fill-rule:evenodd;stroke:none;stroke-width:1">
        <ellipse
           ry="73.5"
           rx="77"
           cy="58.5"
           cx="116"
           id="Ballsy-Ball" />
      </g>
      <path
         id="Skin"
         d="m 70.52381,290.17257 c -3.390048,-7.50314 -5.841698,-14.03656 -6.825781,-17.48362 -1.684988,-5.90218 -2.966826,-11.09576 -3.290806,-13.0353 -0.772572,-4.62506 5.943055,-4.89439 6.830722,-2.59581 1.343517,3.47899 3.68899,14.90948 6.507257,32.17481 z M 31.201198,266.62563 c 3.110365,-1.22945 14.002705,-5.077 19.256078,-6.16541 1.50961,-0.31276 2.972766,-0.60335 4.34839,-0.86597 4.088845,-0.78058 6.20725,6.59584 2.269194,7.16261 -9.807313,1.41149 -23.710834,2.86907 -24.900673,3.03265 -1.667608,0.22926 -2.927757,-2.39122 -0.972989,-3.16388 z"
         inkscape:connector-curvature="0"
         style="fill:#b28b67;fill-rule:evenodd;stroke:none;stroke-width:0.26458332" />
      <path
         id="Leg-Back"
         d="m 57.315247,257.56437 -16.824092,-8.56444 v -1.86445 h 2.00083 c 16.276555,4.14754 24.593861,6.80553 24.951917,7.97397 0.0039,0.0126 0.0074,0.0252 0.01061,0.0378 0.0082,0.0108 0.01624,0.0216 0.02416,0.0325 3.22567,4.43622 5.15751,26.09421 5.791576,27.71588 l -6.181114,0.92214 c -2.364454,-8.76779 -9.929225,-14.87574 -9.728277,-25.37682 -0.05426,-0.30803 -0.06797,-0.60015 -0.04561,-0.87649 z"
         inkscape:connector-curvature="0"
         style="fill:#5599ff;fill-opacity:1;fill-rule:evenodd;stroke:none;stroke-width:0.26458332" />
      <path
         id="Leg-Front"
         d="m 41.888994,262.65077 c -1.539364,-0.30814 -2.956954,-0.58316 -4.169958,-0.79592 -7.835214,-1.37429 -10.120029,-5.56842 -8.769125,-14.71937 h 14.436251 c 2.358187,0.67742 14.613541,5.81682 20.972161,8.55037 4.208462,1.80919 2.881818,8.33123 0.498565,10.02854 -0.01294,0.10412 -0.05583,0.17485 -0.132212,0.20651 -12.820224,5.31353 -22.962201,2.52553 -26.350187,3.41634 l -1.567096,-4.94341 z"
         inkscape:connector-curvature="0"
         style="fill:#80b3ff;fill-opacity:1;fill-rule:evenodd;stroke:none;stroke-width:0.26458332" />
      <g
         transform="matrix(0.1159857,0.23780592,-0.23780592,0.1159857,37.994772,262.25673)"
         id="Accessories/Shoe/Flat-Sneaker-3"
         style="fill:#999999;fill-opacity:1;fill-rule:evenodd;stroke:none;stroke-width:1">
        <path
           style="fill:#999999;fill-opacity:1"
           id="shoe-6"
           d="M 2.6781318,25.401924 C 1.5593773,28.388411 1,30.622993 1,32.105671 1,33.908957 1.3004142,36.5404 1.9012426,40 c 2.0919386,0 20.8925424,0 56.4018124,0 1.465683,-4.845493 0.619606,-7.461418 -2.538232,-7.847777 -3.157838,-0.386358 -5.781107,-0.735209 -7.869809,-1.046552 L 21.679993,19.418883 c -0.50443,-0.224877 -1.095649,0.0017 -1.320526,0.506174 -0.0038,0.0086 -0.0076,0.01731 -0.01117,0.02605 l -1.685082,4.08759 c -2.923332,1.363957 -5.298842,2.045936 -7.126532,2.045936 -1.484954,0 -3.5356885,-0.599726 -6.1522031,-1.799176 l 5.5e-6,-1.2e-5 c -1.0041007,-0.460295 -2.1912281,-0.01945 -2.6515233,0.984647 -0.019839,0.04328 -0.038127,0.08725 -0.054828,0.131834 z"
           inkscape:connector-curvature="0" />
      </g>
      <g
         transform="matrix(0.26458333,0,0,0.26458333,68.272405,282.06048)"
         id="g1026"
         style="fill:#999999;fill-opacity:1;fill-rule:evenodd;stroke:none;stroke-width:1">
        <path
           style="fill:#999999;fill-opacity:1"
           id="path1024"
           d="M 2.6781318,25.401924 C 1.5593773,28.388411 1,30.622993 1,32.105671 1,33.908957 1.3004142,36.5404 1.9012426,40 c 2.0919386,0 20.8925424,0 56.4018124,0 1.465683,-4.845493 0.619606,-7.461418 -2.538232,-7.847777 -3.157838,-0.386358 -5.781107,-0.735209 -7.869809,-1.046552 L 21.679993,19.418883 c -0.50443,-0.224877 -1.095649,0.0017 -1.320526,0.506174 -0.0038,0.0086 -0.0076,0.01731 -0.01117,0.02605 l -1.685082,4.08759 c -2.923332,1.363957 -5.298842,2.045936 -7.126532,2.045936 -1.484954,0 -3.5356885,-0.599726 -6.1522031,-1.799176 l 5.5e-6,-1.2e-5 c -1.0041007,-0.460295 -2.1912281,-0.01945 -2.6515233,0.984647 -0.019839,0.04328 -0.038127,0.08725 -0.054828,0.131834 z"
           inkscape:connector-curvature="0" />
      </g>
      <g
         id="Body/Jacket-2"
         transform="matrix(0.26458333,0,0,0.26458333,4.5078224,219.35423)"
         style="fill:none;fill-rule:evenodd;stroke:none;stroke-width:1">
        <path
           style="fill:#b28b67"
           inkscape:connector-curvature="0"
           d="m 198,77.617088 36.23457,-15.912914 c 6.34745,-6.325152 12.47682,-11.13256 18.3881,-14.422224 1.76759,-0.562741 4.78743,-0.732751 1.5655,3.973218 -3.22194,4.70597 -6.39928,9.800846 -5.11188,11.450128 1.2874,1.649283 5.01672,-0.171076 6.49005,2.510981 0.98223,1.788037 -5.30405,3.926903 -18.85885,6.416599 L 209.56994,92.439287 Z M 51.508283,82 72,86.065845 C 51.392082,124.47106 40.340426,144.82584 38.845032,147.1302 c -3.364638,5.18481 -0.225363,14.68704 0.934272,19.69098 -7.2749,1.69344 -4.405903,-9.25617 -13.612148,-6.97 -8.403034,2.08672 -15.527793,7.44199 -23.3632776,0.21956 -0.9633268,-0.88796 -1.6685276,-3.66345 1.6159415,-5.08699 C 12.60263,151.43719 24.692043,144.79634 26.652342,142.2181 29.325561,138.7022 37.610874,118.6295 51.508283,82 Z"
           id="path1029" />
        <path
           style="fill:#db2721"
           inkscape:connector-curvature="0"
           d="m 123.28025,9.8771803 8.48495,-2.2311707 c 20.35493,16.5590654 31.83717,59.6156624 44.84747,64.3096364 12.30071,4.437963 28.59592,-2.323636 47.89049,-11.216614 l 7.29289,13.096311 C 215.40983,95.000024 178.29861,114.91655 161.84294,106.83981 135.53374,93.926787 125.0468,40.501408 123.28025,9.8771803 Z"
           id="Coat-Back"
           transform="rotate(5,177.53815,58.161768)" />
        <path
           style="fill:#dde3e9"
           inkscape:connector-curvature="0"
           d="m 90,114 c 34.67176,0 60.17557,0 76.51145,0 3.49618,0 2.83739,-5.04836 2.332,-7.59579 C 163.01059,77.003766 140.2413,45.311515 140.2413,3.4607303 L 118.1718,0 C 99.917485,29.358407 93.604826,65.50455 90,114 Z"
           id="Shirt" />
        <path
           style="fill:#ff4133"
           inkscape:connector-curvature="0"
           d="M 82.368755,84.23317 C 66.771381,112.36783 53.660945,132.62344 43.037445,145 L 27,141.85882 C 37.330593,77.790672 67.246611,30.504399 116.74805,0 H 117 h 8.4864 c 19.81252,67.536948 25.27448,112.53695 16.38588,135 H 73 c 1.089628,-16.43655 4.583396,-33.8188 9.368756,-50.766834 z"
           id="Coat-Front" />
      </g>
      <g
         id="g2288"
         transform="matrix(0.04608858,0.00778321,-0.00778321,0.04608858,65.212354,197.2144)">
        <rect
           style="fill:#1a1a1a;fill-opacity:1"
           id="rect7043-7"
           width="222.94728"
           height="439.05563"
           x="236.73819"
           y="453.96384"
           ry="19.654068" />
        <rect
           style="fill:#ffffff;fill-opacity:1"
           id="rect7153"
           width="191.92899"
           height="398.00012"
           x="252.24734"
           y="474.49158"
           ry="5.3066673" />
        <path
           id="path5528"
           style="fill:#00aa00;fill-opacity:1;stroke-width:0.32874268"
           d="m 377.23177,504.9183 c -4.08235,4.69801 -12.25688,7.04416 -17.47052,5.93558 -2.75357,-4.30232 -0.89902,-15.28812 4.38186,-18.7386 4.93563,-3.22515 16.87072,-5.83736 16.87072,-5.83736 1.34467,4.17354 0.33454,13.90311 -3.78206,18.64038 z m -39.93939,2.1e-4 c 4.08231,4.6978 12.25682,7.04395 17.47047,5.93537 2.75356,-4.30232 0.89902,-15.28812 -4.38177,-18.7386 -4.93572,-3.22515 -16.8708,-5.83736 -16.8708,-5.83736 -1.34461,4.17354 -0.33449,13.90311 3.7821,18.64038 z"
           inkscape:connector-curvature="0" />
        <path
           style="fill:#502d16;fill-opacity:1;stroke-width:0.45424789"
           d="m 357.0754,514.88909 c -3.30641,0 -6.07528,5.21509 -7.511,5.21509 -0.58934,0 -4.63955,0 -4.63955,0 h -0.50626 v 0.0255 c -3.14671,0.27008 -5.56732,2.96822 -5.56905,6.20801 0,3.23956 2.42265,5.93707 5.56905,6.20716 v 0.0255 h 0.50626 24.80742 v -0.0318 c 3.14676,-0.26967 5.56728,-2.96505 5.56909,-6.20143 0,-3.23598 -2.42271,-5.93071 -5.56909,-6.20038 v -0.0318 c 0,0 -4.55643,0 -5.14379,0 -1.94399,0 -4.20588,-5.21316 -7.51308,-5.21508 z"
           id="path5448"
           inkscape:connector-curvature="0"
           sodipodi:nodetypes="cccccccccccccccc" />
        <path
           style="fill:#008000;fill-opacity:1;stroke:#008000;stroke-width:0.74232596;stroke-miterlimit:4;stroke-dasharray:none;stroke-opacity:1"
           d="m 341.96242,496.07835 c -0.12913,0 -0.25861,0.0488 -0.35816,0.15072 -0.19902,0.20367 -0.20049,0.52977 -0.006,0.73324 l 11.96824,12.31016 c 0.0864,0.0892 0.19604,0.13582 0.30885,0.14854 0.044,0.0212 0.0895,0.0212 0.1375,0.0212 h 2.5541 v 9.34978 c 0,0.2877 0.22582,0.51939 0.50629,0.51939 0.28048,0 0.50631,-0.23169 0.50631,-0.51939 v -9.34978 h 2.5058 c 0.017,0 0.0311,0 0.0465,0 0.0212,0 0.0408,0 0.0614,0 0,0 0.006,0 0.01,0 0.12462,-0.0232 0.23121,-0.0933 0.30574,-0.19308 l 11.91985,-12.2605 c 0.19689,-0.20367 0.1954,-0.53042 -0.006,-0.73325 -0.19923,-0.20368 -0.51777,-0.20156 -0.71472,0 l -11.81671,12.15507 h -5.74155 l -11.83529,-12.17331 c -0.0985,-0.10188 -0.22742,-0.15273 -0.35655,-0.15273 z"
           id="path5545"
           inkscape:connector-curvature="0" />
        <path
           style="fill:#ff0000;fill-opacity:1;fill-rule:nonzero;stroke:none;stroke-width:1.24249208"
           d="m 323.02791,512.04967 v 34.14745 h 6.27195 0.18459 v 0 c 1.70194,-0.0996 3.04367,-1.58276 3.04367,-3.4091 v -27.31779 c 0,-1.82634 -1.34173,-3.30813 -3.04367,-3.40869 v 0 h -0.18459 z"
           id="rect1447"
           inkscape:connector-curvature="0" />
        <path
           style="fill:#d38d5f;fill-opacity:1;fill-rule:nonzero;stroke:none;stroke-width:1.24249208"
           d="m 340.70919,512.57818 c -2.46988,0.0425 -5.29219,1.13699 -8.32376,4.16185 0.0811,6.03319 0.0575,18.37922 0,24.81085 7.55721,5.09412 15.38844,-0.0784 17.97008,-0.0912 5.2519,-0.63884 12.5866,0.45149 17.244,-1.88191 4.70961,-2.35952 15.6589,-18.22581 15.6589,-18.22581 1.27809,-1.51317 1.76455,-3.55125 0.57958,-5.14738 -1.18486,-1.59613 -3.57931,-2.12762 -4.85734,-0.61445 0,0 -11.84936,16.82614 -13.82081,16.36299 -4.53637,0.62844 -10.34616,0.43196 -12.99827,-1.02967 -1.45128,-0.79966 -4.91064,-3.31488 -1.67781,-4.77885 0.83876,-0.37978 14.04345,-0.76402 14.04345,-0.76402 1.81262,0 3.47177,-1.20318 3.59939,-2.69685 0.13516,-1.58191 -1.45928,-3.46087 -3.27197,-3.46087 0,0 -6.92369,-0.32972 -13.29311,-1.25857 -3.96837,-3.33019 -7.70496,-5.19513 -9.25019,-5.26683 -0.51554,-0.0849 -1.04972,-0.12948 -1.60214,-0.1209 z"
           id="rect1476"
           inkscape:connector-curvature="0"
           sodipodi:nodetypes="ccccsccscsssacccsc" />
        <rect
           style="fill:#cccccc;fill-opacity:1"
           id="rect7281"
           width="149.33369"
           height="130.0415"
           x="273.54498"
           y="568.53967"
           ry="0" />
        <path
           style="fill:none;stroke:#095a07;stroke-width:7.5999999;stroke-linecap:butt;stroke-linejoin:miter;stroke-miterlimit:4;stroke-dasharray:none;stroke-opacity:1"
           d="m 277.24862,647.69453 23.73859,-12.12183 14.64721,6.56599 16.16244,-5.05076 15.15229,4.54569 23.73858,-36.87057 9.59645,3.03046 20.70813,-8.08122 11.11168,7.57614 7.07106,5.55584"
           id="path7287"
           inkscape:connector-curvature="0" />
        <rect
           style="fill:#cccccc;fill-opacity:1"
           id="rect7281-0"
           width="149.33369"
           height="130.0415"
           x="273.54498"
           y="707.06464"
           ry="0" />
        <path
           style="fill:none;stroke:#095a07;stroke-width:7.5999999;stroke-linecap:butt;stroke-linejoin:miter;stroke-miterlimit:4;stroke-dasharray:none;stroke-opacity:1"
           d="m 275.48085,779.1565 19.69798,11.11168 20.70812,5.55584 8.08122,-3.03046 23.73859,-10.6066 10.6066,5.05076 11.11168,-6.56599 13.63706,3.53553 16.16244,-2.52538 12.6269,6.06091 9.09138,-5.05076"
           id="path7845"
           inkscape:connector-curvature="0" />
      </g>
    </g>
    <g
       style="fill:#000000;fill-opacity:0.32209742;fill-rule:evenodd;stroke:none;stroke-width:1"
       transform="matrix(0.26458333,0,0,0.26458333,59.897672,37.790126)"
       id="Clock">
      <circle
         style="fill:#000000;fill-opacity:0.32209742"
         r="53"
         cy="53"
         cx="53"
         id="Clock-Frame" />
      <circle
         style="fill:#000000;fill-opacity:0.32209742"
         r="3"
         cy="11"
         cx="53"
         id="Time" />
      <circle
         style="fill:#000000;fill-opacity:0.32209742"
         r="3"
         cy="53"
         cx="11"
         id="circle821" />
      <circle
         style="fill:#000000;fill-opacity:0.32209742"
         r="3"
         cy="53"
         cx="95"
         id="circle823" />
      <circle
         style="fill:#000000;fill-opacity:0.32209742"
         r="3"
         cy="95"
         cx="53"
         id="circle825" />
      <polygon
         style="fill:#000000;fill-opacity:0.32209742"
         points="53,17 55,52 51,52 "
         id="Hand" />
      <polygon
         style="fill:#000000;fill-opacity:0.32209742"
         points="62.213203,50.213203 64.213203,74.213203 60.213203,74.213203 "
         transform="rotate(135,62.213203,62.213203)"
         id="polygon828" />
      <circle
         style="fill:#000000;fill-opacity:0.32209742"
         r="4"
         cy="53"
         cx="53"
         id="circle830" />
    </g>
    <g
       style="opacity:0.7;fill:#055500;fill-opacity:1;fill-rule:evenodd;stroke:none;stroke-width:1;stroke-opacity:1"
       transform="matrix(0.18557136,0,0,0.18557136,119.80404,81.241625)"
       id="Plant-Right">
      <path
         style="fill:#055500;fill-opacity:1;stroke:none;stroke-opacity:1"
         inkscape:connector-curvature="0"
         transform="matrix(-0.9945219,0.10452846,0.10452846,0.9945219,95.472974,-5.0035266)"
         id="Leaf-Me-Alone!"
         d="m 79.904753,113.04038 c -13.651708,0.72264 -29.610417,10.41287 -29.507811,25.32393 0.07485,10.83417 1.524567,21.49265 1.021537,32.37136 -0.40276,8.6944 -2.293301,17.19873 -5.230065,25.38858 -2.823875,7.8754 -9.645284,15.0436 -10.752225,23.25621 -0.705633,5.23293 0.743947,12.33748 2.981231,17.14844 2.720706,5.84932 1.563255,5.48607 -2.05185,11.01402 -7.083865,10.83311 -13.331425,21.83524 -17.257364,34.29701 -5.655191,17.94943 -8.43676,38.52803 -3.693395,57.0268 0.603062,2.34913 1.920561,10.86785 5.26911,11.12103 3.739938,0.28345 1.509347,-4.43334 1.14717,-5.99466 -2.309406,-9.96235 -4.34613,-18.66859 -3.917511,-29.07815 1.654316,-40.16354 27.289922,-69.20548 42.237382,-104.71663 0.833719,-1.83789 2.544617,-6.18546 3.749612,-9.0617 1.902403,-4.54094 3.409923,-12.95953 6.261565,-16.47806 5.370452,-6.62847 1.120872,6.00901 0.193511,8.43377 -1.172372,3.06709 -2.473526,6.3326 -3.720342,9.04321 -5.688852,12.55504 -12.069278,26.2779 -17.947119,39.22137 31.704221,3.80041 49.597806,-35.71524 55.334671,-61.06092 4.72679,-20.88206 7.96307,-68.8832 -24.118107,-67.25561" />
      <path
         style="fill:#055500;fill-opacity:1;stroke:none;stroke-opacity:1"
         inkscape:connector-curvature="0"
         id="path3087"
         d="m 210.80537,78.1212 c -22.82274,1.810806 -37.47443,16.870553 -44.29484,37.93433 -3.67596,11.35143 -4.0973,23.01265 -6.14006,34.67808 -3.07297,17.55076 -9.68482,30.85106 -22.6066,43.35497 -4.00226,3.87248 -6.95161,7.84851 -9.04819,12.10234 -4.16205,4.24711 -7.78503,9.05319 -10.44676,14.92927 -3.40011,7.50419 -4.3622,16.50771 -0.43647,23.98918 1.05544,2.01117 3.68858,6.04865 6.41758,7.88303 -10.21716,21.75998 -15.83496,45.59174 -15.2017,69.3932 0.38265,14.36775 1.08403,28.74139 1.90232,43.09147 0.22034,3.85312 1.47509,10.21577 3.35974,3.75378 1.72487,-5.91059 -0.43815,-15.18939 -0.63831,-21.36432 -0.97386,-30.08077 -1.80644,-57.43144 10.57627,-85.53556 1.29849,-2.94561 2.67518,-5.86765 4.10907,-8.76612 0.0841,-0.0488 0.16231,-0.10775 0.24136,-0.165 0.0547,0.0421 0.10428,0.0876 0.15895,0.1288 0.0917,-0.16331 0.21697,-0.35778 0.36331,-0.57498 0.41124,-0.42429 0.77034,-0.96054 1.11178,-1.55909 1.09833,-1.52206 2.34131,-3.31013 2.34804,-4.2892 0,-0.008 -0.004,-0.0194 -0.004,-0.0269 7.6656,-12.51316 16.44552,-24.33686 25.41382,-35.92905 -0.0673,0.0842 9.7277,-13.25231 8.21309,-5.87692 -0.72998,3.55427 -7.93473,10.32269 -10.84455,14.08742 -6.43692,8.37551 -13.99572,18.98779 -20.27706,29.24987 -0.84519,0.48574 -2.0394,2.87069 -2.90309,4.64698 -0.47684,0.89993 -0.92172,1.80744 -1.35904,2.59793 22.25675,7.35351 39.57017,-7.45874 51.37597,-24.68708 0.0143,-0.0202 0.0269,-0.0412 0.0404,-0.0614 3.5927,-4.76063 7.27287,-9.48758 11.87055,-13.25063 7.67065,-6.27931 15.88542,-7.38718 24.92941,-10.47759 24.66366,-8.42685 35.14994,-40.39083 38.48025,-64.1081 3.75754,-26.75717 -14.62226,-67.786959 -46.711,-65.14862" />
      <path
         style="fill:#055500;fill-opacity:1;stroke:none;stroke-opacity:1"
         inkscape:connector-curvature="0"
         transform="rotate(-8,140,158.5)"
         id="path3089"
         d="M 187.08728,8.2818784 C 160.49848,29.163511 144.58611,61.07338 131.2885,91.305359 116.43664,125.07145 104.87305,159.85285 99.484323,196.37211 c -3.539948,23.99335 -7.589711,48.06798 -9.559287,72.2536 -0.700053,8.58944 -1.05019,17.24324 -0.884335,25.86098 0.01389,0.70818 0.390346,19.95093 3.89734,15.97216 1.994507,-2.26264 -0.353269,-19.95631 -0.313028,-22.84269 0.229831,-16.25678 2.023085,-32.41403 4.382537,-48.48931 3.88452,-26.46741 6.80735,-52.9317 13.20153,-78.94708 0.95406,-3.88434 1.85252,-7.97867 3.3303,-11.70209 1.5697,-3.95872 0.0526,-2.34758 3.5178,-3.51509 3.3671,-1.1353 7.22235,-0.36376 10.76404,-1.88383 14.04858,-6.03044 23.50455,-25.26311 30.51788,-37.76866 8.02142,-14.3006 13.87153,-29.930045 18.97082,-45.449075 3.7451,-11.40244 6.88151,-22.817869 9.39689,-34.546727 0.79262,-3.696549 1.35737,-7.599252 2.60728,-11.167837 0.33681,-0.96266 1.57508,-2.575312 1.66238,-3.45748 C 191.16114,8.8219432 190.19407,7.5727246 190.32156,6 c -1.0938,0.7373788 -2.17292,1.4985159 -3.23428,2.2818784" />
      <path
         style="fill:#055500;fill-opacity:1;stroke:none;stroke-opacity:1"
         inkscape:connector-curvature="0"
         id="Base"
         d="m 38,328 c 0,40.31679 32.683213,73 73,73 40.31679,0 73,-32.68321 73,-73" />
      <path
         style="fill:#055500;fill-opacity:1;stroke:none;stroke-opacity:1"
         inkscape:connector-curvature="0"
         id="path3092"
         d="M 116.85729,328.23237 H 113 c 0.26764,-4.83953 0.62115,-9.67058 1.43019,-14.45622 3.09437,-18.30285 12.76975,-45.18494 33.99009,-48.15568 0.78285,-0.11072 3.66257,-0.12931 7.15089,0.0752 1.65325,-0.92377 3.50516,-1.48242 5.45639,-1.61088 18.06705,-1.33198 38.24359,13.24369 46.9585,28.41183 7.02547,12.2295 5.84193,28.28844 1.50257,41.28113 -2.90581,8.69841 -9.24775,21.10033 -19.82383,21.22119 -13.23188,0.15128 -13.86995,-16.20262 -14.12585,-25.7631 -0.34008,-12.7104 -1.94619,-23.78288 -11.96164,-32.44664 -2.33425,-2.01825 -4.88568,-3.79393 -7.24349,-5.78429 -3.69203,-3.11527 -7.77212,-6.30492 -8.24773,-11.45872 -0.65658,-7.11035 3.35701,-8.38993 9.48514,-7.06894 1.04465,0.22481 11.56769,4.94674 10.00956,1.2145 -0.4756,-1.14012 -2.21303,-2.0436 -4.40585,-2.72058 -5.67442,-0.61697 -12.44146,-1.33282 -14.38765,-0.90517 -20.99558,4.60614 -29.17007,33.68903 -31.34102,52.16682 -0.23429,1.99448 -0.42376,3.99547 -0.58898,5.99953 z" />
    </g>
    <g
       style="opacity:0.5;fill:#055500;fill-opacity:0.92134836;fill-rule:evenodd;stroke:none;stroke-width:1;stroke-opacity:1"
       id="Plant-Left"
       transform="matrix(0.18557136,0,0,0.18557136,83.689387,57.117348)">
      <path
         style="fill:#055500;fill-opacity:0.92134836;stroke:none;stroke-opacity:1"
         inkscape:connector-curvature="0"
         id="Leaf"
         d="m 178.22298,111.44452 c 4.20233,-5.99201 12.00065,-21.209747 17.91535,-23.350872 3.80961,-1.379082 2.69886,12.886462 2.74591,15.606592 0.18321,10.52375 -0.84131,20.98076 -2.10651,31.41615 -2.2794,18.82018 -9.7328,35.58098 -19.95571,51.59889 -5.26049,8.24219 -11.43062,16.58432 -19.97655,21.72705 -3.9337,2.36833 -8.66693,2.76487 -12.5517,4.80538 -4.52439,2.37542 -2.06042,0.45514 -4.0994,5.16978 -2.83157,6.54564 -3.73726,14.99022 -5.04739,21.97466 -6.01543,32.06236 -20.57868,201.55236 -18.05397,234.16591 0.22424,2.89072 -3.8065,3.582 -4.00772,0.053 -1.0695,-18.71157 8.18515,-148.28891 12.85427,-190.66443 4.66913,-42.37551 9.39407,-79.81216 14.13176,-94.47276 5.74753,-17.78643 16.12789,-39.17598 24.76882,-55.76259 4.01364,-7.70577 8.38859,-15.14607 13.38284,-22.26679 z" />
      <path
         style="fill:#055500;fill-opacity:0.92134836;stroke:none;stroke-opacity:1"
         inkscape:connector-curvature="0"
         id="path3096"
         d="m 209.41413,319.27776 c 10.93504,-8.02806 22.77139,7.1233 12.87631,15.1526 -5.47023,4.43811 -11.18905,2.85935 -14.40858,-0.83916 -2.08999,2.54759 -4.04615,5.21134 -5.92577,7.46129 -5.72671,6.85601 -11.13932,13.87566 -16.31221,21.05899 -10.74587,14.92318 -19.95489,30.68921 -29.58357,46.16694 -9.50225,15.27568 -18.92852,30.6296 -27.54124,46.2923 C 121.22288,467.84083 111.49799,483.45204 109,498 c 3.79011,-30.8537 18.17186,-60.50956 35.29802,-87.70946 16.9868,-26.97645 36.48113,-56.43773 62.78301,-77.72696 -2.67689,-3.93654 -2.7512,-9.55565 2.3331,-13.28582 z" />
      <path
         style="fill:#055500;fill-opacity:0.92134836;stroke:none;stroke-opacity:1"
         inkscape:connector-curvature="0"
         id="path3098"
         d="m 1.9131966,244.03077 c 6.119244,1.19672 16.1180194,15.0394 21.1621014,20.31357 5.994552,6.26762 11.433099,12.948 16.559569,19.94738 11.036241,15.06587 20.906218,31.08402 29.299057,47.78814 13.682523,27.23106 24.644004,55.18469 32.599216,84.8378 4.86968,18.15173 8.02259,36.9653 9.89118,55.64749 0.35289,3.52335 4.04688,30.6877 -1.27593,31.41986 -4.78731,0.65926 -3.30869,-20.62645 -3.53964,-23.52183 -2.61068,-32.66531 -10.431516,-64.44839 -21.310229,-95.23708 -2.369539,-6.70702 -4.570926,-14.92193 -8.360379,-20.9576 -2.728937,-4.3474 -0.01957,-2.83132 -4.815318,-4.47661 -4.117914,-1.41358 -8.809691,-1.06816 -13.026528,-2.7985 C 49.935634,353.23666 42.600572,345.94373 36.170888,338.60791 23.675758,324.35137 13.774003,308.92804 8.6126365,290.66039 5.7494672,280.53158 3.1183607,270.34385 1.6582582,259.90183 1.2805551,257.20288 -2.0281623,243.25997 1.9131966,244.03077 Z" />
      <path
         style="fill:#055500;fill-opacity:0.92134836;stroke:none;stroke-opacity:1"
         inkscape:connector-curvature="0"
         id="path3100"
         d="m 26.061363,13.716032 c 23.049925,39.97438 41.991409,83.885187 54.222062,128.360198 7.410316,26.94692 12.592572,54.59843 17.741556,82.05019 7.972269,42.50563 15.513129,85.00798 17.658149,128.26863 2.15802,43.51136 6.42537,93.69661 -7.8223,135.60495 7.11678,-42.54835 0.34113,-87.83776 -0.85857,-130.65018 -0.5733,-20.43796 -2.23463,-40.67609 -4.41399,-60.99462 -2.11485,-19.71006 -5.56991,-39.32627 -8.787353,-58.88141 -1.567275,-9.52371 -3.213268,-19.03309 -4.889117,-28.53726 -0.500299,-2.83558 -0.711635,-11.24975 -2.510362,-13.18686 -1.810375,-1.94987 -11.04715,-2.74476 -13.947069,-4.17545 -5.839442,-2.8816 -11.332225,-6.9747 -16.19348,-11.29958 C 46.941798,171.98395 38.834658,161.15116 32.435855,150.47249 17.630684,125.76373 11.711583,95.610044 12.010759,66.994155 12.068241,61.438242 21.003398,1.6099513 17.414895,0.78606626 17.630954,0.53302938 17.835328,0.27176118 18.028036,0 c 2.716804,4.5487845 5.382776,9.1283956 8.033327,13.716032 z" />
      <path
         style="fill:#055500;fill-opacity:0.92134836;stroke:none;stroke-opacity:1"
         inkscape:connector-curvature="0"
         id="path3102"
         d="m 274.84616,157.88729 c 0.35565,-0.51299 2.67039,-4.08063 1.50476,-3.85262 2.37326,-0.46423 -3.26427,3.93473 2.64908,1.23555 -2.8077,2.65169 -1.18728,6.09627 -1.14981,9.66516 0.0611,5.79428 -0.90833,11.54105 -1.99963,17.21101 -1.72443,8.96248 -4.29337,17.67663 -8.02213,26.01281 -8.12696,18.16643 -21.92695,35.65495 -38.3101,47.01247 -8.08791,5.60766 -16.01442,7.51687 -25.23869,10.09842 -5.82643,1.63094 -6.28848,4.64487 -9.38117,10.29877 -6.43874,11.77587 -12.76281,23.50939 -18.44121,35.68258 -6.78038,14.53607 -13.3625,29.08816 -19.57135,43.88012 -20.91649,49.82593 -37.94057,101.44633 -46.8811,154.86844 -0.2189,-31.48149 7.06382,-63.90472 16.25028,-93.91181 6.69178,-21.86249 15.40322,-42.93727 24.69483,-63.79869 2.25154,-5.05393 5.66355,-11.55499 6.61971,-17.13474 0.6695,-3.90946 -1.37737,-7.6692 -2.31453,-11.78751 -3.6536,-16.03744 -3.3921,-34.00454 -0.1837,-50.12774 3.53751,-17.77887 13.76783,-26.03066 31.07373,-28.54892 6.32911,-0.92115 14.37358,-0.58355 20.17707,-3.28216 6.32281,-2.93871 8.93106,-12.59819 12.52644,-18.79882 9.65708,-16.65621 21.13108,-32.63053 34.3064,-46.66476 3.64812,-3.88626 7.57134,-7.4716 11.73343,-10.79476 2.62461,-2.09674 8.16903,-4.67991 9.95769,-7.2628 z" />
      <path
         style="fill:#055500;fill-opacity:0.92134836;stroke:none;stroke-opacity:1"
         inkscape:connector-curvature="0"
         id="path3104"
         d="m 80.791453,476 h 61.417097 c 2.76142,0 5,2.23858 5,5 0,0.24414 -0.0179,0.48795 -0.0535,0.72948 l -4.74699,32.18846 C 140.96096,523.73048 132.54074,531 122.62207,531 h -22.24414 c -9.918669,0 -18.33889,-7.26952 -19.785992,-17.08206 l -4.746984,-32.18846 c -0.402883,-2.73187 1.48514,-5.2731 4.217016,-5.67598 C 80.303499,476.01788 80.547312,476 80.791453,476 Z" />
    </g>
    <g
       style="fill:#055500;fill-opacity:0.68164804;fill-rule:evenodd;stroke:none;stroke-width:1;stroke-opacity:1"
       transform="matrix(0.46796736,0,0,0.46796736,57.502627,114.94258)"
       id="Maceta">
      <path
         inkscape:connector-curvature="0"
         id="path3107"
         d="M 15.417722,48.455696 C 15.417722,69.743127 17.097605,87 39.64557,87 62.193534,87 63.873418,69.743127 63.873418,48.455696"
         style="fill:#055500;fill-opacity:0.68164804;stroke:none;stroke-opacity:1" />
      <path
         inkscape:connector-curvature="0"
         id="Fill-27"
         d="m 46.353417,35.174166 c -0.826498,1.429039 -1.563454,2.886658 -2.214403,4.36616 -0.02297,-3.046978 0.145506,-6.116285 0.605588,-9.22757 0.78644,-5.32942 1.987602,-10.631153 3.116306,-15.924401 C 48.672089,10.584433 48.620838,3.7518432 51.699441,0.72049533 52.543612,0.06537051 52.74685,1.350612 52.74685,1.9083836 52.75745,2.0262793 52.74445,-0.36825336 51.925064,0.04884725 47.054438,2.5644016 45.476257,10.47413 43.916926,14.434352 41.641847,20.214813 39.706085,26.123887 38.909041,32.137906 38.707571,33.657153 38.598,35.175953 38.572669,36.692073 38.407134,36.286584 38.251613,35.877968 38.079598,35.473818 35.268443,28.880592 31.474681,22.447239 26.743081,16.51405 25.578443,15.054198 10.934166,0.64948999 9.7877898,2.8542284 c 0.1131059,0.320194 0.3499212,0.5859058 0.7110362,0.7971355 0.02121,0.024115 0.0218,0.010718 0.0094,-0.025008 0.860077,1.3892933 3.305404,3.5350839 4.067102,4.7524461 1.916911,3.063501 3.406728,6.314564 4.920699,9.503552 3.198778,6.739256 6.166042,13.546392 9.042586,20.367818 0.6698,1.588912 1.367875,3.168893 2.08009,4.743961 C 23.276854,32.404511 13.482585,22.790655 0,17.28707 c 4.6049445,2.34273 7.624049,6.750421 10.733874,10.125185 3.750759,4.070527 7.70122,8.031642 11.459048,12.097704 4.43234,4.796656 9.647586,9.847861 13.910856,15.155846 4.129546,8.669798 8.142451,17.348974 10.61959,26.462666 -1.015008,-3.148797 -0.07953,-7.500219 -0.25331,-10.80487 -0.137848,-2.630324 -0.445355,-5.239213 -0.866557,-7.843189 0.520759,1.174491 0.969648,2.349875 1.172885,3.44309 -0.185564,-1.833635 -0.399405,-3.655659 -0.629152,-5.468305 0.589683,-1.696983 1.168762,-3.280536 1.55992,-4.584981 2.004686,-6.691472 4.391693,-13.267729 7.642311,-19.677413 3.007912,-5.92917 6.458233,-11.782869 10.217828,-17.457938 1.753732,-2.645954 3.531616,-5.282083 5.298308,-7.922679 C 72.021991,9.0834965 73.123007,6.3156276 74.733,4.6592826 64.326073,14.174 52.955978,23.757489 46.353417,35.174166"
         style="fill:#055500;fill-opacity:0.68164804;stroke:none;stroke-opacity:1" />
    </g>
  </g>
</svg>
