<?xml version="1.0" encoding="UTF-8" standalone="no"?>
<!-- Created with Inkscape (http://www.inkscape.org/) -->

<svg
   xmlns:dc="http://purl.org/dc/elements/1.1/"
   xmlns:cc="http://creativecommons.org/ns#"
   xmlns:rdf="http://www.w3.org/1999/02/22-rdf-syntax-ns#"
   xmlns:svg="http://www.w3.org/2000/svg"
   xmlns="http://www.w3.org/2000/svg"
   xmlns:xlink="http://www.w3.org/1999/xlink"
   xmlns:sodipodi="http://sodipodi.sourceforge.net/DTD/sodipodi-0.dtd"
   xmlns:inkscape="http://www.inkscape.org/namespaces/inkscape"
   width="100"
   height="100"
   id="svg4640"
   version="1.1"
   inkscape:version="0.48.5 r10040"
   sodipodi:docname="rucula.svg">
  <defs
     id="defs4642">
    <linearGradient
       inkscape:collect="always"
       xlink:href="#linearGradient4865"
       id="linearGradient4871"
       x1="116.45824"
       y1="218.88603"
       x2="114.035"
       y2="228.08009"
       gradientUnits="userSpaceOnUse"
       gradientTransform="matrix(0.7212561,0,0,0.7212561,32.389819,24.542329)" />
    <linearGradient
       inkscape:collect="always"
       id="linearGradient4865">
      <stop
         style="stop-color:#00aa00;stop-opacity:1;"
         offset="0"
         id="stop4867" />
      <stop
         style="stop-color:#008000;stop-opacity:1"
         offset="1"
         id="stop4869" />
    </linearGradient>
    <inkscape:path-effect
       effect="spiro"
       id="path-effect4898-8-6"
       is_visible="true" />
    <inkscape:path-effect
       effect="spiro"
       id="path-effect4898-8"
       is_visible="true" />
    <inkscape:path-effect
       effect="spiro"
       id="path-effect4898"
       is_visible="true" />
    <inkscape:path-effect
       effect="spiro"
       id="path-effect4898-8-8"
       is_visible="true" />
    <inkscape:path-effect
       effect="spiro"
       id="path-effect4898-8-4"
       is_visible="true" />
  </defs>
  <sodipodi:namedview
     id="base"
     pagecolor="#ffffff"
     bordercolor="#666666"
     borderopacity="1.0"
     inkscape:pageopacity="0.0"
     inkscape:pageshadow="2"
     inkscape:zoom="3.959798"
     inkscape:cx="-17.559884"
     inkscape:cy="31.021787"
     inkscape:document-units="px"
     inkscape:current-layer="layer1"
     showgrid="false"
     inkscape:window-width="1366"
     inkscape:window-height="745"
     inkscape:window-x="-8"
     inkscape:window-y="-8"
     inkscape:window-maximized="1" />
  <metadata
     id="metadata4645">
    <rdf:RDF>
      <cc:Work
         rdf:about="">
        <dc:format>image/svg+xml</dc:format>
        <dc:type
           rdf:resource="http://purl.org/dc/dcmitype/StillImage" />
        <dc:title></dc:title>
      </cc:Work>
    </rdf:RDF>
  </metadata>
  <g
     inkscape:label="Layer 1"
     inkscape:groupmode="layer"
     id="layer1"
     transform="translate(0,-952.36218)">
    <path
       style="fill:#00bc00;fill-opacity:1;stroke:none"
       d="m 51.168355,1010.2801 c 0.684842,0.067 1.385547,-0.1452 1.945034,-0.5458 0.559487,-0.4006 0.97982,-0.9814 1.228928,-1.6229 0.249109,-0.6414 0.3314,-1.3414 0.284519,-2.028 -0.04688,-0.6865 -0.220374,-1.3605 -0.46692,-2.003 -0.453547,-1.1819 -1.148874,-2.2543 -1.686535,-3.4003 -0.537662,-1.14605 -0.921074,-2.42663 -0.68977,-3.67122 0.214105,-1.15204 0.936531,-2.15385 1.789821,-2.95693 0.853289,-0.80308 1.844625,-1.44204 2.77425,-2.15537 0.929626,-0.71333 1.818445,-1.52649 2.365288,-2.56283 0.273421,-0.51817 0.456362,-1.08813 0.497864,-1.67254 0.0415,-0.58441 -0.06197,-1.18336 -0.330741,-1.70396 -0.282225,-0.54666 -0.735632,-0.99044 -1.241143,-1.34107 -0.505511,-0.35063 -1.06488,-0.61493 -1.623483,-0.8727 -0.558604,-0.25778 -1.121725,-0.51198 -1.639024,-0.84497 -0.517299,-0.333 -0.991352,-0.75095 -1.310578,-1.27686 -0.413538,-0.68128 -0.542813,-1.51422 -0.436959,-2.30413 0.105853,-0.7899 0.435798,-1.53865 0.878335,-2.20146 0.885074,-1.32562 2.189645,-2.30081 3.365648,-3.37675 1.961755,-1.79484 3.629221,-3.95859 4.588096,-6.43861 0.958875,-2.48003 1.171361,-5.29262 0.314335,-7.80965 -0.817071,-2.39969 -2.605831,-4.45249 -4.870634,-5.59125 -1.923269,-0.96704 -4.150217,-1.27605 -6.284339,-0.99384 -2.134123,0.2822 -4.174201,1.14052 -5.944512,2.36531 -1.314988,0.90978 -2.496004,2.02997 -3.384735,3.35928 -0.888731,1.3293 -1.478171,2.87313 -1.59417,4.46794 -0.168982,2.32326 0.674026,4.63955 1.991774,6.56038 1.317748,1.92084 3.087278,3.48713 4.930471,4.91146 1.075872,0.83138 2.198323,1.6362 3.033009,2.70951 0.417342,0.53665 0.7582,1.13874 0.95193,1.79039 0.193731,0.65164 0.236149,1.35473 0.06989,2.01392 -0.209316,0.8299 -0.735778,1.55032 -1.356222,2.13989 -0.620445,0.58957 -1.337799,1.06532 -2.032098,1.56582 -0.694299,0.50049 -1.376956,1.03649 -1.896944,1.71632 -0.519988,0.67982 -0.868318,1.52412 -0.809457,2.37798 0.05055,0.73328 0.397561,1.42359 0.870763,1.98603 0.473203,0.56243 1.068298,1.00904 1.680187,1.41628 0.61189,0.40725 1.247077,0.78108 1.83239,1.22568 0.585313,0.4446 1.125289,0.96781 1.48559,1.60847 0.372627,0.66257 0.538588,1.42961 0.543565,2.18976 0.005,0.76015 -0.146091,1.51516 -0.375565,2.23986 -0.458947,1.44936 -1.226107,2.78196 -1.755118,4.20726 -0.46486,1.2525 -0.742723,2.6298 -0.41287,3.9244 0.164926,0.6473 0.4842,1.2611 0.955818,1.7342 0.471619,0.473 1.099525,0.7987 1.764313,0.864"
       id="path4896-5"
       inkscape:path-effect="#path-effect4898-8"
       inkscape:original-d="m 51.168355,1010.2801 c 3.607584,-0.4079 2.12547,-2.6739 2.991561,-6.1997 0.634298,-2.5821 -2.844032,-4.45411 -2.376305,-7.07152 0.757906,-4.24157 7.089664,-6.74305 7.096482,-11.05163 0.0051,-3.11501 -5.961315,-1.22403 -5.814228,-4.3356 0.275425,-5.82663 1.945652,-2.35412 3.807024,-7.88234 1.865437,-5.54026 7.615535,-9.07007 4.902431,-14.24826 -1.715927,-3.27496 -1.292386,-4.66077 -4.870634,-5.59125 -5.415668,-1.40837 -7.334306,-1.34081 -12.228851,1.37147 -3.591958,1.99044 -3.434912,4.02193 -4.978905,7.82722 -2.088377,5.14697 4.448911,6.49838 6.922245,11.47184 1.738845,3.49652 3.527095,2.64461 4.054828,6.51382 0.543668,3.98607 -5.707724,4.34587 -6.094721,7.80001 -0.421792,3.76472 12.82926,-21.27616 5.86893,6.23646 -0.763972,3.01986 -2.139344,5.57138 -1.587118,8.63688 0.749711,4.1622 -1.894911,6.9976 2.307261,6.5226 z"
       inkscape:connector-curvature="0"
       sodipodi:nodetypes="ssssssssssssssss" />
    <path
       style="fill:#8dd35f;fill-opacity:1;stroke-width:0.04222513"
       d="m 51.139905,973.08633 c 0.164939,-13.63762 1.599724,1.43416 1.57566,2.78091 l 0,0 -1.183063,74.29336 c -0.02242,1.3442 -0.767075,2.2568 -1.655038,2.07 -0.896338,-0.1946 -1.486048,-1.0731 -1.466329,-2.4119 1.162255,-9.2962 1.787164,-38.0609 2.725354,-76.72517 z"
       id="rect4652-7-2-4-7-8-3-8-6-6-7-2-1-6-7"
       inkscape:connector-curvature="0"
       sodipodi:nodetypes="cscssccc" />
    <path
       style="fill:#44aa00;fill-opacity:1;stroke:none"
       d="m 59.028652,1011.2593 c 0.625991,0.2858 1.357736,0.3123 2.016972,0.1149 0.659236,-0.1975 1.24529,-0.6104 1.689069,-1.1364 0.44378,-0.526 0.748756,-1.1614 0.927172,-1.8261 0.178416,-0.6646 0.233012,-1.3585 0.208258,-2.0462 -0.04554,-1.2651 -0.355258,-2.5051 -0.491942,-3.7636 -0.136685,-1.2584 -0.0838,-2.5941 0.538852,-3.69631 0.576352,-1.02021 1.584763,-1.73338 2.652467,-2.21611 1.067704,-0.48273 2.212729,-0.76543 3.323513,-1.1385 1.110783,-0.37306 2.215366,-0.8538 3.068897,-1.65661 0.426766,-0.40141 0.784751,-0.88116 1.013643,-1.42047 0.228892,-0.53932 0.325372,-1.13943 0.240075,-1.71907 -0.08957,-0.60865 -0.374436,-1.17555 -0.738816,-1.67124 -0.36438,-0.49569 -0.80772,-0.92719 -1.252452,-1.35227 -0.444733,-0.42509 -0.894898,-0.84825 -1.276154,-1.33109 -0.381256,-0.48283 -0.69404,-1.03199 -0.825346,-1.63302 -0.170101,-0.77861 -0.02211,-1.60843 0.334335,-2.32126 0.356442,-0.71282 0.911494,-1.31399 1.545164,-1.79734 1.267341,-0.96671 2.817769,-1.46581 4.279281,-2.10194 2.438018,-1.06116 4.71738,-2.56676 6.429114,-4.60144 1.711735,-2.03469 2.825381,-4.62615 2.83147,-7.28509 0.0058,-2.53496 -1.020058,-5.05711 -2.792791,-6.86915 -1.505407,-1.53879 -3.511576,-2.55371 -5.621792,-2.97927 -2.110215,-0.42557 -4.318416,-0.27569 -6.390366,0.30838 -1.539049,0.43385 -3.019655,1.11021 -4.291642,2.0792 -1.271987,0.96899 -2.330487,2.23802 -2.957708,3.7089 -0.913705,2.14271 -0.867923,4.60721 -0.24477,6.8517 0.623152,2.24449 1.788685,4.30023 3.069958,6.24558 0.747879,1.1355 1.548434,2.26099 1.989676,3.54707 0.22062,0.64304 0.347663,1.32315 0.319459,2.0024 -0.0282,0.67924 -0.216222,1.35805 -0.587382,1.92762 -0.467282,0.71708 -1.199025,1.22769 -1.977207,1.58403 -0.778183,0.35635 -1.611097,0.57358 -2.430235,0.82171 -0.819137,0.24812 -1.638784,0.53361 -2.351232,1.00791 -0.712448,0.47431 -1.315897,1.1599 -1.537294,1.98666 -0.190132,0.71001 -0.08589,1.47557 0.179196,2.16113 0.26509,0.68555 0.683066,1.3011 1.129698,1.88486 0.446633,0.58377 0.926144,1.14349 1.335517,1.75396 0.409373,0.61047 0.75035,1.2806 0.883266,2.00351 0.137461,0.74763 0.04555,1.527 -0.196402,2.24763 -0.24195,0.72063 -0.62983,1.38573 -1.08204,1.99673 -0.904419,1.2221 -2.062443,2.2336 -3.025333,3.4101 -0.846154,1.0339 -1.55593,2.2465 -1.664027,3.5781 -0.05405,0.6659 0.04876,1.3501 0.341364,1.9506 0.292604,0.6005 0.780865,1.1123 1.388515,1.3898"
       id="path4896-5-9"
       inkscape:path-effect="#path-effect4898-8-8"
       inkscape:original-d="m 59.028652,1011.2593 c 3.544756,0.7846 2.878116,-1.8397 4.841471,-4.8938 1.437836,-2.2364 -1.244823,-5.136 0.04691,-7.45991 2.093242,-3.76612 8.89408,-4.07758 10.298595,-8.15076 1.015538,-2.94481 -5.241533,-3.09227 -4.092768,-5.98762 2.15123,-5.42206 2.604297,-1.59551 6.15878,-6.22054 3.562257,-4.63517 10.146602,-6.10814 9.260584,-11.88653 -0.560407,-3.6545 0.289906,-4.82791 -2.792791,-6.86915 -4.665629,-3.08946 -6.502352,-3.64819 -12.012158,-2.67089 -4.043483,0.7172 -4.554128,2.68972 -7.24935,5.7881 -3.645498,4.19076 2.099516,7.59039 2.825188,13.09728 0.51015,3.8716 2.47807,3.64607 1.721753,7.47709 -0.779193,3.94681 -6.809058,2.25859 -8.295968,5.40031 -1.620551,3.42405 19.03896,-15.96195 3.527677,7.80346 -1.70251,2.60845 -3.831383,4.57556 -4.303775,7.65446 -0.641484,4.1803 -4.063064,6.0042 0.06586,6.9185 z"
       inkscape:connector-curvature="0"
       sodipodi:nodetypes="ssssssssssssssss" />
    <path
       style="fill:#8dd35f;fill-opacity:1;stroke-width:0.04222513"
       d="m 70.782313,976.93403 c 4.58128,-12.84616 1.047795,1.87564 0.588017,3.14174 l 0,0 -25.226471,69.88943 c -0.457406,1.2643 -1.457843,1.8856 -2.237165,1.4209 -0.784722,-0.4748 -1.057416,-1.4973 -0.604343,-2.7573 4.115892,-8.4159 14.040823,-35.4215 27.474396,-71.68907 z"
       id="rect4652-7-2-4-7-8-3-8-6-6-7-2-1-6-7-3"
       inkscape:connector-curvature="0"
       sodipodi:nodetypes="cscssccc" />
    <path
       style="fill:#55d400;fill-opacity:1;stroke:none"
       d="m 42.762881,1011.9935 c 0.668528,-0.1631 1.259522,-0.5953 1.65499,-1.1584 0.395469,-0.5632 0.600032,-1.2503 0.622936,-1.938 0.0229,-0.6878 -0.130984,-1.3756 -0.402315,-2.008 -0.27133,-0.6324 -0.658012,-1.2111 -1.103185,-1.7358 -0.818947,-0.9653 -1.829861,-1.7473 -2.716341,-2.651 -0.886481,-0.9037 -1.671898,-1.9854 -1.865297,-3.23641 -0.179018,-1.15801 0.171362,-2.34239 0.710976,-3.3825 0.539613,-1.04012 1.263789,-1.97103 1.905131,-2.9517 0.641342,-0.98067 1.211154,-2.04206 1.384422,-3.20094 0.08663,-0.57944 0.07075,-1.17782 -0.08339,-1.74307 -0.15414,-0.56524 -0.4499,-1.09625 -0.875738,-1.49864 -0.447159,-0.42254 -1.021837,-0.69137 -1.614876,-0.85506 -0.59304,-0.16369 -1.208349,-0.22809 -1.820778,-0.28658 -0.612429,-0.0585 -1.227939,-0.11213 -1.826269,-0.25528 -0.598331,-0.14314 -1.183951,-0.38077 -1.659165,-0.77149 -0.615603,-0.50615 -1.013109,-1.24943 -1.174493,-2.02989 -0.161384,-0.78045 -0.09768,-1.59617 0.100704,-2.36805 0.396764,-1.54376 1.305321,-2.89556 2.05922,-4.29993 1.257629,-2.34272 2.115509,-4.93623 2.20007,-7.59383 0.08456,-2.65759 -0.645258,-5.38215 -2.28662,-7.47401 -1.564841,-1.99434 -3.931931,-3.33991 -6.445924,-3.66542 -2.134879,-0.27643 -4.338685,0.16858 -6.259326,1.14082 -1.920642,0.97224 -3.561969,2.45705 -4.827492,4.19848 -0.940027,1.29353 -1.684022,2.74132 -2.083021,4.28976 -0.398999,1.54844 -0.444597,3.20033 -0.02654,4.74373 0.609007,2.24838 2.17074,4.15544 4.049682,5.53227 1.878942,1.37683 4.066961,2.26963 6.277537,3.0041 1.290311,0.42871 2.615792,0.81694 3.758519,1.55374 0.571363,0.3684 1.09219,0.82384 1.490565,1.37472 0.398375,0.55089 0.670971,1.20036 0.732117,1.87744 0.07698,0.85242 -0.181543,1.70642 -0.57204,2.46804 -0.390497,0.76161 -0.910099,1.44786 -1.399759,2.14984 -0.489659,0.70198 -0.956589,1.43362 -1.222435,2.24717 -0.265846,0.81355 -0.315296,1.72554 0.02268,2.51187 0.290252,0.67529 0.846064,1.21196 1.478669,1.58622 0.632605,0.37426 1.341926,0.59889 2.054079,0.78082 0.712153,0.18193 1.43524,0.32462 2.134667,0.55059 0.699427,0.22597 1.382074,0.54113 1.934005,1.02655 0.570808,0.50202 0.981139,1.17098 1.237274,1.88669 0.256134,0.71575 0.363311,1.47815 0.386472,2.23795 0.04632,1.5197 -0.236872,3.0309 -0.26463,4.551 -0.02439,1.3357 0.16897,2.7274 0.908484,3.84 0.369757,0.5563 0.874102,1.03 1.475647,1.3204 0.601544,0.2904 1.30183,0.3901 1.950784,0.2318"
       id="path4896-5-4"
       inkscape:path-effect="#path-effect4898-8-4"
       inkscape:original-d="m 42.762881,1011.9935 c 3.269562,-1.5783 1.121352,-3.2264 0.772426,-6.8402 -0.255506,-2.6465 -4.157265,-3.2627 -4.581638,-5.88741 -0.68778,-4.25365 4.460129,-8.70865 3.041404,-12.77685 -1.025669,-2.9414 -6.030656,0.81661 -6.921088,-2.16841 -1.667392,-5.58973 1.057435,-2.86522 0.985431,-8.69787 -0.07217,-5.84544 4.186659,-11.07858 -0.08655,-15.06784 -2.702621,-2.52302 -2.761316,-3.97091 -6.445924,-3.66542 -5.576668,0.46231 -7.364957,1.16069 -11.086818,5.3393 -2.731364,3.06656 -1.911187,4.93174 -2.109563,9.03349 -0.268323,5.54804 6.348005,4.66107 10.327219,8.53637 2.797515,2.72451 4.203311,1.32908 5.981201,4.8059 1.831575,3.58189 -3.948915,5.98924 -3.171551,9.37692 0.847209,3.69233 5.069384,-24.32204 7.60142,3.94418 0.277937,3.10254 -0.176039,5.96534 1.359116,8.67564 2.084274,3.68 0.526412,7.2306 4.334917,5.3922 z"
       inkscape:connector-curvature="0"
       sodipodi:nodetypes="ssssssssssssssss" />
    <path
       style="fill:#8dd35f;fill-opacity:1;stroke-width:0.04222513"
       d="m 30.433171,976.90295 c -4.355389,-12.92458 1.984058,0.82426 2.406795,2.10309 l 0,0 23.458165,70.50266 c 0.423497,1.276 0.02257,2.3833 -0.877174,2.5009 -0.910218,0.1131 -1.757363,-0.5212 -2.181595,-1.791 -1.978158,-9.1575 -10.903152,-36.5096 -22.807035,-73.30777 z"
       id="rect4652-7-2-4-7-8-3-8-6-6-7-2-1-6-7-6"
       inkscape:connector-curvature="0"
       sodipodi:nodetypes="cscssccc" />
  </g>
</svg>
