<?xml version="1.0" encoding="UTF-8" standalone="no"?>
<!-- Created with Inkscape (http://www.inkscape.org/) -->

<svg
   xmlns:dc="http://purl.org/dc/elements/1.1/"
   xmlns:cc="http://creativecommons.org/ns#"
   xmlns:rdf="http://www.w3.org/1999/02/22-rdf-syntax-ns#"
   xmlns:svg="http://www.w3.org/2000/svg"
   xmlns="http://www.w3.org/2000/svg"
   xmlns:xlink="http://www.w3.org/1999/xlink"
   xmlns:sodipodi="http://sodipodi.sourceforge.net/DTD/sodipodi-0.dtd"
   xmlns:inkscape="http://www.inkscape.org/namespaces/inkscape"
   width="100"
   height="100"
   id="svg4640"
   version="1.1"
   inkscape:version="0.48.5 r10040"
   sodipodi:docname="trevo.svg">
  <defs
     id="defs4642">
    <linearGradient
       inkscape:collect="always"
       xlink:href="#linearGradient4865"
       id="linearGradient4871"
       x1="116.45824"
       y1="218.88603"
       x2="114.035"
       y2="228.08009"
       gradientUnits="userSpaceOnUse"
       gradientTransform="matrix(0.7212561,0,0,0.7212561,32.389819,24.542329)" />
    <linearGradient
       inkscape:collect="always"
       id="linearGradient4865">
      <stop
         style="stop-color:#00aa00;stop-opacity:1;"
         offset="0"
         id="stop4867" />
      <stop
         style="stop-color:#008000;stop-opacity:1"
         offset="1"
         id="stop4869" />
    </linearGradient>
    <linearGradient
       y2="228.08009"
       x2="114.035"
       y1="218.88603"
       x1="116.45824"
       gradientTransform="matrix(4.396609,0,0,4.396609,-475.63124,57.616795)"
       gradientUnits="userSpaceOnUse"
       id="linearGradient4638"
       xlink:href="#linearGradient4865"
       inkscape:collect="always" />
  </defs>
  <sodipodi:namedview
     id="base"
     pagecolor="#ffffff"
     bordercolor="#666666"
     borderopacity="1.0"
     inkscape:pageopacity="0.0"
     inkscape:pageshadow="2"
     inkscape:zoom="2.8"
     inkscape:cx="45.148267"
     inkscape:cy="41.739435"
     inkscape:document-units="px"
     inkscape:current-layer="layer1"
     showgrid="false"
     inkscape:window-width="1366"
     inkscape:window-height="745"
     inkscape:window-x="-8"
     inkscape:window-y="-8"
     inkscape:window-maximized="1" />
  <metadata
     id="metadata4645">
    <rdf:RDF>
      <cc:Work
         rdf:about="">
        <dc:format>image/svg+xml</dc:format>
        <dc:type
           rdf:resource="http://purl.org/dc/dcmitype/StillImage" />
        <dc:title></dc:title>
      </cc:Work>
    </rdf:RDF>
  </metadata>
  <g
     inkscape:label="Layer 1"
     inkscape:groupmode="layer"
     id="layer1"
     transform="translate(0,-952.36218)">
    <path
       style="fill:#00aa00;fill-opacity:1;stroke-width:0.04222513"
       d="m 72.346824,979.39879 c 4.073668,-12.53632 2.375529,1.58484 1.959752,2.82144 l 0,0 -22.685344,68.24687 c -0.412204,1.2348 -1.956815,1.9526 -3.444613,1.6341 -1.500206,-0.327 -2.278739,-1.2332 -1.872691,-2.4635 4.597174,-8.3725 13.669733,-34.7686 26.034992,-70.23291 z"
       id="rect4652-7-2-4-7-8-3-8-6-6-7-2"
       inkscape:connector-curvature="0"
       sodipodi:nodetypes="cscssccc" />
    <path
       style="fill:#00aa00;fill-opacity:1;stroke-width:0.04222513"
       d="m 26.153381,979.43758 c -3.812834,-12.53632 -2.22342,1.58473 -1.834269,2.82145 l 0,0 21.232848,68.24697 c 0.38581,1.2347 1.831527,1.9525 3.224066,1.6339 1.404151,-0.3269 2.132834,-1.2331 1.752774,-2.4635 -4.302816,-8.3724 -12.794483,-34.7685 -24.368017,-70.23282 z"
       id="rect4652-7-2-4-7-8-3-8-6-6-7-2-7"
       inkscape:connector-curvature="0"
       sodipodi:nodetypes="cscssccc" />
    <path
       style="fill:#00aa00;fill-opacity:1;stroke-width:0.04222513"
       d="m 61.241622,973.653 c 2.290009,-12.9017 2.396612,1.30818 2.157784,2.58247 l 0,0 -12.939226,70.29263 c -0.235745,1.272 -1.585505,2.157 -3.00609,2.007 -1.433138,-0.1573 -2.264728,-0.9699 -2.03416,-2.2368 3.273244,-8.8261 8.55516,-36.0466 15.81506,-72.63845 z"
       id="rect4652-7-2-4-7-8-3-8-6-6-7-2-6"
       inkscape:connector-curvature="0"
       sodipodi:nodetypes="cscssccc" />
    <path
       style="fill:#00aa00;fill-opacity:1;stroke-width:0.04222513"
       d="m 35.602168,972.38275 c -2.237221,-12.33014 -1.74613,1.46297 -1.515672,2.67974 l 0,0 12.536334,67.14151 c 0.22806,1.2148 1.276662,1.9642 2.336813,1.7037 1.069281,-0.2685 1.660747,-1.1241 1.436786,-2.3345 -2.811373,-8.2968 -7.869598,-34.2752 -14.788998,-69.18433 z"
       id="rect4652-7-2-4-7-8-3-8-6-6-7-2-1"
       inkscape:connector-curvature="0"
       sodipodi:nodetypes="cscssccc" />
    <path
       style="fill:#00aa00;fill-opacity:1;stroke-width:0.04222513"
       d="m 42.252921,960.87647 c -1.055195,-12.48247 -1.276195,1.27772 -1.16531,2.51053 l 0,0 5.99244,68.0059 c 0.109271,1.2307 0.80921,2.0815 1.558402,1.9297 0.755885,-0.1589 1.202877,-0.9496 1.096261,-2.1753 -1.619839,-8.5313 -4.083114,-34.86518 -7.478379,-70.26434 z"
       id="rect4652-7-2-4-7-8-3-8-6-6-7-2-1-4"
       inkscape:connector-curvature="0"
       sodipodi:nodetypes="cscssccc" />
    <path
       style="fill:#00aa00;fill-opacity:1;stroke-width:0.04222513"
       d="m 53.766902,957.78535 c 0.329743,-12.52263 1.348132,1.2016 1.308916,2.43881 l 0,0 -2.039606,68.23904 c -0.03781,1.2347 -0.687177,2.1248 -1.443918,2.0167 -0.763814,-0.1151 -1.255909,-0.8784 -1.220534,-2.1081 1.122508,-8.6109 2.054889,-35.04328 3.392119,-70.57972 z"
       id="rect4652-7-2-4-7-8-3-8-6-6-7-2-1-4-2"
       inkscape:connector-curvature="0"
       sodipodi:nodetypes="cscssccc" />
    <path
       style="fill:#00aa00;fill-opacity:1;stroke-width:0.04222513"
       d="m 27.497145,965.7338 c -3.55217,-12.01273 -0.992106,1.50897 -0.634757,2.69406 l 0,0 19.591386,65.39804 c 0.355354,1.1832 1.212555,1.8753 1.915701,1.5754 0.708285,-0.308 0.986515,-1.1729 0.634782,-2.3517 -3.307958,-8.029 -11.034195,-33.32419 -21.50245,-67.31005 z"
       id="rect4652-7-2-4-7-8-3-8-6-6-7-2-1-4-2-3"
       inkscape:connector-curvature="0"
       sodipodi:nodetypes="cscssccc" />
    <path
       style="fill:#00aa00;fill-opacity:1;stroke-width:0.04222513"
       d="m 71.408802,964.80494 c 3.259062,-12.09557 1.028497,1.48438 0.700064,2.67791 l 0,0 -17.995567,65.85495 c -0.326477,1.1914 -1.166596,1.9042 -1.876839,1.6215 -0.715566,-0.2907 -1.014731,-1.1485 -0.691766,-2.3356 3.111774,-8.107 10.220727,-33.58255 19.859581,-67.81289 z"
       id="rect4652-7-2-4-7-8-3-8-6-6-7-2-1-4-2-2"
       inkscape:connector-curvature="0"
       sodipodi:nodetypes="cscssccc" />
    <path
       style="fill:#00aa00;fill-opacity:1;stroke-width:0.04222513"
       d="m 48.810091,962.73004 c -0.329743,-12.52263 -1.348133,1.20172 -1.308915,2.4388 l 0,0 2.039606,68.23906 c 0.03781,1.2347 0.687177,2.1248 1.443918,2.0167 0.763814,-0.1151 1.255909,-0.8784 1.220533,-2.1081 -1.122508,-8.6108 -2.054876,-35.0433 -3.392119,-70.57974 z"
       id="rect4652-7-2-4-7-8-3-8-6-6-7-2-1-4-2-21"
       inkscape:connector-curvature="0"
       sodipodi:nodetypes="cscssccc" />
  </g>
</svg>
