<?xml version="1.0" encoding="UTF-8" standalone="no"?>
<!-- Created with Inkscape (http://www.inkscape.org/) -->

<svg
   xmlns:dc="http://purl.org/dc/elements/1.1/"
   xmlns:cc="http://creativecommons.org/ns#"
   xmlns:rdf="http://www.w3.org/1999/02/22-rdf-syntax-ns#"
   xmlns:svg="http://www.w3.org/2000/svg"
   xmlns="http://www.w3.org/2000/svg"
   xmlns:xlink="http://www.w3.org/1999/xlink"
   xmlns:sodipodi="http://sodipodi.sourceforge.net/DTD/sodipodi-0.dtd"
   xmlns:inkscape="http://www.inkscape.org/namespaces/inkscape"
   width="100"
   height="100"
   id="svg3331"
   version="1.1"
   inkscape:version="0.48.5 r10040"
   sodipodi:docname="hortela.svg">
  <defs
     id="defs3333">
    <linearGradient
       inkscape:collect="always"
       id="linearGradient3859">
      <stop
         style="stop-color:#15f21b;stop-opacity:1;"
         offset="0"
         id="stop3861" />
      <stop
         style="stop-color:#4400aa;stop-opacity:1"
         offset="1"
         id="stop3863" />
    </linearGradient>
    <linearGradient
       inkscape:collect="always"
       xlink:href="#linearGradient3859"
       id="linearGradient3881"
       x1="158.57991"
       y1="56.386147"
       x2="156.65558"
       y2="45.980457"
       gradientUnits="userSpaceOnUse"
       gradientTransform="translate(-38.7719,55.021887)" />
    <linearGradient
       inkscape:collect="always"
       id="linearGradient3883">
      <stop
         style="stop-color:#15f21b;stop-opacity:1;"
         offset="0"
         id="stop3885" />
      <stop
         style="stop-color:#00aa00;stop-opacity:1"
         offset="1"
         id="stop3887" />
    </linearGradient>
    <linearGradient
       inkscape:collect="always"
       id="linearGradient3891">
      <stop
         style="stop-color:#15e01b;stop-opacity:1;"
         offset="0"
         id="stop3893" />
      <stop
         style="stop-color:#008000;stop-opacity:1"
         offset="1"
         id="stop3895" />
    </linearGradient>
    <linearGradient
       inkscape:collect="always"
       xlink:href="#linearGradient3899"
       id="linearGradient3905"
       x1="127.14902"
       y1="51.967293"
       x2="128.78828"
       y2="75.914642"
       gradientUnits="userSpaceOnUse"
       gradientTransform="translate(-46.184175,54.166625)" />
    <linearGradient
       inkscape:collect="always"
       id="linearGradient3899">
      <stop
         style="stop-color:#15cf1b;stop-opacity:1;"
         offset="0"
         id="stop3901" />
      <stop
         style="stop-color:#15cf1b;stop-opacity:0;"
         offset="1"
         id="stop3903" />
    </linearGradient>
    <linearGradient
       inkscape:collect="always"
       xlink:href="#linearGradient3899"
       id="linearGradient3477"
       gradientUnits="userSpaceOnUse"
       gradientTransform="matrix(3.9214229,0,0,3.9214229,-447.97286,777.39131)"
       x1="127.14902"
       y1="51.967293"
       x2="128.78828"
       y2="75.914642" />
    <linearGradient
       inkscape:collect="always"
       xlink:href="#linearGradient3891"
       id="linearGradient3479"
       gradientUnits="userSpaceOnUse"
       gradientTransform="matrix(3.9214229,0,0,3.9214229,-447.97286,777.39131)"
       x1="115.46043"
       y1="54.675625"
       x2="135.91547"
       y2="72.351051" />
    <linearGradient
       inkscape:collect="always"
       xlink:href="#linearGradient3883"
       id="linearGradient3481"
       gradientUnits="userSpaceOnUse"
       gradientTransform="matrix(3.9214229,0,0,3.9214229,-447.97286,777.39131)"
       x1="137.41217"
       y1="54.176723"
       x2="124.9396"
       y2="67.076935" />
    <linearGradient
       gradientTransform="matrix(3.8854574,0,0,3.8854574,-270.37211,798.74709)"
       inkscape:collect="always"
       xlink:href="#linearGradient4085-9"
       id="linearGradient4091-0"
       x1="86.884125"
       y1="44.562298"
       x2="81.542061"
       y2="63.007538"
       gradientUnits="userSpaceOnUse" />
    <linearGradient
       inkscape:collect="always"
       id="linearGradient4085-9">
      <stop
         style="stop-color:#44b000;stop-opacity:1;"
         offset="0"
         id="stop4087-5" />
      <stop
         style="stop-color:#00aa00;stop-opacity:1"
         offset="1"
         id="stop4089-8" />
    </linearGradient>
    <linearGradient
       gradientTransform="translate(33.107692,92.907028)"
       y2="65.37619"
       x2="82.751587"
       y1="46.376583"
       x1="77.510315"
       gradientUnits="userSpaceOnUse"
       id="linearGradient4547"
       xlink:href="#linearGradient4077-0"
       inkscape:collect="always" />
    <linearGradient
       inkscape:collect="always"
       id="linearGradient4077-0">
      <stop
         style="stop-color:#44b000;stop-opacity:1;"
         offset="0"
         id="stop4079-0" />
      <stop
         style="stop-color:#00aa00;stop-opacity:1"
         offset="1"
         id="stop4081-0" />
    </linearGradient>
    <linearGradient
       y2="65.37619"
       x2="82.751587"
       y1="46.376583"
       x1="77.510315"
       gradientTransform="matrix(3.8854574,0,0,3.8854574,-270.37211,798.74709)"
       gradientUnits="userSpaceOnUse"
       id="linearGradient3785"
       xlink:href="#linearGradient4077-0"
       inkscape:collect="always" />
    <linearGradient
       gradientTransform="matrix(3.953458,0,0,3.953458,-275.02018,795.54104)"
       inkscape:collect="always"
       xlink:href="#linearGradient4085-9-7"
       id="linearGradient4091-0-1"
       x1="86.884125"
       y1="44.562298"
       x2="81.542061"
       y2="63.007538"
       gradientUnits="userSpaceOnUse" />
    <linearGradient
       inkscape:collect="always"
       id="linearGradient4085-9-7">
      <stop
         style="stop-color:#44b000;stop-opacity:1;"
         offset="0"
         id="stop4087-5-4" />
      <stop
         style="stop-color:#00aa00;stop-opacity:1"
         offset="1"
         id="stop4089-8-0" />
    </linearGradient>
    <linearGradient
       gradientTransform="translate(33.107692,92.907028)"
       y2="65.37619"
       x2="82.751587"
       y1="46.376583"
       x1="77.510315"
       gradientUnits="userSpaceOnUse"
       id="linearGradient4547-9"
       xlink:href="#linearGradient4077-0-4"
       inkscape:collect="always" />
    <linearGradient
       inkscape:collect="always"
       id="linearGradient4077-0-4">
      <stop
         style="stop-color:#44b000;stop-opacity:1;"
         offset="0"
         id="stop4079-0-8" />
      <stop
         style="stop-color:#00aa00;stop-opacity:1"
         offset="1"
         id="stop4081-0-8" />
    </linearGradient>
    <linearGradient
       y2="65.37619"
       x2="82.751587"
       y1="46.376583"
       x1="77.510315"
       gradientTransform="matrix(3.953458,0,0,3.953458,-275.02018,795.54104)"
       gradientUnits="userSpaceOnUse"
       id="linearGradient4004"
       xlink:href="#linearGradient4077-0-4"
       inkscape:collect="always" />
  </defs>
  <sodipodi:namedview
     id="base"
     pagecolor="#ffffff"
     bordercolor="#666666"
     borderopacity="1.0"
     inkscape:pageopacity="0.0"
     inkscape:pageshadow="2"
     inkscape:zoom="3.959798"
     inkscape:cx="-37.454605"
     inkscape:cy="35.134014"
     inkscape:document-units="px"
     inkscape:current-layer="layer1"
     showgrid="false"
     inkscape:window-width="1366"
     inkscape:window-height="745"
     inkscape:window-x="-8"
     inkscape:window-y="-8"
     inkscape:window-maximized="1" />
  <metadata
     id="metadata3336">
    <rdf:RDF>
      <cc:Work
         rdf:about="">
        <dc:format>image/svg+xml</dc:format>
        <dc:type
           rdf:resource="http://purl.org/dc/dcmitype/StillImage" />
        <dc:title />
      </cc:Work>
    </rdf:RDF>
  </metadata>
  <g
     inkscape:label="Layer 1"
     inkscape:groupmode="layer"
     id="layer1"
     transform="translate(0,-952.36218)">
    <rect
       style="fill:#00aa00;fill-opacity:1;stroke-width:0.20170285"
       id="rect4582"
       width="2.0724788"
       height="71.454773"
       x="49.568378"
       y="977.29309"
       ry="4.4659233" />
    <path
       style="fill:#008900;fill-opacity:1;stroke-width:0.12434238"
       d="m 55.907387,974.0536 c -0.560407,0.34109 0.0659,1.4296 -0.790956,1.60462 -0.544831,0.11128 -0.763856,0.32939 -1.536972,0.78178 -0.463244,0.27107 -0.120247,0.7972 -0.987458,1.23382 -0.461719,0.23247 -0.471978,1.02051 -0.740585,1.43836 -0.268606,0.41786 -0.643014,0.64735 -0.870319,1.06578 -0.227305,0.41844 -0.05497,1.02582 -0.240239,1.44186 -0.185271,0.41603 -0.665013,0.64073 -0.807515,1.05138 -0.142503,0.41066 -0.0109,0.88102 -0.109901,1.28332 -0.099,0.4023 -0.491742,0.73655 -0.546509,1.12751 -0.05477,0.39096 0.135984,0.77547 0.126184,1.15217 -0.0098,0.3766 -0.220114,0.7454 -0.184244,1.1047 0.0359,0.3594 0.56359,0.5307 0.645925,0.86977 0.08234,0.339 -0.280675,0.8458 -0.151171,1.1616 0.129505,0.3158 0.662241,0.3961 0.839647,0.6857 0.177406,0.2895 -5.18e-4,0.7884 0.225522,1.04883 0.226041,0.2603 0.400887,0.6653 0.75199,0.7335 0.870275,0.1691 0.569174,0.4341 0.87958,0.6181 0.31045,0.184 0.860671,0.078 1.202664,0.2191 0.341992,0.1407 0.475712,0.5278 0.845884,0.626 0.370172,0.098 0.798225,-0.2266 1.19317,-0.1703 0.394945,0.056 0.756781,0.4938 1.173091,0.509 0.416311,0.015 0.842452,-0.4364 1.276722,-0.4614 0.434269,-0.025 0.876666,0.3764 1.325488,0.312 0.448821,-0.065 0.79246,-0.4165 1.252426,-0.5198 0.459967,-0.1033 1.01394,0.087 1.481645,-0.055 0.467705,-0.1412 0.849142,-0.5245 1.321178,-0.703 0.472036,-0.1784 1.056994,-0.1967 1.529955,-0.4116 0.472961,-0.215 0.722318,-0.7604 1.192797,-1.01113 0.470479,-0.2506 1.162078,-0.2063 1.626668,-0.4919 0.464589,-0.2855 0.679847,-1.0906 1.13514,-1.4103 0.455294,-0.3197 1.150623,-0.1541 1.593214,-0.5072 0.442591,-0.3531 0.487353,-1.04637 0.913834,-1.43207 0.426479,-0.3857 1.230324,-0.4745 1.628842,-0.9086 0.398518,-0.43411 0.469835,-1.20228 0.837506,-1.67432 0.367671,-0.47205 1.031697,-0.64798 1.365634,-1.14758 0.333938,-0.49961 0.270823,-1.30058 0.56814,-1.81735 0.297317,-0.51677 0.955066,-0.74934 1.212877,-1.27287 0.25781,-0.52353 0.09336,-1.15946 0.308776,-1.67936 0.215416,-0.51989 0.8107,-0.92376 0.980837,-1.42963 0.170136,-0.50586 -0.196482,-1.04675 -0.07451,-1.52818 0.12197,-0.48143 0.732527,-0.90341 0.803444,-1.35001 0.07092,-0.4466 -0.375487,-0.7839 -0.358511,-1.18527 0.01698,-0.40137 0.497371,-0.86682 0.457481,-1.21256 -0.03985,-0.34575 -0.332049,-0.63876 -0.431613,-0.91847 -0.09956,-0.27972 -0.0065,-0.54615 -0.168655,-0.74944 -0.162163,-0.20329 -0.423312,-0.0756 -0.650962,-0.19206 -0.22765,-0.11647 -0.4218,-0.47711 -0.717823,-0.49635 -0.296023,-0.0192 -0.55999,0.28056 -0.927273,0.36895 -0.285017,0.0686 -0.654147,-0.14555 -0.97187,-0.10357 -0.317723,0.042 -0.651003,0.40702 -0.99825,0.42862 -0.347247,0.0216 -0.70846,-0.30032 -1.082048,-0.29302 -0.373589,0.007 -0.647946,0.29404 -1.044694,0.25354 -0.394702,-0.0403 -0.758052,-0.0286 -1.332614,-0.25154 -0.388508,-0.15077 -1.143526,0.36696 -1.923489,0.26486 -1.106689,-0.14487 -1.558601,-0.24857 -2.170064,-0.16586 -0.352778,-0.0819 -1.205735,0.92601 -1.938585,0.63401 -0.588483,0.10734 -0.693768,-0.25148 -1.872632,0.002 -0.434248,-0.21369 -1.028477,0.85467 -1.942382,0.56613 -0.907446,0.98485 -0.92154,0.91944 -2.348456,1.14654 -0.541549,-0.0609 -1.253635,1.26092 -1.793818,1.45804 z"
       id="path4584-90-4"
       inkscape:connector-curvature="0"
       sodipodi:nodetypes="csssssssssssssssssssssssssssssssssssssssssssssssssssssscccccsc" />
    <path
       style="fill:#008900;fill-opacity:1;stroke-width:0.12434238"
       d="m 45.174116,967.62589 c 0.560407,0.34109 -0.0659,1.4296 0.790956,1.60462 0.544831,0.11128 0.763856,0.32939 1.536972,0.78178 0.463244,0.27107 0.120247,0.7972 0.987458,1.23382 0.461719,0.23247 0.471978,1.02051 0.740585,1.43836 0.268606,0.41786 0.643014,0.64735 0.870319,1.06578 0.227305,0.41844 0.05497,1.02582 0.240239,1.44186 0.185271,0.41603 0.665013,0.64073 0.807515,1.05138 0.142503,0.41066 0.0109,0.88102 0.109901,1.28331 0.099,0.4023 0.491742,0.7366 0.546509,1.1275 0.05477,0.391 -0.135984,0.7755 -0.126184,1.1522 0.0098,0.3766 0.220114,0.7454 0.184244,1.1047 -0.0359,0.3594 -0.56359,0.53075 -0.645925,0.86985 -0.08234,0.339 0.280675,0.8458 0.151171,1.1616 -0.129505,0.3158 -0.662241,0.3961 -0.839647,0.6857 -0.177406,0.2895 5.18e-4,0.7884 -0.225522,1.0488 -0.226041,0.2603 -0.400887,0.6653 -0.75199,0.7335 -0.870275,0.1691 -0.569174,0.4341 -0.87958,0.6181 -0.31045,0.184 -0.860671,0.078 -1.202664,0.2191 -0.341992,0.1407 -0.475712,0.5278 -0.845884,0.626 -0.370172,0.098 -0.798225,-0.2266 -1.19317,-0.1703 -0.394945,0.056 -0.756781,0.4938 -1.173091,0.509 -0.416311,0.015 -0.842452,-0.4364 -1.276722,-0.4614 -0.434269,-0.025 -0.876666,0.3764 -1.325488,0.312 -0.448821,-0.065 -0.79246,-0.4165 -1.252426,-0.5198 -0.459967,-0.1033 -1.01394,0.087 -1.481645,-0.055 -0.467705,-0.1412 -0.849142,-0.5245 -1.321178,-0.703 -0.472036,-0.1784 -1.056994,-0.1967 -1.529955,-0.4116 -0.472961,-0.215 -0.722318,-0.7604 -1.192797,-1.0111 -0.470479,-0.2506 -1.162078,-0.2063 -1.626668,-0.4919 -0.464589,-0.2855 -0.679847,-1.0906 -1.13514,-1.4103 -0.455294,-0.3197 -1.150623,-0.1541 -1.593214,-0.5072 -0.442591,-0.3531 -0.487353,-1.04645 -0.913834,-1.43215 -0.426479,-0.3857 -1.230324,-0.4745 -1.628842,-0.9086 -0.398518,-0.4341 -0.469835,-1.2023 -0.837506,-1.6743 -0.367671,-0.4721 -1.031697,-0.648 -1.365634,-1.14761 -0.333938,-0.49961 -0.270823,-1.30058 -0.56814,-1.81735 -0.297317,-0.51677 -0.955066,-0.74934 -1.212877,-1.27287 -0.25781,-0.52353 -0.09336,-1.15946 -0.308776,-1.67936 -0.215416,-0.51989 -0.8107,-0.92376 -0.980837,-1.42963 -0.170136,-0.50586 0.196482,-1.04675 0.07451,-1.52818 -0.12197,-0.48143 -0.732527,-0.90341 -0.803444,-1.35001 -0.07092,-0.4466 0.375487,-0.7839 0.358511,-1.18527 -0.01698,-0.40137 -0.497371,-0.86682 -0.457481,-1.21256 0.03985,-0.34575 0.332049,-0.63876 0.431613,-0.91847 0.09956,-0.27972 0.0065,-0.54615 0.168655,-0.74944 0.162163,-0.20329 0.423312,-0.0756 0.650962,-0.19206 0.22765,-0.11647 0.4218,-0.47711 0.717823,-0.49635 0.296023,-0.0192 0.55999,0.28056 0.927273,0.36895 0.285017,0.0686 0.654147,-0.14555 0.97187,-0.10357 0.317723,0.042 0.651003,0.40702 0.99825,0.42862 0.347247,0.0216 0.70846,-0.30032 1.082048,-0.29302 0.373589,0.007 0.647946,0.29404 1.044694,0.25354 0.394702,-0.0403 0.758052,-0.0286 1.332614,-0.25154 0.388508,-0.15077 1.143526,0.36696 1.923489,0.26486 1.106689,-0.14487 1.558601,-0.24857 2.170064,-0.16586 0.352778,-0.0819 1.205735,0.92601 1.938585,0.63401 0.588483,0.10734 0.693768,-0.25148 1.872632,0.002 0.434248,-0.21369 1.028477,0.85467 1.942382,0.56613 0.907446,0.98485 0.92154,0.91944 2.348456,1.14654 0.541549,-0.0609 1.253635,1.26092 1.793818,1.45804 z"
       id="path4584-90-4-4"
       inkscape:connector-curvature="0"
       sodipodi:nodetypes="csssssssssssssssssssssssssssssssssssssssssssssssssssssscccccsc" />
    <path
       style="fill:#008900;fill-opacity:1;stroke-width:0.12434238"
       d="m 58.809069,997.266 c -0.607558,0.24755 -0.162505,1.42187 -1.036292,1.45824 -0.555601,0.0231 -0.80655,0.20361 -1.641825,0.5272 -0.500491,0.1939 -0.245612,0.76786 -1.171264,1.06086 -0.492841,0.1561 -0.628404,0.9324 -0.960107,1.3022 -0.331703,0.3698 -0.737853,0.5367 -1.028876,0.9137 -0.291008,0.3769 -0.217557,1.004 -0.466682,1.3852 -0.249144,0.3813 -0.758537,0.5267 -0.964581,0.9094 -0.206062,0.3828 -0.150999,0.8681 -0.312776,1.2495 -0.161776,0.3814 -0.602724,0.6489 -0.719016,1.0261 -0.116311,0.3773 0.01079,0.7874 -0.05885,1.1577 -0.06962,0.3702 -0.33596,0.7009 -0.357741,1.0613 -0.02177,0.3605 0.471927,0.6136 0.49925,0.9614 0.02733,0.3478 -0.411731,0.7903 -0.334147,1.1227 0.07759,0.3324 0.590746,0.4965 0.719791,0.8106 0.129062,0.3141 -0.126009,0.7783 0.05568,1.0715 0.181724,0.2929 0.289873,0.7206 0.625643,0.8438 0.832261,0.3055 0.492816,0.5192 0.769975,0.7503 0.277203,0.231 0.837281,0.214 1.152454,0.4077 0.315234,0.1933 0.385631,0.5968 0.735451,0.7527 0.349853,0.1556 0.824118,-0.097 1.205065,0.022 0.380995,0.1181 0.668529,0.6079 1.077111,0.6892 0.408615,0.081 0.901177,-0.2967 1.333889,-0.2523 0.432711,0.044 0.805573,0.5112 1.258923,0.519 0.453445,0.01 0.848655,-0.285 1.319199,-0.3138 0.470546,-0.029 0.987163,0.2473 1.471508,0.1816 0.484218,-0.065 0.921805,-0.3827 1.416236,-0.4838 0.494415,-0.1009 1.074828,-0.026 1.575966,-0.1628 0.501155,-0.1369 0.834149,-0.6357 1.338552,-0.8084 0.50437,-0.1725 1.1801,-0.019 1.684228,-0.2267 0.504111,-0.2079 0.84478,-0.9685 1.345158,-1.2116 0.500379,-0.2432 1.160482,0.031 1.653636,-0.2472 0.493154,-0.2781 0.647689,-0.9553 1.130128,-1.2682 0.482437,-0.3129 1.290168,-0.2726 1.752705,-0.6378 0.462553,-0.3652 0.655243,-1.1122 1.093359,-1.5197 0.438132,-0.4076 1.121691,-0.4755 1.530896,-0.9156 0.409207,-0.4401 0.4744,-1.2409 0.850175,-1.7037 0.37579,-0.4629 1.062178,-0.5878 1.400032,-1.0636 0.337854,-0.4758 0.276739,-1.1298 0.572167,-1.6088 0.295427,-0.479 0.947398,-0.7829 1.195895,-1.2553 0.248495,-0.4723 -0.02736,-1.0646 0.169702,-1.5206 0.197044,-0.4558 0.866989,-0.7752 1.008095,-1.2049 0.141086,-0.4296 -0.24592,-0.8337 -0.165273,-1.22719 0.08065,-0.39355 0.629011,-0.77659 0.644665,-1.12428 0.01565,-0.34769 -0.226139,-0.68347 -0.279909,-0.97546 -0.05376,-0.292 0.08052,-0.54022 -0.04721,-0.76673 -0.127736,-0.22651 -0.405881,-0.14202 -0.61209,-0.29323 -0.206207,-0.15122 -0.340475,-0.53817 -0.629661,-0.60429 -0.289192,-0.0661 -0.59751,0.18785 -0.97418,0.21665 -0.292302,0.0223 -0.622637,-0.24783 -0.942991,-0.25696 -0.320358,-0.009 -0.707492,0.29821 -1.05375,0.26426 -0.346258,-0.034 -0.651622,-0.40927 -1.021609,-0.46153 -0.369939,-0.0525 -0.686489,0.18715 -1.071732,0.084 -0.383254,-0.10262 -0.743834,-0.14891 -1.275582,-0.46046 -0.359555,-0.21069 -1.187358,0.18025 -1.941124,-0.0447 -1.069518,-0.31919 -1.499161,-0.4935 -2.115993,-0.50918 -0.335243,-0.13701 -1.337764,0.72228 -2.014789,0.31734 -0.598066,0.0123 -0.644892,-0.3587 -1.849074,-0.29611 -0.394696,-0.28009 -1.15141,0.68006 -2.007732,0.24973 -1.052644,0.82784 -1.056147,0.76102 -2.501019,0.75809 -0.52495,-0.14633 -1.438356,1.04524 -2.003042,1.15394 z"
       id="path4584-90-4-1"
       inkscape:connector-curvature="0"
       sodipodi:nodetypes="csssssssssssssssssssssssssssssssssssssssssssssssssssssscccccsc" />
    <path
       style="fill:#008900;fill-opacity:1;stroke-width:0.12434238"
       d="m 41.481541,986.59772 c 0.630699,0.1806 0.314828,1.39606 1.18745,1.33805 0.554854,-0.0369 0.823796,0.11547 1.689077,0.34711 0.518469,0.13879 0.326957,0.73694 1.278804,0.92846 0.506781,0.10198 0.725248,0.8592 1.09487,1.19105 0.369624,0.33187 0.79142,0.45408 1.121366,0.79742 0.329949,0.34336 0.324518,0.97469 0.613305,1.3269 0.288769,0.35213 0.810874,0.44184 1.056969,0.80008 0.246123,0.35833 0.243716,0.84679 0.445638,1.20844 0.201948,0.36176 0.669165,0.58018 0.82544,0.94265 0.156304,0.36256 0.07412,0.78383 0.183273,1.14451 0.109116,0.36053 0.409542,0.66052 0.470048,1.0165 0.0605,0.35608 -0.403002,0.66104 -0.39265,1.00983 0.01032,0.34871 0.494527,0.74135 0.453226,1.08017 -0.0413,0.33881 -0.533787,0.55721 -0.628217,0.88351 -0.09446,0.3261 0.209169,0.7602 0.06011,1.0711 -0.149085,0.3108 -0.210503,0.7477 -0.531034,0.9064 -0.794483,0.3934 -0.433981,0.5692 -0.684618,0.8288 -0.250678,0.2596 -0.809333,0.3031 -1.101784,0.5296 -0.292556,0.2262 -0.319052,0.6349 -0.650032,0.8276 -0.331033,0.1925 -0.829734,-0.01 -1.195693,0.1516 -0.366039,0.1585 -0.599097,0.6765 -0.996537,0.8013 -0.397495,0.1247 -0.927913,-0.1979 -1.353312,-0.107 -0.425399,0.091 -0.745779,0.595 -1.19564,0.6517 -0.450019,0.056 -0.874436,-0.1919 -1.34534,-0.1698 -0.470904,0.022 -0.954754,0.3523 -1.443364,0.3391 -0.488397,-0.012 -0.957681,-0.281 -1.460127,-0.3282 -0.50242,-0.047 -1.071361,0.09 -1.584334,0.01 -0.512999,-0.082 -0.897817,-0.5421 -1.417871,-0.6594 -0.520028,-0.1171 -1.175238,0.1087 -1.698851,-0.044 -0.523585,-0.1523 -0.944256,-0.8718 -1.467928,-1.0595 -0.523674,-0.1878 -1.150376,0.1559 -1.67064,-0.067 -0.520263,-0.2233 -0.746954,-0.8802 -1.260311,-1.1392 -0.513354,-0.2591 -1.312025,-0.1319 -1.811226,-0.4451 -0.499201,-0.3131 -0.771297,-1.035 -1.250783,-1.3929 -0.479511,-0.358 -1.166413,-0.3519 -1.620672,-0.7453 -0.45426,-0.3934 -0.605374,-1.18242 -1.028874,-1.60211 -0.42349,-0.41965 -1.119337,-0.46984 -1.506519,-0.90646 -0.387181,-0.43662 -0.396909,-1.0934 -0.742247,-1.53774 -0.345335,-0.44434 -1.026284,-0.67625 -1.324244,-1.11905 -0.297957,-0.44279 -0.08757,-1.06142 -0.332617,-1.4934 -0.245042,-0.43198 -0.945513,-0.67731 -1.132104,-1.08922 -0.186595,-0.4119 0.154618,-0.85532 0.03202,-1.23789 -0.122606,-0.38256 -0.709058,-0.70426 -0.762099,-1.04823 -0.05308,-0.34397 0.151144,-0.70387 0.173125,-0.99995 0.02198,-0.2961 -0.138283,-0.5284 -0.03572,-0.76735 0.102574,-0.23897 0.388206,-0.18495 0.576914,-0.35751 0.188705,-0.17257 0.280479,-0.57173 0.560853,-0.66864 0.280384,-0.0969 0.614276,0.12234 0.991856,0.11037 0.293009,-0.009 0.592295,-0.31349 0.909799,-0.3571 0.317508,-0.0436 0.735514,0.2202 1.076094,0.14912 0.340581,-0.0711 0.603708,-0.47712 0.965906,-0.56896 0.362118,-0.0921 0.702663,0.11206 1.074543,-0.032 0.36996,-0.14333 0.723449,-0.22821 1.218514,-0.59527 0.334748,-0.24823 1.199871,0.0512 1.924995,-0.25369 1.028879,-0.43261 1.437228,-0.65222 2.048776,-0.7343 0.318521,-0.17235 1.407827,0.57386 2.037257,0.0983 0.595907,-0.0522 0.602467,-0.42613 1.80638,-0.4937 0.362204,-0.32101 1.218008,0.55198 2.022952,0.0318 1.135749,0.70955 1.132028,0.64274 2.568165,0.48408 0.506118,-0.20207 1.542661,0.88414 2.115752,0.93126 z"
       id="path4584-90-4-4-6"
       inkscape:connector-curvature="0"
       sodipodi:nodetypes="csssssssssssssssssssssssssssssssssssssssssssssssssssssscccccsc" />
    <path
       style="fill:#008900;fill-opacity:1;stroke-width:0.12434238"
       d="m 57.010685,1020.9686 c -0.560407,0.3411 0.0659,1.4296 -0.790956,1.6046 -0.544831,0.1113 -0.763856,0.3294 -1.536972,0.7818 -0.463244,0.271 -0.120247,0.7972 -0.987458,1.2338 -0.461719,0.2325 -0.471978,1.0205 -0.740585,1.4384 -0.268606,0.4178 -0.643014,0.6473 -0.870319,1.0657 -0.227305,0.4185 -0.05497,1.0259 -0.240239,1.4419 -0.185271,0.416 -0.665013,0.6407 -0.807515,1.0514 -0.142503,0.4106 -0.0109,0.881 -0.109901,1.2833 -0.099,0.4023 -0.491742,0.7365 -0.546509,1.1275 -0.05477,0.391 0.135984,0.7755 0.126184,1.1522 -0.0098,0.3766 -0.220114,0.7454 -0.184244,1.1047 0.0359,0.3594 0.56359,0.5307 0.645925,0.8697 0.08234,0.339 -0.280675,0.8458 -0.151171,1.1616 0.129505,0.3158 0.662241,0.3961 0.839647,0.6857 0.177406,0.2895 -5.18e-4,0.7884 0.225522,1.0489 0.226041,0.2603 0.400887,0.6653 0.75199,0.7335 0.870275,0.1691 0.569174,0.4341 0.87958,0.6181 0.31045,0.184 0.860671,0.078 1.202664,0.2191 0.341992,0.1407 0.475712,0.5278 0.845884,0.626 0.370172,0.098 0.798225,-0.2266 1.19317,-0.1703 0.394945,0.056 0.756781,0.4938 1.173091,0.509 0.416311,0.015 0.842452,-0.4364 1.276722,-0.4614 0.434269,-0.025 0.876666,0.3764 1.325488,0.312 0.448821,-0.065 0.79246,-0.4165 1.252426,-0.5198 0.459967,-0.1033 1.01394,0.087 1.481645,-0.055 0.467705,-0.1412 0.849142,-0.5245 1.321178,-0.703 0.472036,-0.1784 1.056994,-0.1967 1.529955,-0.4116 0.472961,-0.215 0.722318,-0.7604 1.192797,-1.0112 0.470479,-0.2506 1.162078,-0.2063 1.626668,-0.4919 0.464589,-0.2855 0.679847,-1.0906 1.13514,-1.4103 0.455294,-0.3197 1.150623,-0.1541 1.593214,-0.5072 0.442591,-0.3531 0.487353,-1.0463 0.913834,-1.432 0.426479,-0.3857 1.230324,-0.4745 1.628842,-0.9086 0.398518,-0.4341 0.469835,-1.2023 0.837506,-1.6743 0.367671,-0.4721 1.031697,-0.648 1.365634,-1.1476 0.333938,-0.4996 0.270823,-1.3006 0.56814,-1.8174 0.297317,-0.5167 0.955066,-0.7493 1.212877,-1.2728 0.25781,-0.5236 0.09336,-1.1595 0.308776,-1.6794 0.215416,-0.5199 0.8107,-0.9238 0.980837,-1.4296 0.170136,-0.5059 -0.196482,-1.0468 -0.07451,-1.5282 0.12197,-0.4814 0.732527,-0.9034 0.803444,-1.35 0.07092,-0.4466 -0.375487,-0.7839 -0.358511,-1.1853 0.01698,-0.4014 0.497371,-0.8668 0.457481,-1.2126 -0.03985,-0.3457 -0.332049,-0.6387 -0.431613,-0.9184 -0.09956,-0.2797 -0.0065,-0.5462 -0.168655,-0.7495 -0.162163,-0.2033 -0.423312,-0.076 -0.650962,-0.192 -0.22765,-0.1165 -0.4218,-0.4771 -0.717823,-0.4964 -0.296023,-0.019 -0.55999,0.2806 -0.927273,0.369 -0.285017,0.069 -0.654147,-0.1456 -0.97187,-0.1036 -0.317723,0.042 -0.651003,0.407 -0.99825,0.4286 -0.347247,0.022 -0.70846,-0.3003 -1.082048,-0.293 -0.373589,0.01 -0.647946,0.294 -1.044694,0.2535 -0.394702,-0.04 -0.758052,-0.029 -1.332614,-0.2515 -0.388508,-0.1508 -1.143526,0.367 -1.923489,0.2649 -1.106689,-0.1449 -1.558601,-0.2486 -2.170064,-0.1659 -0.352778,-0.082 -1.205735,0.926 -1.938585,0.634 -0.588483,0.1074 -0.693768,-0.2515 -1.872632,0 -0.434248,-0.2137 -1.028477,0.8547 -1.942382,0.5661 -0.907446,0.9849 -0.92154,0.9195 -2.348456,1.1466 -0.541549,-0.061 -1.253635,1.2609 -1.793818,1.458 z"
       id="path4584-90-4-16"
       inkscape:connector-curvature="0"
       sodipodi:nodetypes="csssssssssssssssssssssssssssssssssssssssssssssssssssssscccccsc" />
    <path
       style="fill:#008900;fill-opacity:1;stroke-width:0.12434238"
       d="m 43.524557,1010.7944 c 0.598251,0.2693 0.111203,1.4268 0.983114,1.4946 0.554407,0.043 0.798697,0.2325 1.621776,0.5859 0.493185,0.2118 0.217805,0.7763 1.132307,1.1024 0.486903,0.1737 0.594425,0.9544 0.912598,1.3359 0.31816,0.3814 0.71805,0.5629 0.995312,0.9501 0.277249,0.3872 0.181266,1.0112 0.416504,1.4011 0.235241,0.39 0.739066,0.5537 0.93121,0.9436 0.192145,0.39 0.119647,0.8729 0.267585,1.2599 0.147938,0.387 0.578968,0.6702 0.681604,1.0514 0.102651,0.3812 -0.03915,0.7863 0.01711,1.1589 0.05625,0.3725 0.310507,0.7125 0.319296,1.0735 0.0088,0.3611 -0.493703,0.5964 -0.533519,0.943 -0.03983,0.3466 0.383008,0.8047 0.293506,1.1341 -0.0895,0.3293 -0.608238,0.4748 -0.748511,0.7841 -0.140285,0.3092 0.09791,0.7823 -0.09424,1.0687 -0.192155,0.2862 -0.315632,0.7097 -0.655621,0.8207 -0.842721,0.2753 -0.511191,0.5011 -0.79649,0.7221 -0.285342,0.2209 -0.844443,0.1837 -1.166387,0.3659 -0.321992,0.1819 -0.406869,0.5826 -0.762075,0.7257 -0.355231,0.143 -0.820103,-0.1262 -1.205069,-0.022 -0.385002,0.1044 -0.689985,0.5835 -1.101229,0.6501 -0.411269,0.066 -0.889908,-0.329 -1.32394,-0.3002 -0.434031,0.029 -0.823455,0.4818 -1.276794,0.4733 -0.453413,-0.01 -0.837841,-0.3154 -1.307045,-0.3611 -0.469205,-0.046 -0.995427,0.2116 -1.477091,0.1285 -0.481565,-0.082 -0.90743,-0.4156 -1.3979,-0.5344 -0.490459,-0.1187 -1.073197,-0.065 -1.569082,-0.2195 -0.495898,-0.1549 -0.810718,-0.6653 -1.308563,-0.856 -0.497832,-0.1905 -1.178661,-0.061 -1.674973,-0.2872 -0.496299,-0.2259 -0.809362,-0.9982 -1.300661,-1.2592 -0.491299,-0.2611 -1.160846,-0.011 -1.643665,-0.3066 -0.48282,-0.2957 -0.612895,-0.9782 -1.083755,-1.3083 -0.470858,-0.3301 -1.279516,-0.3189 -1.728606,-0.7004 -0.44909,-0.3816 -0.614757,-1.1351 -1.037918,-1.558 -0.423173,-0.4231 -1.103842,-0.5156 -1.496937,-0.9702 -0.393096,-0.4545 -0.429412,-1.2571 -0.788292,-1.7333 -0.358868,-0.476 -1.040313,-0.6255 -1.360817,-1.1132 -0.320516,-0.4877 -0.235878,-1.1391 -0.513867,-1.6284 -0.27799,-0.4893 -0.918596,-0.8165 -1.149924,-1.2975 -0.231327,-0.481 0.06567,-1.063 -0.114839,-1.5257 -0.180503,-0.4626 -0.838514,-0.806 -0.964056,-1.2404 -0.125545,-0.4344 0.275776,-0.8243 0.209345,-1.2205 -0.06642,-0.3961 -0.600638,-0.7987 -0.603758,-1.1467 -0.0032,-0.3481 0.250595,-0.6749 0.314845,-0.9648 0.06425,-0.2898 -0.06102,-0.5428 0.07479,-0.7645 0.135807,-0.2217 0.410681,-0.1277 0.622246,-0.271 0.211515,-0.1437 0.359633,-0.5255 0.651005,-0.5813 0.291408,-0.055 0.590363,0.2093 0.965753,0.2517 0.291358,0.033 0.631151,-0.2253 0.951629,-0.2229 0.320477,0 0.696293,0.3235 1.043549,0.302 0.347305,-0.021 0.665938,-0.3855 1.037566,-0.4244 0.371963,-0.036 0.679313,0.2118 1.06802,0.1226 0.386737,-0.088 0.748663,-0.1224 1.291327,-0.4143 0.366916,-0.1975 1.180103,0.2229 1.94148,0.025 1.080313,-0.2805 1.515953,-0.4393 2.132949,-0.4327 0.339947,-0.125 1.310889,0.7699 2.002055,0.3896 0.597243,0.034 0.657399,-0.3351 1.858289,-0.2313 0.404524,-0.2657 1.126181,0.7211 1.997448,0.3219 1.022148,0.8652 1.028055,0.7985 2.472096,0.8476 0.529866,-0.1274 1.399792,1.0964 1.960186,1.2253 z"
       id="path4584-90-4-4-3"
       inkscape:connector-curvature="0"
       sodipodi:nodetypes="csssssssssssssssssssssssssssssssssssssssssssssssssssssscccccsc" />
  </g>
</svg>
