<?xml version="1.0" encoding="UTF-8" standalone="no"?>
<!-- Created with Inkscape (http://www.inkscape.org/) -->

<svg
   xmlns:dc="http://purl.org/dc/elements/1.1/"
   xmlns:cc="http://creativecommons.org/ns#"
   xmlns:rdf="http://www.w3.org/1999/02/22-rdf-syntax-ns#"
   xmlns:svg="http://www.w3.org/2000/svg"
   xmlns="http://www.w3.org/2000/svg"
   xmlns:xlink="http://www.w3.org/1999/xlink"
   xmlns:sodipodi="http://sodipodi.sourceforge.net/DTD/sodipodi-0.dtd"
   xmlns:inkscape="http://www.inkscape.org/namespaces/inkscape"
   width="100"
   height="100"
   id="svg4640"
   version="1.1"
   inkscape:version="0.48.5 r10040"
   sodipodi:docname="rucula.svg">
  <defs
     id="defs4642">
    <linearGradient
       inkscape:collect="always"
       xlink:href="#linearGradient4865"
       id="linearGradient4871"
       x1="116.45824"
       y1="218.88603"
       x2="114.035"
       y2="228.08009"
       gradientUnits="userSpaceOnUse"
       gradientTransform="matrix(0.7212561,0,0,0.7212561,32.389819,24.542329)" />
    <linearGradient
       inkscape:collect="always"
       id="linearGradient4865">
      <stop
         style="stop-color:#00aa00;stop-opacity:1;"
         offset="0"
         id="stop4867" />
      <stop
         style="stop-color:#008000;stop-opacity:1"
         offset="1"
         id="stop4869" />
    </linearGradient>
    <inkscape:path-effect
       effect="spiro"
       id="path-effect4898-8-6"
       is_visible="true" />
    <inkscape:path-effect
       effect="spiro"
       id="path-effect4898-8"
       is_visible="true" />
    <inkscape:path-effect
       effect="spiro"
       id="path-effect4898"
       is_visible="true" />
  </defs>
  <sodipodi:namedview
     id="base"
     pagecolor="#ffffff"
     bordercolor="#666666"
     borderopacity="1.0"
     inkscape:pageopacity="0.0"
     inkscape:pageshadow="2"
     inkscape:zoom="2.8"
     inkscape:cx="-13.765089"
     inkscape:cy="55.902704"
     inkscape:document-units="px"
     inkscape:current-layer="layer1"
     showgrid="false"
     inkscape:window-width="1366"
     inkscape:window-height="745"
     inkscape:window-x="-8"
     inkscape:window-y="-8"
     inkscape:window-maximized="1" />
  <metadata
     id="metadata4645">
    <rdf:RDF>
      <cc:Work
         rdf:about="">
        <dc:format>image/svg+xml</dc:format>
        <dc:type
           rdf:resource="http://purl.org/dc/dcmitype/StillImage" />
        <dc:title></dc:title>
      </cc:Work>
    </rdf:RDF>
  </metadata>
  <g
     inkscape:label="Layer 1"
     inkscape:groupmode="layer"
     id="layer1"
     transform="translate(0,-952.36218)">
    <path
       style="fill:#009700;fill-opacity:1;stroke:none"
       d="m 61.339679,1017.4234 c 1.792241,0.031 3.582876,-0.7629 4.760801,-2.1141 1.177924,-1.3511 1.720549,-3.2346 1.43945,-5.0049 -0.144473,-0.9099 -0.490956,-1.7735 -0.735885,-2.6617 -0.24493,-0.8881 -0.386444,-1.8427 -0.117185,-2.7237 0.160044,-0.5237 0.460937,-0.9991 0.83982,-1.3945 0.378883,-0.3953 0.834364,-0.7126 1.320292,-0.9651 0.971856,-0.5049 2.053401,-0.7504 3.116117,-1.0151 1.062715,-0.2647 2.13836,-0.5615 3.060927,-1.1516 0.461283,-0.2951 0.879828,-0.663 1.202079,-1.10573 0.322252,-0.44273 0.545949,-0.96224 0.609696,-1.50611 0.0813,-0.69361 -0.09947,-1.39934 -0.410175,-2.02477 -0.310701,-0.62543 -0.746631,-1.17962 -1.201055,-1.7099 -0.454425,-0.53028 -0.931569,-1.04299 -1.340552,-1.60905 -0.408984,-0.56607 -0.751257,-1.19331 -0.89856,-1.87595 -0.146766,-0.68016 -0.09322,-1.3976 0.118528,-2.06041 0.211747,-0.66281 0.578488,-1.27159 1.038392,-1.79374 0.919808,-1.0443 2.186747,-1.72718 3.494212,-2.20377 1.307464,-0.4766 2.674282,-0.76668 4.00942,-1.15913 1.335138,-0.39244 2.661731,-0.89986 3.763059,-1.75056 1.097156,-0.84747 1.931214,-2.01411 2.455766,-3.29739 0.524551,-1.28328 0.746216,-2.6802 0.728874,-4.06644 -0.03468,-2.77248 -1.003723,-5.45049 -2.184835,-7.95904 -1.399236,-2.97182 -3.220952,-5.90596 -6.025013,-7.61675 -2.180914,-1.3306 -4.816036,-1.81026 -7.364332,-1.62838 -2.548297,0.18188 -5.019683,0.99508 -7.326888,2.09221 -3.26379,1.55201 -6.24947,3.68464 -8.783517,6.2614 -1.894266,1.92619 -3.573401,4.17171 -4.266131,6.78295 -0.346365,1.30562 -0.435427,2.68833 -0.175909,4.01395 0.259519,1.32561 0.87629,2.59108 1.821602,3.55596 1.193598,1.21831 2.821432,1.89509 4.214137,2.87963 0.696353,0.49228 1.344179,1.0733 1.803388,1.79189 0.459209,0.71858 0.718541,1.58706 0.602817,2.43196 -0.125143,0.91366 -0.675403,1.72666 -1.362339,2.34192 -0.686937,0.61526 -1.507905,1.05783 -2.323444,1.48833 -0.815539,0.43049 -1.641744,0.85982 -2.346772,1.45426 -0.705028,0.59445 -1.288939,1.37792 -1.468478,2.28246 -0.09974,0.50248 -0.07124,1.02651 0.0531,1.52347 0.124344,0.49696 0.34288,0.96761 0.616742,1.40054 0.547726,0.86586 1.30707,1.5742 2.066541,2.26189 0.759471,0.6877 1.535121,1.3732 2.127783,2.209 0.592662,0.8357 0.9943,1.8508 0.901876,2.8712 -0.09328,1.0298 -0.67038,1.9493 -1.297349,2.7715 -0.626969,0.8222 -1.329016,1.6075 -1.744935,2.5542 -0.359375,0.818 -0.487699,1.7342 -0.379259,2.6211 0.10844,0.8868 0.452028,1.7422 0.977021,2.4651 1.049987,1.4458 2.823591,2.3118 4.610174,2.3429"
       id="path4896"
       inkscape:path-effect="#path-effect4898"
       inkscape:original-d="m 61.339679,1017.4234 c 3.171475,0.2157 4.899812,-4.2184 6.200251,-7.119 0.952397,-2.1244 -1.667538,-3.2045 -0.85307,-5.3854 1.319806,-3.5342 9.465519,-3.4281 10.148931,-7.13814 0.494136,-2.68228 -4.466336,-4.56271 -3.850342,-7.21967 1.153512,-4.97535 9.951006,-4.49869 12.423611,-8.96761 2.478008,-4.47866 2.522404,-10.43607 0.999805,-15.32287 -0.962975,-3.09066 -3.089272,-6.25261 -6.025013,-7.61675 -4.443227,-2.06469 -10.048868,-1.10267 -14.69122,0.46383 -3.40688,1.14956 -6.855223,3.2266 -8.783517,6.2614 -2.608179,4.10484 -3.968697,9.68011 -2.620438,14.35286 0.947877,3.2851 6.774248,3.68783 6.620342,7.10348 -0.158554,3.51881 -7.024303,4.04752 -7.501033,7.56697 -0.526834,3.88931 6.4288,6.3976 5.766041,10.2661 -0.46053,2.6883 -3.035841,2.5983 -3.042284,5.3257 -0.0087,3.7027 1.513749,7.1775 5.207936,7.4291 z"
       inkscape:connector-curvature="0"
       sodipodi:nodetypes="ssssssssssssasss" />
    <path
       style="fill:#8dd35f;fill-opacity:1;stroke-width:0.04222513"
       d="m 69.470016,978.9017 c 3.278268,-12.52423 1.028873,1.66029 0.698538,2.89544 l 0,0 -18.100611,68.16776 c -0.32838,1.2331 -1.170863,1.9152 -1.88215,1.5547 -0.716679,-0.3693 -1.015453,-1.3034 -0.690596,-2.5323 3.126412,-8.3143 10.276281,-34.672 19.970275,-70.0797 z"
       id="rect4652-7-2-4-7-8-3-8-6-6-7-2-1-6"
       inkscape:connector-curvature="0"
       sodipodi:nodetypes="cscssccc" />
    <path
       style="fill:#00bc00;fill-opacity:1;stroke:none"
       d="m 51.290351,1016.3039 c 1.768724,-0.2912 3.38762,-1.394 4.303719,-2.9348 0.9161,-1.5407 1.111613,-3.491 0.517109,-5.1821 -0.305541,-0.8691 -0.801497,-1.6565 -1.201947,-2.4862 -0.400449,-0.8296 -0.711103,-1.7432 -0.604473,-2.6583 0.06338,-0.5439 0.273987,-1.0657 0.5757,-1.5226 0.301712,-0.457 0.692795,-0.851 1.125479,-1.1866 0.865369,-0.67124 1.885237,-1.10699 2.883132,-1.55826 0.997894,-0.45126 2.00275,-0.93639 2.804321,-1.68266 0.400785,-0.37314 0.746452,-0.81022 0.98395,-1.30363 0.237498,-0.49341 0.364255,-1.04464 0.329287,-1.59112 -0.0446,-0.69694 -0.349178,-1.35872 -0.767158,-1.91819 -0.417979,-0.55946 -0.946357,-1.02635 -1.488635,-1.4664 -0.542279,-0.44004 -1.10375,-0.85872 -1.607753,-1.34213 -0.504003,-0.48341 -0.953365,-1.03898 -1.220877,-1.68407 -0.266535,-0.64274 -0.342714,-1.35813 -0.253451,-2.04819 0.08926,-0.69007 0.340702,-1.35481 0.699348,-1.95107 0.717291,-1.19252 1.84098,-2.09184 3.041583,-2.79551 1.200603,-0.70367 2.493093,-1.23452 3.736033,-1.86038 1.24294,-0.62587 2.456825,-1.36329 3.387455,-2.39796 0.927106,-1.03075 1.538071,-2.32821 1.823612,-3.68483 0.285541,-1.35663 0.25271,-2.77065 -0.01332,-4.13124 -0.532066,-2.72117 -1.966325,-5.18158 -3.578779,-7.43721 -1.910235,-2.67219 -4.229313,-5.23141 -7.295041,-6.41077 -2.384431,-0.91727 -5.06285,-0.91585 -7.537044,-0.27925 -2.474194,0.6366 -4.759344,1.88044 -6.831982,3.37411 -2.931973,2.11297 -5.486067,4.74717 -7.51611,7.73716 -1.517508,2.23509 -2.766034,4.74567 -2.978512,7.43887 -0.106239,1.3466 0.05449,2.72281 0.547869,3.98027 0.493384,1.25745 1.327407,2.39156 2.430643,3.17097 1.393003,0.98413 3.115921,1.35753 4.662809,2.07594 0.773444,0.3592 1.515091,0.81442 2.095894,1.43885 0.580803,0.62443 0.9919,1.43221 1.029802,2.28415 0.04099,0.92127 -0.354307,1.81988 -0.919569,2.54851 -0.565262,0.72863 -1.293391,1.31145 -2.01835,1.88142 -0.724958,0.56996 -1.460617,1.1407 -2.047416,1.8521 -0.5868,0.7114 -1.020505,1.58699 -1.034671,2.50907 -0.0079,0.51222 0.114273,1.02262 0.325851,1.48917 0.211577,0.46655 0.511089,0.8903 0.858256,1.26701 0.694334,0.75342 1.568553,1.31386 2.439192,1.85397 0.870638,0.5401 1.756802,1.0752 2.489931,1.7909 0.733129,0.7157 1.310548,1.6422 1.402881,2.6626 0.09318,1.0298 -0.309394,2.0379 -0.778488,2.9594 -0.469094,0.9214 -1.018672,1.8201 -1.25781,2.826 -0.206632,0.8692 -0.168311,1.7936 0.09764,2.6466 0.265948,0.8529 0.757587,1.6327 1.40388,2.2496 1.292586,1.2337 3.19288,1.767 4.956017,1.4768"
       id="path4896-5"
       inkscape:path-effect="#path-effect4898-8"
       inkscape:original-d="m 51.290351,1016.3039 c 3.158695,-0.3572 4.062504,-5.0298 4.820828,-8.1169 0.555373,-2.2608 -2.215948,-2.8528 -1.80642,-5.1445 0.6636,-3.71378 8.695899,-5.0724 8.701869,-8.84487 0.0044,-2.72742 -5.213208,-3.6864 -5.084423,-6.41079 0.241154,-5.10163 8.981206,-6.21277 10.610968,-11.05311 1.633323,-4.85089 0.607024,-10.71941 -1.768491,-15.25328 -1.502415,-2.86746 -4.162032,-5.59606 -7.295041,-6.41077 -4.7418,-1.23312 -10.083506,0.72007 -14.369026,3.09486 -3.145013,1.74278 -6.164236,4.40537 -7.51611,7.73716 -1.828522,4.50654 -2.16558,10.23549 0,14.59011 1.522481,3.06144 7.326437,2.41117 7.788505,5.79894 0.47602,3.49008 -6.183135,5.24329 -6.020006,8.7911 0.180269,3.92074 7.473298,5.13905 7.516111,9.06365 0.02978,2.7272 -2.519811,3.1013 -2.036298,5.7854 0.656425,3.6443 2.778235,6.7889 6.457534,6.373 z"
       inkscape:connector-curvature="0"
       sodipodi:nodetypes="ssssssssssssasss" />
    <path
       style="fill:#8dd35f;fill-opacity:1;stroke-width:0.04222513"
       d="m 52.369848,976.94833 c 0.975553,-12.90937 1.310343,1.44851 1.207211,2.7229 l 0,0 -5.563109,70.31007 c -0.101549,1.2722 -0.807825,2.0946 -1.572305,1.8677 -0.771332,-0.2346 -1.233036,-1.1 -1.134179,-2.3672 1.582287,-8.7407 3.88199,-35.9538 7.058959,-72.52686 z"
       id="rect4652-7-2-4-7-8-3-8-6-6-7-2-1-6-7"
       inkscape:connector-curvature="0"
       sodipodi:nodetypes="cscssccc" />
    <path
       style="fill:#00d900;fill-opacity:1;stroke:none"
       d="m 40.161043,1014.9192 c 1.676403,-0.6346 3.04566,-2.0354 3.639512,-3.7267 0.593852,-1.6913 0.400454,-3.6418 -0.516213,-5.1822 -0.471129,-0.7917 -1.112793,-1.4657 -1.669179,-2.2 -0.556386,-0.7343 -1.041313,-1.5686 -1.11744,-2.4867 -0.04525,-0.5457 0.0582,-1.0988 0.263756,-1.60632 0.205551,-0.50755 0.511155,-0.97096 0.869056,-1.3854 0.715804,-0.82888 1.629555,-1.45741 2.518703,-2.09682 0.889147,-0.6394 1.77843,-1.31339 2.416871,-2.20322 0.319221,-0.44492 0.571783,-0.94165 0.707183,-1.47223 0.135401,-0.53059 0.150825,-1.096 0.0086,-1.62481 -0.181323,-0.67441 -0.610575,-1.26303 -1.13079,-1.72896 -0.520214,-0.46592 -1.130374,-0.81929 -1.748862,-1.1436 -0.618489,-0.32432 -1.251572,-0.62389 -1.841101,-0.99827 -0.589529,-0.37438 -1.139739,-0.83029 -1.529356,-1.40986 -0.388195,-0.57746 -0.604127,-1.26373 -0.652871,-1.95783 -0.04874,-0.69411 0.0665,-1.39541 0.300352,-2.05075 0.467715,-1.31067 1.391719,-2.41415 2.429753,-3.34103 1.038034,-0.92687 2.200271,-1.70246 3.29517,-2.56142 1.0949,-0.85896 2.139288,-1.82155 2.847307,-3.0196 0.705334,-1.19351 1.048091,-2.58605 1.06015,-3.97234 0.01206,-1.3863 -0.299319,-2.766 -0.828755,-4.04727 -1.058872,-2.56253 -2.950686,-4.69132 -4.97675,-6.58417 -2.400238,-2.24242 -5.178968,-4.29338 -8.417204,-4.84422 -2.518598,-0.42842 -5.144009,0.1018 -7.443804,1.21438 -2.299794,1.11257 -4.294372,2.78311 -6.03129,4.65661 -2.457068,2.65028 -4.440772,5.73693 -5.840494,9.06889 -1.046323,2.49071 -1.774567,5.19838 -1.451106,7.88051 0.161731,1.34106 0.591017,2.65845 1.322963,3.79373 0.731946,1.13528 1.773472,2.08239 3.008878,2.62863 1.559891,0.68971 3.322618,0.71559 4.980899,1.11442 0.82914,0.19942 1.646068,0.49925 2.338728,0.99671 0.69266,0.49745 1.255158,1.20816 1.460527,2.03585 0.222083,0.89505 0.012,1.85402 -0.398275,2.67992 -0.410272,0.8259 -1.008996,1.54101 -1.607149,2.2429 -0.598153,0.70189 -1.206643,1.40664 -1.641429,2.21991 -0.434785,0.81326 -0.687067,1.75726 -0.518887,2.66398 0.09342,0.50369 0.313939,0.97992 0.613468,1.3955 0.29953,0.41559 0.676811,0.77185 1.09152,1.0726 0.829417,0.60148 1.797074,0.97827 2.757209,1.33588 0.960135,0.3575 1.934492,0.7071 2.794502,1.264 0.86001,0.5568 1.608991,1.351 1.900995,2.3331 0.294701,0.9911 0.09911,2.059 -0.178826,3.0549 -0.277931,0.996 -0.639274,1.9855 -0.675068,3.0189 -0.03093,0.8929 0.189174,1.7915 0.618299,2.5751 0.429125,0.7837 1.06506,1.4511 1.820423,1.9282 1.510726,0.9542 3.478878,1.1017 5.149977,0.4691"
       id="path4896-5-1"
       inkscape:path-effect="#path-effect4898-8-6"
       inkscape:original-d="m 40.161043,1014.9192 c 3.026002,-0.9738 2.989426,-5.7328 3.123299,-8.9089 0.09804,-2.3259 -2.735591,-2.3592 -2.786619,-4.6867 -0.08269,-3.77156 7.523206,-6.68944 6.784217,-10.3888 -0.534259,-2.67462 -5.838447,-2.5845 -6.250109,-5.28069 -0.770883,-5.04885 7.577726,-7.86378 8.219711,-12.93063 0.643395,-5.07783 -1.521404,-10.62817 -4.745355,-14.60378 -2.039003,-2.51437 -5.185009,-4.66417 -8.417204,-4.84422 -4.891932,-0.27264 -9.742827,2.69684 -13.475094,5.87099 -2.739003,2.32944 -5.173073,5.53575 -5.840494,9.06889 -0.902726,4.77887 -0.102014,10.46156 2.880735,14.30287 2.096976,2.70059 7.658282,0.91716 8.780154,4.14698 1.155741,3.32739 -5.02616,6.36088 -4.16574,9.80671 0.95084,3.80788 8.340831,3.56218 9.157694,7.40108 0.567663,2.6678 -1.857871,3.5378 -0.853894,6.0738 1.363008,3.4427 4.063973,6.1065 7.588699,4.9724 z"
       inkscape:connector-curvature="0"
       sodipodi:nodetypes="ssssssssssssasss" />
    <path
       style="fill:#8dd35f;fill-opacity:1;stroke-width:0.04222513"
       d="m 33.448772,976.12524 c -1.59253,-12.84784 1.570548,1.16127 1.721067,2.43093 l 0,0 8.428743,70.02443 c 0.151639,1.2671 -0.37838,2.2127 -1.172627,2.1412 -0.802381,-0.079 -1.425917,-0.8348 -1.579217,-2.0966 -0.174654,-8.8811 -3.293286,-36.0122 -7.400014,-72.49281 z"
       id="rect4652-7-2-4-7-8-3-8-6-6-7-2-1-6-7-8"
       inkscape:connector-curvature="0"
       sodipodi:nodetypes="cscssccc" />
  </g>
</svg>
