<?xml version="1.0" encoding="UTF-8" standalone="no"?>
<!-- Created with Inkscape (http://www.inkscape.org/) -->

<svg
   xmlns:dc="http://purl.org/dc/elements/1.1/"
   xmlns:cc="http://creativecommons.org/ns#"
   xmlns:rdf="http://www.w3.org/1999/02/22-rdf-syntax-ns#"
   xmlns:svg="http://www.w3.org/2000/svg"
   xmlns="http://www.w3.org/2000/svg"
   xmlns:xlink="http://www.w3.org/1999/xlink"
   xmlns:sodipodi="http://sodipodi.sourceforge.net/DTD/sodipodi-0.dtd"
   xmlns:inkscape="http://www.inkscape.org/namespaces/inkscape"
   width="100"
   height="100"
   id="svg4640"
   version="1.1"
   inkscape:version="0.48.5 r10040"
   sodipodi:docname="rucula.svg">
  <defs
     id="defs4642">
    <linearGradient
       inkscape:collect="always"
       xlink:href="#linearGradient4865"
       id="linearGradient4871"
       x1="116.45824"
       y1="218.88603"
       x2="114.035"
       y2="228.08009"
       gradientUnits="userSpaceOnUse"
       gradientTransform="matrix(0.7212561,0,0,0.7212561,32.389819,24.542329)" />
    <linearGradient
       inkscape:collect="always"
       id="linearGradient4865">
      <stop
         style="stop-color:#00aa00;stop-opacity:1;"
         offset="0"
         id="stop4867" />
      <stop
         style="stop-color:#008000;stop-opacity:1"
         offset="1"
         id="stop4869" />
    </linearGradient>
    <inkscape:path-effect
       effect="spiro"
       id="path-effect4898-8-6"
       is_visible="true" />
    <inkscape:path-effect
       effect="spiro"
       id="path-effect4898-8"
       is_visible="true" />
    <inkscape:path-effect
       effect="spiro"
       id="path-effect4898"
       is_visible="true" />
  </defs>
  <sodipodi:namedview
     id="base"
     pagecolor="#ffffff"
     bordercolor="#666666"
     borderopacity="1.0"
     inkscape:pageopacity="0.0"
     inkscape:pageshadow="2"
     inkscape:zoom="3.959798"
     inkscape:cx="29.595746"
     inkscape:cy="48.748672"
     inkscape:document-units="px"
     inkscape:current-layer="layer1"
     showgrid="false"
     inkscape:window-width="1366"
     inkscape:window-height="745"
     inkscape:window-x="-8"
     inkscape:window-y="-8"
     inkscape:window-maximized="1" />
  <metadata
     id="metadata4645">
    <rdf:RDF>
      <cc:Work
         rdf:about="">
        <dc:format>image/svg+xml</dc:format>
        <dc:type
           rdf:resource="http://purl.org/dc/dcmitype/StillImage" />
        <dc:title></dc:title>
      </cc:Work>
    </rdf:RDF>
  </metadata>
  <g
     inkscape:label="Layer 1"
     inkscape:groupmode="layer"
     id="layer1"
     transform="translate(0,-952.36218)">
    <path
       style="fill:#00aa00;fill-opacity:1;stroke-width:0.04222513"
       d="m 61.568149,966.27038 c 1.117837,0.35383 1.805044,1.81621 1.538797,3.27998 v 0 l -14.501633,80.77984 c -0.263638,1.4615 -1.380007,2.3379 -2.488382,1.9937 -1.117832,-0.3538 -1.722097,-1.4043 -1.46281,-2.8604 3.117821,-9.9473 8.946944,-41.197 16.908394,-83.18578 z"
       id="rect4652-7-2-4-7-8-3-8-6-6-7-9"
       inkscape:connector-curvature="0"
       sodipodi:nodetypes="cscssccc" />
    <path
       style="fill:#00aa00;fill-opacity:1;stroke-width:0.04222513"
       d="m 35.068758,982.5316 c -0.889555,0.25588 -1.408564,1.23955 -1.16203,2.20694 v 0 l 13.451284,53.38436 c 0.244425,0.9658 1.160302,1.5273 2.042484,1.278 0.889557,-0.2559 1.351182,-0.9646 1.110412,-1.9269 -2.72589,-6.5491 -8.105471,-27.1968 -15.437464,-54.93785 z"
       id="rect4652-7-2-4-7-8-3-8-6-6-7-9-4"
       inkscape:connector-curvature="0"
       sodipodi:nodetypes="cscssccc" />
    <path
       style="fill:#44aa00;fill-opacity:1;stroke:none"
       d="m 31.19721,970.4945 c -0.498581,0.55514 -0.130828,2.82768 -0.130828,2.82768 0,0 -0.706195,-1.85539 -1.341497,-1.58219 -0.924981,0.39791 0.462824,2.49921 0.462824,2.49921 0,0 -1.222985,-0.81138 -1.351704,-0.4091 -0.472862,1.47934 4.679939,5.84478 4.679939,5.84478 0,0 -4.074843,-3.71847 -5.576697,-3.56525 -0.587452,0.0612 1.193898,1.72753 1.193898,1.72753 0,0 -2.081355,-0.46927 -2.428626,-0.0192 -0.477944,0.61532 1.860114,1.702 1.860114,1.702 0,0 -2.158116,-0.83727 -2.4369,-0.0735 -0.31489,0.86228 2.15855,1.71004 2.15855,1.71004 0,0 -1.773549,0.0962 -1.864235,0.7339 -0.131948,0.92804 2.396597,1.24969 2.396597,1.24969 0,0 -0.960962,0.63875 -0.781002,1.03036 0.371224,0.80771 1.788682,-0.0245 2.661915,0.16092 1.217288,0.2627 2.323319,1.29726 3.314874,1.42162 1.182389,0.14867 1.669927,-0.0979 2.658283,-0.79004 0.902255,-0.63298 2.315356,-3.03565 2.752842,-3.37898 0,0 2.250093,-1.40606 2.107955,-2.16077 -0.07678,-0.40771 -1.487241,0.37866 -1.487241,0.37866 0,0 1.350383,-1.91398 1.255079,-2.64105 -0.08397,-0.64033 -1.832894,0.62895 -1.832894,0.62895 0,0 1.36998,-1.99811 0.908961,-2.66414 -0.475217,-0.6865 -2.0193,1.48249 -2.0193,1.48249 0,0 1.103249,-2.16812 0.33968,-2.35229 -0.579644,-0.13993 -1.389,1.54056 -1.389,1.54056 0,0 0.49697,-1.85627 -0.09203,-1.90629 -0.714158,-0.0612 -1.967364,4.76737 -1.967364,4.76737 0,0 1.176453,-7.19749 0.181582,-8.11696 -0.555596,-0.51317 -1.252495,1.89264 -1.252495,1.89264 0,0 -0.003,-1.71372 -0.620111,-1.74747 -0.761487,-0.0437 -0.995607,2.05985 -0.995607,2.05985 -0.338936,-0.82415 -0.779405,-2.90167 -1.365548,-2.2491 z"
       id="path3320-1"
       inkscape:connector-curvature="0"
       sodipodi:nodetypes="scscscscscscscssscsscscscscscscscs" />
    <path
       style="fill:#00aa00;fill-opacity:1;stroke-width:0.04222513"
       d="m 73.986165,976.46486 c 0.306648,0.24347 0.333109,0.66779 0.05826,0.95148 v 0 l -15.097594,15.68281 c -0.273554,0.28317 -0.740057,0.31238 -1.045007,0.0717 -0.306646,-0.24364 -0.360627,-0.56459 -0.08906,-0.84776 2.279516,-1.734 8.189175,-7.76856 16.1705,-15.85771 z"
       id="rect4652-7-2-4-7-8-3-8-6-6-7-9-4-7"
       inkscape:connector-curvature="0"
       sodipodi:nodetypes="cscssccc" />
    <path
       style="fill:#00aa00;fill-opacity:1;stroke-width:0.04222513"
       d="m 38.081775,996.63362 c -0.10461,0.19712 -0.344637,0.25904 -0.538493,0.13818 v 0 l -10.702966,-6.65669 c -0.193419,-0.12069 -0.263142,-0.37675 -0.160142,-0.57264 0.10461,-0.19712 0.282353,-0.26271 0.475527,-0.14342 1.252898,1.07496 5.382668,3.69206 10.92531,7.23335 z"
       id="rect4652-7-2-4-7-8-3-8-6-6-7-9-4-7-1"
       inkscape:connector-curvature="0"
       sodipodi:nodetypes="cscssccc" />
    <path
       style="fill:#00aa00;fill-opacity:1;stroke-width:0.04222513"
       d="m 47.082784,990.81 c -0.172159,-0.14167 -0.417581,-0.10669 -0.550143,0.0787 v 0 l -7.335836,10.2494 c -0.132385,0.1859 -0.09866,0.4486 0.07145,0.59 0.172106,0.1416 0.361494,0.1346 0.494056,-0.049 0.745417,-1.4731 3.557365,-5.4726 7.320248,-10.86736 z"
       id="rect4652-7-2-4-7-8-3-8-6-6-7-9-4-7-1-1"
       inkscape:connector-curvature="0"
       sodipodi:nodetypes="cscssccc" />
    <path
       style="fill:#00aa00;fill-opacity:1;stroke-width:0.04222513"
       d="m 68.089367,1006.3223 c 0.306648,0.2436 0.333111,0.6678 0.05826,0.9515 v 0 l -15.097593,15.683 c -0.273554,0.2831 -0.740056,0.3122 -1.045006,0.072 -0.306647,-0.2437 -0.360626,-0.5646 -0.08906,-0.8478 2.279516,-1.7342 8.189176,-7.7687 16.170502,-15.8579 z"
       id="rect4652-7-2-4-7-8-3-8-6-6-7-9-4-7-14"
       inkscape:connector-curvature="0"
       sodipodi:nodetypes="cscssccc" />
    <path
       style="fill:#44aa00;fill-opacity:1;stroke:none"
       d="m 13.020832,987.95591 c 0.244489,0.70504 2.410913,1.48337 2.410913,1.48337 0,0 -1.965338,-0.28003 -2.033882,0.40787 -0.09971,1.00203 2.410816,0.80491 2.410816,0.80491 0,0 -1.302038,0.67741 -1.012316,0.98472 1.065403,1.12988 7.379868,-1.26509 7.379868,-1.26509 0,0 -5.226456,1.76514 -5.819466,3.15336 -0.230171,0.54412 2.089528,-0.20814 2.089528,-0.20814 0,0 -1.418164,1.59408 -1.192064,2.11599 0.307082,0.71606 2.389836,-0.80351 2.389836,-0.80351 0,0 -1.777439,1.48284 -1.244339,2.09641 0.602016,0.69314 2.541326,-1.0608 2.541326,-1.0608 0,0 -0.774602,1.59845 -0.260477,1.98657 0.74817,0.56463 2.253835,-1.49194 2.253835,-1.49194 0,0 0.09357,1.15 0.523371,1.18218 0.886458,0.0665 0.844285,-1.57711 1.429734,-2.25119 0.819259,-0.93784 2.259946,-1.40484 2.848884,-2.21202 0.702588,-0.96268 0.723349,-1.50838 0.595632,-2.70857 -0.117011,-1.09595 -1.535164,-3.49564 -1.623718,-4.04449 0,0 -0.140939,-2.64963 -0.870117,-2.89065 -0.393969,-0.12943 -0.388701,1.48459 -0.388701,1.48459 0,0 -1.020954,-2.10813 -1.703281,-2.37678 -0.601024,-0.23682 -0.337078,1.90821 -0.337078,1.90821 0,0 -1.085053,-2.16602 -1.890969,-2.08504 -0.8308,0.084 0.319414,2.48452 0.319414,2.48452 0,0 -1.362828,-2.01507 -1.893667,-1.43596 -0.403202,0.43936 0.675492,1.96102 0.675492,1.96102 0,0 -1.383643,-1.33347 -1.712565,-0.84234 -0.399981,0.59503 3.218839,4.02945 3.218839,4.02945 0,0 -5.728087,-4.51393 -7.014253,-4.08856 -0.717981,0.23804 1.049698,2.01227 1.049698,2.01227 0,0 -1.500943,-0.82712 -1.829307,-0.30363 -0.406611,0.64522 1.32037,1.86833 1.32037,1.86833 -0.8852,-0.10145 -2.916239,-0.72288 -2.629112,0.10669 z"
       id="path3320-1-3"
       inkscape:connector-curvature="0"
       sodipodi:nodetypes="scscscscscscscssscsscscscscscscscs" />
    <path
       style="fill:#44aa00;fill-opacity:1;stroke:none"
       d="m 53.614538,980.1508 c 0.309684,0.67898 -0.720815,2.73743 -0.720815,2.73743 0,0 1.228885,-1.5591 1.753264,-1.10855 0.763701,0.65625 -1.189015,2.24648 -1.189015,2.24648 0,0 1.40968,-0.40841 1.412172,0.0175 0.0087,1.55297 -6.213634,4.17777 -6.213634,4.17777 0,0 5.000406,-2.32973 6.387689,-1.73453 0.542086,0.2349 -1.655805,1.29149 -1.655805,1.29149 0,0 2.126404,0.17491 2.323016,0.70854 0.272066,0.73023 -2.283948,1.06797 -2.283948,1.06797 0,0 2.309705,-0.15392 2.347416,0.65834 0.04276,0.91702 -2.571166,0.98629 -2.571166,0.98629 0,0 1.663686,0.62213 1.559527,1.25773 -0.151782,0.9249 -2.660694,0.47609 -2.660694,0.47609 0,0 0.726007,0.89674 0.437165,1.21664 -0.595695,0.65974 -1.699397,-0.55847 -2.58829,-0.64243 -1.240137,-0.11368 -2.604936,0.54361 -3.588316,0.36573 -1.172771,-0.21198 -1.564447,-0.5924 -2.300358,-1.54895 -0.671675,-0.87383 -1.301616,-3.58904 -1.616413,-4.04747 0,0 -1.726671,-2.01455 -1.365338,-2.6923 0.195281,-0.36625 1.305942,0.80613 1.305942,0.80613 0,0 -0.716221,-2.23021 -0.407851,-2.89554 0.271508,-0.58628 1.560934,1.14824 1.560934,1.14824 0,0 -0.709782,-2.31643 -0.07071,-2.81403 0.658951,-0.51317 1.483608,2.01839 1.483608,2.01839 0,0 -0.404442,-2.39864 0.379282,-2.34616 0.595013,0.0367 0.86471,1.88547 0.86471,1.88547 0,0 0.08088,-1.91993 0.657893,-1.79155 0.700064,0.15392 0.451728,5.13747 0.451728,5.13747 0,0 1.029748,-7.21988 2.254033,-7.79969 0.68381,-0.32358 0.629166,2.18053 0.629166,2.18053 0,0 0.515314,-1.63431 1.114189,-1.48231 0.739592,0.18662 0.33404,2.26344 0.33404,2.26344 0.569975,-0.68493 1.611479,-2.53577 1.975695,-1.73786 z"
       id="path3320-1-3-2"
       inkscape:connector-curvature="0"
       sodipodi:nodetypes="scscscscscscscssscsscscscscscscscs" />
    <path
       style="fill:#44aa00;fill-opacity:1;stroke:none"
       d="m 76.908172,995.14379 c 0.309684,0.67898 -0.720814,2.73743 -0.720814,2.73743 0,0 1.228884,-1.5591 1.753265,-1.10855 0.7637,0.65624 -1.189016,2.24633 -1.189016,2.24633 0,0 1.409681,-0.4084 1.412171,0.018 0.0087,1.5531 -6.213634,4.1779 -6.213634,4.1779 0,0 5.000406,-2.3297 6.387689,-1.7345 0.542087,0.2349 -1.655803,1.2915 -1.655803,1.2915 0,0 2.126403,0.1749 2.323015,0.7085 0.272065,0.7302 -2.283947,1.068 -2.283947,1.068 0,0 2.309703,-0.1539 2.347414,0.6581 0.04276,0.9171 -2.571166,0.9863 -2.571166,0.9863 0,0 1.663686,0.6222 1.559527,1.2579 -0.151782,0.9249 -2.660694,0.476 -2.660694,0.476 0,0 0.726007,0.8967 0.437165,1.2166 -0.595695,0.6597 -1.699397,-0.5585 -2.588289,-0.6423 -1.240138,-0.1136 -2.604937,0.5435 -3.588317,0.3656 -1.172771,-0.212 -1.564447,-0.5924 -2.300357,-1.549 -0.671674,-0.8738 -1.301615,-3.5888 -1.616414,-4.0473 0,0 -1.726669,-2.0147 -1.365336,-2.6923 0.195279,-0.3662 1.305941,0.8062 1.305941,0.8062 0,0 -0.716222,-2.2304 -0.407852,-2.8956 0.27151,-0.58623 1.560934,1.1483 1.560934,1.1483 0,0 -0.709782,-2.31644 -0.07071,-2.81405 0.658953,-0.51316 1.48361,2.01835 1.48361,2.01835 0,0 -0.404444,-2.39859 0.37928,-2.34612 0.595013,0.0367 0.864712,1.88542 0.864712,1.88542 0,0 0.08088,-1.92005 0.657892,-1.79149 0.700064,0.15391 0.451729,5.13749 0.451729,5.13749 0,0 1.029747,-7.21991 2.254033,-7.79971 0.683808,-0.32358 0.629166,2.18053 0.629166,2.18053 0,0 0.515314,-1.63448 1.114187,-1.48231 0.739593,0.18662 0.33404,2.26343 0.33404,2.26343 0.569975,-0.68492 1.611481,-2.53576 1.975695,-1.73785 z"
       id="path3320-1-3-2-1"
       inkscape:connector-curvature="0"
       sodipodi:nodetypes="scscscscscscscssscsscscscscscscscs" />
    <path
       style="fill:#44aa00;fill-opacity:1;stroke:none"
       d="m 80.562274,965.78677 c 0.309684,0.67898 -0.720815,2.73743 -0.720815,2.73743 0,0 1.228882,-1.5591 1.753264,-1.10855 0.763699,0.65624 -1.189015,2.2463 -1.189015,2.2463 0,0 1.409679,-0.4084 1.412172,0.0175 0.0087,1.55298 -6.213635,4.17777 -6.213635,4.17777 0,0 5.000406,-2.32973 6.387688,-1.73435 0.542086,0.23489 -1.655804,1.29149 -1.655804,1.29149 0,0 2.126403,0.17491 2.323017,0.70854 0.272066,0.73005 -2.283948,1.06797 -2.283948,1.06797 0,0 2.309704,-0.15392 2.347416,0.65834 0.04276,0.91685 -2.571167,0.98611 -2.571167,0.98611 0,0 1.663687,0.62213 1.559528,1.25791 -0.151782,0.9249 -2.660695,0.47592 -2.660695,0.47592 0,0 0.726008,0.89691 0.437165,1.21663 -0.595695,0.65992 -1.699396,-0.55829 -2.588291,-0.64225 -1.240137,-0.11369 -2.604935,0.54361 -3.588314,0.36573 -1.172772,-0.21199 -1.564448,-0.59258 -2.300358,-1.54896 -0.671675,-0.87382 -1.301617,-3.58904 -1.616413,-4.04746 0,0 -1.726672,-2.01473 -1.365338,-2.69231 0.195281,-0.36625 1.305942,0.80596 1.305942,0.80596 0,0 -0.716222,-2.2302 -0.407851,-2.89554 0.271508,-0.58628 1.560933,1.14825 1.560933,1.14825 0,0 -0.709781,-2.31626 -0.07071,-2.81387 0.658951,-0.51317 1.483609,2.0184 1.483609,2.0184 0,0 -0.404443,-2.39864 0.379282,-2.34617 0.595013,0.0367 0.86471,1.88547 0.86471,1.88547 0,0 0.08088,-1.9201 0.657893,-1.79154 0.700064,0.15391 0.451727,5.13747 0.451727,5.13747 0,0 1.029749,-7.21989 2.254033,-7.79969 0.68381,-0.32358 0.629167,2.18053 0.629167,2.18053 0,0 0.515314,-1.63448 1.114189,-1.48232 0.73959,0.18663 0.334039,2.26344 0.334039,2.26344 0.569975,-0.68492 1.611479,-2.53594 1.9757,-1.73802 z"
       id="path3320-1-3-2-6"
       inkscape:connector-curvature="0"
       sodipodi:nodetypes="scscscscscscscssscsscscscscscscscs" />
    <path
       style="fill:#44aa00;fill-opacity:1;stroke:none"
       d="m 55.979102,952.93043 c -0.490277,0.70278 0.247647,3.24093 0.247647,3.24093 0,0 -1.065315,-2.01522 -1.750798,-1.61498 -0.99837,0.58318 0.878049,2.78332 0.878049,2.78332 0,0 -1.507605,-0.75317 -1.597207,-0.28013 -0.331127,1.75225 6.15342,6.00446 6.15342,6.00446 0,0 -5.165579,-3.66612 -6.855635,-3.28083 -0.660849,0.15305 1.602877,1.80131 1.602877,1.80131 0,0 -2.437854,-0.24224 -2.770351,0.3192 -0.458421,0.76836 2.358608,1.67891 2.358608,1.67891 0,0 -2.576855,-0.65187 -2.787524,0.25781 -0.237918,1.02686 2.699899,1.64602 2.699899,1.64602 0,0 -2.007792,0.35821 -2.021698,1.09788 -0.01984,1.07601 2.906601,1.08826 2.906601,1.08826 0,0 -1.005578,0.86263 -0.745548,1.28362 0.536261,0.86858 2.03493,-0.2788 3.056255,-0.1896 1.424127,0.12943 2.829666,1.15297 3.977203,1.15525 1.368473,0 1.889563,-0.34509 2.918668,-1.27331 0.93945,-0.84793 2.212837,-3.78441 2.663258,-4.23706 0,0 2.367086,-1.918 2.099221,-2.75807 -0.144715,-0.4544 -1.641802,0.64015 -1.641802,0.64015 0,0 1.270468,-2.37079 1.059872,-3.186 -0.1853,-0.71835 -2.000601,0.97385 -2.000601,0.97385 0,0 1.281009,-2.46929 0.662187,-3.16359 -0.638036,-0.71611 -2.09336,1.97264 -2.09336,1.97264 0,0 0.953168,-2.62552 0.05702,-2.72835 -0.679855,-0.0806 -1.366824,1.95057 -1.366824,1.95057 0,0 0.306027,-2.18526 -0.372279,-2.15967 -0.822637,0.031 -1.573409,5.70915 -1.573409,5.70915 0,0 0.331066,-8.36759 -0.931711,-9.27594 -0.705422,-0.50633 -1.161874,2.3327 -1.161874,2.3327 0,0 -0.243804,-1.95261 -0.951665,-1.90476 -0.873977,0.0558 -0.845667,2.48726 -0.845667,2.48726 -0.50199,-0.89155 -1.295313,-3.19755 -1.871797,-2.37175 z"
       id="path3320-1-3-2-8"
       inkscape:connector-curvature="0"
       sodipodi:nodetypes="scscscscscscscssscsscscscscscscscs" />
    <path
       style="fill:#00aa00;fill-opacity:1;stroke-width:0.04222513"
       d="m 33.331162,1014.1521 c 0.119303,-0.1884 0.36323,-0.2323 0.54692,-0.1 v 0 l 10.168489,7.4477 c 0.183877,0.1365 0.233767,0.3953 0.116259,0.5832 -0.119232,0.1883 -0.301502,0.2405 -0.48507,0.1067 -1.167944,-1.1668 -5.087807,-4.0889 -10.346521,-8.0395 z"
       id="rect4652-7-2-4-7-8-3-8-6-6-7-9-4-7-1-1-5"
       inkscape:connector-curvature="0"
       sodipodi:nodetypes="cscssccc" />
    <path
       style="fill:#44aa00;fill-opacity:1;stroke:none"
       d="m 23.798706,1006.0643 c -0.08231,0.7418 1.539254,2.3757 1.539254,2.3757 0,0 -1.654149,-1.0977 -2.01172,-0.5063 -0.520706,0.8619 1.830794,1.7632 1.830794,1.7632 0,0 -1.466685,0.049 -1.33771,0.453 0.476519,1.4781 7.207214,2.0296 7.207214,2.0296 0,0 -5.47776,-0.6526 -6.60992,0.3458 -0.441689,0.3923 1.976184,0.7101 1.976184,0.7101 0,0 -1.965575,0.8299 -1.985802,1.3982 -0.03036,0.7786 2.503168,0.3019 2.503168,0.3019 0,0 -2.242332,0.5743 -2.024642,1.3581 0.245603,0.8845 2.750543,0.1347 2.750543,0.1347 0,0 -1.386389,1.1103 -1.089001,1.6817 0.432889,0.8313 2.676256,-0.3787 2.676256,-0.3787 0,0 -0.409772,1.0788 -0.03533,1.2924 0.771843,0.4407 1.440209,-1.0608 2.258496,-1.418 1.1428,-0.4946 2.644425,-0.297 3.523144,-0.7729 1.048036,-0.567 1.301354,-1.0512 1.701955,-2.1896 0.365337,-1.0398 0.116329,-3.8161 0.272314,-4.3497 0,0 1.01159,-2.453 0.456811,-2.9839 -0.299831,-0.287 -0.989099,1.1733 -0.989099,1.1733 0,0 -0.01557,-2.3423 -0.515997,-2.8781 -0.440946,-0.4722 -1.124557,1.578 -1.124557,1.578 0,0 -0.04896,-2.4221 -0.811153,-2.6954 -0.786251,-0.282 -0.779484,2.3806 -0.779484,2.3806 0,0 -0.36447,-2.405 -1.092627,-2.1104 -0.553737,0.2205 -0.233022,2.0611 -0.233022,2.0611 0,0 -0.676161,-1.7989 -1.184238,-1.4969 -0.616951,0.3651 1.174416,5.0219 1.174416,5.0219 0,0 -3.231837,-6.5376 -4.57596,-6.7066 -0.750636,-0.094 0.08292,2.268 0.08292,2.268 0,0 -0.999728,-1.3917 -1.521195,-1.0602 -0.644401,0.4082 0.388949,2.2545 0.388949,2.2545 -0.755315,-0.473 -2.322464,-1.9061 -2.41943,-1.0344 z"
       id="path3320-1-3-2-7"
       inkscape:connector-curvature="0"
       sodipodi:nodetypes="scscscscscscscssscsscscscscscscscs" />
  </g>
</svg>
