<?xml version="1.0" encoding="UTF-8" standalone="no"?>
<!-- Created with Inkscape (http://www.inkscape.org/) -->

<svg
   xmlns:dc="http://purl.org/dc/elements/1.1/"
   xmlns:cc="http://creativecommons.org/ns#"
   xmlns:rdf="http://www.w3.org/1999/02/22-rdf-syntax-ns#"
   xmlns:svg="http://www.w3.org/2000/svg"
   xmlns="http://www.w3.org/2000/svg"
   xmlns:xlink="http://www.w3.org/1999/xlink"
   xmlns:sodipodi="http://sodipodi.sourceforge.net/DTD/sodipodi-0.dtd"
   xmlns:inkscape="http://www.inkscape.org/namespaces/inkscape"
   width="100"
   height="100"
   id="svg4640"
   version="1.1"
   inkscape:version="0.48.5 r10040"
   sodipodi:docname="Agrião.svg">
  <defs
     id="defs4642">
    <linearGradient
       inkscape:collect="always"
       xlink:href="#linearGradient4865"
       id="linearGradient4871"
       x1="116.45824"
       y1="218.88603"
       x2="114.035"
       y2="228.08009"
       gradientUnits="userSpaceOnUse"
       gradientTransform="matrix(0.7212561,0,0,0.7212561,32.389819,24.542329)" />
    <linearGradient
       inkscape:collect="always"
       id="linearGradient4865">
      <stop
         style="stop-color:#00aa00;stop-opacity:1;"
         offset="0"
         id="stop4867" />
      <stop
         style="stop-color:#008000;stop-opacity:1"
         offset="1"
         id="stop4869" />
    </linearGradient>
    <inkscape:path-effect
       effect="spiro"
       id="path-effect4898-8-6"
       is_visible="true" />
    <inkscape:path-effect
       effect="spiro"
       id="path-effect4898-8"
       is_visible="true" />
    <inkscape:path-effect
       effect="spiro"
       id="path-effect4898"
       is_visible="true" />
    <inkscape:path-effect
       effect="spiro"
       id="path-effect4898-8-8"
       is_visible="true" />
    <inkscape:path-effect
       effect="spiro"
       id="path-effect4898-8-4"
       is_visible="true" />
  </defs>
  <sodipodi:namedview
     id="base"
     pagecolor="#ffffff"
     bordercolor="#666666"
     borderopacity="1.0"
     inkscape:pageopacity="0.0"
     inkscape:pageshadow="2"
     inkscape:zoom="3.959798"
     inkscape:cx="25.748686"
     inkscape:cy="52.409468"
     inkscape:document-units="px"
     inkscape:current-layer="layer1"
     showgrid="false"
     inkscape:window-width="1366"
     inkscape:window-height="745"
     inkscape:window-x="-8"
     inkscape:window-y="-8"
     inkscape:window-maximized="1" />
  <metadata
     id="metadata4645">
    <rdf:RDF>
      <cc:Work
         rdf:about="">
        <dc:format>image/svg+xml</dc:format>
        <dc:type
           rdf:resource="http://purl.org/dc/dcmitype/StillImage" />
        <dc:title></dc:title>
      </cc:Work>
    </rdf:RDF>
  </metadata>
  <g
     inkscape:label="Layer 1"
     inkscape:groupmode="layer"
     id="layer1"
     transform="translate(0,-952.36218)">
    <path
       style="fill:#338000"
       d="m 96.896475,1000.8721 c -0.646911,3.9575 -1.794734,7.8021 -3.015233,11.0427 -1.220478,3.2405 -0.371238,5.9401 -2.426928,7.2983 -2.055653,1.3579 -6.742051,-0.3028 -9.261464,-0.5979 -2.519432,-0.295 -5.316671,0.8067 -7.295425,0.4833 -1.978755,-0.3235 -4.200629,-2.138 -6.901262,-3.1627 -2.700635,-1.0247 -6.601754,-1.234 -7.995692,-3.156 -1.393941,-1.9219 -0.303557,-5.4165 -0.0268,-8.3449 0.276753,-2.9284 0.461615,-5.31612 1.108508,-9.27357 0.323458,-1.97879 1.574189,-3.9633 2.301865,-6.10875 0.727677,-2.14546 0.932293,-4.45183 1.959058,-6.61736 1.026765,-2.16554 3.015453,-4.16735 4.236176,-6.20637 1.220719,-2.03899 1.673475,-4.11517 2.983021,-5.88102 1.309545,-1.76586 3.547111,-2.77922 4.840343,-4.1253 1.293234,-1.34609 1.642137,-3.02493 2.813927,-3.80465 1.17179,-0.77973 2.256572,-1.2396 3.201786,-1.30635 0.945211,-0.0667 1.750855,0.25966 2.364349,1.05257 0.572062,0.7393 0.766647,1.88463 1.44082,2.94799 0.674171,1.06337 1.827925,2.04479 2.543047,3.38391 0.715123,1.33911 1.08629,2.82951 1.781207,4.39603 0.694919,1.56652 1.713591,3.20916 2.327147,4.95479 0.613563,1.74559 0.662613,4.15237 1.133654,6.02874 0.471041,1.87638 1.364068,3.22238 1.631434,5.18121 0.267368,1.95882 -0.281282,3.83255 -0.278744,5.8255 0.0025,1.99294 0.858653,4.01105 0.535201,5.98983 z"
       id="path4267-0-8"
       inkscape:connector-curvature="0"
       sodipodi:nodetypes="sssssssssssssssssssssssss" />
    <path
       style="fill:#338000"
       d="m 4.5426642,1000.4763 c 0.64691,3.9575 1.79473,7.8021 3.01523,11.0427 1.22048,3.2405 0.37124,5.9401 2.42693,7.2983 2.0556498,1.3579 6.7420498,-0.3028 9.2614698,-0.5979 2.51943,-0.295 5.316668,0.8067 7.295418,0.4833 1.97876,-0.3235 4.20063,-2.138 6.90126,-3.1627 2.70064,-1.0247 6.60176,-1.234 7.9957,-3.156 1.39394,-1.9219 0.30355,-5.4165 0.0268,-8.3449 -0.27676,-2.9284 -0.46162,-5.31609 -1.10851,-9.27359 -0.32346,-1.9788 -1.57419,-3.9633 -2.30187,-6.1087 -0.72767,-2.1455 -0.93229,-4.4518 -1.95905,-6.6174 -1.02677,-2.1655 -3.01546,-4.1673 -4.23618,-6.2063 -1.22072,-2.039 -1.67348,-4.1152 -2.98302,-5.8811 -1.30955,-1.7658 -3.54711,-2.7792 -4.84035,-4.1253 -1.29323,-1.3461 -1.642128,-3.0249 -2.813918,-3.8046 -1.17179,-0.7798 -2.25658,-1.2396 -3.20179,-1.3064 -0.94521,-0.067 -1.75085,0.2597 -2.36435,1.0526 -0.57206,0.7393 -0.76665,1.8846 -1.44082,2.948 -0.67417,1.0634 -1.82792,2.0448 -2.54305,3.3839 -0.71512,1.3391 -1.08629,2.8295 -1.7811998,4.396 -0.69492,1.5666 -1.71359,3.2092 -2.32715,4.9548 -0.61356,1.7456 -0.66261,4.1524 -1.13365,6.0288 -0.47104,1.8763 -1.36407,3.2223 -1.63144,5.1812 -0.26737,1.9588 0.28128,3.8325 0.27875,5.8255 -0.003,1.9929 -0.85866,4.011 -0.5352,5.98979 z"
       id="path4267-0-6-2"
       inkscape:connector-curvature="0"
       sodipodi:nodetypes="sssssssssssssssssssssssss" />
    <path
       style="fill:#8dd35f;fill-opacity:1;stroke-width:0.04222513"
       d="m 81.849208,973.75787 c 2.483491,-13.59751 1.52889,1.71321 1.275029,3.05464 l 0,0 -14.832604,73.86849 c -0.268303,1.3361 -0.534722,1.9099 -1.486175,1.5679 -0.959396,-0.3515 -1.170759,-0.9657 -0.923062,-2.2998 2.855037,-9.085 8.399905,-37.7166 15.961815,-76.18463 z"
       id="rect4652-7-2-4-7-8-3-8-6-6-7-2-1-6-7-6-8"
       inkscape:connector-curvature="0"
       sodipodi:nodetypes="cscssccc" />
    <path
       style="fill:#44aa00"
       d="m 85.204992,996.29465 c -0.646911,3.95755 -1.794734,7.80215 -3.015233,11.04285 -1.220478,3.2405 -0.371238,5.9401 -2.426928,7.2983 -2.055653,1.3579 -6.742051,-0.3028 -9.261464,-0.5979 -2.519432,-0.295 -5.316671,0.8067 -7.295425,0.4833 -1.978755,-0.3235 -4.200629,-2.138 -6.901262,-3.1627 -2.700635,-1.0247 -6.601754,-1.234 -7.995692,-3.156 -1.393941,-1.9219 -0.303557,-5.4166 -0.0268,-8.345 0.276753,-2.92842 0.461615,-5.31614 1.108508,-9.27359 0.323458,-1.97879 1.574189,-3.9633 2.301865,-6.10875 0.727677,-2.14546 0.932293,-4.45183 1.959058,-6.61736 1.026765,-2.16554 3.015453,-4.16735 4.236176,-6.20637 1.220719,-2.03899 1.673475,-4.11517 2.983021,-5.88102 1.309545,-1.76586 3.547111,-2.77922 4.840343,-4.1253 1.293234,-1.34609 1.642137,-3.02493 2.813927,-3.80465 1.17179,-0.77973 2.256572,-1.2396 3.201786,-1.30635 0.945211,-0.0667 1.750855,0.25966 2.364349,1.05257 0.572062,0.7393 0.766647,1.88463 1.44082,2.94799 0.674171,1.06337 1.827925,2.04479 2.543047,3.38391 0.715123,1.33911 1.08629,2.82951 1.781207,4.39603 0.694919,1.56652 1.713591,3.20916 2.327147,4.95479 0.613563,1.74559 0.662613,4.15237 1.133654,6.02874 0.471041,1.87638 1.364068,3.22238 1.631434,5.18121 0.267368,1.95882 -0.281282,3.83255 -0.278744,5.8255 0.0025,1.99294 0.858653,4.01105 0.535201,5.9898 z"
       id="path4267-0"
       inkscape:connector-curvature="0"
       sodipodi:nodetypes="sssssssssssssssssssssssss" />
    <path
       style="fill:#8dd35f;fill-opacity:1;stroke-width:0.04222513"
       d="m 19.589934,973.36211 c -2.48349,-13.59758 -1.52889,1.71317 -1.27503,3.0546 l 0,0 14.832598,73.86849 c 0.26831,1.3361 0.53473,1.9099 1.48618,1.5679 0.9594,-0.3515 1.17076,-0.9657 0.92306,-2.2998 -2.85504,-9.085 -8.39991,-37.7166 -15.961818,-76.18461 z"
       id="rect4652-7-2-4-7-8-3-8-6-6-7-2-1-6-7-6-1-9"
       inkscape:connector-curvature="0"
       sodipodi:nodetypes="cscssccc" />
    <path
       style="fill:#44aa00"
       d="m 16.851182,995.89889 c 0.64691,3.9575 1.79473,7.80211 3.01523,11.04281 1.22048,3.2405 0.37124,5.9401 2.42693,7.2983 2.05565,1.3579 6.74205,-0.3028 9.26147,-0.5979 2.519427,-0.295 5.316667,0.8067 7.295417,0.4833 1.97876,-0.3235 4.20063,-2.138 6.90126,-3.1627 2.70064,-1.0247 6.60176,-1.234 7.9957,-3.156 1.39394,-1.9219 0.30355,-5.4166 0.0268,-8.34501 -0.27676,-2.9284 -0.46162,-5.3161 -1.10851,-9.2736 -0.32346,-1.9788 -1.57419,-3.9633 -2.30187,-6.1087 -0.72767,-2.1455 -0.93229,-4.4518 -1.95905,-6.6174 -1.02677,-2.1655 -3.01546,-4.1673 -4.23618,-6.2063 -1.22072,-2.039 -1.67348,-4.1152 -2.98302,-5.8811 -1.30955,-1.7658 -3.54711,-2.7792 -4.84035,-4.1253 -1.29323,-1.3461 -1.64213,-3.0249 -2.81392,-3.8046 -1.17179,-0.7798 -2.256577,-1.2396 -3.201787,-1.3064 -0.94521,-0.067 -1.75085,0.2597 -2.36435,1.0526 -0.57206,0.7393 -0.76665,1.8846 -1.44082,2.948 -0.67417,1.0634 -1.82792,2.0448 -2.54305,3.3839 -0.71512,1.3391 -1.08629,2.8295 -1.7812,4.396 -0.69492,1.5666 -1.71359,3.2092 -2.32715,4.9548 -0.61356,1.7456 -0.66261,4.1524 -1.13365,6.0288 -0.47104,1.8763 -1.36407,3.2223 -1.63144,5.1812 -0.26737,1.9588 0.28128,3.8325 0.27875,5.8255 -0.003,1.9929 -0.85866,4.011 -0.5352,5.9898 z"
       id="path4267-0-6"
       inkscape:connector-curvature="0"
       sodipodi:nodetypes="sssssssssssssssssssssssss" />
    <path
       style="fill:#8dd35f;fill-opacity:1;stroke-width:0.04222513"
       d="m 31.898449,968.96919 c -2.483487,-14.0463 -1.528887,1.7697 -1.275027,3.1554 l 0,0 14.832597,76.30631 c 0.26831,1.3802 0.53473,1.9729 1.48618,1.6196 0.9594,-0.3631 1.17076,-0.9975 0.92306,-2.3757 -2.85504,-9.3849 -8.39991,-38.9612 -15.96182,-78.69881 z"
       id="rect4652-7-2-4-7-8-3-8-6-6-7-2-1-6-7-6-1"
       inkscape:connector-curvature="0"
       sodipodi:nodetypes="cscssccc" />
    <path
       style="fill:#8dd35f;fill-opacity:1;stroke-width:0.04222513"
       d="m 70.157725,969.36495 c 2.483491,-14.04623 1.52889,1.76974 1.275029,3.15544 l 0,0 -14.832604,76.30631 c -0.268303,1.3802 -0.534722,1.9729 -1.486175,1.6196 -0.959396,-0.3631 -1.170759,-0.9975 -0.923062,-2.3757 2.855037,-9.3849 8.399905,-38.9612 15.961815,-78.69883 z"
       id="rect4652-7-2-4-7-8-3-8-6-6-7-2-1-6-7-6"
       inkscape:connector-curvature="0"
       sodipodi:nodetypes="cscssccc" />
    <path
       style="fill:#44b900;fill-opacity:1"
       d="m 71.367347,989.89791 c 0,4.01008 -0.512571,7.98951 -1.194292,11.38459 -0.681721,3.395 0.591888,5.9222 -1.217772,7.5942 -1.809659,1.6718 -6.70259,0.7888 -9.236611,0.904 -2.534023,0.1153 -5.116883,1.6539 -7.1219,1.6539 -2.005016,0 -4.490506,-1.4323 -7.32107,-2.0079 -2.830566,-0.5756 -6.714365,-0.1529 -8.400096,-1.8248 -1.685733,-1.6719 -1.173396,-5.2967 -1.372683,-8.23138 -0.199287,-2.9347 -0.402037,-5.32097 -0.402037,-9.33094 0,-2.00505 0.914205,-4.16534 1.286243,-6.40008 0.372037,-2.23475 0.201907,-4.54392 0.865877,-6.84673 0.66397,-2.3028 2.303674,-4.59922 3.179471,-6.80846 0.875798,-2.20921 0.987693,-4.33123 1.995216,-6.28521 1.007522,-1.95399 3.052304,-3.31504 4.111445,-4.85212 1.059142,-1.53709 1.132642,-3.25022 2.163299,-4.20876 1.030655,-0.95855 2.027042,-1.5874 2.949108,-1.80575 0.922065,-0.21834 1.76981,-0.0262 2.503181,0.65735 0.683835,0.63734 1.060637,1.73627 1.897522,2.67695 0.836885,0.94068 2.133853,1.72313 3.055635,2.92934 0.921783,1.2062 1.528521,2.6172 2.46705,4.0511 0.93853,1.4339 2.208852,2.89069 3.095978,4.51447 0.887127,1.62375 1.323799,3.99109 2.09137,5.7669 0.767571,1.77581 1.86604,2.96012 2.445905,4.85016 0.579865,1.89003 0.340678,3.82772 0.664687,5.79416 0.324007,1.96644 1.494474,3.81999 1.494474,5.82501 z"
       id="path4267"
       inkscape:connector-curvature="0"
       sodipodi:nodetypes="sssssssssssssssssssssssss" />
    <path
       style="fill:#8dd35f;fill-opacity:1;stroke-width:0.04222513"
       d="m 52.172836,965.74838 c 0.185007,-14.26289 1.794362,1.49992 1.767369,2.90842 l 0,0 -2.328495,77.6996 c -0.04212,1.4055 -0.209436,2.0334 -1.205437,1.8381 -1.005395,-0.2035 -1.316332,-0.7955 -1.294214,-2.1956 1.303665,-9.7225 2.004606,-39.806 3.056945,-80.24299 z"
       id="rect4652-7-2-4-7-8-3-8-6-6-7-2-1-6-7"
       inkscape:connector-curvature="0"
       sodipodi:nodetypes="cscssccc" />
  </g>
</svg>
