<?xml version="1.0" encoding="UTF-8" standalone="no"?>
<!-- Created with Inkscape (http://www.inkscape.org/) -->

<svg
   xmlns:dc="http://purl.org/dc/elements/1.1/"
   xmlns:cc="http://creativecommons.org/ns#"
   xmlns:rdf="http://www.w3.org/1999/02/22-rdf-syntax-ns#"
   xmlns:svg="http://www.w3.org/2000/svg"
   xmlns="http://www.w3.org/2000/svg"
   xmlns:sodipodi="http://sodipodi.sourceforge.net/DTD/sodipodi-0.dtd"
   xmlns:inkscape="http://www.inkscape.org/namespaces/inkscape"
   width="297mm"
   height="70mm"
   viewBox="0 0 297 70"
   version="1.1"
   id="svg1822"
   inkscape:version="0.92.4 (5da689c313, 2019-01-14)"
   sodipodi:docname="logo.svg"
   inkscape:export-filename="/opt/lampp/htdocs/Projetos/quadro-vivo2/img/logo/logo2.png"
   inkscape:export-xdpi="94.943901"
   inkscape:export-ydpi="94.943901">
  <defs
     id="defs1816">
    <filter
       style="color-interpolation-filters:sRGB"
       inkscape:label="Duochrome"
       id="filter4611">
      <feColorMatrix
         type="luminanceToAlpha"
         result="colormatrix1"
         id="feColorMatrix4591" />
      <feFlood
         flood-opacity="1"
         flood-color="rgb(13,153,7)"
         result="flood1"
         id="feFlood4593" />
      <feComposite
         in2="colormatrix1"
         operator="in"
         result="composite1"
         id="feComposite4595" />
      <feFlood
         flood-opacity="0.764706"
         flood-color="rgb(0,191,0)"
         result="flood2"
         id="feFlood4597" />
      <feComposite
         in2="colormatrix1"
         result="composite2"
         operator="out"
         id="feComposite4599" />
      <feComposite
         k4="0"
         k1="0"
         in="composite2"
         in2="composite1"
         k2="1"
         k3="1"
         operator="arithmetic"
         result="composite3"
         id="feComposite4601" />
      <feColorMatrix
         in="composite3"
         type="matrix"
         values="2 -1 0 0 0 0 2 -1 0 0 -1 0 2 0 0 0 0 0 1 0 "
         result="colormatrix2"
         id="feColorMatrix4603" />
      <feComposite
         k4="0"
         k3="0"
         k1="0"
         in="colormatrix2"
         in2="composite3"
         operator="arithmetic"
         k2="0.1"
         result="composite4"
         id="feComposite4605" />
      <feBlend
         in="composite4"
         in2="composite3"
         mode="normal"
         result="blend"
         id="feBlend4607" />
      <feComposite
         in2="SourceGraphic"
         operator="in"
         id="feComposite4609"
         result="fbSourceGraphic" />
      <feColorMatrix
         result="fbSourceGraphicAlpha"
         in="fbSourceGraphic"
         values="0 0 0 -1 0 0 0 0 -1 0 0 0 0 -1 0 0 0 0 1 0"
         id="feColorMatrix4613" />
      <feColorMatrix
         id="feColorMatrix4615"
         type="luminanceToAlpha"
         result="colormatrix1"
         in="fbSourceGraphic" />
      <feFlood
         id="feFlood4617"
         flood-opacity="1"
         flood-color="rgb(13,153,7)"
         result="flood1" />
      <feComposite
         in2="colormatrix1"
         id="feComposite4619"
         operator="in"
         result="composite1" />
      <feFlood
         id="feFlood4621"
         flood-opacity="0.764706"
         flood-color="rgb(0,191,0)"
         result="flood2" />
      <feComposite
         in2="colormatrix1"
         id="feComposite4623"
         result="composite2"
         operator="out" />
      <feComposite
         k4="0"
         k1="0"
         in2="composite1"
         id="feComposite4625"
         in="composite2"
         k2="1"
         k3="1"
         operator="arithmetic"
         result="composite3" />
      <feColorMatrix
         id="feColorMatrix4627"
         in="composite3"
         type="matrix"
         values="2 -1 0 0 0 0 2 -1 0 0 -1 0 2 0 0 0 0 0 1 0 "
         result="colormatrix2" />
      <feComposite
         k4="0"
         k3="0"
         k1="0"
         in2="composite3"
         id="feComposite4629"
         in="colormatrix2"
         operator="arithmetic"
         k2="0.1"
         result="composite4" />
      <feBlend
         in2="composite3"
         id="feBlend4631"
         in="composite4"
         mode="normal"
         result="blend" />
      <feComposite
         in2="fbSourceGraphic"
         id="feComposite4633"
         operator="in"
         result="fbSourceGraphic" />
      <feColorMatrix
         result="fbSourceGraphicAlpha"
         in="fbSourceGraphic"
         values="0 0 0 -1 0 0 0 0 -1 0 0 0 0 -1 0 0 0 0 1 0"
         id="feColorMatrix4789" />
      <feColorMatrix
         id="feColorMatrix4791"
         type="luminanceToAlpha"
         result="colormatrix1"
         in="fbSourceGraphic" />
      <feFlood
         id="feFlood4793"
         flood-opacity="1"
         flood-color="rgb(13,92,10)"
         result="flood1" />
      <feComposite
         in2="colormatrix1"
         id="feComposite4795"
         operator="in"
         result="composite1" />
      <feFlood
         id="feFlood4797"
         flood-opacity="0.819608"
         flood-color="rgb(0,184,0)"
         result="flood2" />
      <feComposite
         in2="colormatrix1"
         id="feComposite4799"
         result="composite2"
         operator="out" />
      <feComposite
         k4="0"
         k1="0"
         in2="composite1"
         id="feComposite4801"
         in="composite2"
         k2="1"
         k3="1"
         operator="arithmetic"
         result="composite3" />
      <feColorMatrix
         id="feColorMatrix4803"
         in="composite3"
         type="matrix"
         values="2 -1 0 0 0 0 2 -1 0 0 -1 0 2 0 0 0 0 0 1 0 "
         result="colormatrix2" />
      <feComposite
         k4="0"
         k3="0"
         k1="0"
         in2="composite3"
         id="feComposite4805"
         in="colormatrix2"
         operator="arithmetic"
         k2="0.1"
         result="composite4" />
      <feBlend
         in2="composite3"
         id="feBlend4807"
         in="composite4"
         mode="normal"
         result="blend" />
      <feComposite
         in2="fbSourceGraphic"
         id="feComposite4809"
         operator="in"
         result="fbSourceGraphic" />
      <feColorMatrix
         result="fbSourceGraphicAlpha"
         in="fbSourceGraphic"
         values="0 0 0 -1 0 0 0 0 -1 0 0 0 0 -1 0 0 0 0 1 0"
         id="feColorMatrix5089" />
      <feColorMatrix
         id="feColorMatrix5091"
         values="1 0 0 0 0 0 1 0 0 0 0 0 1 0 0 0 0 0 1 1 "
         in="fbSourceGraphic" />
      <feColorMatrix
         id="feColorMatrix5093"
         type="hueRotate"
         values="0"
         result="colormatrix2" />
      <feColorMatrix
         id="feColorMatrix5095"
         in="colormatrix2"
         values="-1 0 0 0 1 0 -1 0 0 1 0 0 -1 0 1 0 0 0 1 0 "
         result="colormatrix3" />
      <feBlend
         in2="colormatrix2"
         id="feBlend5097"
         in="colormatrix3"
         mode="darken"
         result="blend1" />
      <feBlend
         in2="blend1"
         id="feBlend5099"
         mode="screen"
         result="blend2" />
      <feComposite
         in2="fbSourceGraphic"
         id="feComposite5101"
         operator="in"
         result="fbSourceGraphic" />
      <feColorMatrix
         result="fbSourceGraphicAlpha"
         in="fbSourceGraphic"
         values="0 0 0 -1 0 0 0 0 -1 0 0 0 0 -1 0 0 0 0 1 0"
         id="feColorMatrix5379" />
      <feColorMatrix
         id="feColorMatrix5381"
         type="luminanceToAlpha"
         result="colormatrix1"
         in="fbSourceGraphic" />
      <feFlood
         id="feFlood5383"
         flood-opacity="1"
         flood-color="rgb(0,76,10)"
         result="flood1" />
      <feComposite
         in2="colormatrix1"
         id="feComposite5385"
         operator="out"
         result="composite1" />
      <feFlood
         id="feFlood5387"
         flood-opacity="1"
         flood-color="rgb(0,181,0)"
         result="flood2" />
      <feComposite
         in2="colormatrix1"
         id="feComposite5389"
         result="composite2"
         operator="in" />
      <feComposite
         k4="0"
         k1="0"
         in2="composite1"
         id="feComposite5391"
         in="composite2"
         k2="1"
         k3="1"
         operator="arithmetic"
         result="composite3" />
      <feColorMatrix
         id="feColorMatrix5393"
         in="composite3"
         type="matrix"
         values="2 -1 0 0 0 0 2 -1 0 0 -1 0 2 0 0 0 0 0 1 0 "
         result="colormatrix2" />
      <feComposite
         k4="0"
         k3="0"
         k1="0"
         in2="composite3"
         id="feComposite5395"
         in="colormatrix2"
         operator="arithmetic"
         k2="0.2"
         result="composite4" />
      <feBlend
         in2="composite3"
         id="feBlend5397"
         in="composite4"
         mode="normal"
         result="blend" />
      <feComposite
         in2="fbSourceGraphic"
         id="feComposite5399"
         operator="in" />
    </filter>
  </defs>
  <sodipodi:namedview
     id="base"
     pagecolor="#ffffff"
     bordercolor="#666666"
     borderopacity="1.0"
     inkscape:pageopacity="0.0"
     inkscape:pageshadow="2"
     inkscape:zoom="0.35"
     inkscape:cx="820"
     inkscape:cy="542.85714"
     inkscape:document-units="mm"
     inkscape:current-layer="layer1"
     showgrid="false"
     inkscape:window-width="1366"
     inkscape:window-height="706"
     inkscape:window-x="0"
     inkscape:window-y="32"
     inkscape:window-maximized="1" />
  <metadata
     id="metadata1819">
    <rdf:RDF>
      <cc:Work
         rdf:about="">
        <dc:format>image/svg+xml</dc:format>
        <dc:type
           rdf:resource="http://purl.org/dc/dcmitype/StillImage" />
        <dc:title></dc:title>
      </cc:Work>
    </rdf:RDF>
  </metadata>
  <g
     inkscape:label="Layer 1"
     inkscape:groupmode="layer"
     id="layer1"
     transform="translate(0,-227)">
    <path
       id="path5528"
       transform="matrix(0.36276857,0.0782083,-0.07579381,0.37432499,12.447539,179.28539)"
       style="fill:#0e930e;fill-opacity:1;stroke-width:0.26458332;filter:url(#filter4611)"
       d="m 147.53593,157.85021 c -7.99486,13.89359 -27.68161,24.1113 -41.59459,24.13372 -9.284054,-9.25417 -10.262698,-37.63356 1.44736,-49.05792 10.94471,-10.67769 40.11172,-23.56843 40.11172,-23.56843 5.61321,9.68627 8.09747,34.4824 0.0355,48.49263 z M 45.378531,179.19412 c 12.888856,9.53032 35.019769,11.011 47.77786,5.46099 4.802179,-12.19723 -5.663737,-38.59443 -20.968358,-44.37457 -14.304342,-5.40236 -46.192704,-5.53671 -46.192704,-5.53671 -1.265406,11.12343 6.386159,34.83995 19.383211,44.45028 z"
       inkscape:connector-curvature="0" />
    <path
       style="fill:#502d16;fill-opacity:1;stroke-width:0.09960465"
       d="m 34.48552,259.62203 c -3.20197,0.003 -5.88331,5.07924 -7.273701,5.07929 -0.57071,-5e-5 -4.49291,0 -4.49291,0 l -0.49027,-5e-5 v 0.0246 c -3.04729,0.26297 -5.39133,2.89089 -5.39303,6.04625 0.002,3.15495 2.3461,5.7823 5.39303,6.04522 v 0.0256 h 0.49027 24.023501 v -0.0317 c 3.04727,-0.26266 5.3913,-2.88786 5.39302,-6.03989 -0.002,-3.15167 -2.34611,-5.77627 -5.39302,-6.03893 v -0.0312 c 0,0 -4.41247,-4e-5 -4.98127,0 -1.88258,-4e-5 -4.07294,-5.07747 -7.27562,-5.07928 z"
       id="path5448"
       inkscape:connector-curvature="0"
       sodipodi:nodetypes="cccccccccccccccc" />
    <path
       style="fill:#008000;fill-opacity:1;stroke:#008000;stroke-width:0.72092235;stroke-miterlimit:4;stroke-dasharray:none;stroke-opacity:1"
       d="m 19.850099,241.30142 c -0.12509,-2.2e-4 -0.25041,0.0488 -0.34684,0.1476 -0.19279,0.1975 -0.19423,0.51588 -0.004,0.71419 L 31.0893,254.15249 c 0.0836,0.0869 0.18993,0.13341 0.29914,0.14428 0.0426,0.0125 0.0866,0.0212 0.1331,0.0212 h 2.4734 v 9.10609 c 0,0.28027 0.21868,0.50589 0.49029,0.50589 0.27162,0 0.49027,-0.22562 0.49027,-0.50589 v -9.10608 h 2.42666 c 0.0152,5.3e-4 0.0301,-8e-5 0.0453,-5.2e-4 0.02,-5.3e-4 0.0397,-0.003 0.0591,-0.005 0.003,-5.2e-4 0.007,-5.2e-4 0.0103,-0.002 0.12051,-0.0224 0.22389,-0.0917 0.29607,-0.18734 l 11.54318,-11.94111 c 0.19059,-0.19829 0.18915,-0.5167 -0.004,-0.71419 -0.19284,-0.19737 -0.50141,-0.19691 -0.69212,5.8e-4 L 37.21667,253.30669 H 31.6566 L 20.195329,241.45056 c -0.0954,-0.099 -0.22021,-0.14859 -0.3453,-0.14879 z"
       id="path5545"
       inkscape:connector-curvature="0" />
    <flowRoot
       xml:space="preserve"
       id="flowRoot5604"
       style="font-style:normal;font-weight:normal;font-size:40px;line-height:1.25;font-family:sans-serif;letter-spacing:0px;word-spacing:0px;fill:#000000;fill-opacity:1;stroke:none"
       transform="matrix(0.43044375,0,0,0.49881533,-98.143395,175.13556)"><flowRegion
         id="flowRegion5606"><rect
           id="rect5608"
           width="705.36078"
           height="127.94133"
           x="373.72336"
           y="125.37569" /></flowRegion><flowPara
         id="flowPara5610"
         style="font-style:normal;font-variant:normal;font-weight:normal;font-stretch:normal;font-size:106.66667175px;font-family:'Lobster 1.4';-inkscape-font-specification:'Lobster 1.4, ';fill:#ff0000">Quadro Vivo</flowPara></flowRoot>    <path
       style="fill:#ff0000;fill-opacity:1;fill-rule:nonzero;stroke:none;stroke-width:0.39985377;stroke-miterlimit:4;stroke-dasharray:none;stroke-opacity:1"
       d="m 1.5139612,256.85657 v 33.25781 h 6.0737403 0.17874 v -0.005 c 1.6481581,-0.0978 2.9474975,-1.54156 2.9474975,-3.32022 v -26.60605 c 0,-1.77865 -1.2993394,-3.222 -2.9474975,-3.31992 v -0.005 h -0.17874 z"
       id="rect1447"
       inkscape:connector-curvature="0" />
    <path
       style="fill:#d38d5f;fill-opacity:1;fill-rule:nonzero;stroke:none;stroke-width:0.34575695;stroke-miterlimit:4;stroke-dasharray:none;stroke-opacity:1"
       d="m 18.636479,257.3713 c -2.3918,0.042 -5.12496,1.10735 -8.06071,4.05358 0.0784,5.87587 0.0556,17.90013 0,24.16438 7.31838,4.96121 14.53675,0.43417 17.03675,0.42318 0.12837,-5.3e-4 0.21215,-0.0299 0.42054,-0.004 2.277021,0.27962 13.349321,-0.059 13.349321,-0.059 0.0759,0 0.15072,-0.004 0.2248,-0.012 0.73264,0.14059 1.54808,-0.15196 2.43831,-1.21195 l 15.79558,-18.8084 c 1.23768,-1.47371 1.70875,-3.45879 0.56128,-5.01323 -1.14744,-1.55444 -3.46622,-2.07206 -4.70389,-0.59833 l -13.38405,15.93658 c -0.19689,0.23443 -0.56141,0.34976 -0.93203,0.37877 -2.07388,0.16236 -12.49719,0.14614 -13.240801,2.6e-4 -1.86011,-0.36482 -3.17007,-4.61043 -0.0394,-6.03627 0.812241,-0.36994 13.916701,0 13.916701,0 1.75538,0 3.16855,-1.78176 3.16855,-3.37072 0,-1.589 -1.41317,-3.37076 -3.16855,-3.37076 0,0 -10.40355,-0.49511 -10.54781,-0.58792 -6.449621,-4.14889 -9.786661,-5.69754 -11.283091,-5.7674 -0.49926,-0.0833 -1.01653,-0.12636 -1.55146,-0.11697 z"
       id="rect1476"
       inkscape:connector-curvature="0"
       sodipodi:nodetypes="cccsssccccssssssacscsc" />
  </g>
</svg>
