<?xml version="1.0" encoding="UTF-8" standalone="no"?>
<!-- Created with Inkscape (http://www.inkscape.org/) -->

<svg
   xmlns:dc="http://purl.org/dc/elements/1.1/"
   xmlns:cc="http://creativecommons.org/ns#"
   xmlns:rdf="http://www.w3.org/1999/02/22-rdf-syntax-ns#"
   xmlns:svg="http://www.w3.org/2000/svg"
   xmlns="http://www.w3.org/2000/svg"
   xmlns:xlink="http://www.w3.org/1999/xlink"
   xmlns:sodipodi="http://sodipodi.sourceforge.net/DTD/sodipodi-0.dtd"
   xmlns:inkscape="http://www.inkscape.org/namespaces/inkscape"
   width="350"
   height="450"
   id="svg3725"
   version="1.1"
   inkscape:version="0.48.5 r10040"
   sodipodi:docname="qv.svg">
  <defs
     id="defs3727">
    <linearGradient
       inkscape:collect="always"
       xlink:href="#linearGradient3883-7"
       id="linearGradient3889-1"
       x1="137.41217"
       y1="54.176723"
       x2="124.9396"
       y2="67.076935"
       gradientUnits="userSpaceOnUse"
       gradientTransform="translate(-46.184175,54.166625)" />
    <linearGradient
       inkscape:collect="always"
       id="linearGradient3883-7">
      <stop
         style="stop-color:#15f21b;stop-opacity:1;"
         offset="0"
         id="stop3885-4" />
      <stop
         style="stop-color:#00aa00;stop-opacity:1"
         offset="1"
         id="stop3887-0" />
    </linearGradient>
  </defs>
  <sodipodi:namedview
     id="base"
     pagecolor="#ffffff"
     bordercolor="#666666"
     borderopacity="1.0"
     inkscape:pageopacity="0.0"
     inkscape:pageshadow="2"
     inkscape:zoom="0.98994949"
     inkscape:cx="-3.0022346"
     inkscape:cy="242.67201"
     inkscape:document-units="px"
     inkscape:current-layer="layer1"
     showgrid="false"
     inkscape:window-width="1366"
     inkscape:window-height="745"
     inkscape:window-x="-8"
     inkscape:window-y="-8"
     inkscape:window-maximized="1" />
  <metadata
     id="metadata3730">
    <rdf:RDF>
      <cc:Work
         rdf:about="">
        <dc:format>image/svg+xml</dc:format>
        <dc:type
           rdf:resource="http://purl.org/dc/dcmitype/StillImage" />
        <dc:title />
      </cc:Work>
    </rdf:RDF>
  </metadata>
  <g
     inkscape:label="Layer 1"
     inkscape:groupmode="layer"
     id="layer1"
     transform="translate(0,-602.36217)">
    <rect
       style="fill:#c87137;fill-opacity:1;fill-rule:nonzero;stroke:none"
       id="rect815"
       width="340.17856"
       height="428.57141"
       x="4.6424756"
       y="617.22858"
       ry="18.703606" />
    <text
       xml:space="preserve"
       style="font-size:44.74040604px;font-style:normal;font-weight:normal;line-height:1.25;letter-spacing:0px;word-spacing:0px;fill:#803300;fill-opacity:1;stroke:none;font-family:sans-serif"
       x="60.000042"
       y="668.508"
       id="text842"><tspan
         sodipodi:role="line"
         id="tspan840"
         x="60.000042"
         y="668.508"
         style="font-style:normal;font-variant:normal;font-weight:normal;font-stretch:normal;fill:#803300;font-family:'Lobster 1.4';-inkscape-font-specification:'Lobster 1.4, '">Quadro Vivo</tspan></text>
    <path
       inkscape:connector-curvature="0"
       style="fill:#a05a2c;fill-opacity:1;fill-rule:nonzero;stroke:none"
       d="M 48.122823,690.23306 H 301.34069 c 10.3618,0 18.70359,8.34183 18.70359,18.70362 v 65.71782 c 0,10.3618 -8.34179,18.7036 -18.70359,18.7036 H 48.122823 c -10.36179,0 -18.70359,-8.3418 -18.70359,-18.7036 v -65.71782 c 0,-10.36179 8.34179,-18.70362 18.70359,-18.70362 z"
       id="rect817-0-0" />
    <path
       inkscape:connector-curvature="0"
       style="fill:#fff6d5;fill-opacity:1;fill-rule:nonzero;stroke:none"
       d="M 67.588863,690.32546 H 281.87461 c 3.52435,0 6.36162,2.83727 6.36162,6.36158 0,3.52434 -2.83727,6.36162 -6.36162,6.36162 H 67.588863 c -3.52432,0 -6.36158,-2.83728 -6.36158,-6.36162 0,-3.52431 2.83726,-6.36158 6.36158,-6.36158 z"
       id="rect844-2-1" />
    <path
       inkscape:connector-curvature="0"
       style="fill:#a05a2c;fill-opacity:1;fill-rule:nonzero;stroke:none"
       d="M 48.122818,922.53463 H 301.34069 c 10.3618,0 18.70359,8.34183 18.70359,18.70363 v 65.71784 c 0,10.3618 -8.34179,18.7036 -18.70359,18.7036 H 48.122818 c -10.36179,0 -18.70359,-8.3418 -18.70359,-18.7036 v -65.71784 c 0,-10.3618 8.34179,-18.70363 18.70359,-18.70363 z"
       id="rect817-0-0-5" />
    <path
       inkscape:connector-curvature="0"
       style="fill:#fff6d5;fill-opacity:1;fill-rule:nonzero;stroke:none"
       d="M 67.588858,922.62704 H 281.87461 c 3.52435,0 6.36162,2.83727 6.36162,6.36155 0,3.52435 -2.83727,6.36165 -6.36162,6.36165 H 67.588858 c -3.52431,0 -6.36158,-2.8373 -6.36158,-6.36165 0,-3.52428 2.83727,-6.36155 6.36158,-6.36155 z"
       id="rect844-2-1-5" />
    <path
       inkscape:connector-curvature="0"
       style="fill:#a05a2c;fill-opacity:1;fill-rule:nonzero;stroke:none"
       d="M 48.122823,805.86094 H 301.34069 c 10.3618,0 18.70359,8.34183 18.70359,18.70363 v 65.71782 c 0,10.3618 -8.34179,18.70359 -18.70359,18.70359 H 48.122823 c -10.36179,0 -18.70359,-8.34179 -18.70359,-18.70359 v -65.71782 c 0,-10.3618 8.34179,-18.70363 18.70359,-18.70363 z"
       id="rect817-0-0-2" />
    <path
       inkscape:connector-curvature="0"
       style="fill:#fff6d5;fill-opacity:1;fill-rule:nonzero;stroke:none"
       d="M 67.588863,805.95335 H 281.87461 c 3.52435,0 6.36162,2.83727 6.36162,6.36158 0,3.52435 -2.83727,6.36162 -6.36162,6.36162 H 67.588863 c -3.52431,0 -6.36158,-2.83727 -6.36158,-6.36162 0,-3.52431 2.83727,-6.36158 6.36158,-6.36158 z"
       id="rect844-2-1-7" />
    <text
       xml:space="preserve"
       style="font-size:40px;font-style:normal;font-weight:normal;line-height:125%;letter-spacing:0px;word-spacing:0px;fill:#000000;fill-opacity:1;stroke:none;font-family:Sans"
       x="325.26913"
       y="199.79343"
       id="text4262"
       sodipodi:linespacing="125%"><tspan
         sodipodi:role="line"
         id="tspan4264"
         x="325.26913"
         y="199.79343" /></text>
    <text
       xml:space="preserve"
       style="font-size:57.57476425px;font-style:normal;font-weight:normal;line-height:125%;letter-spacing:0px;word-spacing:0px;fill:#ffffff;fill-opacity:1;stroke:none;font-family:Sans"
       x="93.797943"
       y="817.18091"
       id="text4237-8-5"
       sodipodi:linespacing="125%"
       transform="scale(1.0796803,0.92620009)"><tspan
         sodipodi:role="line"
         id="tspan4239-8-5"
         x="93.797943"
         y="817.18091"
         style="font-size:40px;font-family:'Lobster 1.4';-inkscape-font-specification:'Lobster 1.4'">1            2</tspan></text>
    <text
       xml:space="preserve"
       style="font-size:40px;font-style:normal;font-weight:normal;line-height:125%;letter-spacing:0px;word-spacing:0px;fill:#000000;fill-opacity:1;stroke:none;font-family:Sans"
       x="308.09653"
       y="187.6716"
       id="text4296"
       sodipodi:linespacing="125%"><tspan
         sodipodi:role="line"
         id="tspan4298"
         x="308.09653"
         y="187.6716" /></text>
    <text
       xml:space="preserve"
       style="font-size:57.57476425px;font-style:normal;font-weight:normal;line-height:125%;letter-spacing:0px;word-spacing:0px;fill:#ffffff;fill-opacity:1;stroke:none;font-family:Sans"
       x="89.472008"
       y="942.66193"
       id="text4237-8-5-1"
       sodipodi:linespacing="125%"
       transform="scale(1.0796803,0.92620009)"><tspan
         sodipodi:role="line"
         id="tspan4239-8-5-7"
         x="89.472008"
         y="942.66193"
         style="font-size:40px;font-family:'Lobster 1.4';-inkscape-font-specification:'Lobster 1.4'">3            4</tspan><tspan
         sodipodi:role="line"
         x="89.472008"
         y="992.66193"
         style="font-size:40px;font-family:'Lobster 1.4';-inkscape-font-specification:'Lobster 1.4'"
         id="tspan4437" /></text>
    <text
       xml:space="preserve"
       style="font-size:57.57476425px;font-style:normal;font-weight:normal;line-height:125%;letter-spacing:0px;word-spacing:0px;fill:#ffffff;fill-opacity:1;stroke:none;font-family:Sans"
       x="89.370758"
       y="1068.0857"
       id="text4237-8-5-4"
       sodipodi:linespacing="125%"
       transform="scale(1.0796803,0.92620009)"><tspan
         sodipodi:role="line"
         id="tspan4239-8-5-0"
         x="89.370758"
         y="1068.0857"
         style="font-size:40px;font-family:'Lobster 1.4';-inkscape-font-specification:'Lobster 1.4'">5            6</tspan></text>
  </g>
</svg>
